<svg xmlns="http://www.w3.org/2000/svg" width="222.8" height="323.6" viewBox="0 0 167.1 242.7" xml:space="preserve"><g style="fill-rule:nonzero;clip-rule:nonzero;stroke:#000;stroke-miterlimit:4"><path style="fill:#fff;stroke-width:.5" d="M167 236c0 3-3 6-7 6H7c-4 0-7-3-7-6V7c0-4 3-7 7-7h153c4 0 7 3 7 7v229z"/></g><text xml:space="preserve" style="font-size:29.22270203px;font-style:normal;font-weight:400;line-height:125%;letter-spacing:0;word-spacing:0;fill:#000;fill-opacity:1;stroke:none;font-family:Bitstream Vera Sans" x="1.2" y="27"><tspan x="1.2" y="27" style="font-style:normal;font-variant:normal;font-weight:400;font-stretch:normal;font-family:Arial;-inkscape-font-specification:Arial">K</tspan></text><path d="M8 3C8-1 0-9 0-10 0-9-8-1-8 3c0 3 2 4 3 4 2 0 4-3 4-3 1 1-1 7-2 7h6c-1 0-3-6-2-7 0 0 2 3 4 3 1 0 3-1 3-4z" style="fill:#000" transform="matrix(2.26533 0 0 2.07121 43 48)"/><path d="M8 3C8-1 0-9 0-10 0-9-8-1-8 3c0 3 2 4 3 4 2 0 4-3 4-3 1 1-1 7-2 7h6c-1 0-3-6-2-7 0 0 2 3 4 3 1 0 3-1 3-4z" style="fill:#000" transform="matrix(1.13877 0 0 1.0412 11 40)"/><path style="fill:#e2d200;fill-opacity:1" d="m109 1240 32-51c43-69 50-78 54-84 2-3 2-5 2-12l-1-16c0-6-1-6-3-6-4 0-4-2-1-7 5-7 6-11 6-17 0-4-1-6-5-13-7-9-9-15-13-28a111 111 0 0 1 1-55c0-5-2-12-5-14l-25-14-39-21-20-12c-4-2-6-3-7-2l-1 119v118l-2 3-35 32-26-23-11-11v-97c1-178 0-306-1-307l-5-1H0V569l1-153a241 241 0 0 1 26-20 578 578 0 0 1 173-90l-2-8c-4-12-2-20 5-27 7-8 17-10 26-6 4 2 9 8 11 12l1 2c2-1 8-10 12-18l6-10a425 425 0 0 0 32-95l1-9-4-8a1789 1789 0 0 0-50-90 1914 1914 0 0 0-27-48l223-1c204 0 222 0 222 2l-8 12a3325 3325 0 0 0-53 84 20638 20638 0 0 0-17 27l-6 10-1 16v17h2c4-1 5 1 1 7-5 7-5 8-5 16 1 4 1 7 3 9a103 103 0 0 1 17 73c-3 14-3 18 0 24 2 4 3 5 24 15a798 798 0 0 1 69 37l1-120V111l9-9c15-15 25-23 26-23l12 9a2099 2099 0 0 0 18 17l8 7v188c0 189 0 214 2 216l6 2h4v152c0 143 0 151-2 153a680 680 0 0 1-187 100l-9 4c-1 1-1 4 1 8 5 20-7 38-24 37-7-1-13-4-17-9l-4-4a330 330 0 0 0-45 108c-6 26-6 25-2 33a377 377 0 0 0 19 35 1405 1405 0 0 0 35 60 8805 8805 0 0 0 25 45l1 2H334c-215 0-226 0-225-2zm-47-102 14-14 1-200V727c-3-2-30-3-30-1l2 13c4 27 3 51-2 85-6 36-5 55 2 84 10 37 10 41 9 58a316 316 0 0 1-7 45l-2 15v67c-1 5-3 7-5 5a295 295 0 0 1 5-113c4-25 3-35-5-69-11-42-11-47-3-106 2-21 2-27 0-55-1-12-5-26-8-30-2-3-13-5-15-3l-1 279 1 123 4 5c8 8 23 21 25 21 1 0 8-5 15-12zm286-29c19-2 22-2 22-4l3-15a541 541 0 0 1 21-102c-4 7-8 4-5-3a463 463 0 0 1 22-43c3 0 2 3-2 12-5 11-6 15-3 9l8-11 5-9c0-3-4-7-7-7s-7 3-8 6l-13 27c-4 9-5 12-7 11-3-1-2-5 5-20a352 352 0 0 0 11-21c4-7 7-9 13-9 3 0 4 1 8 5l4 4 1-3c0-6-6-12-13-12-9 0-15 6-26 30-6 14-8 16-9 16-2 0-3-1-3-2 0-2 11-26 17-35 4-7 7-10 13-12 9-4 19-1 24 9 2 3 3 5 5 5 1 0 2 0 2-2 0-6-6-14-14-19-7-3-14-3-20 0-8 4-10 7-20 27l-11 20c-2 0-3-1-3-2l9-20c11-21 13-28 11-36-4-17-22-27-37-21-5 2-15 12-15 14l-12 24c-2 1-4 0-4-2l7-15c6-13 6-13 6-21 0-7 0-8-3-12s-9-11-13-13c-8-4-21-1-30 6-5 4-6 5-12 17l-8 17c-1 5-2 6-12 8-24 7-40 27-47 56a315 315 0 0 0-3 78l8-2c7-2 11-2 24 0 4 0 4 0 3-1l-9-7c-9-4-10-6-9-7 1-2 4-1 11 3l8 3-1-11c-4-19-4-17 1-22l9-7 9-7 4-3c2 1 2 4-1 8l-2 3c0 2 5 1 10-1 6-3 10-3 16-3 4 0 11 7 12 12 2 7-2 14-10 17-4 2-4 2-6 1-2-2-1-4 4-7 7-5 8-11 2-14-3-1-6 0-13 5-9 5-19 4-19-3 0-2 0-2-4 0-9 4-10 7-5 24l5 25 3 14-1 10c-1 6-2 12-1 15l-1 5-6-1c-5-1-5-1-12 1-9 2-19 3-25 0l-6-1-1 6c0 5 0 6 2 7l12 3a599 599 0 0 0 132 5zm-34-16-18-3-15-1c-8 1-9 0-8-5l1-9c0-9 4-10 6-2v4h7l18 2c19 3 23 3 31 2 9-1 17-3 24-7 3-2 7-2 8 0 0 3-5 8-13 12-14 7-25 9-41 7zm-15-20c-5-3-6-3-11-3s-6-1-6-3l3-5 4-4-2-4-2-3 3-6c4-7 11-15 23-21 5-3 8-3 8-1l-7 7-7 5 7-1c8 0 15 1 29 7l13 4c3-1 4-1 6 1l5 2c5 0 4 3-4 9-10 9-17 13-25 16-7 3-10 3-20 4h-11l-6-4zm24-2a62 62 0 0 0 29-14c1-2-1-2-5 0-11 6-21 8-38 8l-10 1c0 1 1 3 4 4 4 2 11 3 20 1zm-22-21v-5c-2 0-5 4-5 5 1 3 5 2 5 0zm27 1-2-3c-1-4-6-7-9-7-5 0-11 5-11 9 0 1 1 1 3-2 3-7 11-6 15 0 2 4 4 5 4 3zm11-1 2-2-3-1c-4-2-6-2-5 1l1 3c0 2 2 1 5-1zm-123-60c-5-3-7-6-7-13-1-7 1-11 7-14 5-3 10-3 23 2l15 4c3 0 4 0 5 3s0 7-3 9-3 2-8 1c-3 0-9-3-13-6-9-5-14-6-18-3-4 4-2 10 5 13 3 1 4 3 1 5-2 1-3 1-7-1zm97-1c-5-4-3-8 4-6 5 2 8 0 10-5 2-3 2-3 1-6-2-4-4-5-9-6-4 0-9 2-17 7-6 4-17 9-21 9s-9-2-10-4c-2-4 0-9 5-9 4 0 17-4 20-6 2-1 2-1 0-2-3-1-8-1-14 1s-8 2-14 1h-19l-9-2h-5l-1-6c-2-8-1-8 7-7 5 2 6 2 13 0h18c13 2 15 1 23-1 9-3 10-2 6 8l-2 6 6-2c14-5 24-2 29 10 2 3 2 5 1 9-3 11-15 17-22 11zm49-37c-2-1-1-4 6-18 11-23 11-29 3-36-5-4-9-6-15-4-5 1-9 6-16 20-5 11-7 14-10 13l-1-3c0-3 11-23 15-28 9-11 25-11 34-1 4 5 4 8 4 17-1 8-3 15-11 30l-7 11-2-1zm-116-6c-2 0-1-3 2-5 4-4 15-6 21-6 7 1 17 7 15 10l-8-1c-10-3-14-2-22 0l-8 2zm108-1c-2-1-1-4 5-16 7-16 8-17 5-20-2-2-5-2-8 1l-7 11-5 11c-1 2-4 2-5 0s0-4 5-15c5-10 7-13 10-15 5-3 10-2 14 2 3 3 3 4 3 8 0 5-1 8-6 20-5 10-7 14-9 14l-2-1zm-43-31c0-3 0-5 5-14 4-9 4-11 4-16 0-14-13-21-25-13-4 2-8 8-13 21-3 8-4 10-6 10-4 0-4-4 2-16 6-14 11-21 19-23 10-4 21 0 27 9 2 3 2 4 2 12-1 7-1 10-4 18l-6 11c-1 2-5 3-5 1zm-9-5 2-7 4-11c2-7 2-10-2-11-6-1-8 2-13 13-2 6-5 11-6 11-2 1-4 0-4-2 0-5 9-22 13-26 3-3 4-3 8-3 6 1 9 4 11 9 1 4 1 7-4 18s-7 13-9 9zm80 196c3-1 3 0 6-27a409 409 0 0 1 42-132c1-2-6 3-10 9-6 6-16 26-19 37a952 952 0 0 1-4 15l-11 41a1342 1342 0 0 1-3 17c-3 10-6 32-6 37 0 4 1 5 5 3zm16-3 1-8a465 465 0 0 1 51-158c6-9 5-10-2-4-12 10-22 31-36 73a424 424 0 0 0-20 98c1 1 5 0 6-1zm13-1a477 477 0 0 1 26-106c11-29 24-56 35-69 4-6 5-8 2-8-4 0-10 5-16 14a482 482 0 0 0-53 169h6zm14-3 4-19c2-12 9-43 16-62a291 291 0 0 1 52-104c0-4-10 3-19 13a418 418 0 0 0-58 173l5-1zm14-2 3-6a692 692 0 0 1 24-93l17-40a123 123 0 0 1 37-46c-1-2-6-1-12 2-6 4-14 11-21 23a397 397 0 0 0-52 161l4-1zm15-3 3-12a261 261 0 0 1 8-35c5-23 19-59 29-79 15-28 32-45 46-48 5 0 5-2 1-4-9-3-19 0-30 11-16 17-32 48-47 96-7 21-17 63-17 71h7zm18-15a398 398 0 0 1 58-139c5-5 15-7 21-4 5 3 7 13 3 17-3 3-5 1-5-4 1-8-7-11-14-5-4 5-4 10-1 15 7 10 22 9 29-2 4-5 4-16 1-21-4-7-13-12-21-11-6 1-14 6-19 11-5 4-21 28-25 35a561 561 0 0 0-37 119c0 2 1 2 4 2l3-1 3-11zm-235-1 10-2v-5l-1-5-3 3-11 6c-6 3-8 3-13 3l-10-3c-5-3-7-3-5 1s13 4 33 2zm-5-8c5-2 13-9 12-10l-6 2c-8 4-15 5-24 4l-8 1 5 3c4 3 5 3 11 3l10-3zm-23-21-1-2-3 6h3l1-4zm21-3c-1-2-6-5-7-4l2 2c2 0 3 2 4 4l2 2-1-4zm12 4c3-2 2-5-2-5-4-1-5-1-4 3 1 3 3 4 6 2zm-26-4 2-2-4 4v1l2-3zm-18-17-3-8c-6-13-8-29-8-47l-1-14c-1 0-2 2-3 14v21c3 12 5 21 7 24l4 7c3 5 4 6 4 3zm-1-51-3-4c-2 0 0 28 3 32l1-11c1-13 1-14-1-17zm4-9-5-12c-7-14-9-22-9-31 0-11 3-16 10-19 5-2 6-5 4-6-3-1-13 5-15 8-8 10-6 24 6 48 7 14 9 16 9 12zm3-16-3-11-4-13c0-6 0-6 4-10 5-5 5-7 1-7-8 0-12 10-9 23l10 21 1-3zm6-15c3-4 2-8 0-12-2-3-2-3-5-2-2 1-3 6 0 12 1 6 3 6 5 2zm9-15-3-11c-6-17-6-25-2-33 2-4 5-6 10-8h8c7 3 10 7 13 17 4 11 5 12 7 12 3 0 0-11-6-23-5-10-9-13-18-13-5 0-8 1-14 5-6 5-8 10-8 21 1 12 8 34 11 34l2-1zm6-8-2-10c-3-13-3-15 0-18 6-6 12-2 15 9 2 7 3 9 5 7 2-1-1-11-5-19-2-6-7-8-12-7-11 3-12 15-4 36 1 3 2 4 3 2zm10-8c0-2-4-15-6-16-2 0-2 3-1 11 2 6 3 7 4 7l3-2zm353-2 4-2-6-5c-5-6-6-8-2-8l5-2c4-5 2-11-4-15-4-2-25-9-26-8l-1 4-2 9c-1 7 1 16 5 19 4 2 10 2 13-1 3-4 4-3 6 5l2 6 6-2zm-423-2c8-1 16-5 21-8 2-3 3-4 3-8s0-4-4-6l-4-3c0-1 2-4 5-6l5-4-4-3c-4-4-6-4-6 0a1285 1285 0 0 0-4 10h-2c-3-5-5-6-10-6-4 0-6 1-7 3-2 3-3 5-3 18 0 16-1 15 10 13zm464-8c3-1 3-1 1-4l-6-8a500 500 0 0 1-87-292l2-11 8-48c1-2-1-4-3-4-3 1-8 21-12 45a397 397 0 0 0 93 324l4-2zm5-21c2-1 6-7 6-10 2-6-3-15-11-20-5-3-22-10-25-10-4 0-2 3 5 6 11 5 16 10 16 18l-3 7c-2 3-2 5 3 9 2 2 5 2 9 0zm-80-17 4-3c1 0-1-3-4-5-6-8-6-8 2-9 3-1 6-6 5-9-2-4-12-11-19-15l-10-3c-1 1-5 13-6 20 0 6 1 11 5 13 3 3 8 2 10 0l3-2c1 0 3 6 3 10s2 5 7 3zm94-11 2-8-13 3 8 12 3-7zm-440 3c14-6 21-14 16-20l-5-2c-4 0-3-3 2-9l6-6-10-5-3 8c0 4-2 7-3 8l-3-2c-3-3-8-4-10-1-2 1-4 7-4 11l3 20c0 2 1 1 11-2zm437-16c3-2 5-4 7-8 6-14-2-25-20-28h-23c0 1 2 2 10 3 7 0 14 4 17 8 2 3 2 4 2 9-1 5-1 6-4 9-6 5-10 5-26 1-6-1-2 2 7 5 10 4 23 4 30 1zm-47-9a123 123 0 0 0-37-125c-10-9-13-11-13-7s2 8 10 16c27 27 38 61 34 99-1 11-1 12 1 16 2 5 4 5 5 1zm-68-19 4-3-4-5c-4-5-4-7 0-8 3 0 8-5 8-8 0-2-5-9-8-12l-9-6-7-4c-3 0-10 16-11 22-1 12 6 19 14 13 4-4 5-3 6 5 1 9 1 9 7 6zm126-11-1-8c-2 0-12 6-12 7s1 2 3 2l5 4 3 3 2-8zm-415-5c9-5 17-12 18-16s-2-7-7-8l-4-1c-1-1 0-4 4-9l3-4-11-4-1 7c0 8-3 12-5 6-2-3-7-4-9-1-4 4-4 8-1 22l4 12 9-4zm397-2c7-2 10-4 14-9 2-3 2-4 2-10-1-7-3-10-9-14-3-2-4-2-14-2-10 1-24 4-24 6h10c11 0 15 1 18 6 3 4 3 10 1 15-3 4-11 8-19 8-10 1-8 2 4 2 9 0 12 0 17-2zm-26-37c12-4 20-9 26-17 5-7 3-16-4-22-3-3-4-3-12-3s-9 0-16 4c-7 3-17 11-14 11l5-2c6-3 14-5 18-4 5 1 10 7 10 12 0 8-3 13-14 18-4 1-7 3-7 4l8-1zm37-3-4-12-9 10 2 1 5 1c5 2 6 2 6 0zm-140-2 4-1c2-1 2-2-2-8l-2-8 3-1c4 0 8-3 9-6 1-4-4-13-9-17l-7-6c-5-4-7-4-9-1l-5 9c-5 8-6 12-5 17 2 7 7 10 13 6 5-2 6-1 4 8v8h6zm-245-18c12-8 15-12 15-19 0-5-3-8-7-8l-4-1 3-7c3-4 4-7 3-8l-12-3 1 5c1 6 0 13-2 14l-3-1c-2-3-7-2-10 0-2 3-3 8-1 15l9 18 8-5zm330-14c18-10 26-27 18-38-3-4-9-7-13-7s-14 4-19 8l-14 15c0 2 2 1 6-3l8-5c4-2 13-2 16-1 6 4 8 12 4 19-2 4-4 6-13 13-4 4 0 4 7-1zm-363-15 8-42c2-16 2-18 2-54 0-41 0-48-7-81a445 445 0 0 0-89-185l-5 2c-4 2-4 2-3 4a849 849 0 0 1 21 31 444 444 0 0 1 63 332l7 3 3-10zm399 3-4-7c-4-7-6-9-6-5l-3 7-2 6h8l7-1zM74 690c10-4 13-6 16-11l3-4v-17l-2-22a842 842 0 0 1-2-12c-1-7-8-23-13-27-3-4-8-5-19-5-8 0-11 1-15 3l-6 3 3 4 5 6c0 3 4 7 6 7l4-2c3-4 5-2 5 5s1 11 5 16c3 4 4 7 2 9l-3 8c-1 7 0 10 6 12l5 3c0 2-2 3-6 3l-12 5c-6 4-6 4-14 4-10 0-18 2-14 4l5 1c4 0 7 1 10 5 4 4 20 5 31 2zm-42-2h-2l2 1v-1zm533-4 11-16c2-5 2-7 2-13s0-8-2-11c-3-4-8-6-14-6-8 0-19 6-19 11 0 3 2 3 6 2 7-2 12 0 17 5 3 4 3 4 3 10-1 6-3 11-9 19-2 3 1 3 5-1zm-545-5c4-4 9-6 16-8 7-1 12-4 12-5h-4c-5 0-9-1-10-4-2-4-4-4-10-2-15 4-20 12-14 20 3 3 6 3 10-1zm481 0c3 0 4-1 1-4l-4-13h12c2-1 2-2 2-6 0-6-4-14-12-22-4-4-5-5-7-4-3 3-13 16-15 21v8c1 4 2 5 6 5 2 0 5 0 6-2 3-1 3-1 4 1l-1 9c-1 4-2 7-1 8l3 1 6-2zm95-17 3-1c0-2-12-11-13-11-2 1-3 13-2 14l5-1 7-1zm-317-6c9-8 11-13 11-20 0-4-1-5-4-5l-6 1c-4 2-4 0-3-7l2-8-5-1h-5l2 5c2 10 1 14-3 10-4-3-11-1-11 4 0 4 3 11 8 18l5 9c0 2 1 1 9-6zm-232 3c3-2 2-5-1-5s-7 2-7 3c0 3 5 4 8 2zm-23-6 11-4c2-1 2-2 2-4l-1-7v-4h-5c-6 1-20 6-23 9l-3 6c-3 9 4 11 19 4zm28-9c5-4-1-10-7-8-4 1-5 3-3 6s7 4 10 2zm669 0 4-3-3-7c-4-9-7-10-12-5l-4 2-1-8c0-10-1-14-5-17l-3-4 3-8c3-5 3-7 2-10 0-3-1-4-4-5-5-3-5-5-1-6l13-8c3-3 3-3 12-3l12-1c6-3 6-4 0-3-7 0-12-2-14-8-2-5-3-6-11-6-5 0-17 3-21 6-13 8-15 13-13 29 2 21 11 53 16 59 3 2 7 5 11 6h19zm-173-8 7-3c2-1 3-1 2-2-1-2-13-7-14-6v12c1 1 0 1 5-1zm207-2 2-5c0-4-1-4-11-1-4 1-7 2-7 4-2 3-1 5 4 5 5 1 9 0 12-3zm-22 0v-2c-1-2-5-3-6-1l3 4 3-1zm-714-3 9-3 5-2v-4l-2-5c-2-2-11-1-17 2-5 2-6 3-6 6-1 4 1 8 5 8l6-2zm29-7c0-3-3-5-7-4s-1 6 4 6c3 0 3 0 3-2zm702-4c9-4 11-6 11-11s-3-6-9-3a154 154 0 0 1-18 7v9c1 2 9 0 16-2zm-25 0c2 0 2-4 1-6l-5-1c-2 0-3 1-3 3 0 4 3 6 7 4zm-225-3-2-7c0-7 1-8 5-5 6 3 12-3 10-11-1-7-10-24-13-24l-14 10c-3 4-7 12-7 16s5 10 8 9c6-2 7-2 7 0l-2 7-2 5c0 1 3 2 7 2 3 0 3 0 3-2zm-276-6v-11c-1-1-12 4-12 6-1 1 9 7 11 7l1-2zm-199-2c2-1 3-5 1-8-3-5-16 0-16 6l2 3 6 1 7-2zm13 0c-1-3-4-4-5-2-1 1 1 4 4 4l1-2zm686-6c2-2 2-3 1-4-1-2-3-2-7-2-5 0-6 0-6 3 0 6 8 8 12 3zm23-1c15-6 22-16 15-21l-3-2-14 7-14 7 1 6 1 6c1 1 7 0 14-3zm-463-12c5-9 6-11 6-15 0-5-1-6-5-7-2-1-3 0-5 1-5 3-5 3-4-5v-8c0-1-1-2-4-2-5 0-6 1-4 8 2 5 3 10 1 10l-2-2-6-1c-5 2-6 6-3 12 2 4 17 21 18 21l8-12zm-70 7c6-3 10-7 10-11s0-4-6-1c-8 4-17 0-20-9-2-5 1-13 6-20 5-5 5-7 3-7-1 0-11 12-15 19l-5 8c-2 8 1 17 7 21 5 3 14 3 20 0zm513-11c0-2-1-4-3-5-4-1-7 1-7 3 0 3 1 4 6 4l4-2zm-546-4 1-7 1-4-5 1-8 2c-2 0-3 0-2 1l12 11 1-4zm566-3c9-5 14-9 15-13 1-6-5-13-10-12l-6 5c-4 5-5 6-21 12l-5 2 5 3c5 1 6 2 8 4 2 4 4 4 14-1zm-569-13c10-4 29-22 24-22l-7 5c-12 9-20 10-27 5-8-8-5-18 11-30 3-2 3-3 2-3-1-1-5 1-13 7-9 6-11 8-14 14-3 5-3 6-3 11 1 12 15 19 27 13zm330-20c0-8 1-11 4-8h9c3-2 4-6 4-13-1-5-8-22-10-22s-16 10-19 13c-9 10-6 21 5 19 4 0 4 1 0 10l-3 6 10 3v-8zm232 4c2-3 1-3-7-4-6 0-7 0-8 2 0 2 1 3 6 4 4 1 7 0 9-2zm-592-8 3-6h-14l8 12 3-6zm71 5v-6c-1-4-2-6-8-12-16-17-27-37-32-59-2-8-2-12-2-25l1-20c1-4 1-5-2-11l-5-6c-3 0-6 19-6 38 0 15 2 25 6 38 7 23 19 41 36 56 9 8 11 9 12 7zm58-18c5-9 5-11 5-17l-1-8h-10c-2 2-4 2-4 1v-15c1-2-3-2-9-1l-2 1 3 6 3 8c0 2 0 2-4 2s-8 3-8 8c0 3 3 10 7 14l14 11 6-10zm-120-2c6-2 20-11 19-12l-7 2c-15 8-30 3-30-9 0-8 7-14 20-19l6-3c0-3-18 3-27 8-5 4-11 11-12 17 0 3 3 12 6 15 5 4 16 5 25 1zm591-10 1-330-1-73-7-7-14-13-7-6-3 1c-5 3-27 24-27 27a23249 23249 0 0 0 1 396l8 1a177 177 0 0 1 18 2c3-1 3-7 2-16a5857 5857 0 0 1-3-15c-2-14 0-54 5-87a183 183 0 0 0-6-73l-4-18v-22c0-22 0-23 3-37 4-20 5-34 5-74l1-36c0-3 3-3 3 0l1 11 1 27c1 30-1 53-5 76l-3 27c0 19 1 26 6 42 6 21 6 28 6 55l-1 33c-5 21-5 66-1 84 3 14 5 20 7 22 2 3 13 5 14 3zm-616-25-6-2-7-3c-2-1-1 4 3 15 0 1 2 0 5-4l5-6zm395-9 1-8 4 1c7 5 14 1 14-8l-2-11-2-9c0-4-1-6-2-6-2 0-17 8-22 12-4 4-6 8-6 11s5 7 7 7h4c2 1 0 6-5 10l-3 5 11 4 1-8zm-377 0c11-2 12-3 12-4l-12-1c-14 1-18-1-21-8-2-4-2-5-1-8 1-2 2-5 4-6 4-3 13-6 19-6 7 0 9-1 6-3l-14-1c-10 1-12 1-17 4l-10 7c-3 3-3 4-3 10 1 8 3 12 7 14 8 4 15 4 30 2zm111-14 3-16v-9l-3-3c-4-4-9-4-11 0-2 5-5 3-6-7l-2-7-9 5 2 2 5 6c3 5 3 7-2 6-2 0-3 0-5 2v7l4 7c3 4 18 14 20 14l4-7zm-144-21 5-2c2-1 3-4 1-4l-5-3-5-3-1 7c0 8 1 8 5 5zm41-8-7-2c-10-2-14-3-17-6-10-8-7-20 6-24h12c8 2 11 2 11 1 0-2-3-3-14-5s-12-2-19-1l-10 4c-6 4-8 15-4 22s13 10 29 11a534 534 0 0 1 13 0zm398-18 3-8 3 2c3 4 8 5 11 2 6-5 7-12 4-27-1-6-2-8-3-8l-10 3c-17 6-24 14-18 21 1 2 3 2 5 2 6 1 5 4-1 9l-5 6c0 1 6 5 8 5l3-7zm-318-12c4-20 1-31-7-28l-3 3-3 3c-1 0-4-6-4-10l-1-3-10 5 5 5c6 5 6 7 1 7s-8 2-8 6c0 3 1 5 5 8 4 4 20 13 23 13l2-9zm-77-11-9-5c-7-5-10-11-10-17 0-3 1-5 4-11 2-2-2-6-5-6-7 0-13 7-13 15 0 5 5 12 12 17 4 3 19 9 22 9 2 0 2 0-1-2zm-34-2 5-2-9-10c-1 0-5 11-5 14l9-2zm345-16c7-3 12-8 18-20a218 218 0 0 0 12-25c2-2 8-5 11-5s13-5 19-11c18-14 27-32 29-58 2-14 2-63 1-64s-4 0-9 1c-7 2-11 2-23 0h-3l3 3 9 6c6 4 7 5 6 7-1 1-5 0-13-5l-7-2 1 8 3 15v7l-5 5-8 5-7 6c-4 4-5 5-6 4-2-1-1-2 3-9 3-4 0-4-10-1-9 2-11 2-14 1-9-2-14-11-11-19 2-7 10-13 14-10 1 2 1 3-3 5-6 4-8 11-4 15 3 3 7 2 16-3 9-4 10-4 13-3s4 3 4 5l1 3 3-2c4-2 7-5 8-7 1-3 1-2-4-27-6-28-6-27-5-41l1-17c1-4 2-4 8-2h9a49 49 0 0 1 32 2c1 0 2-7 1-9s-2-3-17-5a608 608 0 0 0-145-3l-3 1-5 23a810 810 0 0 1-20 89c3 1 3 4-2 16a2963 2963 0 0 0-5 14l-10 20c-3 0-3-3-1-10l3-7-11 14 4 8c6 4 10-2 19-23 8-19 9-21 12-20 2 1 1 5-6 21-10 23-14 29-22 29-3 0-4 0-8-4l-5-5c-2 0-2 2 1 7 5 8 13 10 20 5a555 555 0 0 0 20-37c3-7 5-9 7-7 2 1 1 4-4 16-11 25-15 31-21 34s-13 4-17 2c-3-2-9-8-11-13-2-3-5-4-5-2l8 15c7 6 17 8 24 4 7-3 11-9 19-25l10-19c2-4 5-5 6-2l-6 15c-12 24-14 29-14 36 0 11 7 21 19 27 10 4 21 2 27-5l10-17 8-15c2 0 4 2 4 4l-5 10c-6 13-8 20-7 27 4 18 20 28 36 24zm-14-5c-9-3-15-10-16-20 0-7 0-9 5-23 4-10 5-11 7-11 3 0 3 3 0 11-8 18-8 25-2 32 5 5 9 7 16 5 7-3 11-8 21-31 2-5 5-7 7-3 0 3-9 23-15 31s-16 11-23 9zm-3-15c-3-3-3-3-3-9 1-6 7-22 9-25 2-2 5-1 5 2l-3 9c-6 14-6 18-1 20 5 1 9-3 14-18 3-7 4-8 6-7 3 1 2 4-4 16-6 14-8 16-15 16-4 0-5-1-8-4zm-53-12c-6-1-13-8-15-14-4-8-2-16 7-37 8-16 9-18 11-17 3 1 2 4-4 18-8 15-11 25-10 30 1 8 8 14 17 14 8 1 11-3 19-18l7-14c2-2 4 0 4 3s-7 16-13 25-13 12-23 10zm0-14c-3-2-6-7-6-11l5-14c7-17 9-20 11-20 4 0 3 3-2 15-8 16-8 18-7 22 2 3 6 4 9 1l7-14c4-9 5-11 7-11s3 1 3 3c0 3-10 24-14 27-4 4-9 5-13 2zm87-37c-6-3-8-5-6-7l5 1c6 3 19 3 25 0 5-2 8-3 8-1s-3 4-8 7c-8 4-17 4-24 0zm-27-7v-3l4-12h5c4 1 6 1 11-1 9-2 15-3 18 0 2 1 2 1 6-1 6-2 7-2 13 0 3 1 6 2 8 1 4 0 4 0 6 10 0 6 1 6-7 3l-10-1-32 1c-10 0-11 0-16 2-4 2-5 3-6 1zm-17-15c-13-3-17-18-7-27 4-4 10-6 15-3 3 1 4 2 5 4 1 3-1 5-5 3-3-1-6-1-10 1s-4 5-3 10c2 6 9 7 19 2 17-10 23-12 28-12 6 0 9 2 9 6 0 5-2 7-5 7-6 0-15 3-25 7-9 4-14 5-21 2zm88-3-11-4-6-1c-4 0-8-4-8-9 0-3 0-3 4-5 4-1 7-1 17 5s15 7 20 5c6-3 4-11-3-13-6-3-5-7 3-5 2 0 4 2 6 4 7 8 3 21-8 24-5 1-4 1-14-1zm-87-56c-2-1-1-3 5-7l14-11-5 2c-8 2-20 0-35-6-6-3-9-3-12-3-6 0-12-2-13-4-1-3 2-6 10-12 13-10 23-15 36-17 9-2 19 1 25 6 4 3 5 3 8 3 4-1 5 1 2 6-4 4-4 4-1 8 2 2 2 3 1 8-2 4-3 6-10 12l-15 12c-7 4-9 5-10 3zm10-24c3-2 5-7 5-9 0-1-2 0-3 3-1 2-3 5-6 6-3 2-3 2-1 2l5-2zm-20-2c-1-5-3-6-7-4-3 1-2 2 1 4 5 3 7 3 6 0zm9 1-2-3c-2-1-3-1-1 2 1 2 3 3 3 1zm26-4-3-4c-1 0-3 5-2 6 0 1 3 0 5-2zm-43-12a57 57 0 0 1 38-4c3 1 3-2-1-5s-17-4-23-2l-26 13a1759 1759 0 0 1 13-3zm61-13-2-5h-8l-21-2c-14-2-24-3-33-1l-18 6c-2 2-6 1-6 0 0-2 7-9 13-12a78 78 0 0 1 51-5c11 3 18 3 27 1h3l-1 4v11c0 6-1 8-2 8s-2-1-3-5zm103 206c3-8 4-9 6-5 2 3 4 4 8 4 8 0 12-10 11-27v-8h-7c-15 2-22 4-27 9-5 6-3 10 4 13l4 3-8 7-3 3 9 7 3-6zm-44 2c8-4 14-14 13-23-2-15-7-34-10-34-2 0-2 1 0 9 7 25 6 36-5 42-12 6-21-1-26-18-1-7-2-9-4-9s-2 0-1 4c1 7 7 22 10 25l6 5c4 1 12 1 17-1zm-337-10c3-11 3-19 1-23-3-6-11-7-13-1-2 4-4 2-7-5l-3-6-5 3-4 2 3 3c10 7 11 10 5 10-3 0-6 3-5 6 0 4 5 8 16 13l10 5 2-7zm332-1c5-2 7-7 7-13 0-7-5-25-7-25s-1 3 1 14c3 11 3 14 0 17-5 5-12 1-15-9-2-9-3-10-4-9-2 1 1 12 4 18 2 5 6 9 8 9l6-2zm-3-15c1-2-2-16-4-17-1-2-4 0-4 3l4 15c2 1 3 1 4-1zm34-11c4-2 9-8 10-12 2-6 1-19-2-26l-14-30c-2 0 0 8 4 18 6 14 8 21 8 29s-4 15-11 18l-4 3c0 3 4 3 9 0zm-4-11c7-6 6-18-3-36-4-9-4-1 0 10 3 6 3 9 3 14-1 6-1 7-4 10-5 6-2 8 4 2zm-315 2c22-7 51-63 72-138 3-8 8-36 9-43 1-4-1-5-5-4-2 1-3 2-4 9-5 31-14 63-28 97-15 39-36 70-50 76-4 2-4 3 1 4l5-1zm25-4c5-5 9-9 16-19a315 315 0 0 0 37-82l4-13a487 487 0 0 0 13-67c0-2-2-3-5-2-2 1-3 2-4 9-5 41-24 97-43 137-8 15-20 32-25 35-4 3-4 5 0 5l7-3zm-33-5c6-4 12-9 18-18a487 487 0 0 0 56-150l1-6h-4l-4 2-3 12a449 449 0 0 1-52 137c-4 6-15 17-18 19l-17 5-2 1c0 2 4 3 11 3 7-1 9-1 14-5zm49 1c18-9 44-65 59-127 3-14 9-53 8-54h-6l-3 15c-3 21-10 51-15 68a315 315 0 0 1-47 100l4-2zm268-4c1-2 1-8-1-14-2-4-4-4-6 0-2 3-1 8 1 13s3 5 6 1zm-331-4c5-2 12-9 19-17 20-27 45-90 53-136 3-12 3-11-2-11l-4 2-3 10c-7 45-30 101-50 129-9 12-15 16-22 15-9-2-15-11-11-19 3-5 10-6 10-1l-2 3c-3 2-2 7 1 9 7 3 14-4 12-12-4-12-18-14-26-5-10 11-5 30 10 34 3 1 11 0 15-1zm90-8c10-11 20-29 32-63a659 659 0 0 0 21-101c0-2 0-2-3-2h-3l-2 9a425 425 0 0 1-49 155c-8 12-7 12 4 2zm22-17c15-17 25-42 36-90a856 856 0 0 0 12-59v-3h-4c-5 0-5 0-6 4l-2 16a508 508 0 0 1-36 132zm239-10c2-7 1-17-3-41 0-3-9-21-11-23-2-3-1 3 3 12 5 15 7 24 7 39l1 15c1 3 2 2 3-2zm-9-16c0-6-2-21-4-24-1-3-1-3-2-1-2 3-1 21 1 25 3 7 5 8 5 0zm-23-66 3-6c0-3 0-3-1-2l-1 3c0 3-6 7-8 6-3 0-8-5-8-7l-1-1-1 1 1 2 1 2c0 3 4 5 8 5 3 0 5-1 7-3zm-20-1c0-3-3-5-5-4-3 2-3 3-1 4 3 3 6 2 6 0zm31-5c0-2 0-4-2-3v6l2-3zm-29-14c7-2 12-2 26-1 5 1 3-2-3-5-8-3-14-3-22 1-5 3-13 9-9 8l8-3zm-2-10c7-3 17-3 25 0 8 2 8 2 8 0s-3-4-11-6h-13c-6 2-11 2-15 2-6-1-5-2-6 7-1 6 0 6 4 3l8-6zm235 352c0-2 0-3 1-2v4c-1 1-1 0-1-2zm0-9 1-2v2h-1zm0-13c0-1 0-2 1-1v2c-1 1-1 0-1-1z" transform="translate(22 23) scale(.15858)"/><path style="fill:#1156a1;fill-opacity:1" d="m109 1240 32-51c43-69 50-78 54-84 2-3 2-5 2-12l-1-16c0-6-1-6-3-6-4 0-4-2-1-7 5-7 6-11 6-17 0-4-1-6-5-13-7-9-9-15-13-28a111 111 0 0 1 1-55c0-5-2-12-5-14l-25-14-39-21-20-12c-4-2-6-3-7-2l-1 119v118l-2 3-35 32-26-23-11-11v-97c1-178 0-306-1-307l-5-1c-4 0-4-1-4-4 0-4-1-4 17-2a1333 1333 0 0 0 56 6c9 0 25-1 31-4 10-3 17-12 18-23 1-5 1-6-2-10-5-8-13-10-21-5-6 3-6 5-6 14v7h-7a412 412 0 0 1-78-4H0V485l3 2a281 281 0 0 1 81 105c6 16 12 35 14 46l3 9c2 2 5 3 5 1 1-1-5-26-9-38-8-24-23-53-37-73a319 319 0 0 0-58-57c-1-1-2-2-2-5v-3l6 4a273 273 0 0 1 103 163c3 14 3 14 6 15 4 2 5 1 5-3 0-3 0-4 2-5h10l1 5c0 5 2 8 5 6l1-7c0-12-1-14-12-12h-9l-3-12c-3-12-3-13 5-13 5 0 5 0 6 3 2 4 3 5 5 4 3-1 3-3 1-10-2-8-3-9-7-8-14 4-14 4-15 3-2-2-9-21-8-23 0-1 7-4 10-4 1 0 3 1 4 4s2 4 4 4c4 0 5-2 1-10-3-9-4-9-14-5-9 4-10 4-13-2l-5-10-3-6c0-2 10-8 12-8l3 4c3 4 5 5 7 2 1-1 0-3-3-8l-5-8-15 7-4 2-12-19c0-2 8-8 10-8l3 2c3 3 6 4 7 1s-7-13-10-13l-9 6-8 6-3-3-8-10-6-7 4-4c5-5 7-6 11-3s6 3 7 1c0-2-10-14-12-14l-8 7-9 7-16-16 4-7 5-4 4 2c5 2 7 2 7-1 0-2-5-7-9-9s-5-1-13 6c-4 5-8 7-8 6a1998 1998 0 0 0-12-10v-3l5 3 8 4c1 0 4-2 7-6 7-8 9-8 16-2l9 8 3 3-2 4c-4 5-6 5-10 2-3-2-5-2-7 2-1 2-1 2 3 7 7 6 7 6 15-1l8-7c2 0 18 17 18 19s-7 8-9 8l-4-3c-3-3-3-3-6-2-4 1-4 4 2 10 5 7 7 7 14 2 8-7 9-7 10-7 2 1 14 18 14 20s-7 7-9 7l-3-3c-3-4-4-4-7-1v4c2 5 7 10 9 10l8-4 7-4c2 0 6 5 11 14s5 10-2 13c-5 2-5 2-8-3-2-4-4-5-8-2l-2 2 2 4c3 6 7 11 9 11l8-4 9-3 10 23c1 2-2 5-7 6-4 0-4 0-6-3-1-5-3-6-7-4-2 1-2 2-2 4l3 8c2 6 4 6 13 3 7-3 10-3 11 0 2 3 6 21 5 23l-5 3c-6 1-8 1-8-3 0-3-2-6-4-6l-4 1c-1 2 2 15 4 16h19c1 1 4 17 4 23v5h-4l-4 2c1 2 13 8 15 8s2 1 2-13A309 309 0 0 0 2 424c-2 0-2-1-2-4l1-4a241 241 0 0 1 26-20 578 578 0 0 1 173-90l-2-8c-4-12-2-20 5-27 7-8 17-10 26-6 4 2 9 8 11 12l1 2c2-1 8-10 12-18l6-10a425 425 0 0 0 32-95l1-9-4-8a1789 1789 0 0 0-50-90 1914 1914 0 0 0-27-48l7-1h7l9 17 11 22 3 4 5-1c9-1 15 4 17 12 1 5 1 6 7 6 10 2 15 10 12 19-2 4-7 9-10 9l-4 1c-1 1 0 2 6 5 8 3 16 2 22-3 3-3 3-3 6-2 11 4 17 4 24 1 3-2 8-7 7-8l-5 1c-5 3-9 2-13 0-3-2-7-9-7-13s3-10 7-12c3-2 3-2 2-7-2-4-2-5 0-9 1-6 4-9 10-10 4-1 5-1 9 1s8 7 8 12c0 3 2 5 7 5 7 0 13 7 13 14s-5 13-11 15c-4 0-4 3-1 4 5 2 16 2 19 1l7-5c3-3 6-4 8-2l4 3c8 4 20 2 26-3 3-3 3-4-3-3-5 0-6 0-10-2-5-4-7-11-6-16 1-4 7-11 10-11s4-2 4-8c1-7 5-13 9-15 6-3 16 0 18 6l2 9v6l4 1c9 3 14 13 10 21-2 3-8 8-10 8l-3 1c-1 2 0 3 5 5 7 3 19-1 25-8l3-2 6 3c5 4 14 6 19 5l10-5-4-2c-5-1-9-4-11-8s-2-5-1-9c1-6 7-12 11-12 3 0 5-2 6-6 0-5 3-9 8-11 5-3 10-3 14 1 7 4 9 11 6 19l-1 5 3 3c9 9 5 23-7 26l-4 1 2 2c6 5 14 5 21 0 4-3 4-3 9 0 2 2 6 3 9 4h10c8-3 8-4 3-7-7-3-10-7-10-14 0-5 0-6 4-9 4-4 4-4 10-4 7-1 9-2 9-6 0-5 9-11 16-11h5l10-17 11-17h5c7 0 8-1-2 14a3325 3325 0 0 0-53 84 20638 20638 0 0 0-17 27l-6 10-1 16v17h2c4-1 5 1 1 7-5 7-5 8-5 16 1 4 1 7 3 9a103 103 0 0 1 17 73c-3 14-3 18 0 24 2 4 3 5 24 15a798 798 0 0 1 69 37l1-120V111l9-9c15-15 25-23 26-23l12 9a2099 2099 0 0 0 18 17l8 7v188c0 189 0 214 2 216l6 2c4 0 4 1 4 3v3h-11l-46-4c-23-2-33-2-40-1-13 3-21 9-26 18-1 2 1 12 3 16 2 3 8 6 12 7 5 0 12-3 15-7 2-3 2-4 1-13 0-2 0-2 2-2l8-2a751 751 0 0 1 82 4v211l-12-11c-7-5-16-15-22-21-13-15-24-31-22-31l4 2c13 5 30-6 29-18-2-9-5-15-10-18-5-4-6-4-12-4-8 0-13 2-17 8-3 3-3 5-3 9l-1 6a264 264 0 0 1-28-78c-2-8-4-11-8-11-3 0 0 19 7 40a270 270 0 0 0 94 135l1 4v4l-5-4-13-11a319 319 0 0 1-52-62c-19-31-32-68-38-104 0-5-2-7-7-9h-3v7c0 8 0 8-8 8-5 0-6-1-7-6 0-3-1-4-3-4s-2 1-2 7v9c1 3 1 3 7 3l10-2c6 0 5-2 8 14l2 9-2 2-7 2h-4l-2-4c-2-4-2-5-4-5l-3 2c0 3 2 13 4 15l2 2 8-3 10-1 8 24-11 4-4-6c-2-4-4-5-6-2-1 1-1 4 1 9l5 8c1 1 3 0 9-2 10-3 9-4 16 10 6 10 6 11-2 15-4 1-5 1-8-4-1-3-5-4-6-2s6 15 8 16c1 1 4 0 10-3l9-5 5 7 6 10c2 3 0 5-6 8l-4 2-2-2c-3-3-7-4-8-1 0 2 9 13 10 13l8-5 8-5 17 18c0 2-7 9-9 9l-5-3c-3-4-6-4-7 0 0 2 10 13 12 13l9-7 8-6 4 4 8 7 5 5-4 6-4 4-3-1c-4-2-7-2-8 0-2 2 1 6 7 9 4 3 7 2 13-5l6-7c2-1 4 0 8 3l5 3 1 3v4l-6-4-6-4-13 13c-2 4-5 3-14-5-6-4-8-7-8-8 0-2 2-4 5-7l4-4 3 1c5 3 9 2 6-3-1-2-8-7-10-7s-5 2-8 6l-8 6c-2 0-16-15-17-18-1-2-1-3 2-6 5-4 6-4 9 0 2 3 6 4 8 2s1-5-4-11l-6-5-3 2-7 5-6 3c-2 0-12-13-14-18-1-2-1-3 2-5 4-4 6-4 9 0 3 3 3 3 5 2 4-2 4-5 0-10-4-6-5-6-14 0-7 4-8 4-11 0l-11-20 11-6 3 5c3 4 5 5 7 2 2-1 2-3-2-10-3-7-6-7-16-3-4 1-7 2-8 1s-10-20-10-23c0-2 3-4 9-5 3 0 4 0 6 4 2 5 3 6 6 3l2-2-2-6c-3-9-4-10-14-7l-9 3c-1 0-3-4-6-16-3-10-3-11 4-12 5-1 6 0 7 4 2 5 4 6 8 3 2-1 2-2 1-8l-2-7h-14c-5 2-6 2-7 0-2-1-4-12-4-20v-6l5-1c6-1 8 0 8 5l1 4c2 2 6 1 6-1 2-3 1-11 0-12l-26-12c-3 0-3 6 0 25a317 317 0 0 0 100 193c20 18 45 35 48 33 2-1 1 8-1 10a680 680 0 0 1-187 100l-9 4c-1 1-1 4 1 8 5 20-7 38-24 37-7-1-13-4-17-9l-4-4a330 330 0 0 0-45 108c-6 26-6 25-2 33a377 377 0 0 0 19 35 1889 1889 0 0 0 55 96l6 11h-6l-6-1a963 963 0 0 0-26-47l-6-2c-9-1-14-7-14-15 0-3-2-5-5-5-4 1-9-1-13-4l-3-9c0-8 2-13 7-15l3-3c0-2-2-3-5-3-6-2-13 0-18 4l-4 2-6-2c-10-3-21-1-25 6-2 4-1 5 3 3 5-3 11-3 15 0 3 2 5 9 5 14-1 3-5 9-7 9-4 0-4 3-2 7 4 8 2 16-5 21-5 3-9 3-14 0-5-2-8-6-9-13 0-4 0-4-5-4-11-2-16-15-8-24l8-4c6 0 6-2 0-6-4-2-6-2-12-2s-8 0-14 4l-7 3-4-2-10-4c-5 0-6 0-12 3-8 4-12 11-5 8h7c4 0 6 1 8 3 7 11 5 19-7 24-3 1-4 2-4 4 1 4 0 11-1 14-5 9-18 10-25 2-3-3-3-4-3-11l1-7-3-1c-5-2-11-8-12-12-1-5 6-13 13-15l3-1c2-2-8-7-14-7-4 0-13 3-16 6l-4 2-6-3c-8-5-12-6-19-4l-8 3c-1 2-1 2 1 3 8 2 13 8 13 14 0 8-5 14-13 14-5 0-7 1-7 6s-2 9-6 12c-5 4-13 4-18 1-7-5-9-14-5-21l2-4-3-2c-5-4-7-11-5-17 3-4 6-6 13-6 5 0 6-1 3-3-5-5-16-6-22-3l-4 2-4-3c-5-3-6-4-13-4-9 0-9 0-12 3-3 2-3 3-2 4l4 1c2 0 4 1 7 4 4 3 4 4 4 9 0 6-2 11-6 14l-10 1h-7l-1 3c-1 8-6 13-16 13h-6l-4 7a5325 5325 0 0 0-13 21l-9 15h-6c-5 0-6 0-5-2zm234-55 2-4c0-2-5-6-7-6-3 0-6 3-6 6s3 6 6 6l5-2zm-96-5-1-4c-2-4-12-1-11 3l1 2c0 1 1 2 3 2 4 2 7 1 8-3zm185-2 4-4c1-3 1-3-1-5s-7-3-9-1c-3 3-3 6-1 8 3 3 4 3 7 2zm-265-5c2-2 2-5 1-5-2 0-5 5-5 6 1 1 2 1 4-1zm173-15c5-8 11-14 17-17 20-11 45-9 60 6l7 6 4-7c4-8 11-15 19-19 7-3 19-4 28-2l6 1c2-1-3-4-9-6-11-2-26 0-36 6-4 3-12 11-14 15-1 3-2 3-9-2-8-5-12-7-20-8-20-3-37 2-51 15l-8 6-8-5-9-7c-5-3-14-5-22-6-14-2-30 3-40 11l-6 4-8-7c-5-5-9-8-15-11-7-3-8-3-20-3l-14 1c-2 3-1 3 7 2 19-3 36 6 44 24l4 6 7-7c16-17 36-21 56-12 8 3 14 8 21 16 2 4 5 6 5 6l4-6zm-278-20 14-14 1-200V727c-3-2-30-3-30-1l2 13c4 27 3 51-2 85-6 36-5 55 2 84 10 37 10 41 9 58a316 316 0 0 1-7 45l-2 15v67c-1 5-3 7-5 5a295 295 0 0 1 5-113c4-25 3-35-5-69-11-42-11-47-3-106 2-21 2-27 0-55-1-12-5-26-8-30-2-3-13-5-15-3l-1 279 1 123 4 5c8 8 23 21 25 21 1 0 8-5 15-12zm286-29c19-2 22-2 22-4l3-15a541 541 0 0 1 21-102c-4 7-8 4-5-3a463 463 0 0 1 22-43c3 0 2 3-2 12-5 11-6 15-3 9l8-11 5-9c0-3-4-7-7-7s-7 3-8 6l-13 27c-4 9-5 12-7 11-3-1-2-5 5-20a352 352 0 0 0 11-21c4-7 7-9 13-9 3 0 4 1 8 5l4 4 1-3c0-6-6-12-13-12-9 0-15 6-26 30-6 14-8 16-9 16-2 0-3-1-3-2 0-2 11-26 17-35 4-7 7-10 13-12 9-4 19-1 24 9 2 3 3 5 5 5 1 0 2 0 2-2 0-6-6-14-14-19-7-3-14-3-20 0-8 4-10 7-20 27l-11 20c-2 0-3-1-3-2l9-20c11-21 13-28 11-36-4-17-22-27-37-21-5 2-15 12-15 14l-12 24c-2 1-4 0-4-2l7-15c6-13 6-13 6-21 0-7 0-8-3-12s-9-11-13-13c-8-4-21-1-30 6-5 4-6 5-12 17l-8 17c-1 5-2 6-12 8-24 7-40 27-47 56a315 315 0 0 0-3 78l8-2c7-2 11-2 24 0 4 0 4 0 3-1l-9-7c-9-4-10-6-9-7 1-2 4-1 11 3l8 3-1-11c-4-19-4-17 1-22l9-7 9-7 4-3c2 1 2 4-1 8l-2 3c0 2 5 1 10-1 6-3 10-3 16-3 4 0 11 7 12 12 2 7-2 14-10 17-4 2-4 2-6 1-2-2-1-4 4-7 7-5 8-11 2-14-3-1-6 0-13 5-9 5-19 4-19-3 0-2 0-2-4 0-9 4-10 7-5 24l5 25 3 14-1 10c-1 6-2 12-1 15l-1 5-6-1c-5-1-5-1-12 1-9 2-19 3-25 0l-6-1-1 6c0 5 0 6 2 7l12 3a599 599 0 0 0 132 5zm-34-16-18-3-15-1c-8 1-9 0-8-5l1-9c0-9 4-10 6-2v4h7l18 2c19 3 23 3 31 2 9-1 17-3 24-7 3-2 7-2 8 0 0 3-5 8-13 12-14 7-25 9-41 7zm-15-20c-5-3-6-3-11-3s-6-1-6-3l3-5 4-4-2-4-2-3 3-6c4-7 11-15 23-21 5-3 8-3 8-1l-7 7-7 5 7-1c8 0 15 1 29 7l13 4c3-1 4-1 6 1l5 2c5 0 4 3-4 9-10 9-17 13-25 16-7 3-10 3-20 4h-11zm24-2a62 62 0 0 0 29-14c1-2-1-2-5 0-11 6-21 8-38 8l-10 1c0 1 1 3 4 4 4 2 11 3 20 1zm-22-21v-5c-2 0-5 4-5 5 1 3 5 2 5 0zm27 1-2-3c-1-4-6-7-9-7-5 0-11 5-11 9 0 1 1 1 3-2 3-7 11-6 15 0 2 4 4 5 4 3zm11-1 2-2-3-1c-4-2-6-2-5 1l1 3c0 2 2 1 5-1zm-123-60c-5-3-7-6-7-13-1-7 1-11 7-14 5-3 10-3 23 2l15 4c3 0 4 0 5 3s0 7-3 9-3 2-8 1c-3 0-9-3-13-6-9-5-14-6-18-3-4 4-2 10 5 13 3 1 4 3 1 5-2 1-3 1-7-1zm97-1c-5-4-3-8 4-6 5 2 8 0 10-5 2-3 2-3 1-6-2-4-4-5-9-6-4 0-9 2-17 7-6 4-17 9-21 9s-9-2-10-4c-2-4 0-9 5-9 4 0 17-4 20-6 2-1 2-1 0-2-3-1-8-1-14 1s-8 2-14 1h-19l-9-2h-5l-1-6c-2-8-1-8 7-7 5 2 6 2 13 0h18c13 2 15 1 23-1 9-3 10-2 6 8l-2 6 6-2c14-5 24-2 29 10 2 3 2 5 1 9-3 11-15 17-22 11zm49-37c-2-1-1-4 6-18 11-23 11-29 3-36-5-4-9-6-15-4-5 1-9 6-16 20-5 11-7 14-10 13l-1-3c0-3 11-23 15-28 9-11 25-11 34-1 4 5 4 8 4 17-1 8-3 15-11 30l-7 11-2-1zm-116-6c-2 0-1-3 2-5 4-4 15-6 21-6 7 1 17 7 15 10l-8-1c-10-3-14-2-22 0l-8 2zm108-1c-2-1-1-4 5-16 7-16 8-17 5-20-2-2-5-2-8 1l-7 11-5 11c-1 2-4 2-5 0s0-4 5-15c5-10 7-13 10-15 5-3 10-2 14 2 3 3 3 4 3 8 0 5-1 8-6 20-5 10-7 14-9 14l-2-1zm-43-31c0-3 0-5 5-14 4-9 4-11 4-16 0-14-13-21-25-13-4 2-8 8-13 21-3 8-4 10-6 10-4 0-4-4 2-16 6-14 11-21 19-23 10-4 21 0 27 9 2 3 2 4 2 12-1 7-1 10-4 18l-6 11c-1 2-5 3-5 1zm-9-5 2-7 4-11c2-7 2-10-2-11-6-1-8 2-13 13-2 6-5 11-6 11-2 1-4 0-4-2 0-5 9-22 13-26 3-3 4-3 8-3 6 1 9 4 11 9 1 4 1 7-4 18s-7 13-9 9zm80 196c3-1 3 0 6-27a409 409 0 0 1 42-132c1-2-6 3-10 9-6 6-16 26-19 37a952 952 0 0 1-4 15l-11 41a1342 1342 0 0 1-3 17c-3 10-6 32-6 37 0 4 1 5 5 3zm16-3 1-8a465 465 0 0 1 51-158c6-9 5-10-2-4-12 10-22 31-36 73a424 424 0 0 0-20 98c1 1 5 0 6-1zm13-1a477 477 0 0 1 26-106c11-29 24-56 35-69 4-6 5-8 2-8-4 0-10 5-16 14a482 482 0 0 0-53 169h6zm14-3 4-19c2-12 9-43 16-62a291 291 0 0 1 52-104c0-4-10 3-19 13a418 418 0 0 0-58 173l5-1zm14-2 3-6a692 692 0 0 1 24-93l17-40a123 123 0 0 1 37-46c-1-2-6-1-12 2-6 4-14 11-21 23a397 397 0 0 0-52 161l4-1zm15-3 3-12a261 261 0 0 1 8-35c5-23 19-59 29-79 15-28 32-45 46-48 5 0 5-2 1-4-9-3-19 0-30 11-16 17-32 48-47 96-7 21-17 63-17 71h7zm18-15a398 398 0 0 1 58-139c5-5 15-7 21-4 5 3 7 13 3 17-3 3-5 1-5-4 1-8-7-11-14-5-4 5-4 10-1 15 7 10 22 9 29-2 4-5 4-16 1-21-4-7-13-12-21-11-6 1-14 6-19 11-5 4-21 28-25 35a561 561 0 0 0-37 119c0 2 1 2 4 2l3-1zm-235-1 10-2v-5l-1-5-3 3-11 6c-6 3-8 3-13 3l-10-3c-5-3-7-3-5 1s13 4 33 2zm-5-8c5-2 13-9 12-10l-6 2c-8 4-15 5-24 4l-8 1 5 3c4 3 5 3 11 3l10-3zm-23-21-1-2-3 6h3l1-4zm21-3c-1-2-6-5-7-4l2 2c2 0 3 2 4 4l2 2-1-4zm12 4c3-2 2-5-2-5-4-1-5-1-4 3 1 3 3 4 6 2zm-26-4 2-2-4 4v1l2-3zm-18-17-3-8c-6-13-8-29-8-47l-1-14c-1 0-2 2-3 14v21c3 12 5 21 7 24l4 7c3 5 4 6 4 3zm-1-51-3-4c-2 0 0 28 3 32l1-11c1-13 1-14-1-17zm4-9-5-12c-7-14-9-22-9-31 0-11 3-16 10-19 5-2 6-5 4-6-3-1-13 5-15 8-8 10-6 24 6 48 7 14 9 16 9 12zm3-16-3-11-4-13c0-6 0-6 4-10 5-5 5-7 1-7-8 0-12 10-9 23l10 21 1-3zm6-15c3-4 2-8 0-12-2-3-2-3-5-2-2 1-3 6 0 12 1 6 3 6 5 2zm9-15-3-11c-6-17-6-25-2-33 2-4 5-6 10-8h8c7 3 10 7 13 17 4 11 5 12 7 12 3 0 0-11-6-23-5-10-9-13-18-13-5 0-8 1-14 5-6 5-8 10-8 21 1 12 8 34 11 34l2-1zm343-2a449 449 0 0 1-94-231l-1-8-26-1h-26c-2 2-2 2-1 21a558 558 0 0 0 53 206l3 7h5c6 0 8-2 7-5l-9-23c-12-27-13-30-20-51a566 566 0 0 1-26-142l15-1c17 0 17 0 18 10a627 627 0 0 0 37 130c8 20 22 46 30 60 11 16 11 17 16 19 2 1 7 4 9 7l8 4 2-2zm-337-6-2-10c-3-13-3-15 0-18 6-6 12-2 15 9 2 7 3 9 5 7 2-1-1-11-5-19-2-6-7-8-12-7-11 3-12 15-4 36 1 3 2 4 3 2zm10-8c0-2-4-15-6-16-2 0-2 3-1 11 2 6 3 7 4 7l3-2zm202-2c4-3 7-11 7-16-1-4-3-5-6-2-5 5-14 3-20-5-3-4-4-9-11-31l-6-12c-3-2-4 0-3 4 3 11-1 21-10 26-4 2-4 2-3 5 2 4 7 5 13 5l5-1 1 4c2 7 3 10 7 15 4 6 6 7 11 9s11 2 15-1zm151 0 4-2-6-5c-5-6-6-8-2-8l5-2c4-5 2-11-4-15-4-2-25-9-26-8l-1 4-2 9c-1 7 1 16 5 19 4 2 10 2 13-1 3-4 4-3 6 5l2 6 6-2zm-423-2c8-1 16-5 21-8 2-3 3-4 3-8s0-4-4-6l-4-3c0-1 2-4 5-6l5-4-4-3c-4-4-6-4-6 0a1285 1285 0 0 0-4 10h-2c-3-5-5-6-10-6-4 0-6 1-7 3-2 3-3 5-3 18 0 16-1 15 10 13zm464-8c3-1 3-1 1-4l-6-8a500 500 0 0 1-87-292l2-10 8-49c1-2-1-4-3-4-3 1-8 21-12 45a397 397 0 0 0 93 324l4-2zm-503-8a419 419 0 0 0 92-144c0-3-3-6-7-6l-4 5a473 473 0 0 1-104 148c0 1 8 6 11 6l12-9zm-26-2 1-22-4 1-13 14 8 6c5 3 7 4 8 1zm17-15 9-8v-25c-1-2-3 0-11 9l-8 9-1 11v12c1 2 3 0 11-8zm517 4c2-1 6-7 6-10 2-6-3-15-11-20-5-3-22-10-25-10-4 0-2 3 5 6 11 5 16 10 16 18l-3 7c-2 3-2 5 3 9 2 2 5 2 9 0zM93 862c4-3 7-7 7-8l-8-1-9 1v5l2 10 8-7zm151-4a499 499 0 0 0 66-164c2-1 23-2 24 0l-5 29a577 577 0 0 1-41 131c1 2 12-2 14-5a515 515 0 0 0 46-165v-4h-46c-2 1-3 3-5 13a431 431 0 0 1-60 151l-6 11c-1 2 6 5 9 5l4-2zm310-2 4-3c1 0-1-3-4-5-6-8-6-8 2-9 3-1 6-6 5-9-2-4-12-11-19-15l-10-3c-1 1-5 13-6 20 0 6 1 11 5 13 3 3 8 2 10 0l3-2c1 0 3 6 3 10s2 5 7 3zm-211-1c8-3 15-14 13-17-1-1-2 0-7 2-4 3-6 3-9 2-2 0-5-1-7-3l-3-2-3 4c-1 4 0 10 3 13 2 2 9 3 13 1zm43-4c4-3 6-10 5-17v-6l5 1c10 1 17-5 16-14-1-8-9-12-19-10h-4v-4c2-9-4-18-11-17-11 0-16 8-14 19l1 4-6-1c-10-1-15 3-15 11 0 4 3 9 6 11l9 1h7l-1 3c-2 7 2 17 7 19 3 2 10 2 14 0zm-13-25-4-5c-1-4 1-10 3-11 4-3 9-2 12 0 8 9-3 24-11 16zm10-4c2-2 3-5 0-8-1-2-6-3-9-1-2 1-3 8-1 10s8 1 10-1zm265 23 2-8-13 3 8 12 3-7zm-440 3c14-6 21-14 16-20l-5-2c-4 0-3-3 2-9l6-6-10-5-3 8c0 4-2 7-3 8l-3-2c-3-3-8-4-10-1-2 1-4 7-4 11l3 20c0 2 1 1 11-2zm-67-5c7-9 11-15 11-17l-2-12c0-11-1-12-6-6l-8 11-5 7v11c0 16 1 17 10 6zm-26-3 8-11c0-1-2-2-11-2h-10l-8 9-8 10c1 2 5 3 13 3l7-1zm-23-7a358 358 0 0 0 74-118c0-2-4-4-6-4-1 0-5 6-9 15a403 403 0 0 1-65 99c-2 0-4 9-2 12 1 3 2 2 8-4zm553-1 7-7c6-15-2-26-20-29h-23c0 1 2 2 10 3 7 0 14 4 17 8 2 3 2 4 2 9-1 5-1 6-4 9-6 5-10 5-26 1-6-1-2 2 7 5 10 4 23 4 30 1zm-47-9a123 123 0 0 0-37-125c-10-9-13-11-13-7s2 8 10 16c27 27 38 61 34 99-1 11-1 12 1 16 2 5 4 5 5 1zm-466-5 9-11c5-8 5-11 0-10l-9 1h-7l-8 11c-7 9-8 11-7 12l10 1h9zm33-7 7-11-1-10c-1-13-2-16-4-16l-6 8c-9 15-8 14-8 25 1 12 2 15 3 15l9-11zm596 7-7-6a395 395 0 0 1-66-59l-7-9a342 342 0 0 1-58-116c-4-15-8-41-10-61 0-7 0-8-3-10s-4-1-3 10a338 338 0 0 0 91 208c12 12 38 33 52 42 5 3 10 4 11 1zm-231-14 4-3-4-5c-4-5-4-7 0-8 3 0 8-5 8-8 0-2-5-9-8-12l-9-6-7-4c-3 0-10 16-11 22-1 12 6 19 14 13 4-4 5-3 6 5 1 9 1 9 7 6zm126-11-1-8c-2 0-12 6-12 7s1 2 3 2l5 4 3 3 2-8zm-299 2-2-8c0-7 2-14 7-16 4-2 4-4 0-7-5-4-14-2-17 4-3 4-3 13 0 19 4 7 8 11 10 11s2 0 2-3zm46 0 6-8c3-7 4-16 1-21-3-7-11-9-18-5-4 3-4 5 1 8 7 3 8 10 4 25 0 3 0 3 2 3l4-2zm-252-5c3-2 12-17 12-20 0-2 0-2-8-2l-11 3c-3 1-13 19-13 21h10l10-2zm90-2c9-5 17-12 18-16s-2-7-7-8l-4-1c-1-1 0-4 4-9l3-4-11-4-1 7c0 8-3 12-5 6-2-3-7-4-9-1-4 4-4 8-1 22l4 12 9-4zm-56-10 6-11-1-7c-3-12-5-17-7-17l-6 11-6 11 2 11 2 13c2 3 4 0 10-11zm453 8c7-2 10-4 14-9 2-3 2-4 2-10-1-7-3-10-9-14-3-2-4-2-14-2-10 1-24 4-24 6h10c11 0 15 1 18 6 3 4 3 10 1 15-3 4-11 8-19 8-10 1-8 2 4 2 9 0 12 0 17-2zm-479-23 9-2c2-1 11-19 11-21s-1-2-8 0c-12 3-14 4-18 12s-5 12-3 12l9-1zm41-16 5-13c0-1-2-3-7-5l-8-3c-3 1-3 6-1 15l2 10 3 6c1 0 4-4 6-10zm412 2c12-4 20-9 26-17 5-7 3-16-4-22-3-3-4-3-12-3s-9 0-16 4c-7 3-17 11-14 11l5-2c6-3 14-5 18-4 5 1 10 7 10 12 0 8-3 13-14 18-4 1-7 3-7 4l8-1zm37-3-4-12-9 10 2 1 5 1c5 2 6 2 6 0zm-140-2 4-1c2-1 2-2-2-8l-2-8 3-1c4 0 8-3 9-6 1-4-4-13-9-17l-7-6c-5-4-7-4-9-1l-5 9c-5 8-6 12-5 18 2 6 7 9 13 5 5-2 6-1 4 8v8h6zm-335-10c6-2 8-3 10-6l1-4-13-7c-2 0-9 13-9 16 0 4 1 4 11 1zm218-2c5-2 9-7 10-13v-20c-1-16 0-21 3-25 3-2 3-2 2-4-2-2-8-1-12 3-3 3-4 4-5 10l-1 8c2 5 1 19 0 22-2 4-5 5-8 2-2-3-3-3-3-20-1-18-1-21-7-25-3-2-6-3-8-1s-2 2 1 6l2 4v15c-1 24 1 32 8 37 5 2 13 3 18 1zm-128-6c12-8 15-12 15-19 0-5-3-8-7-8l-4-1 3-7c3-4 4-7 3-8l-12-3 1 5c1 6 0 13-2 14l-3-1c-2-3-7-2-10 0-2 3-3 8-1 15l9 18 8-5zm330-14c18-10 26-27 18-38-3-4-9-7-13-7s-14 4-19 8l-14 15c0 2 2 1 6-3l8-5c4-2 13-2 16-1 6 4 8 12 4 19-2 4-4 6-13 13-4 4 0 4 7-1zm-363-15 8-42c2-16 2-18 2-54 0-41 0-48-7-81a445 445 0 0 0-89-185l-5 2c-4 2-4 2-3 4a849 849 0 0 1 21 31 444 444 0 0 1 63 332l7 3 3-10zm399 3-4-7c-4-7-6-9-6-5l-3 7-2 6h8l7-1zM74 690c10-4 13-6 16-11l3-4v-17l-2-22a842 842 0 0 1-2-12c-1-7-8-23-13-27-3-4-8-5-19-5-8 0-11 1-15 3l-6 3 3 4 5 6c0 3 4 7 6 7l4-2c3-4 5-2 5 5s1 11 5 16c3 4 4 7 2 9l-3 8c-1 7 0 10 6 12l5 3c0 2-2 3-6 3l-12 5c-6 4-6 4-14 4-10 0-18 2-14 4l5 1c4 0 7 1 10 5 4 4 20 5 31 2zm-42-2h-2l2 1v-1zm533-4 11-16c2-5 2-7 2-13s0-8-2-11c-3-4-8-6-14-6-8 0-19 6-19 11 0 3 2 3 6 2 7-2 12 0 17 5 3 4 3 4 3 10-1 6-3 11-9 19-2 3 1 3 5-1zm-545-5c4-4 9-6 16-8 7-1 12-4 12-5h-4c-5 0-9-1-10-4-2-4-4-4-10-2-15 4-20 12-14 20 3 3 6 3 10-1zm481 0c3 0 4-1 1-4l-4-13h12c2-1 2-2 2-6 0-6-4-14-12-22-4-4-5-5-7-4-3 3-13 16-15 21v8c1 4 2 5 6 5 2 0 5 0 6-2 3-1 3-1 4 1l-1 9c-1 4-2 7-1 8l3 1 6-2zm-336-12c-3-33-9-60-21-92A340 340 0 0 0 11 417c-4 1-4 4 0 6a312 312 0 0 1 147 239c0 13 1 15 5 15 2 0 2-1 2-10zm225 4c10-7 20-21 25-33 2-5 2-7 2-20s0-14-3-22c-3-9-11-20-21-27-9-8-13-7-23 6-8 9-14 19-16 27-2 10-2 32 1 38 6 13 24 34 30 34l5-3zm-10-11c-8-7-16-19-19-28-3-10-2-23 1-31 3-7 10-17 18-23l5-4 4 3c4 2 14 14 16 19 3 5 5 15 5 22 0 8-2 17-7 24-2 5-17 20-19 20l-4-2zm9-4 7-8c12-16 15-29 9-45-2-9-8-16-15-21-5-4-6-4-14 4-12 13-14 19-14 34 0 9 1 10 5 18 5 11 9 16 13 18s6 2 9 0zm-10-14c-4-6-7-10-8-16-2-7-1-17 2-23 3-5 10-14 12-14 5 0 13 15 14 26 0 6 0 7-3 14-3 8-10 17-13 17l-4-4zm9-4c3-3 5-6 7-14s1-15-3-23c-5-9-8-10-13-3-9 11-8 28 0 39 4 4 6 4 9 1zm208 24 3-1c0-2-12-11-13-11-2 1-3 13-2 14l5-1 7-1zm-317-6c9-8 11-13 11-20 0-4-1-5-4-5l-6 1c-4 2-4 0-3-7l2-8-5-1h-5l2 5c2 10 1 14-3 10-4-3-11-1-11 4 0 4 3 11 8 18l5 9c0 2 1 1 9-6zm-149-1c0-4-1-5-3-5-5-1-5 8 0 10 4 1 4 0 3-5zm-83 4c3-2 2-5-1-5s-7 2-7 3c0 3 5 4 8 2zm-23-6 11-4c2-1 2-2 2-4l-1-7v-4h-5c-6 1-20 6-23 9l-3 6c-3 9 4 11 19 4zm28-9c5-4-1-10-7-8-4 1-5 3-3 6s7 4 10 2zm670 0 3-3-3-7c-4-9-7-10-12-5l-4 2-1-8c0-10-1-14-5-17l-3-4 3-8c3-5 3-7 2-10 0-3-1-4-4-5-5-3-5-5-1-6l13-8c3-3 3-3 12-3l12-1c6-3 6-4 0-3-7 0-12-2-14-8-2-5-3-6-11-6-5 0-17 3-21 6-13 8-15 13-13 29 2 21 11 53 16 59 3 2 7 5 11 6h20zm-174-8 7-3c2-1 3-1 2-2-1-2-13-7-14-6v12c1 1 0 1 5-1zm207-2 2-5c0-4-1-4-11-1-4 1-7 2-7 4-2 3-1 5 4 5 5 1 9 0 12-3zm-22 0v-2c-1-2-5-3-6-1l3 4 3-1zm-714-3 9-3 5-2v-4l-2-5c-2-2-11-1-17 2-5 2-6 3-6 6-1 4 1 8 5 8l6-2zm29-7c0-3-3-5-7-4s-1 6 4 6c3 0 3 0 3-2zm702-4c9-4 11-6 11-11s-3-6-9-3a154 154 0 0 1-18 7v9c1 2 9 0 16-2zm-25 0c2 0 2-4 1-6l-5-1c-2 0-3 1-3 3 0 4 3 6 7 4zm-225-3-2-7c0-7 1-8 5-5 6 3 12-3 10-11-1-7-10-24-13-24l-14 10c-3 4-7 12-7 16s5 10 8 9c6-2 7-2 7 0l-2 7-2 5c0 1 3 2 7 2 3 0 3 0 3-2zm-276-6v-11c-1-1-12 4-12 6-1 1 9 7 11 7l1-2zm-199-2c2-1 3-5 1-8-3-5-16 0-16 6l2 3 6 1 7-2zm13 0c-1-3-4-4-5-2-1 1 1 4 4 4l1-2zm686-6c2-2 2-3 1-4-1-2-3-2-7-2-5 0-6 0-6 3 0 6 8 8 12 3zm23-1c15-6 22-16 15-21l-3-2-14 7-14 7 1 6 1 6c1 1 7 0 14-3zm-463-12c5-9 6-11 6-15 0-5-1-6-5-7-2-1-3 0-5 1-5 3-5 3-4-5v-8c0-1-1-2-4-2-5 0-6 1-4 8 2 5 3 10 1 10l-2-2-6-1c-5 2-6 6-3 12 2 4 17 21 18 21l8-12zm-70 7c6-3 10-7 10-11s0-4-6-1c-8 4-17 0-20-9-2-5 1-13 6-20 5-5 5-7 3-7-1 0-11 12-15 19l-5 8c-2 8 1 17 7 21 5 3 14 3 20 0zM57 585c7-3 9-7 9-17 0-6 0-7-3-11-4-6-10-8-18-8-6 0-8 1-11 4-6 4-9 9-8 16 0 10 4 15 12 19 5 1 13 0 19-3zm-1-17c-5-6-13-7-19-3l-5 3c-2 0-1-5 2-7 9-9 23-5 26 7 0 4-1 4-4 0zm671 18c0-2-1-4-3-5-4-1-7 1-7 3 0 3 1 4 6 4l4-2zm-546-4 1-7 1-4-5 1-8 2c-2 0-3 0-2 1l12 11 1-4zm566-3c9-5 14-9 15-13 1-6-5-13-10-12l-6 5c-4 5-5 6-21 12l-5 2 5 3c5 1 6 2 8 4 2 4 4 4 14-1zm-373-15c5-5 6-10 6-24v-14c3-6 9-6 11-1l1 17c0 16 1 20 5 24 2 2 5 3 9 2 3 0 3-3 0-6-2-3-2-3-1-14 1-19 1-28-2-33-2-5-7-9-12-10-8-3-20 3-24 11v27c1 9 0 16-3 20-2 3-2 3 0 5s6 1 10-4zm-196 2c10-4 29-22 24-22l-7 5c-12 9-20 10-27 5-8-8-5-18 11-30 3-2 3-3 2-3-1-1-5 1-13 7-9 6-11 8-14 14-3 5-3 6-3 11 1 12 15 19 27 13zm176-11a528 528 0 0 0-55-233l-12 4 6 16 15 36a521 521 0 0 1 31 166c-2 2-27 3-29 1l-1-8-11-55c-14-54-35-103-65-149-3-5-9-9-13-9-2 0-1 1 3 8a438 438 0 0 1 66 144l12 64c2 17 1 15 14 16a1166 1166 0 0 0 39-1zm116 1 3-12c5-28 26-90 41-118a1793 1793 0 0 0 9-16 109 109 0 0 1 10-17l4-7c3-4 4-6 3-7l-14-3-8 13a442 442 0 0 0-60 153l-1 3h-10c-13 0-14-1-13-8a628 628 0 0 1 43-153c-9 2-11 5-16 17l-7 17c-12 30-25 76-31 115-3 17-3 22 0 23h47zm38-10c0-8 1-11 4-8h9c3-2 4-6 4-13-1-5-8-22-10-22s-16 10-19 13c-9 10-6 21 5 19 4 0 4 1 0 10l-3 6 10 3v-8zm232 4c2-3 1-3-7-4-6 0-7 0-8 2 0 2 1 3 6 4 4 1 7 0 9-2zm-592-8 3-6h-14l8 12 3-6zm71 5v-6c-1-4-2-6-8-12-16-17-27-37-32-59-2-8-2-12-2-25l1-20c1-4 1-5-2-11l-5-6c-3 0-6 19-6 38 0 15 2 25 6 38 7 23 19 41 36 56 9 8 11 9 12 7zm58-18c5-9 5-11 5-17 1-5 0-6-1-8h-10c-2 2-4 2-4 1v-15c1-2-3-2-9-1l-2 1 3 6 3 8c0 2 0 2-4 2s-8 3-8 8c0 3 3 10 7 14l14 11 6-10zm-120-2c6-2 20-11 19-12l-7 2c-15 8-29 3-29-9 0-8 6-14 19-19l6-3c0-3-18 3-27 8-5 4-11 11-12 17 0 3 3 12 6 15 5 4 16 5 25 1zm458-10a351 351 0 0 1 63-97c5-5 6-8 6-15 0-5 0-6-2-6s-15 13-27 28a323 323 0 0 0-53 91c0 2 6 5 8 5s3-2 5-6zm133 0 1-330-1-73-7-7-14-13-7-6-3 1c-5 3-27 24-27 27a23249 23249 0 0 0 1 396l8 1a177 177 0 0 1 18 2c3-1 3-7 2-16a5857 5857 0 0 1-3-15c-2-14 0-54 5-87a183 183 0 0 0-6-73l-4-18v-22c0-22 0-23 3-37 4-20 5-34 5-74l1-36c0-3 3-3 3 0l1 11 1 27c1 30-1 53-5 76l-3 27c0 19 1 26 6 42 6 21 6 28 6 55l-1 33c-5 21-5 66-1 84 3 14 5 20 7 22 2 3 13 5 14 3zm-148-7 2-7c-1-1-20 4-20 6l14 7 4-6zm-23-6c1-2-4-18-6-18s-5 7-7 12c0 3 0 3 5 5 5 3 8 4 8 1zm-445-12-6-2-7-3c-2-1-1 4 3 15 0 1 2 0 5-4l5-6zm466 6 9-4c2-1 11-20 10-21 0-2-16-1-19 1-2 1-4 4-8 12l-5 13c0 2 3 1 13-1zm-33-10a434 434 0 0 1 87-126c13-12 13-13 9-17-3-1-3-1-8 3a399 399 0 0 0-101 146l7 4c1 0 3-3 6-10zm23-6c7-14 7-17 4-26-3-8-4-7-12 8l-6 12 2 9 4 9 8-12zm-61 1 1-8 4 1c7 5 14 1 14-8l-2-11-2-9c0-4-1-6-2-6-2 0-17 8-22 12-4 4-6 8-6 11s5 7 7 7h4c2 1 0 6-5 10l-3 5 11 4 1-8zm-377 0c11-2 12-3 12-4l-12-1c-14 1-18-1-21-8-2-4-2-5-1-8 1-2 2-5 4-6 4-3 13-6 19-6 7 0 9-1 6-3l-14-1c-10 1-12 1-17 4l-10 7c-3 3-3 4-3 10 1 8 3 12 7 14 8 4 15 4 30 2zm111-14 3-16v-9l-3-3c-4-4-9-4-11 0-2 5-5 3-6-7l-2-7-9 5 2 2 5 6c3 5 3 7-2 6-2 0-3 0-5 2v7l4 7c3 4 18 14 20 14l4-7zm116 3c4-3 4-5 0-7l-5-6c-2-4-2-5-1-13l1-8c-1-2-4-1-7 4-6 8-8 18-6 25 3 6 13 9 18 5zm45-1c3-2 6-7 6-12s-4-14-8-18c-5-5-6-4-5 5 0 10-1 14-7 17l-3 2c-1 2 1 7 3 7 3 2 11 1 14-1zm196-5c6-1 6-1 13-12l4-9-11-1c-9 1-10 1-12 3-4 4-10 16-10 18s1 2 6 2l10-1zm-14-14c8-12 9-14 8-21s-3-11-4-11l-8 10-6 10 1 7c1 9 3 12 4 12l5-7zm-204-2c5-4 6-8 6-15-1-6-1-6 1-6 6 2 9 2 13 0 5-2 7-7 7-13 0-8-11-15-19-11-4 3-6 2-4-2 3-3 2-10 0-14-4-7-14-9-20-4-4 3-6 11-5 16s1 6-3 4-10-1-13 1c-7 5-8 14-3 19 4 5 8 6 14 5h5v6c-1 7 1 12 6 14 5 3 12 3 15 0zm-12-25c-6-2-8-10-4-15 4-3 7-4 12-3 9 3 9 15 0 18l-4 2-4-2zm9-4c6-6-2-15-8-11-4 3-5 10-1 12 2 2 7 1 9-1zm-280 27 5-2c2-1 3-4 1-4l-5-3-5-3-1 7c0 8 1 8 5 5zm41-8-7-2c-10-2-14-3-17-6-10-8-7-20 6-24h12c8 2 11 2 11 1 0-2-3-3-14-5s-12-2-19-1l-10 4c-6 4-8 15-4 22s13 10 29 11a534 534 0 0 1 13 0zm483-2 6-7 7-9c5-5 4-6-8-6h-12c-2 1-15 20-14 21s4 2 12 2l9-1zm-22-10 5-6a274 274 0 0 1 7-9c3-4 3-5 3-11 0-5 0-8-2-10-1-1-1-1-6 3l-9 11c-4 6-4 7-4 11 1 7 3 13 4 13l2-2zm-63-6 3-8 3 2c3 4 8 5 11 2 6-5 7-12 4-27-1-6-2-8-3-8l-10 3c-17 6-24 14-18 21 1 2 3 2 5 2 6 1 5 4-1 9l-5 6c0 1 6 5 8 5l3-7zm-318-12c4-20 1-31-7-28l-3 3-3 3c-1 0-4-6-4-10l-1-3-10 5 5 5c6 5 6 7 1 7s-8 2-8 6c0 3 1 5 5 8 4 4 20 13 23 13l2-9zm435-8 9-10c0-2-4-3-14-3l-8-1-6 5-13 15c1 2 6 3 15 3h7zm-23-11 10-10v-8c0-5-1-8-2-9l-18 16c-3 4-3 5-3 12 0 8 1 10 2 10l11-11zm-489 8-9-5c-7-5-10-11-10-17 0-3 1-5 4-11 2-2-2-6-5-6-7 0-13 7-13 15 0 5 5 12 12 17 4 3 19 9 22 9 2 0 2 0-1-2zm-34-2 5-2-9-10c-1 0-5 11-5 14l9-2zm301-5 8 2c5 3 7 3 8-2 2-5 0-10-4-13-2-2-3-2-7-2-8 0-13 3-17 11-6 10-5 13 3 7l9-3zm-55 3v-10c0-11 1-15 8-18l5-3c0-4-9-8-14-6h-4l-4-8c-6-15-12-21-21-23-7 0-10 1-15 6-4 5-5 10-3 14 2 5 3 5 7 1 5-3 9-3 15 1s10 11 11 20c1 13 9 29 13 29 2 0 2-1 2-3zm311-18c0-5-1-8-2-9-1 0-15 12-15 14 0 1 7 3 14 3h3zm-212 4c7-3 12-8 18-20a218 218 0 0 0 12-25c2-2 8-5 11-5s13-5 19-11c18-14 27-32 29-58 2-14 2-63 1-64s-4 0-9 1c-7 2-11 2-23 0h-3l3 3 9 6c6 4 7 5 6 7-1 1-5 0-13-5l-7-2 1 8 3 15v7l-5 5-8 5-7 6c-4 4-5 5-6 4-2-1-1-2 3-9 3-4 0-4-10-1-9 2-11 2-14 1-9-2-14-11-11-19 2-7 10-13 14-10 1 2 1 3-3 5-6 4-8 11-4 15 3 3 7 2 16-3 9-4 10-4 13-3s4 3 4 5l1 3 3-2c4-2 7-5 8-7 1-3 1-2-4-26-6-29-6-28-5-42l1-16c1-5 2-5 8-3h9a49 49 0 0 1 32 2c1 0 2-7 1-9s-2-3-17-5a608 608 0 0 0-145-3l-3 1-5 23a810 810 0 0 1-20 89c3 1 3 4-2 16a2963 2963 0 0 0-5 14l-10 20c-3 0-3-3-1-10l3-7-11 14 4 8c6 4 10-2 19-23 8-19 9-21 12-20 2 1 1 5-6 21-10 23-14 29-22 29-3 0-4 0-8-4l-5-5c-2 0-2 2 1 7 5 8 13 10 20 5a555 555 0 0 0 20-37c3-7 5-9 7-7 2 1 1 4-4 16-11 25-15 31-21 34s-13 4-17 2c-3-2-9-8-11-13-2-3-5-4-5-2l8 15c7 6 17 8 24 4 7-3 11-9 19-25l10-19c2-4 5-5 6-2l-6 15c-12 24-14 29-14 36 0 11 7 21 19 27 10 4 21 2 27-5l10-17 8-15c2 0 4 2 4 4l-5 10c-6 13-8 20-7 27 4 18 20 28 36 24zm-14-5c-9-3-15-10-16-20 0-7 0-9 5-23 4-10 5-11 7-11 3 0 3 3 0 11-8 18-8 25-2 32 5 5 9 7 16 5 7-3 11-8 21-31 2-5 5-7 7-3 0 3-9 23-15 31s-16 11-23 9zm-3-15c-3-3-3-3-3-9 1-6 7-22 9-25 2-2 5-1 5 2l-3 9c-6 14-6 18-1 20 5 1 9-3 14-18 3-7 4-8 6-7 3 1 2 4-4 16-6 14-8 16-15 16-4 0-5-1-8-4zm-53-12c-6-1-13-8-15-14-4-8-2-16 7-37 8-16 9-18 11-17 3 1 2 4-4 18-8 15-11 25-10 30 1 8 8 14 17 14 8 1 11-3 19-18l7-14c2-2 4 0 4 3s-7 16-13 25-13 12-23 10zm0-14c-3-2-6-7-6-11l5-14c7-17 9-20 11-20 4 0 3 3-2 15-8 16-8 18-7 22 2 3 6 4 9 1l7-14c4-9 5-11 7-11s3 1 3 3c0 3-10 24-14 27-4 4-9 5-13 2zm87-37c-6-3-8-5-6-7l5 1c6 3 19 3 25 0 5-2 8-3 8-1s-3 4-8 7c-8 4-17 4-24 0zm-27-7v-3l4-12h5c4 1 6 1 11-1 9-2 15-3 18 0 2 1 2 1 6-1 6-2 7-2 13 0 3 1 6 2 8 1 4 0 4 0 6 10 0 6 1 6-7 3l-10-1-32 1c-10 0-11 0-16 2-4 2-5 3-6 1zm-17-15c-13-3-17-18-7-27 4-4 10-6 15-3 3 1 4 2 5 4 1 3-1 5-5 3-3-1-6-1-10 1s-4 5-3 10c2 6 9 7 19 2 17-10 23-12 28-12 6 0 9 2 9 6 0 5-2 7-5 7-6 0-15 3-25 7-9 4-14 5-21 2zm88-3-11-4-6-1c-4 0-8-4-8-9 0-3 0-3 4-5 4-1 7-1 17 5s15 7 20 5c6-3 4-11-3-13-6-3-5-7 3-5 2 0 4 2 6 4 7 8 3 21-8 24-5 1-4 1-14-1zm-87-56c-2-1-1-3 5-7l14-11-5 2c-8 2-20 0-35-6-6-3-9-3-12-3-6 0-12-2-13-4-1-3 2-6 10-12 13-10 23-15 36-17 9-2 19 1 25 6 4 3 5 3 8 3 4-1 5 1 2 6-4 4-4 4-1 8 2 2 2 3 1 8-2 4-3 6-10 12l-15 12c-7 4-9 5-10 3zm10-24c3-2 5-7 5-9 0-1-2 0-3 3-1 2-3 5-6 6-3 2-3 2-1 2l5-2zm-20-2c-1-5-3-6-7-4-3 1-2 2 1 4 5 3 7 3 6 0zm35-3-3-4c-1 0-3 5-2 6 0 1 3 0 5-2zm-43-12a57 57 0 0 1 38-4c3 1 3-2-1-5s-17-4-23-2l-26 13a1759 1759 0 0 1 13-3zm61-13-2-5h-8l-21-2c-14-2-24-3-33-1l-18 6c-2 2-6 1-6 0 0-2 7-9 13-12a78 78 0 0 1 51-5c11 3 18 3 27 1h3l-1 4v11c0 6-1 8-2 8s-2-1-3-5zm103 206c3-8 4-9 6-5 2 3 4 4 8 4 8 0 12-10 11-27v-8h-7c-15 2-22 4-27 9-5 6-3 10 4 13l4 3-8 7-3 3 9 7 3-6zm83 0c8-7 9-8 7-9-2-3-12-8-13-7-3 1-5 6-5 12 0 7 1 10 3 9l8-5zm-127 2c8-4 14-14 13-23-2-15-7-34-10-34-2 0-2 1 0 9 7 25 6 36-5 42-12 6-21-1-26-19-1-6-2-8-4-8s-2 0-1 4c1 7 7 22 10 25l6 5c4 1 12 1 17-1zm-337-10c3-11 3-19 1-23-3-6-11-7-13-1-2 4-4 2-7-5l-3-6-5 3-4 2 3 3c10 7 11 10 5 10-3 0-6 3-5 6 0 4 5 8 16 13l10 5 2-7zm332-1c5-2 7-7 7-13 0-7-5-25-7-25s-1 3 1 13c3 12 3 15 0 18-5 5-12 1-15-9-2-9-3-10-4-9-2 1 1 12 4 18 2 5 6 9 8 9l6-2zm-3-15c1-2-2-16-4-17-1-2-4 0-4 3l4 15c2 1 3 1 4-1zm34-11c4-2 9-8 10-12 2-6 1-19-2-26l-14-30c-2 0 0 8 4 18 6 14 8 21 8 29s-4 15-11 18l-4 3c0 3 4 3 9 0zm-4-11c7-6 6-18-3-36-4-9-4-1 0 10 3 6 3 9 3 14-1 6-1 7-4 10-5 6-2 8 4 2zm-315 2c22-7 51-63 72-138 3-8 8-36 9-43 1-4-1-5-5-4-2 1-3 2-4 9-5 31-14 63-28 97-15 39-36 70-50 76-4 2-4 3 1 4l5-1zm25-4c5-5 9-9 16-19a315 315 0 0 0 37-82l4-13a487 487 0 0 0 13-67c0-2-2-3-5-2-2 1-3 2-4 9-5 41-24 97-43 137-8 15-20 32-25 35-4 3-4 5 0 5l7-3zm-33-5c6-4 12-9 18-18a487 487 0 0 0 56-150l1-6h-4l-4 2-3 12a449 449 0 0 1-52 137c-4 6-15 17-18 19l-17 5-2 1c0 2 4 3 11 3 7-1 9-1 14-5zm49 1c18-9 44-65 59-127 3-14 9-53 8-54h-6l-3 15c-3 21-10 51-15 68a315 315 0 0 1-47 100l4-2zm268-4c1-2 1-8-1-14-2-4-4-4-6 0-2 3-1 8 1 13s3 5 6 1zm-331-4c5-2 12-9 19-17 20-27 45-90 53-136 3-12 3-11-2-11l-4 2-3 10c-7 45-30 101-50 129-9 12-15 16-22 15-9-2-15-11-11-19 3-5 10-6 10-1l-2 3c-3 2-2 7 1 9 7 3 14-4 12-12-4-12-18-14-26-5-10 11-5 30 10 34 3 1 11 0 15-1zm90-8c10-11 20-29 32-63a659 659 0 0 0 21-101c0-2 0-2-3-2h-3l-2 9a425 425 0 0 1-49 155c-8 12-7 12 4 2zm22-17c15-17 25-42 36-90a856 856 0 0 0 12-59v-3h-4c-5 0-5 0-6 4l-2 16a508 508 0 0 1-36 132zm239-10c2-7 1-17-3-41 0-3-9-21-11-23-2-3-1 3 3 12 5 15 7 24 7 39l1 15c1 3 2 2 3-2zm-9-16c0-6-2-21-4-24-1-3-1-3-2-1-2 3-1 21 1 25 3 7 5 8 5 0zm-23-66 3-6c0-3 0-3-1-2l-1 3c0 3-6 7-8 6-3 0-8-5-8-7l-1-1-1 1 2 4c0 3 4 5 8 5 3 0 5-1 7-3zm-20-1c0-3-3-5-5-4-3 2-3 3-1 4 3 3 6 2 6 0zm31-5c0-2 0-4-2-3v6l2-3zm-29-14c7-2 12-2 26-1 5 1 3-2-3-5-8-3-14-3-22 1-5 3-13 9-9 8l8-3zm-2-10c7-3 17-3 25 0 8 2 8 2 8 0s-3-4-11-6h-13c-6 2-11 2-15 2-6-1-5-2-6 7-1 6 0 6 4 3l8-6zm-218-45c10-1 20-7 28-15l6-7 4 2c17 12 43 13 61 3l12-8 8-6 5 2c15 12 34 17 51 14a77 77 0 0 0 30-15l6 6c3 4 8 8 11 9 10 6 26 8 35 6 5-1 10-5 10-8h-8c-10 3-19 2-30-4-6-2-14-11-18-18l-3-5-7 6c-12 13-20 16-35 16-10 0-17-1-25-6-6-3-15-10-18-14l-4-3s-3 2-5 6c-8 13-25 22-40 22-13 0-25-5-35-14l-7-5c-1 0-2 2-2 5 0 4-8 14-14 18-13 9-27 9-43 1l-6-2c-1 1 2 7 5 10a39 39 0 0 0 28 4zm-44-43c3-5-2-9-6-6-2 1-2 2 0 5 1 4 4 4 6 1zm333-7v-5c-2 0-4 4-3 5h3zm-256-2c5-5-4-12-9-7-3 2-2 5 0 7 3 3 6 3 9 0zm185-7c2-1 3-6 0-8-3-4-11-1-11 3 0 3 4 7 7 7l4-2zm-96 0 4-3c0-3-2-7-6-8-2 0-3 0-5 2-3 4-3 5 1 8 3 2 3 2 6 1zm324 745c-12-8-12-8-6-16 4-4 5-5 7-2l4 1c3 0 3 1 3 3 0 3 0 4-4 2-4-3-7-2-8 0s-1 3 3 6l7 5c2 0 2 1 2 4v3l-9-6zm-47-121c-7-4-8-11-1-7 4 2 11 1 14-2 2-1 3-4 4-7 0-6 1-7 4-3 2 4 1 12-2 16-3 5-13 7-19 3zM7 452l-5-2c-2 1-2 0-2-2 0-3 2-4 6-2 2 3 5 2 6 0s1-3-2-5l-7-4c-2-1-3-2-3-4 0-4 3-4 6-1l5 4c5 3 8 6 8 8s-6 10-7 10l-5-2z" transform="translate(22 23) scale(.15858)"/><path style="fill:#df0000;fill-opacity:1" d="M115 1241a110 110 0 0 1 14-23 1095 1095 0 0 1 14-24c0-3 2-6 3-8 2-1 4-4 5-7l6-9c3-2 5-6 6-8l3-5 3-5c2-4 6-11 12-18l4-7c3-5 9-14 12-14h6a595 595 0 0 0 172 5c19-2 61-8 95-15 6-1 6-1 8 1 3 3 11 19 11 20l3 6 6 8 4 8 5 8c0 3 2 5 3 6 3 4 16 27 16 30l15 29a315 315 0 0 1 11 21l2 2h-3l-4-1a940 940 0 0 0-26-47l-6-2c-9-1-14-7-14-15 0-3-2-5-5-5-4 1-9-1-13-4l-3-9c0-8 2-13 7-15l3-3c0-2-2-3-5-3-6-2-13 0-18 4l-4 2-6-2c-10-3-21-1-25 6-2 4-1 5 3 3 5-3 11-3 15 0 3 2 5 9 5 14-1 3-5 9-7 9-4 0-4 3-2 7 4 8 2 16-5 21-5 3-9 3-14 0-5-2-8-6-9-13 0-4 0-4-5-4-11-2-16-15-8-24l8-4c6 0 6-2 0-6-4-2-6-2-12-2s-8 0-14 4l-7 3-4-2-10-4c-5 0-6 0-12 3-8 4-12 11-5 8h7c4 0 6 1 8 3 7 11 5 19-7 24-3 1-4 2-4 4 1 4 0 11-1 14-5 9-18 10-25 2-3-3-3-4-3-11v-7l-3-1c-4-2-10-8-11-12-1-5 6-13 13-15l3-1c2-2-8-7-14-7-4 0-13 3-16 6l-4 2-6-3c-8-5-12-6-19-4l-8 3c-1 2-1 2 1 3 8 2 13 8 13 14 0 8-5 14-13 14-5 0-7 1-7 6s-2 9-6 12c-5 4-13 4-18 1-7-5-9-14-5-21l2-4-3-2c-5-4-7-11-5-17 3-4 6-6 13-6 5 0 6-1 3-3-5-5-16-6-22-3l-4 2-4-3c-5-3-6-4-13-4-9 0-9 0-12 3-3 2-3 3-2 4l4 1c2 0 4 1 7 4 4 3 4 4 4 9 0 6-2 11-6 14l-10 1h-7l-1 3c-1 8-6 13-16 13h-6l-4 7a5325 5325 0 0 0-13 21c-8 12-10 15-12 15l-2-1zm228-56 2-4c0-2-5-6-7-6-3 0-6 3-6 6s3 6 6 6l5-2zm-96-5-1-4c-2-4-12-1-11 3l1 2c0 1 1 2 3 2 4 2 7 1 8-3zm185-2 4-4c1-3 1-3-1-5s-7-3-9-1c-3 3-3 6-1 8 3 3 4 3 7 2zm-265-5c2-2 2-6 1-6-2 0-5 6-5 7 1 1 2 1 4-1zm173-15c5-8 11-14 17-17 20-11 45-9 60 6l7 6 4-7c4-8 11-15 19-19 7-3 19-4 28-2l6 1c2-1-3-4-9-6-11-2-26 0-36 6-4 3-12 11-14 15-1 3-2 3-9-2-8-5-12-7-20-8-20-3-37 2-51 15l-8 6-8-5-9-7c-5-3-14-5-22-6-14-2-30 3-40 11l-6 4-8-7c-5-5-9-8-15-11-7-3-8-3-20-3l-14 1c-2 3-1 3 7 2 19-3 36 6 44 24l4 6 7-7c16-17 36-21 56-12 8 3 14 8 21 16 2 4 5 6 5 6l4-6zM14 969c0-3 0-4 1-3v4c-1 1-1 1-1-1zm0-16c0-4 0-5 1-4v6c0 2-1 1-1-3zm0-16c0-2 0-3 1-2v3c-1 1-1 0-1-2zm154-9a1335 1335 0 0 0-83-44l-5-3v-79l-1-77-11-2-54-4c-12-1-14-1-14-4h17a1333 1333 0 0 0 56 6c9 0 25-1 31-4 10-3 17-12 18-23 1-5 1-6-2-10-5-8-13-10-21-5-6 3-6 5-6 14v7h-7a413 413 0 0 1-78-4H0V485l3 2a281 281 0 0 1 81 105c6 16 12 35 14 46l3 9c2 2 5 3 5 1 1-1-5-26-9-38-8-24-23-53-37-73a319 319 0 0 0-58-57c-1-1-2-2-2-5v-3l6 4a273 273 0 0 1 103 163c3 14 3 14 6 15 4 2 5 1 5-3 0-3 0-4 2-5h10l1 5c0 5 2 8 5 6l1-7c0-12-1-14-12-12h-9l-3-12c-3-12-3-13 5-13 5 0 5 0 6 3 2 4 3 5 5 4 3-1 3-3 1-10-2-8-3-9-7-8-14 4-14 4-15 3-2-2-9-21-8-23 0-1 7-4 10-4 1 0 3 1 4 4s2 4 4 4c4 0 5-2 1-10-3-9-4-9-14-5-9 4-10 4-13-2l-5-10-3-6c0-2 10-8 12-8l3 4c3 4 5 5 7 2 1-1 0-3-3-8l-5-8-15 7-4 2-12-19c0-2 8-8 10-8l3 2c3 3 6 4 7 1s-7-13-10-13l-9 6-8 6-3-3-8-10-6-7 4-4c5-5 7-6 11-3s6 3 7 1c0-2-10-14-12-14l-8 7-9 7-16-16 4-7 5-4 4 2c5 2 7 2 7-1 0-2-5-7-9-9s-5-1-13 6c-7 7-7 7-9 6l-7-5c-3-2-4-3-4-5v-3l5 3 8 4c1 0 4-2 7-6 7-8 9-8 16-2l9 8 3 3-2 4c-4 5-6 5-10 2-3-2-5-2-7 2-1 2-1 2 3 7 7 6 7 6 15-1l8-7c2 0 18 17 18 19s-7 8-9 8l-4-3c-3-3-3-3-6-2-4 1-4 4 2 10 5 7 7 7 14 2 8-7 9-7 10-7 2 1 14 18 14 20s-7 7-9 7l-3-3c-3-4-4-4-7-1v4c2 5 7 10 9 10l8-4 7-4c2 0 6 5 11 14s5 10-2 13c-5 2-5 2-8-3-2-4-4-5-8-2l-2 2 2 4c3 6 7 11 9 11l8-4 9-3 10 23c1 2-2 5-7 6-4 0-4 0-6-3-1-5-3-6-7-4-2 1-2 2-2 4l3 8c2 6 4 6 13 3 7-3 10-3 11 0 2 3 6 21 5 23l-5 3c-6 1-8 1-8-3 0-3-2-6-4-6l-4 1c-1 2 2 15 4 16h19c1 1 4 17 4 23v5h-4l-4 2c1 2 13 8 15 8s2 1 2-13A309 309 0 0 0 2 424c-2 0-2-1-2-3 0-3 1-4 3-5l14-10 59-41a215 215 0 0 0 7-4l47-25c2 0 3 0 4 2l3 7 3 4-2 2-3 5c1 1 0 3-2 5-4 3-7 8-7 14l-3 7c-3 3-7 17-7 21 1 1 0 5-2 8-2 5-2 8-2 14l-1 12c-1 5 0 16 1 17v4c-1 5 0 14 2 21l2 6c-1 3 4 19 6 22l2 5c0 3 5 14 8 16 1 1 3 3 5 3 2 1 2 1 0 1-3 0-3 4 2 12 3 4 5 7 7 7l3 4c2 5 6 10 11 13l5 5c0 3 11 13 17 16l4 3c0 2 9 8 14 9 3 1 6 3 7 5 3 3 15 9 19 9l3 2a438 438 0 0 1-9 88c1 2 8 3 9 2 2-1 5-18 9-40a420 420 0 0 0-94-337c2-2 18-9 39-16l19-7c2-2 4-1 11 3 4 3 6 4 6 6 0 5 8 8 18 7 4-1 4-1 7 1 3 4 8 4 16 1 5-2 5-2 8-1 4 3 6 2 12-1 4-2 7-3 9-2 4 0 7-1 14-7 6-4 7-5 10-4 2 0 4-1 10-6l8-6 1 3c0 7 6 17 14 20 10 5 19 4 27-3l6-4v6c-2 11 0 17 7 26 5 5 15 10 21 11 7 0 15-2 21-8l5-4 1 7c1 13 7 22 17 28 5 3 7 3 13 3 8 0 14-2 20-7 3-3 13-20 17-31 2-7 6-11 10-11 2 0 2 0 2 2-2 5 6 27 11 32 9 10 22 9 32-1 6-6 8-11 7-21v-8h4c8 0 16-7 19-15l1-12v-8h3a587 587 0 0 1 94 51l4 1v20a5125 5125 0 0 1 2 139c1 1 24 4 31 3l15 1a87 87 0 0 0 24 2c7 0 8 0 8 2s0 2-11 2l-47-4c-22-2-32-2-39-1-13 3-21 9-26 18-1 2 1 12 3 16 2 3 8 6 12 7 5 0 12-3 15-7 2-3 2-4 1-14l1-1 9-2a755 755 0 0 1 82 4v106l-1 105-11-11c-7-5-16-15-22-21-13-15-24-31-22-31l4 2c13 5 30-6 29-18-2-9-5-15-10-18-5-4-6-4-12-4-8 0-13 2-17 8-3 3-3 5-3 9l-1 6a264 264 0 0 1-28-78c-2-8-4-11-8-11-3 0 0 19 7 40a270 270 0 0 0 94 135l1 4v4l-5-4-13-11a319 319 0 0 1-52-62c-19-31-32-68-38-104 0-5-2-7-7-9h-3v7c0 8 0 8-8 8-5 0-6-1-7-6 0-3-1-4-3-4s-2 1-2 7v9c1 3 1 3 7 3l10-2c6 0 5-2 8 14l2 9-2 2-7 2h-4l-2-4c-2-4-2-5-4-5l-3 2c0 3 2 13 4 15l2 2 8-3 10-1 8 24-11 4-4-6c-2-4-4-5-6-2-1 1-1 4 1 9l5 8c1 1 3 0 9-2 10-3 9-4 16 10 6 10 6 11-2 15-4 1-5 1-8-4-1-3-5-4-6-2s6 15 8 16c1 1 4 0 10-3l9-5 5 7 6 10c2 3 0 5-6 8l-4 2-2-2c-3-3-7-4-8-1 0 2 9 13 10 13l8-5 8-5 17 18c0 2-7 9-9 9l-5-3c-3-4-6-4-7 0 0 2 10 13 12 13l9-7 8-6 4 4 8 7 5 5-4 6-4 4-3-1c-4-2-7-2-8 0-2 2 1 6 7 9 4 3 7 2 13-5l6-7c2-1 4 0 8 3l5 3 1 3v4l-6-4-6-4-13 13c-2 4-5 3-14-5-6-4-8-7-8-8 0-2 2-4 5-7l4-4 3 1c5 3 9 2 6-3-1-2-8-7-10-7s-5 2-8 6l-8 6c-2 0-16-15-17-18-1-2-1-3 2-6 5-4 6-4 9 0 2 3 6 4 8 2s1-5-4-11l-6-5-3 2-7 5-6 3c-2 0-12-13-14-18-1-2-1-3 2-5 4-4 6-4 9 0 3 3 3 3 5 2 4-2 4-5 0-10-4-6-5-6-14 0-7 4-8 4-11 0l-11-20 11-6 3 5c3 4 5 5 7 2 2-1 2-3-2-10-3-7-6-7-16-3-4 1-7 2-8 1s-10-20-10-23c0-2 3-4 9-5 3 0 4 0 6 4 2 5 3 6 6 3l2-2-2-6c-3-9-4-10-14-7l-9 3c-1 0-3-4-6-16-3-10-3-11 4-12 5-1 6 0 7 4 2 5 4 6 8 3 2-1 2-2 1-8l-2-7h-14c-5 2-6 2-7 0-2-1-4-12-4-20l-1-6 6-1c6-1 8 0 8 5l1 4c2 2 6 1 6-1 2-3 1-11 0-12l-26-12c-3 0-3 6 0 25a317 317 0 0 0 100 193c20 18 45 35 48 33l1 3c0 3-1 4-5 7l-7 4-10 7a200 200 0 0 1-24 17c-31 19-78 45-83 45-2 0-6-5-7-9l5-12a104 104 0 0 0 10-20 167 167 0 0 0 10-80c-1-14-2-17-6-32a112 112 0 0 0-17-39c0-5-12-22-14-22l-3-4c-2-4-10-13-14-13-2 0-2 0-1-1v-3c0-2-13-13-18-15l-7-5-9-5-7-5c-2-2-17-10-20-10-5 0-2-43 5-73 5-20 5-20 1-21-4-3-5-2-8 8a443 443 0 0 0-4 183 5474 5474 0 0 1 4 18 383 383 0 0 0 89 165 386 386 0 0 1-59 24l-7 3-7-4-7-4c0-5-10-9-17-8-5 1-6 1-8-2-4-3-7-3-14 1-6 2-6 2-9 0-3-1-3-1-8 1l-8 4c-3 2-3 2-6 1-4-2-9 0-14 4l-5 4h-4l-7 4-7 4-4-6c-7-16-23-21-37-14-4 2-7 3-8 2l-1-8c-1-13-7-21-18-27-9-4-22-2-31 5-4 3-6 1-6-5 0-7-4-14-9-19-9-7-17-9-28-6-15 4-19 8-31 36l-5 10-4 1c-3 0-3 0-3-3s-4-17-7-22c-6-12-11-16-22-16-5 0-7 0-11 3l-7 6c-3 4-4 5-4 13 0 12-1 14-3 14-4 0-11 3-14 6-6 5-8 10-8 22v10l-12-7zm394-8a449 449 0 0 1-94-231l-1-8-26-1h-26c-2 2-2 2-1 21a558 558 0 0 0 53 206l3 7h5c6 0 8-2 7-5l-9-23c-12-27-13-30-20-51a566 566 0 0 1-26-142l15-1c17 0 17 0 18 10a627 627 0 0 0 37 130c8 20 22 46 30 60 11 16 11 17 16 19 2 1 7 4 9 7l8 4 2-2zm28-15 4-3s-2-3-6-5l-5-6 4-1 5-5c3-8-2-13-20-19l-13-4c-1 1-5 16-5 21l2 7c1 4 2 5 4 7 5 3 10 3 13 0 4-3 5-2 6 3 1 9 1 9 11 5zm-153-1c4-3 7-11 7-16-1-4-3-5-6-2-5 5-14 3-20-5-3-4-4-9-11-31l-6-12c-3-2-4 0-3 4 3 11-1 21-10 26-4 2-4 2-3 5 2 4 7 5 13 5l5-1 1 4c2 7 3 10 7 15 4 6 6 7 11 9s11 2 15-1zm-267-2c7-1 15-5 18-8 4-6 3-13-2-15-4-2-4-3 1-7l5-5c0-1-9-8-11-8l-2 4-1 6-1 4-3-3c-3-3-4-4-8-4-5 0-8 2-11 6-1 4-2 32 0 32 2 1 7 0 15-2zm-44-16a419 419 0 0 0 92-144c0-3-3-6-7-6l-4 5a473 473 0 0 1-104 148c0 1 8 6 11 6l12-9zm-26-2 1-22-4 1-13 14 8 6c5 3 7 4 8 1zm17-15 9-8v-25c-1-2-3 0-11 9l-9 9v23c1 2 3 0 11-8zm-24-7c4-3 7-7 7-8l-8-1-9 1v5l2 10 8-7zm151-4a499 499 0 0 0 66-164c2-1 23-2 24 0l-5 29a577 577 0 0 1-41 131c1 2 12-2 14-5a515 515 0 0 0 46-165v-4h-46c-2 1-3 3-5 13a431 431 0 0 1-60 151l-6 11c-1 2 6 5 9 5l4-2zm311-1 6-4-4-5-5-6 3-1c3 0 7-4 7-8 0-8-9-15-25-21l-6-1c-2 2-5 15-5 23 0 7 0 8 2 10 4 4 8 6 12 4l4-1 2 5c1 8 1 8 9 5zm-212-2c8-3 15-14 13-17-1-1-2 0-7 2-4 3-6 3-9 2-2 0-5-1-7-3l-3-2-3 4c-1 4 0 10 3 13 2 2 9 3 13 1zm-138-5c10-3 15-6 18-10 3-3 4-5 4-8s-3-7-6-7c-4 0-3-2 3-8l5-7-12-6c-2 0-3 2-3 6l-2 7-1 3-4-3c-4-2-5-3-9 0-3 1-5 6-5 14 0 6 1 17 3 21l9-2zm181 1c4-3 6-10 5-17v-6l5 1c10 1 17-5 16-14-1-8-9-12-19-10h-4v-4c2-9-4-18-11-17-11 0-16 8-14 19l1 4-6-1c-10-1-15 3-15 11 0 4 3 9 6 11l9 1h7l-1 3c-2 7 2 17 7 19 3 2 10 2 14 0zm-13-25-4-5c-1-4 1-10 3-11 4-3 9-2 12 0 8 9-3 24-11 16zm10-4c2-2 3-5 0-8-1-2-6-3-9-1-2 1-3 8-1 10s8 1 10-1zm-242 21c7-9 11-15 11-17l-2-12c0-11-1-12-6-6l-8 11-5 7v11c0 16 1 17 10 6zm-26-3 8-11c0-1-2-2-11-2h-10l-8 9-8 10c1 2 5 3 13 3l7-1zm-23-7a358 358 0 0 0 74-118c0-2-4-4-6-4-1 0-5 6-9 15a403 403 0 0 1-65 99c-2 0-4 9-2 12 1 3 2 2 8-4zm40-15 9-11c5-8 5-11 0-10l-9 1h-7l-8 11c-7 9-8 11-7 12l10 1h9zm33-7 7-11-1-10c-1-13-2-16-4-16l-6 8c-9 15-8 14-8 25 1 12 2 15 3 15l9-11zm596 7-7-6a395 395 0 0 1-66-59l-7-9a342 342 0 0 1-58-116c-4-15-8-41-10-61 0-7 0-8-3-10s-4-1-3 10a338 338 0 0 0 91 208c12 12 38 33 52 42 5 3 10 4 11 1zm-229-13 4-3-3-6c-5-4-5-6-1-7 3 0 7-6 7-9 0-6-5-11-19-20-7-5-8-5-10 0l-3 5c-5 8-7 22-2 28 1 2 3 3 6 3l6-1c2-3 3-2 3 1 2 12 2 11 5 11l7-2zm-175-10-2-8c0-7 2-14 7-16 4-2 4-4 0-7-5-4-14-2-17 4-3 4-3 13 0 19 4 7 8 11 10 11s2 0 2-3zm46 0 6-8c3-7 4-16 1-21-3-7-11-9-18-5-4 3-4 5 1 8 7 3 8 10 4 25 0 3 0 3 2 3l4-2zm-252-5c3-2 12-17 12-20 0-2 0-2-8-2l-11 3c-3 1-13 19-13 21h10l10-2zm90 0c12-7 19-14 19-20 0-4-2-7-7-8l-4-1 7-9 1-3c-1-2-13-5-14-4l-1 7-1 7-3-3-4-1c-5 0-8 3-9 9-1 3 1 14 5 28 0 2 4 1 11-2zm-56-12 6-11-1-7c-3-12-5-17-7-17l-6 11-6 11 2 11 2 13c2 3 4 0 10-11zm-26-15 9-2c2-1 11-19 11-21s-1-2-8 0c-12 3-14 4-18 12s-5 12-3 12l9-1zm41-16 5-13c0-1-2-3-7-5l-8-3c-3 1-3 6-1 15l2 10 3 6c1 0 4-4 6-10zm310-2 6-3-3-7c-4-7-4-7-1-7s8-3 9-5c3-5-1-16-8-21a255 255 0 0 1-14-10l-4 4c-10 17-10 17-10 23 0 9 6 15 13 12l4-2v8c-1 8-1 9 2 10l6-2zm-336-11c6-2 8-3 10-6l1-4-13-7c-2 0-9 13-9 16 0 4 1 4 11 1zm92-8c14-9 18-17 13-25-2-3-3-4-6-4-4 0-4 0 1-8l3-6-8-3c-8-2-10-1-8 3v14l-2-1c-2-2-8-1-11 1-4 3-5 8-2 16l3 7 2 6c2 5 4 7 5 7l10-7zm126 6c5-2 9-7 10-13v-20c-1-16 0-21 3-25 3-2 3-2 2-4-2-2-8-1-12 3-3 3-4 4-5 10l-1 8c2 5 1 19 0 22-2 4-5 5-8 2-2-3-3-3-3-20-1-18-1-21-7-25-3-2-6-3-8-1s-2 2 1 6l2 4v15c-1 24 1 32 8 37 5 2 13 3 18 1zM73 692c13-5 19-9 20-16a145 145 0 0 0-8-68c-8-16-13-18-28-18-7 0-10 1-15 3l-8 5c-2 2-4 3-8 0h-7c-6 1-10 5-10 8 0 4 2 6 5 6l6 1c2 0 1 1-5 4-7 3-9 5-9 10s3 7 8 7l4 1-4 3c-9 4-13 11-10 17 1 3 3 4 8 3 5 0 6 1 1 4-9 6-10 17-1 21l6 1c3-1 7 1 7 4 0 2 11 5 14 3h4c7 3 20 4 30 1zm-42-62h2c1 1 0 1-1 1l-1-1zm-6-18h2c1 1 0 1-1 1l-1-1zm478 68c2 0 2-2 0-7-3-7-4-12 0-9 2 2 9-1 10-3 2-4 0-11-3-17-4-6-13-16-15-16s-11 9-15 17c-8 12-2 25 9 20l3-1-1 7c-2 11-1 11 5 11l7-2zm-338-13c-3-33-9-60-21-92A340 340 0 0 0 11 417c-4 1-4 4 0 6a312 312 0 0 1 147 239c0 13 1 15 5 15 2 0 2-1 2-10zm225 4c10-7 20-21 25-33 2-5 2-7 2-20s0-14-3-22c-3-9-11-20-21-27-9-8-13-7-23 6-8 9-14 19-16 27-2 10-2 32 1 38 6 13 24 34 30 34l5-3zm-10-11c-8-7-16-19-19-28-3-10-2-23 1-31 3-7 10-17 18-23l5-4 4 3c4 2 14 14 16 19 3 5 5 15 5 22 0 8-2 17-7 24-2 5-17 20-19 20l-4-2zm9-4 7-8c12-16 15-29 9-45-2-9-8-16-15-21-5-4-6-4-14 4-12 13-14 19-14 34 0 9 1 10 5 18 5 11 9 16 13 18s6 2 9 0zm-10-14c-4-6-7-10-8-16-2-7-1-17 2-23 3-5 10-14 12-14 5 0 13 15 14 26 0 6 0 7-3 14-3 8-10 17-13 17l-4-4zm9-4c3-3 5-6 7-14s1-15-3-23c-5-9-8-10-13-3-9 11-8 28 0 39 4 4 6 4 9 1zm-109 20c9-8 12-13 13-20 0-4 0-5-2-7s-4-2-9-1c-4 1-4 1-1-7v-7l-6-2c-7 0-7 0-4 9 1 7 1 9-2 7-5-4-12-1-12 5s2 10 7 18l5 9 3 3 8-7zm-149-3c0-4-1-5-3-5-5-1-5 8 0 10 4 1 4 0 3-5zm594-10 5-4c1-3 4-4 11-3 8 1 12 1 15-2s4-6 3-10c-1-2-2-2-6-2h-4l2-2 6-4c5-2 7-5 7-9 0-3-3-6-7-6-3 0-3-1 4-7 5-5 6-6 6-10 0-5-3-8-8-8-5 1-5 0-2-3 7-4 9-13 4-18-2-3-4-4-9-4s-6-1-7-4l-2-4h-10l-13-1c-3-1-14-2-18 0l-8 2c-6 2-16 9-18 15-2 4-2 6-2 15 1 18 9 49 15 61 2 3 10 8 16 9 5 1 15 0 20-1zm17-20h2v1l-2-1zm-3-17 3-1v1h-3zm-4-44 2-1-2 1c-1 1-1 1 0 0zm-233 55-1-5v-7c0-3 1-3 2-2 1 2 5 3 8 1 6-2 6-11 2-21-3-7-9-15-11-16-3-2-15 9-20 17-4 7-4 13 0 17 2 3 3 3 7 3 5-1 5 0 2 7s-3 7 8 8l3-2zm-222-18c6-8 12-21 13-25 0-4 0-5-2-7-3-3-7-4-11-1l-2 1v-16h-7l-4 2c-2 1-2 1-1 4 2 3 4 10 3 10l-3-1c-2-1-8 1-9 3-1 3-1 8 1 11 1 4 18 22 19 22l3-3zM57 585c7-3 9-7 9-17 0-6 0-7-3-11-4-6-10-8-18-8-6 0-8 1-11 4-6 4-9 9-8 16 0 10 4 15 12 19 5 1 13 0 19-3zm-1-17c-5-6-13-7-19-3l-5 3c-2 0-1-5 2-7 9-9 23-5 26 7 0 4-1 4-4 0zm318-4c5-5 6-10 6-24v-14c3-6 9-6 11-1l1 17c0 16 1 20 5 24 2 2 5 3 9 2 3 0 3-3 0-6-2-3-2-3-1-14 1-19 1-28-2-33-2-5-7-9-12-10-8-3-20 3-24 11v27c1 9 0 16-3 20-2 3-2 3 0 5s6 1 10-4zm-20-9a528 528 0 0 0-55-233l-12 4 6 16 15 36a521 521 0 0 1 31 166c-2 2-27 3-29 1l-1-8-11-55c-14-54-35-103-65-149-3-5-9-9-13-9-2 0-1 1 3 8a438 438 0 0 1 66 144l12 64c2 17 1 15 14 16a1166 1166 0 0 0 39-1zm116 1 3-12c5-28 26-90 41-118a1793 1793 0 0 0 9-16 109 109 0 0 1 10-17l4-7c3-4 4-6 3-7l-14-3-8 13a442 442 0 0 0-60 153l-1 3h-10c-13 0-14-1-13-8a628 628 0 0 1 43-153c-9 2-11 5-16 17l-7 17c-12 30-25 76-31 115-3 17-3 22 0 23h47zm40-7-1-9c1-2 1-2 5 0 5 2 8 1 11-5 2-4 2-5 1-10-1-6-8-23-10-24-1 0-17 9-20 13-7 7-9 15-5 20 2 2 4 3 7 3 4 0 4 0 3 2l-3 7-2 6 11 3h3zm-231-20c5-9 5-11 5-17 0-5 0-6-2-8-3-3-7-4-10-2l-3 2-1-8c1-10 1-10-7-9-6 2-7 3-4 9l3 6c1 3 1 3-2 3-3-1-4-1-7 2-4 4-4 7-1 13 3 7 18 20 21 20 2 0 4-4 8-11zm336-12a351 351 0 0 1 63-97c5-5 6-8 6-15 0-5 0-6-2-6s-15 13-27 28a323 323 0 0 0-53 91c0 2 6 5 8 5s3-2 5-6zm-15-7 2-7c-1-1-19 4-19 6l13 7 4-6zm-23-6c1-2-4-18-6-18s-5 7-7 12c0 3 0 3 5 5 5 3 8 4 8 1zm21-6 9-4c2-1 11-20 10-21 0-2-16-1-19 1-2 1-4 4-8 12l-5 13c0 2 3 1 13-1zm-33-10a434 434 0 0 1 87-126c13-12 13-13 9-17-3-1-3-1-8 3a399 399 0 0 0-101 146l7 4c1 0 3-3 6-10zm23-6c7-14 7-17 4-26-3-8-4-7-12 8l-6 12 2 9 4 9 8-12zm-60 5 1-8v-3l3 2c5 3 9 3 12-1l3-5v-4c1-2 0-5-2-16l-3-10c0-3-2-3-12 3-14 8-19 13-19 20 0 4 4 8 8 8s4 2-2 8l-4 6c1 2 9 5 13 5 2 0 2 0 2-5zm-266-19c5-16 5-24-1-29-4-3-10-3-12 1-1 2-1 2-2 0l-2-7c-1-8-2-8-9-5-6 2-6 4-2 7l7 9-2 1c-2-1-4 0-5 1-3 2-3 3-3 7l4 9c3 4 20 16 22 16 1 0 3-3 5-10zm115 4c4-3 4-5 0-7l-5-6c-2-4-2-5-1-13l1-8c-1-2-4-1-7 4-6 8-8 18-6 25 3 6 13 9 18 5zm45-1c3-2 6-7 6-12s-4-14-8-18c-5-5-6-4-5 5 0 10-1 14-7 17l-3 2c-1 2 1 7 3 7 3 2 11 1 14-1zm196-5c6-1 6-1 13-12l4-9-11-1c-9 1-10 1-12 3-4 4-10 16-10 18s1 2 6 2l10-1zm-14-14c8-12 9-14 8-21s-3-11-4-11l-8 10-6 10 1 7c1 9 3 12 4 12l5-7zm-204-2c5-4 6-8 6-15-1-6-1-6 1-6 6 2 9 2 13 0 5-2 7-7 7-13 0-8-11-15-19-11-4 3-6 2-4-2 3-3 2-10 0-14-4-7-14-9-20-4-4 3-6 11-5 16s1 6-3 4-10-1-13 1c-7 5-8 14-3 19 4 5 8 6 14 5h5v6c-1 7 1 12 6 14 5 3 12 3 15 0zm-12-25c-6-2-8-10-4-15 4-3 7-4 12-3 9 3 9 15 0 18l-4 2-4-2zm9-4c6-6-2-15-8-11-4 3-5 10-1 12 2 2 7 1 9-1zm244 17 6-7 7-9c5-5 4-6-8-6h-12c-2 1-15 20-14 21s4 2 12 2l9-1zm-86-9 2-5c2-7 2-8 6-5 3 3 9 3 12 0 6-6 7-14 4-28-2-11-2-11-13-7l-15 6c-6 4-9 10-9 14 1 4 5 7 9 7l3 1-5 6c-4 2-6 5-6 6l10 7 2-2zm64-1 5-6a274 274 0 0 1 7-9c3-4 3-5 3-11 0-5 0-8-2-10-1-1-1-1-6 4l-9 10c-4 6-4 7-4 11 1 7 3 13 4 13l2-2zm-380-15c4-16 4-26-1-31-4-4-10-2-12 3-1 2-3-1-4-6l-1-6c-1 0-11 4-12 6-1 1 0 2 4 6l5 5h-4c-2 1-5 2-6 4-3 4-3 7 3 12 5 5 23 15 26 14 0 0 2-3 2-7zm434-11 9-10c0-2-4-3-14-3l-8-1-6 5-13 15c1 2 6 3 15 3h7zm-23-11 10-10v-8c0-5-1-8-2-9l-18 16c-3 4-3 5-3 12 0 8 1 10 2 10l11-11zm-222 1 8 2c5 3 7 3 8-2 2-5 0-10-4-13-2-2-3-2-7-2-8 0-13 3-17 11-6 10-5 13 3 7l9-3zm-55 4v-11c0-11 1-15 8-18l5-3c0-4-9-8-14-6h-4l-4-8c-6-15-12-21-21-23-7 0-10 1-15 6-4 5-5 10-3 14 2 5 3 5 7 2 5-4 9-4 15 0s10 11 11 20c1 13 9 29 13 29 2 0 2-1 2-2zm311-19c0-5-1-8-2-9-1 0-15 12-15 14 0 1 7 3 14 3h3zm-91-6c2-7 3-7 5-4 6 5 14 3 18-4 2-4 2-6 3-18l-1-14c-2-1-25 3-29 6-12 5-13 17-3 20 4 0 3 2-3 6l-5 5c0 2 9 8 11 8s3-2 4-5zm82-2c8-7 9-8 7-9-2-3-12-8-13-7-3 1-5 6-5 12 0 7 1 10 3 9l8-5zm-463-4 2-11c3-14 0-22-9-22-3 0-5 1-6 3l-3 2-3-6c-1-5-2-7-3-7-2 0-11 5-11 7-1 0 1 3 5 6l6 5-3 1c-3 0-6 3-6 6 0 4 8 12 14 14l9 4c6 4 7 3 8-2zm87 500 9-1-5 1h-4zm461-62c-12-8-12-8-6-16 4-4 5-5 7-2l4 1c3 0 3 1 3 3 0 3 0 4-4 2-4-3-7-2-8 0s-1 3 3 6l7 5c2 0 2 1 2 4v3l-9-6zm-47-121c-7-4-8-11-1-7 4 2 11 1 14-2 2-1 3-4 4-7 0-6 1-7 4-3 2 4 1 12-2 16-3 5-13 7-19 3zm-122-16 2-1c0-1 1-1 0 0l-2 1zM141 532h2c1 1 0 1-1 1l-1-1zM7 452l-5-2c-2 1-2 0-2-2 0-3 2-4 6-2 2 2 5 2 6 0s0-5-7-8c-4-3-5-4-5-6 0-3 3-3 6 0l5 4c5 3 8 6 8 8s-6 10-7 10l-5-2zm450-79h5c7 0 8 1 1 1l-6-1zm4-11c-2-1-1-1 2-1s4 0 3 1h-5zm-56-16h6c1 1 0 1-3 1l-3-1zm-5-1c-1-1 0-1 0 0 2 0 2 1 1 1l-1-1zm6-12h3c1 1 0 1-2 1-1 0-2 0-1-1zm144-1v-1l1 2-1-1zm-327-19h4c1 1 1 1-2 1-2 0-3 0-2-1zm133-10h4l-4 1c-2 0-2 0-1-1zm-130-6h2c1 1 0 1-1 1l-1-1zm-5-1h2v1l-2-1zm69-164-3-5a376 376 0 0 0-6-13l-8-16-2-4-2-4-4-6c0-1-1-4-3-5l-4-8-7-12-6-11a484 484 0 0 0-23-43c-2-3-2-5 0-5s4 3 11 17l12 22 3 4 5-1c9-1 15 4 17 12 1 5 1 6 7 6 10 2 15 10 12 19-2 4-7 9-10 9l-4 1c-1 1 0 2 6 5 8 3 16 2 22-3 3-3 3-3 6-2 11 4 17 4 24 1 3-2 8-7 7-8l-5 1c-5 3-9 2-13 0-3-2-7-9-7-13s3-10 7-12c3-2 3-2 2-7-2-4-2-5 0-9 1-6 4-9 10-10 4-1 5-1 9 1s8 7 8 12c0 3 2 5 7 5 7 0 13 7 13 14s-5 13-11 15c-4 0-4 3-1 4 5 2 16 2 19 1l7-5c3-3 6-4 8-2l4 3c8 4 20 2 26-3 3-3 3-4-3-3-5 0-6 0-10-2-5-4-7-11-6-16 1-4 7-11 10-11s4-2 4-8c1-7 5-13 9-15 6-3 16 0 18 6l2 9v6l4 1c9 3 14 13 10 21-2 3-8 8-10 8l-3 1c-1 2 0 3 5 5 7 3 19-1 25-8l3-2 6 3c5 4 14 6 19 5l10-5-4-2c-5-1-9-4-11-8s-2-5-1-9c1-6 7-12 11-12 3 0 5-2 6-6 0-5 3-9 8-11 5-3 10-3 14 1 7 4 9 11 6 19l-1 5 3 3c9 9 5 23-7 26l-4 1 2 2c6 5 14 5 21 0 4-3 4-3 9 0 2 2 6 3 9 4h10c8-3 8-4 3-7-7-3-10-7-10-14 0-5 0-6 4-9 4-4 4-4 10-4 7-1 9-2 9-6 0-5 9-11 16-11h5l10-17 12-17c2 0 3 3 0 5l-4 6a257 257 0 0 1-14 26l-3 6-14 22c-4 4-5 5-4 7 0 2 0 3-2 4l-5 8-7 11-6 9c-1 4-10 18-12 20a764 764 0 0 0-265 7c-19 3-17 3-20 1zm24-15c10-1 20-7 28-15l6-7 4 2c17 12 43 13 61 3l12-8 8-6 5 2c15 12 34 17 51 14a77 77 0 0 0 30-15l6 6c3 4 8 8 11 9 10 6 26 8 35 6 5-1 10-5 10-8 0-1-1-1-8 1-10 2-19 1-30-5-6-2-14-11-18-18l-3-5-7 6c-12 13-20 16-35 16-10 0-17-1-25-6-6-3-15-10-18-14l-4-3s-3 2-5 6c-8 13-25 22-40 22-13 0-25-5-35-14l-7-5c-1 0-2 2-2 5 0 4-8 14-14 18-13 9-27 9-43 1l-6-2c-1 1 2 7 5 10a39 39 0 0 0 28 4zm-44-43c3-5-2-9-6-6-2 1-2 2 0 5 1 4 4 4 6 1zm333-7v-5c-2 0-4 4-3 5h3zm-256-2c5-5-4-12-9-7-3 2-2 5 0 7 3 3 6 3 9 0zm185-7c2-1 3-6 0-8-3-4-11-1-11 3 0 3 4 7 7 7l4-2zm-96 0 4-3c0-3-2-7-6-8-2 0-3 0-5 2-3 4-3 5 1 8 3 2 3 2 6 1z" transform="translate(22 23) scale(.15858)"/><path style="fill:#000400;fill-opacity:1" d="M115 1241a110 110 0 0 1 14-23 1095 1095 0 0 1 14-24c0-3 2-6 3-8 2-1 4-4 5-7l6-9c3-2 5-6 6-8l3-5 3-5c2-4 6-11 12-18l4-7c3-5 9-14 12-14h6a595 595 0 0 0 172 5c19-2 61-8 95-15 6-1 6-1 8 1 3 3 11 19 11 20l3 6 6 8 4 8 5 8c0 3 2 5 3 6 3 4 16 27 16 30l15 29a315 315 0 0 1 11 21l2 2h-3l-4-1a940 940 0 0 0-26-47l-6-2c-9-1-14-7-14-15 0-3-2-5-5-5-4 1-9-1-13-4l-3-9c0-8 2-13 7-15l3-3c0-2-2-3-5-3-6-2-13 0-18 4l-4 2-6-2c-10-3-21-1-25 6-2 4-1 5 3 3 5-3 11-3 15 0 3 2 5 9 5 14-1 3-5 9-7 9-4 0-4 3-2 7 4 8 2 16-5 21-5 3-9 3-14 0-5-2-8-6-9-13 0-4 0-4-5-4-11-2-16-15-8-24l8-4c6 0 6-2 0-6-4-2-6-2-12-2s-8 0-14 4l-7 3-4-2-10-4c-5 0-6 0-12 3-8 4-12 11-5 8h7c4 0 6 1 8 3 7 11 5 19-7 24-3 1-4 2-4 4 1 4 0 11-1 14-5 9-18 10-25 2-3-3-3-4-3-11v-7l-3-1c-4-2-10-8-11-12-1-5 6-13 13-15l3-1c2-2-8-7-14-7-4 0-13 3-16 6l-4 2-6-3c-8-5-12-6-19-4l-8 3c-1 2-1 2 1 3 8 2 13 8 13 14 0 8-5 14-13 14-5 0-7 1-7 6s-2 9-6 12c-5 4-13 4-18 1-7-5-9-14-5-21l2-4-3-2c-5-4-7-11-5-17 3-4 6-6 13-6 5 0 6-1 3-3-5-5-16-6-22-3l-4 2-4-3c-5-3-6-4-13-4-9 0-9 0-12 3-3 2-3 3-2 4l4 1c2 0 4 1 7 4 4 3 4 4 4 9 0 6-2 11-6 14l-10 1h-7l-1 3c-1 8-6 13-16 13h-6l-4 7a5325 5325 0 0 0-13 21c-8 12-10 15-12 15l-2-1zm228-56 2-4c0-2-5-6-7-6-3 0-6 3-6 6s3 6 6 6l5-2zm-96-5-1-4c-2-4-12-1-11 3l1 2c0 1 1 2 3 2 4 2 7 1 8-3zm185-2 4-4c1-3 1-3-1-5s-7-3-9-1c-3 3-3 6-1 8 3 3 4 3 7 2zm-265-5c2-2 2-6 1-6-2 0-5 6-5 7 1 1 2 1 4-1zm173-15c5-8 11-14 17-17 20-11 45-9 60 6l7 6 4-7c4-8 11-15 19-19 7-3 19-4 28-2l6 1c2-1-3-4-9-6-11-2-26 0-36 6-4 3-12 11-14 15-1 3-2 3-9-2-8-5-12-7-20-8-20-3-37 2-51 15l-8 6-8-5-9-7c-5-3-14-5-22-6-14-2-30 3-40 11l-6 4-8-7c-5-5-9-8-15-11-7-3-8-3-20-3l-14 1c-2 3-1 3 7 2 19-3 36 6 44 24l4 6 7-7c16-17 36-21 56-12 8 3 14 8 21 16 2 4 5 6 5 6l4-6zm-4-13 9-6 10-7 4-3-50 1 3 3c5 2 12 6 17 11 4 2 4 2 7 1zm-83-4c5-3 13-8 18-9 4-1 5-2 3-3l-14-1a643 643 0 0 1-34-3l7 5 10 9c5 5 6 5 10 2zm173-11 11-9 3-2a1363 1363 0 0 1-47 7l6 2 11 6 8 3 8-7zm48-17-5-1c-5 0-8 2-4 2 7 2 9 2 9-1zM14 969c0-3 0-4 1-3v4c-1 1-1 1-1-1zm0-16c0-4 0-5 1-4v6c0 2-1 1-1-3zm0-16c0-2 0-3 1-2v3c-1 1-1 0-1-2zm154-9a1335 1335 0 0 0-83-44l-5-3V725l-12-2-54-4c-12-1-14-1-14-4h17a1333 1333 0 0 0 56 6c9 0 25-1 31-4 10-3 17-12 18-23 1-5 1-6-2-10-5-8-13-10-21-5-6 3-6 5-6 14v7h-7a413 413 0 0 1-78-4H0V485l3 2a281 281 0 0 1 81 105c6 16 12 35 14 46l3 9c2 2 5 3 5 1 1-1-5-26-9-38-8-24-23-53-37-73a319 319 0 0 0-58-57c-1-1-2-2-2-5v-3l6 4a273 273 0 0 1 103 163c3 14 3 14 6 15 4 2 5 1 5-3 0-3 0-4 2-5h10l1 5c0 5 2 8 5 6l1-7c0-12-1-14-12-12h-9l-3-12c-3-12-3-13 5-13 5 0 5 0 6 3 2 4 3 5 5 4 3-1 3-3 1-10-2-8-3-9-7-8-14 4-14 4-15 3-2-2-9-21-8-23 0-1 7-4 10-4 1 0 3 1 4 4s2 4 4 4c4 0 5-2 1-10-3-9-4-9-14-5-9 4-10 4-13-2l-5-10-3-6c0-2 10-8 12-8l3 4c3 4 5 5 7 2 1-1 0-3-3-8l-5-8-15 7-4 2-12-19c0-2 8-8 10-8l3 2c3 3 6 4 7 1s-7-13-10-13l-9 6-8 6-3-3-8-10-6-7 4-4c5-5 7-6 11-3s6 3 7 1c0-2-10-14-12-14l-8 7-9 7-16-16 4-7 5-4 4 2c5 2 7 2 7-1 0-2-5-7-9-9s-5-1-13 6c-7 7-7 7-9 6l-7-5c-3-2-4-3-4-5v-3l5 3 8 4c1 0 4-2 7-6 7-8 9-8 16-2l9 8 3 3-2 4c-4 5-6 5-10 2-3-2-5-2-7 2-1 2-1 2 3 7 7 6 7 6 15-1l8-7c2 0 18 17 18 19s-7 8-9 8l-4-3c-3-3-3-3-6-2-4 1-4 4 2 10 5 7 7 7 14 2 8-7 9-7 10-7 2 1 14 18 14 20s-7 7-9 7l-3-3c-3-4-4-4-7-1v4c2 5 7 10 9 10l8-4 7-4c2 0 6 5 11 14s5 10-2 13c-5 2-5 2-8-3-2-4-4-5-8-2l-2 2 2 4c3 6 7 11 9 11l8-4 9-3 10 23c1 2-2 5-7 6-4 0-4 0-6-3-1-5-3-6-7-4-2 1-2 2-2 4l3 8c2 6 4 6 13 3 7-3 10-3 11 0 2 3 6 21 5 23l-5 3c-6 1-8 1-8-3 0-3-2-6-4-6l-4 1c-1 2 2 15 4 16h19c1 1 4 17 4 23v5h-4l-4 2c1 2 13 8 15 8s2 1 2-13A309 309 0 0 0 2 424c-2 0-2-1-2-3 0-3 1-4 3-5l14-10 59-41a215 215 0 0 0 7-4l47-25c2 0 3 0 4 2l3 7 3 4-2 2-3 5c1 1 0 3-2 5-4 3-7 8-7 14l-3 7c-3 3-7 17-7 21 1 1 0 5-2 8-2 5-2 8-2 14l-1 12c-1 5 0 16 1 17v4c-1 5 0 14 2 21l2 6c-1 3 4 19 6 22l2 5c0 3 5 14 8 16 1 1 3 3 5 3 2 1 2 1 0 1-3 0-3 4 2 12 3 4 5 7 7 7l3 4c2 5 6 10 11 13l5 5c0 3 11 13 17 16l4 3c0 2 9 8 14 9 3 1 6 3 7 5 3 3 15 9 19 9l3 2a438 438 0 0 1-9 88c1 2 8 3 9 2 2-1 5-18 9-40a420 420 0 0 0-94-337c2-2 18-9 39-16l19-7c2-2 4-1 11 3 4 3 6 4 6 6 0 5 8 8 18 7 4-1 4-1 7 1 3 4 8 4 16 1 5-2 5-2 8-1 4 3 6 2 12-1 4-2 7-3 9-2 4 0 7-1 14-7 6-4 7-5 10-4 2 0 4-1 10-6l8-6 1 3c0 7 6 17 14 20 10 5 19 4 27-3l6-4v6c-2 11 0 17 7 26 5 5 15 10 21 11 7 0 15-2 21-8l5-4 1 7c1 13 7 22 17 28 5 3 7 3 13 3 8 0 14-2 20-7 3-3 13-20 17-31 2-7 6-11 10-11 2 0 2 0 2 2-2 5 6 27 11 32 9 10 22 9 32-1 6-6 8-11 7-21v-8h4c8 0 16-7 19-15l1-12v-8h3a587 587 0 0 1 94 51l4 1v20a5125 5125 0 0 1 2 139c1 1 24 4 31 3l15 1a87 87 0 0 0 24 2c7 0 8 0 8 2s0 2-11 2l-47-4c-22-2-32-2-39-1-13 3-21 9-26 18-1 2 1 12 3 16 2 3 8 6 12 7 5 0 12-3 15-7 2-3 2-4 1-14l1-1 9-2a755 755 0 0 1 82 4v106l-1 105-11-11c-7-5-16-15-22-21-13-15-24-31-22-31l4 2c13 5 30-6 29-18-2-9-5-15-10-18-5-4-6-4-12-4-8 0-13 2-17 8-3 3-3 5-3 9l-1 6a264 264 0 0 1-28-78c-2-8-4-11-8-11-3 0 0 19 7 40a270 270 0 0 0 94 135l1 4v4l-5-4-13-11a319 319 0 0 1-52-62c-19-31-32-68-38-104 0-5-2-7-7-9h-3v7c0 8 0 8-8 8-5 0-6-1-7-6 0-3-1-4-3-4s-2 1-2 7v9c1 3 1 3 7 3l10-2c6 0 5-2 8 14l2 9-2 2-7 2h-4l-2-4c-2-4-2-5-4-5l-3 2c0 3 2 13 4 15l2 2 8-3 10-1 8 24-11 4-4-6c-2-4-4-5-6-2-1 1-1 4 1 9l5 8c1 1 3 0 9-2 10-3 9-4 16 10 6 10 6 11-2 15-4 1-5 1-8-4-1-3-5-4-6-2s6 15 8 16c1 1 4 0 10-3l9-5 5 7 6 10c2 3 0 5-6 8l-4 2-2-2c-3-3-7-4-8-1 0 2 9 13 10 13l8-5 8-5 17 18c0 2-7 9-9 9l-5-3c-3-4-6-4-7 0 0 2 10 13 12 13l9-7 8-6 4 4 8 7 5 5-4 6-4 4-3-1c-4-2-7-2-8 0-2 2 1 6 7 9 4 3 7 2 13-5l6-7c2-1 4 0 8 3l5 3 1 3v4l-6-4-6-4-13 13c-2 4-5 3-14-5-6-4-8-7-8-8 0-2 2-4 5-7l4-4 3 1c5 3 9 2 6-3-1-2-8-7-10-7s-5 2-8 6l-8 6c-2 0-16-15-17-18-1-2-1-3 2-6 5-4 6-4 9 0 2 3 6 4 8 2s1-5-4-11l-6-5-3 2-7 5-6 3c-2 0-12-13-14-18-1-2-1-3 2-5 4-4 6-4 9 0 3 3 3 3 5 2 4-2 4-5 0-10-4-6-5-6-14 0-7 4-8 4-11 0l-11-20 11-6 3 5c3 4 5 5 7 2 2-1 2-3-2-10-3-7-6-7-16-3-4 1-7 2-8 1s-10-20-10-23c0-2 3-4 9-5 3 0 4 0 6 4 2 5 3 6 6 3l2-2-2-6c-3-9-4-10-14-7l-9 3c-1 0-3-4-6-16-3-10-3-11 4-12 5-1 6 0 7 4 2 5 4 6 8 3 2-1 2-2 1-8l-2-7h-14c-5 2-6 2-7 0-2-1-4-12-4-20l-1-6 6-1c6-1 8 0 8 5l1 4c2 2 6 1 6-1 2-3 1-11 0-12l-26-12c-3 0-3 6 0 25a317 317 0 0 0 100 193c20 18 45 35 48 33l1 3c0 3-1 4-5 7l-7 4-10 7a200 200 0 0 1-24 17c-31 19-78 45-83 45-2 0-6-5-7-9l5-12a104 104 0 0 0 10-20 167 167 0 0 0 10-80c-1-14-2-17-6-32a112 112 0 0 0-17-39c0-5-12-22-14-22l-3-4c-2-4-10-13-14-13-2 0-2 0-1-1v-3c0-2-13-13-18-15l-7-5-9-5-7-5c-2-2-17-10-20-10-5 0-2-43 5-73 5-20 5-20 1-21-4-3-5-2-8 8a443 443 0 0 0-4 183 5474 5474 0 0 1 4 18 383 383 0 0 0 89 165 386 386 0 0 1-59 24l-7 3-7-4-7-4c0-5-10-9-17-8-5 1-6 1-8-2-4-3-7-3-14 1-6 2-6 2-9 0-3-1-3-1-8 1l-8 4c-3 2-3 2-6 1-4-2-9 0-14 4l-5 4h-4l-7 4-7 4-4-6c-7-16-23-21-37-14-4 2-7 3-8 2l-1-8c-1-13-7-21-18-27-9-4-22-2-31 5-4 3-6 1-6-5 0-7-4-14-9-19-9-7-17-9-28-6-15 4-19 8-31 36l-5 10-4 1c-3 0-3 0-3-3s-4-17-7-22c-6-12-11-16-22-16-5 0-7 0-11 3l-7 6c-3 4-4 5-4 13 0 12-1 14-3 14-4 0-11 3-14 6-6 5-8 10-8 22v10l-12-7zm394-8a449 449 0 0 1-94-231l-1-8-26-1h-26c-2 2-2 2-1 21a558 558 0 0 0 53 206l3 7h5c6 0 8-2 7-5l-9-23c-12-27-13-30-20-51a566 566 0 0 1-26-142l15-1c13 0 14 0 16 2l2 4a532 532 0 0 0 67 194c11 16 11 17 16 19 2 1 7 4 9 7l8 4 2-2zm-50-15c6-1 6-1 11 1 8 4 8 2 2-10a553 553 0 0 1-66-180 2306 2306 0 0 0-3-14l-1-4c-2-2-18-2-21-1-4 1-4-1-1 24a619 619 0 0 0 52 184l2 3 9-1 16-2zm78 0 4-3s-2-3-6-5l-5-6 4-1 5-5c3-8-2-13-20-19l-13-4c-1 1-5 16-5 21l2 7c1 4 2 5 4 7 5 3 10 3 13 0 4-3 5-2 6 3 1 9 1 9 11 5zm-153-1c4-3 7-11 7-16-1-4-3-5-6-2-5 5-14 3-20-5-3-4-4-9-11-31l-6-12c-3-2-4 0-3 4 3 11-1 21-10 26-4 2-4 2-3 5 2 4 7 5 13 5l5-1 1 4c2 7 3 10 7 15 4 6 6 7 11 9s11 2 15-1zm-267-2c7-1 15-5 18-8 4-6 3-13-2-15-4-2-4-3 1-7l5-5c0-1-9-8-11-8l-2 4-1 6-1 4-3-3c-3-3-4-4-8-4-5 0-8 2-11 6-1 4-2 32 0 32 2 1 7 0 15-2zm-44-16a419 419 0 0 0 92-144c0-3-3-6-7-6l-4 5a473 473 0 0 1-104 148c0 1 8 6 11 6l12-9zm137 5a507 507 0 0 0 65-191c1-2 0-3-5-3-7-1-10 0-11 5-6 22-10 38-16 55-10 30-27 66-41 90-11 18-11 16-7 24l6 13c5 12 6 13 9 7zm384-4a643 643 0 0 0 104-63l-9-7a391 391 0 0 1-38-31 364 364 0 0 1-91-155c-4-17-9-48-10-66l-1-12-11-5a3791 3791 0 0 1-23-11c-9-5-13-6-14-5a272 272 0 0 0-12 83l11 8a209 209 0 0 1 91 91 188 188 0 0 1 12 118c-3 15-6 24-15 42-3 7-5 12-4 13 0 2 4 3 10 0zm-547-3 1-22-4 1-13 14 8 6c5 3 7 4 8 1zm17-15 9-8v-25c-1-2-3 0-11 9l-9 9v23c1 2 3 0 11-8zm-24-7c4-3 7-7 7-8l-8-1-9 1v5l2 10 8-7zm151-4a499 499 0 0 0 66-164c2-1 23-2 24 0l-5 29a577 577 0 0 1-41 131c1 2 12-2 14-5a515 515 0 0 0 46-165l-1-4h-46a431 431 0 0 1-65 164l-5 11c-1 2 6 5 9 5l4-2zm311-1 6-4-4-5-5-6 3-1c3 0 7-4 7-8 0-8-9-15-25-21l-6-1c-2 2-5 15-5 23 0 7 0 8 2 10 4 4 8 6 12 4l4-1 2 5c1 8 1 8 9 5zm-212-2c8-3 15-14 13-17-1-1-2 0-7 2-4 3-6 3-9 2-2 0-5-1-7-3l-3-2-3 4c-1 4 0 10 3 13 2 2 9 3 13 1zm-138-5c10-3 15-6 18-10 3-3 4-5 4-8s-3-7-6-7c-4 0-3-2 3-8l5-7-12-6c-2 0-3 2-3 6l-2 7-1 3-4-3c-4-2-5-3-9 0-3 1-5 6-5 14 0 6 1 17 3 21l9-2zm181 1c4-3 6-10 5-17v-6l5 1c10 1 17-5 16-14-1-8-9-12-19-10h-4v-4c2-9-4-18-11-17-11 0-16 8-14 19l1 4-6-1c-10-1-15 3-15 11 0 4 3 9 6 11l9 1h7l-1 3c-2 7 2 17 7 19 3 2 10 2 14 0zm-13-25-4-5c-1-4 1-10 3-11 4-3 9-2 12 0 8 9-3 24-11 16zm10-4c2-2 3-5 0-8-1-2-6-3-9-1-2 1-3 8-1 10s8 1 10-1zm-242 21c7-9 11-15 11-17l-2-12c0-11-1-12-6-6l-8 11-5 7v11c0 16 1 17 10 6zm-26-3 8-11c0-1-2-2-11-2h-10l-8 9-8 10c1 2 5 3 13 3l7-1zm-23-7a358 358 0 0 0 74-118c0-2-4-4-6-4-1 0-5 6-9 15-20 41-42 75-63 97-4 4-5 6-5 10s1 6 2 6l7-6zm40-15 9-11c5-8 5-11 0-10l-9 1h-7l-8 11c-7 9-8 11-7 12l10 1h9zm33-7 7-11-1-10c-1-13-2-16-4-16l-6 8c-9 15-8 14-8 25 1 12 2 15 3 15l9-11zm-61-12a351 351 0 0 0 49-89c0-2-1-3-11-8l-13-6-4 6c-5 12-16 20-28 22-7 0-12 2-12 4v91c1 2 10-8 19-21zm657 19-7-6a395 395 0 0 1-66-59l-7-9a342 342 0 0 1-58-116c-4-15-8-41-10-61 0-7 0-8-3-10s-4-1-3 10a332 332 0 0 0 143 250c5 3 10 4 11 1zm-229-13 4-3-3-6c-5-4-5-6-1-7 3 0 7-6 7-9 0-6-5-11-19-20-7-5-8-5-10 0l-3 5c-5 8-7 22-2 28 1 2 3 3 6 3l6-1c2-3 3-2 3 1 2 12 2 11 5 11l7-2zm-175-10-2-8c0-7 2-14 7-16 4-2 4-4 0-7-5-4-14-2-17 4-3 4-3 13 0 19 4 7 8 11 10 11s2 0 2-3zm46 0 6-8c3-7 4-16 1-21-3-7-11-9-18-5-4 3-4 5 1 8 7 3 8 10 4 25 0 3 0 3 2 3l4-2zm-252-5c3-2 12-17 12-20 0-2 0-2-8-2l-11 3c-3 1-13 19-13 21h10l10-2zm90 0c12-7 19-14 19-20 0-4-2-7-7-8l-4-1 7-9 1-3c-1-2-13-5-14-4l-1 7-1 7-3-3-4-1c-5 0-8 3-9 9-1 3 1 14 5 28 0 2 4 1 11-2zm-56-12 6-11-1-7c-3-12-5-17-7-17l-6 11-6 11 2 11 2 13c2 3 4 0 10-11zm-26-15 9-2c2-1 11-19 11-21s-1-2-8 0c-12 3-14 4-18 12s-5 12-3 12l9-1zm41-16 5-13c0-1-2-3-7-5l-8-3c-3 1-3 6-1 15l2 10 3 6c1 0 4-4 6-10zm310-2 6-3-3-7c-4-7-4-7-1-7s8-3 9-5c3-5-1-16-8-21a255 255 0 0 1-14-10l-4 4c-10 17-10 17-10 23 0 9 6 15 13 12l4-2v8c-1 8-1 9 2 10l6-2zm-336-11c6-2 8-3 10-6l1-4-13-7c-2 0-9 13-9 16 0 4 1 4 11 1zm92-8c14-9 18-17 13-25-2-3-3-4-6-4-4 0-4 0 1-8l3-6-8-3c-8-2-10-1-8 3v14l-2-1c-2-2-8-1-11 1-4 3-5 8-2 16l3 7 2 6c2 5 4 7 5 7l10-7zm126 6c5-2 9-7 10-13v-20c-1-16 0-21 3-25 3-2 3-2 2-4-2-2-8-1-12 3-3 3-4 4-5 10l-1 8c2 5 1 19 0 22-2 4-5 5-8 2-2-3-3-3-3-20-1-18-1-21-7-25-3-2-6-3-8-1s-2 2 1 6l2 4v15c-1 24 1 32 8 37 5 2 13 3 18 1zm-173-40a843 843 0 0 0 6-70l-14-9a222 222 0 0 1-72-63l-2-2 1 3 1 4 1 3 4 8a369 369 0 0 1 24 95c2 20 2 20 4 21l33 16c9 4 10 4 11 2l3-8zm-146 0c13-5 19-9 20-16a145 145 0 0 0-8-68c-8-16-13-18-28-18-7 0-10 1-15 3l-8 5c-2 2-4 3-8 0h-7c-6 1-10 5-10 8 0 4 2 6 5 6l6 1c2 0 1 1-5 4-7 3-9 5-9 10s3 7 8 7l4 1-4 3c-9 4-13 11-10 17 1 3 3 4 8 3 5 0 6 1 1 4-9 6-10 17-1 21l6 1c3-1 7 1 7 4 0 2 11 5 14 3h4c7 3 20 4 30 1zm-42-62h2c1 1 0 1-1 1l-1-1zm-6-18h2c1 1 0 1-1 1l-1-1zm478 68c2 0 2-2 0-7-3-7-4-12 0-9 2 2 9-1 10-3 2-4 0-11-3-17-4-6-13-16-15-16s-11 9-15 17c-8 12-2 25 9 20l3-1-1 7c-2 11-1 11 5 11l7-2zm-338-13c-3-33-9-60-21-92A340 340 0 0 0 11 417c-4 1-4 4 0 6a312 312 0 0 1 147 239c0 13 1 15 5 15 2 0 2-1 2-10zm225 4c10-7 20-21 25-33 2-5 2-7 2-20s0-14-3-22c-3-9-11-20-21-27-9-8-13-7-23 6-8 9-14 19-16 27-2 10-2 32 1 38 6 13 24 34 30 34l5-3zm-10-11c-8-7-16-19-19-28-3-10-2-23 1-31 3-7 10-17 18-23l5-4 4 3c4 2 14 14 16 19 3 5 5 15 5 22 0 8-2 17-7 24-2 5-17 20-19 20l-4-2zm9-4 7-8c12-16 15-29 9-45-2-9-8-16-15-21-5-4-6-4-14 4-12 13-14 19-14 34 0 9 1 10 5 18 5 11 9 16 13 18s6 2 9 0zm-10-14c-4-6-7-10-8-16-2-7-1-17 2-23 3-5 10-14 12-14 5 0 13 15 14 26 0 6 0 7-3 14-3 8-10 17-13 17l-4-4zm9-4c3-3 5-6 7-14s1-15-3-23c-5-9-8-10-13-3-9 11-8 28 0 39 4 4 6 4 9 1zm-109 20c9-8 12-13 13-20 0-4 0-5-2-7s-4-2-9-1c-4 1-4 1-1-7v-7l-6-2c-7 0-7 0-4 9 1 7 1 9-2 7-5-4-12-1-12 5s2 10 7 18l5 9 3 3 8-7zm-149-3c0-4-1-5-3-5-5-1-5 8 0 10 4 1 4 0 3-5zm594-10 5-4c1-3 4-4 11-3 8 1 12 1 15-2s4-6 3-10c-1-2-2-2-6-2h-4l2-2 6-4c5-2 7-5 7-9 0-3-3-6-7-6-3 0-3-1 4-7 5-5 6-6 6-10 0-5-3-8-8-8-5 1-5 0-2-3 7-4 9-13 4-18-2-3-4-4-9-4s-6-1-7-4l-2-4h-10l-13-1c-3-1-14-2-18 0l-8 2c-6 2-16 9-18 15-2 4-2 6-2 15 1 18 9 49 15 61 2 3 10 8 16 9 5 1 15 0 20-1zm-17-18 1-2v2l-1 1v-1zm34-2h2v1l-2-1zm-20-16h2v1l-2-1zm17-1 3-1v1h-3zm-21-16h2v1l-2-1zm17-28 2-1-2 1c-1 1-1 1 0 0zm-384 59 1-23c2-7 1-7-18-7l-26 1c-2 2-3 41-2 44s3 3 25 3h20v-18zm112 17c2-1 2-4 3-23v-23c-1-1-45-2-46-1l1 12c1 10 1 27-1 31l2 3c1 2 4 2 20 2l21-1zm39-21-1-5v-7c0-3 1-3 2-2 1 2 5 3 8 1 6-2 6-11 2-21-3-7-9-15-11-16-3-2-15 9-20 17-4 7-4 13 0 17 2 3 3 3 7 3 5-1 5 0 2 7s-3 7 8 8l3-2zm-222-18c6-8 12-21 13-25 0-4 0-5-2-7-3-3-7-4-11-1l-2 1v-16h-7l-4 2c-2 1-2 1-1 4 2 3 4 10 3 10l-3-1c-2-1-8 1-9 3-1 3-1 8 1 11 1 4 18 22 19 22l3-3zM57 585c7-3 9-7 9-17 0-6 0-7-3-11-4-6-10-8-18-8-6 0-8 1-11 4-6 4-9 9-8 16 0 10 4 15 12 19 5 1 13 0 19-3zm-1-17c-5-6-13-7-19-3l-5 3c-2 0-1-5 2-7 9-9 23-5 26 7 0 4-1 4-4 0zm318-4c5-5 6-10 6-24v-14c3-6 9-6 11-1l1 17c0 16 1 20 5 24 2 2 5 3 9 2 3 0 3-3 0-6-2-3-2-3-1-14 1-19 1-28-2-33-2-5-7-9-12-10-8-3-20 3-24 11v27c1 9 0 16-3 20-2 3-2 3 0 5s6 1 10-4zm-20-9a528 528 0 0 0-55-233l-12 4 6 16 15 36a521 521 0 0 1 31 166c-2 2-27 3-29 1l-1-8-11-55c-14-54-35-103-65-149-3-5-9-9-13-9-2 0-1 1 3 8a438 438 0 0 1 66 144l12 64c2 17 1 15 14 16a1166 1166 0 0 0 39-1zm116 1 3-12c5-28 26-90 41-118a1793 1793 0 0 0 9-16 109 109 0 0 1 10-17l4-7c3-4 4-6 3-7l-14-3-8 13a442 442 0 0 0-60 153l-1 3h-10c-13 0-14-1-13-8a628 628 0 0 1 43-153c-9 2-11 5-16 17l-7 17c-12 30-25 76-31 115-3 17-3 22 0 23h47zm40-7-1-9c1-2 1-2 5 0 5 2 8 1 11-5 2-4 2-5 1-10-1-6-8-23-10-24-1 0-17 9-20 13-7 7-9 15-5 20 2 2 4 3 7 3 4 0 4 0 3 2l-3 7-2 6 11 3h3zm-174-15a462 462 0 0 0-24-128c-6-21-28-76-31-77-1-1-21 0-29 2l-9-1c-3-1-5-2-6-1l6 12a552 552 0 0 1 71 199l11 1 11-1zm118 5 4-13a703 703 0 0 1 36-102c12-24 15-28 23-41 5-8 5-10 1-19l-6-13c-1-5-3-7-4-7a357 357 0 0 0-33 63 562 562 0 0 0-36 131c2 3 13 3 15 1zm-175-10c5-9 5-11 5-17 0-5 0-6-2-8-3-3-7-4-10-2l-3 2-1-8c1-10 1-10-7-9-6 2-7 3-4 9l3 6c1 3 1 3-2 3-3-1-4-1-7 2-4 4-4 7-1 13 3 7 18 20 21 20 2 0 4-4 8-11zm364 4c5-10 18-17 34-18l6-2c1-2 2-85 1-88-1-5-3-4-13 8-23 27-35 47-49 79-7 14-7 14 5 20l12 5 4-4zm-28-16a351 351 0 0 1 63-97c5-5 6-8 6-15 0-5 0-6-2-6s-15 13-27 28a323 323 0 0 0-53 91c0 2 6 5 8 5s3-2 5-6zm-15-7 2-7c-1-1-20 4-20 6l14 7 4-6zm-483 1-4-15a194 194 0 0 1 20-145v-5l-4-4a402 402 0 0 0-111 69l-2 2 2 2a230 230 0 0 1 20 14c24 17 55 50 71 74 6 9 10 13 8 8zm460-7c1-2-4-17-6-17s-5 6-7 11c0 3 0 3 5 5 5 3 8 4 8 1zm21-6 9-4c2-1 11-20 10-21 0-2-16-1-19 1-2 1-4 4-8 12l-5 13c0 2 3 1 13-1zm-33-10a434 434 0 0 1 87-126c13-12 13-13 9-17-3-1-3-1-8 3a399 399 0 0 0-101 146l7 4c1 0 3-3 6-10zm23-6c7-14 7-17 4-26-3-8-4-7-12 8l-6 13 2 8 4 9 8-12zm-60 5 1-8v-3l3 2c5 3 9 3 12-1l3-5v-4c1-2 0-5-2-16l-3-10c0-3-2-3-12 3-14 8-19 13-19 20 0 4 4 8 8 8s4 2-2 8l-4 6c1 2 9 5 13 5 2 0 2 0 2-5zm-266-19c5-16 5-24-1-29-4-3-10-3-12 1-1 2-1 2-2 0l-2-7c-1-8-2-8-9-5-6 2-6 4-2 7l7 9-2 1c-2-1-4 0-5 1-3 2-3 3-3 7l4 9c3 4 20 16 22 16 1 0 3-3 5-10zm115 4c4-3 4-5 0-7l-5-6c-2-4-2-5-1-13l1-8c-1-2-4-1-7 4-6 8-8 18-6 25 3 6 13 9 18 5zm45-1c3-2 6-7 6-12s-4-14-8-18c-5-5-6-4-5 5 0 10-1 14-7 17l-3 2c-1 2 1 7 3 7 3 2 11 1 14-1zm196-5c6-1 6-1 13-12l4-9-11-1c-9 1-10 1-12 3-4 4-10 16-10 18s1 2 6 2l10-1zm-14-14c8-12 9-14 8-21s-3-11-4-11l-8 10-6 10 1 7c1 9 3 12 4 12l5-7zm-204-2c5-4 6-8 6-15-1-6-1-6 1-6 6 2 9 2 13 0 5-2 7-7 7-13 0-8-11-15-19-11-4 3-6 2-4-2 3-3 2-10 0-14-4-7-14-9-20-4-4 3-6 11-5 16s1 6-3 4-10-1-13 1c-7 5-8 14-3 19 4 5 8 6 14 5h5v6c-1 7 1 12 6 14 5 3 12 3 15 0zm-12-25c-6-2-8-10-4-15 4-3 7-4 12-3 9 3 9 15 0 18l-4 2-4-2zm9-4c6-6-2-15-8-11-4 3-5 10-1 12 2 2 7 1 9-1zm244 17 6-7 7-9c5-5 4-6-8-6h-12c-2 1-15 20-14 21s4 2 12 2l9-1zm-86-9 2-5c2-7 2-8 6-5 3 3 9 3 12 0 6-6 7-14 4-28-2-11-2-11-13-7l-15 6c-6 4-9 10-9 14 1 4 5 7 9 7l3 1-5 6c-4 2-6 5-6 6l10 7 2-2zm64-1 5-6a274 274 0 0 1 7-9c3-4 3-5 3-11 0-5 0-8-2-10-1-1-1-1-6 4l-9 10c-4 6-4 7-4 11 1 7 3 13 4 13l2-2zm-380-15c4-16 4-26-1-31-4-4-10-2-12 3-1 2-3-1-4-6l-1-6c-1 0-11 4-12 6-1 1 0 2 4 6l5 5h-4c-2 1-5 2-6 4-3 4-3 7 3 12 5 5 23 15 26 14 0 0 2-3 2-7zm434-11 9-10c0-2-4-3-14-3l-8-1-6 5-13 15c1 2 6 3 15 3h7zm-23-11 10-10v-8c0-5-1-8-2-9l-18 16c-3 4-3 5-3 12 0 8 1 10 2 10l11-11zm-222 1 8 2c5 3 7 3 8-2 2-5 0-10-4-13-2-2-3-2-7-2-8 0-13 3-17 11-6 10-5 13 3 7l9-3zm-55 4v-11c0-11 1-15 8-18l5-3c0-4-9-8-14-6h-4l-4-8c-6-15-12-21-21-23-7 0-10 1-15 6-4 5-5 10-3 14 2 5 3 5 7 2 5-4 9-4 15 0s10 11 11 20c1 13 9 29 13 29 2 0 2-1 2-2zm311-19c0-5-1-8-2-9-1 0-15 12-15 14 0 1 7 3 14 3h3zm-91-6c2-7 3-7 5-4 6 5 14 3 18-4 2-4 2-6 3-18l-1-14c-2-1-25 3-29 6-12 5-13 17-3 20 4 0 3 2-3 6l-5 5c0 2 9 8 11 8s3-2 4-5zm82-2c8-7 9-8 7-9-2-3-12-8-13-7-3 1-5 6-5 12 0 7 1 10 3 9l8-5zm-463-4 2-11c3-14 0-22-9-22-3 0-5 1-6 3l-3 2-3-6c-1-5-2-7-3-7-2 0-11 5-11 7-1 0 1 3 5 6l6 5-3 1c-3 0-6 3-6 6 0 4 8 12 14 14l9 4c6 4 7 3 8-2zm87 500 9-1-5 1h-4zm461-62c-12-8-12-8-6-16 4-4 5-5 7-2l4 1c3 0 3 1 3 3 0 3 0 4-4 2-4-3-7-2-8 0s-1 3 3 6l7 5c2 0 2 1 2 4v3l-9-6zM620 703h4c1 1 1 1-1 1-3 0-4 0-3-1zm93-21c-7-4-8-11-1-7 4 2 11 1 14-2 2-1 3-4 4-7 0-6 1-7 4-3 2 4 1 12-2 16-3 5-13 7-19 3zm-122-16 2-1c0-1 1-1 0 0l-2 1zM141 532h2c1 1 0 1-1 1l-1-1zm-14-45h2l5 1-7-1zM7 452l-5-2c-2 1-2 0-2-2 0-3 2-4 6-2 2 2 5 2 6 0s0-5-7-8c-4-3-5-4-5-6 0-3 3-3 6 0l5 4c5 3 8 6 8 8s-6 10-7 10l-5-2zm450-79h5c7 0 8 1 1 1l-6-1zm4-11c-2-1-1-1 2-1s4 0 3 1h-5zm-56-16h6c1 1 0 1-3 1l-3-1zm-5-1c-1-1 0-1 0 0 2 0 2 1 1 1l-1-1zm6-12h3c1 1 0 1-2 1-1 0-2 0-1-1zm144-1v-1l1 2-1-1zm-327-19h4c1 1 1 1-2 1-2 0-3 0-2-1zm133-10h4l-4 1c-2 0-2 0-1-1zm-130-6h2c1 1 0 1-1 1l-1-1zm-5-1h2v1l-2-1zm69-164-3-5a376 376 0 0 0-6-13l-8-16-2-4-2-4-4-6c0-1-1-4-3-5l-4-8-7-12-6-11a484 484 0 0 0-23-43c-2-3-2-5 0-5s4 3 11 17l12 22 3 4 5-1c9-1 15 4 17 12 1 5 1 6 7 6 10 2 15 10 12 19-2 4-7 9-10 9l-4 1c-1 1 0 2 6 5 8 3 16 2 22-3 3-3 3-3 6-2 11 4 17 4 24 1 3-2 8-7 7-8l-5 1c-5 3-9 2-13 0-3-2-7-9-7-13s3-10 7-12c3-2 3-2 2-7-2-4-2-5 0-9 1-6 4-9 10-10 4-1 5-1 9 1s8 7 8 12c0 3 2 5 7 5 7 0 13 7 13 14s-5 13-11 15c-4 0-4 3-1 4 5 2 16 2 19 1l7-5c3-3 6-4 8-2l4 3c8 4 20 2 26-3 3-3 3-4-3-3-5 0-6 0-10-2-5-4-7-11-6-16 1-4 7-11 10-11s4-2 4-8c1-7 5-13 9-15 6-3 16 0 18 6l2 9v6l4 1c9 3 14 13 10 21-2 3-8 8-10 8l-3 1c-1 2 0 3 5 5 7 3 19-1 25-8l3-2 6 3c5 4 14 6 19 5l10-5-4-2c-5-1-9-4-11-8s-2-5-1-9c1-6 7-12 11-12 3 0 5-2 6-6 0-5 3-9 8-11 5-3 10-3 14 1 7 4 9 11 6 19l-1 5 3 3c9 9 5 23-7 26l-4 1 2 2c6 5 14 5 21 0 4-3 4-3 9 0 2 2 6 3 9 4h10c8-3 8-4 3-7-7-3-10-7-10-14 0-5 0-6 4-9 4-4 4-4 10-4 7-1 9-2 9-6 0-5 9-11 16-11h5l10-17 12-17c2 0 3 3 0 5l-4 6a257 257 0 0 1-14 26l-3 6-14 22c-4 4-5 5-4 7 0 2 0 3-2 4l-5 8-7 11-6 9c-1 4-10 18-12 20a764 764 0 0 0-265 7c-19 3-17 3-20 1zm14-8c2-2 0-2-6-3l-6 1c0 3 2 4 7 4l5-2zm36-5a5274 5274 0 0 0 19-3l9-1 13-3-5-1c-7-1-11-3-19-7l-8-4-7 7-13 9c-6 3-7 5-3 5l14-2zm-26-2c10-1 20-7 28-15l6-7 4 2c17 12 43 13 61 3l12-8 7-6c1-1 3 0 7 3 15 12 33 16 50 13a77 77 0 0 0 30-15l6 6c3 4 8 8 11 9 10 6 26 8 36 6 4-1 9-5 9-8 0-1-1-1-8 1-10 2-19 1-30-5-6-2-14-11-18-18l-3-5-7 6c-12 13-20 16-35 16-10 0-17-1-25-6-6-3-15-10-18-14l-4-3s-3 2-5 6c-8 13-25 22-40 22-13 0-25-5-35-14l-7-5c-1 0-2 2-2 5 0 4-8 14-14 18-13 9-27 9-43 1l-6-2c-1 1 2 7 5 10a39 39 0 0 0 28 4zm256 0 2-3c0-2 0-2-8-2-15 2-30-4-41-16l-6-4-5 3c-7 5-16 9-24 11-11 2-16 1-25-1-10-2-16-6-24-11l-6-4-5 4c-7 6-12 9-18 12l-9 4h22c57-2 81 0 136 7h11zM270 74c3-5-2-9-6-6-2 1-2 2 0 5 1 4 4 4 6 1zm333-7v-5c-2 0-4 4-3 5h3zm-256-2c5-5-4-12-9-7-3 2-2 5 0 7 3 3 6 3 9 0zm185-7c2-1 3-6 0-8-3-4-11-1-11 3 0 3 4 7 7 7l4-2zm-96 0 4-3c0-3-2-7-6-8-2 0-3 0-5 2-3 4-3 5 1 8 3 2 3 2 6 1z" transform="translate(22 23) scale(.15858)"/><g style="fill:none;stroke:#000;stroke-width:1.82777798;stroke-miterlimit:4;stroke-dasharray:none"><path style="fill:none;stroke-width:1.82777798;stroke-miterlimit:4;stroke-dasharray:none" d="M167 236c0 3-3 6-7 6H7c-4 0-7-3-7-6V7c0-4 3-7 7-7h153c4 0 7 3 7 7v229z" transform="matrix(.73316 0 0 .81584 22 22)"/></g><text xml:space="preserve" style="font-size:29.22270203px;font-style:normal;font-weight:400;line-height:125%;letter-spacing:0;word-spacing:0;fill:#000;fill-opacity:1;stroke:none;font-family:Bitstream Vera Sans" x="-165.7" y="-215.5" transform="scale(-1)"><tspan x="-165.7" y="-215.5" style="font-style:normal;font-variant:normal;font-weight:400;font-stretch:normal;font-family:Arial;-inkscape-font-specification:Arial">K</tspan></text><path d="M8 3C8-1 0-9 0-10 0-9-8-1-8 3c0 3 2 4 3 4 2 0 4-3 4-3 1 1-1 7-2 7h6c-1 0-3-6-2-7 0 0 2 3 4 3 1 0 3-1 3-4z" style="fill:#000" transform="matrix(-2.26533 0 0 -2.07121 124 194)"/><path d="M8 3C8-1 0-9 0-10 0-9-8-1-8 3c0 3 2 4 3 4 2 0 4-3 4-3 1 1-1 7-2 7h6c-1 0-3-6-2-7 0 0 2 3 4 3 1 0 3-1 3-4z" style="fill:#000" transform="matrix(-1.13877 0 0 -1.0412 156 203)"/></svg>