<?xml version="1.0" encoding="UTF-8" standalone="no"?><!DOCTYPE svg PUBLIC "-//W3C//DTD SVG 1.1//EN" "http://www.w3.org/Graphics/SVG/1.1/DTD/svg11.dtd"><svg width="100%" height="100%" viewBox="0 0 267 267" version="1.1" xmlns="http://www.w3.org/2000/svg" xmlns:xlink="http://www.w3.org/1999/xlink" xml:space="preserve" xmlns:serif="http://www.serif.com/" style="fill-rule:evenodd;clip-rule:evenodd;stroke-linejoin:round;stroke-miterlimit:2;"><g transform="matrix(5.55556,0,0,5.55556,-2607.67,-317.858)"><g id="clubs" transform="matrix(1,0,0,1,403.935,58.3971)"><rect x="65.446" y="-1.183" width="47.972" height="48.014" style="fill:none;"/><g transform="matrix(2.15342,0,0,2.34584,-732.356,-321.881)"><path d="M380.85,151.418c-0.871,1.294 -2.429,2.156 -4.205,2.156c-2.726,0 -4.939,-2.031 -4.939,-4.534c-0,-2.502 2.213,-4.534 4.939,-4.534c0.213,0 0.424,0.013 0.63,0.037c-0.401,-0.655 -0.63,-1.412 -0.63,-2.216c-0,-2.503 2.213,-4.534 4.939,-4.534c2.726,-0 4.939,2.031 4.939,4.534c-0,0.846 -0.253,1.638 -0.693,2.316c0.249,-0.036 0.504,-0.054 0.764,-0.054c2.726,-0 4.939,2.032 4.939,4.534c0,2.502 -2.213,4.534 -4.939,4.534c-1.744,-0 -3.278,-0.832 -4.157,-2.087c-0.199,1.688 0.237,3.195 1.302,4.524l-4.311,-0c1.23,-1.251 1.725,-2.801 1.422,-4.676Z" style="fill:#fff;"/></g></g></g></svg>