<?xml version="1.0" encoding="UTF-8" standalone="no"?><!DOCTYPE svg PUBLIC "-//W3C//DTD SVG 1.1//EN" "http://www.w3.org/Graphics/SVG/1.1/DTD/svg11.dtd"><svg width="100%" height="100%" viewBox="0 0 356 356" version="1.1" xmlns="http://www.w3.org/2000/svg" xmlns:xlink="http://www.w3.org/1999/xlink" xml:space="preserve" xmlns:serif="http://www.serif.com/" fill-rule="evenodd" clip-rule="evenodd" stroke-linecap="round" stroke-linejoin="round" stroke-miterlimit="1.5"><g transform="matrix(5.55556,0,0,5.55556,0,0)"><g id="folder" transform="matrix(1,0,0,1,118.941,11.3746)"><rect x="-118.941" y="-11.375" width="63.97" height="63.97" fill="none"/><g id="folder1" serif:id="folder" transform="matrix(1,0,0,1,-110.945,-3.38941)"><g transform="matrix(1.26649,0,0,1,-12.1584,1.24183)"><path d="M42.627,9c0.634,0 1.241,0.319 1.689,0.886c0.448,0.567 0.7,1.337 0.7,2.139c-0,1.893 -0,3.975 -0,3.975l-21.016,0l-0,-7l18.627,0Z" stroke="#000" stroke-width="0.88px"/></g><g transform="matrix(1.26649,0,0,1,-12.1584,1.24183)"><path d="M42.627,9c0.634,0 1.241,0.319 1.689,0.886c0.448,0.567 0.7,1.337 0.7,2.139c-0,1.893 -0,3.975 -0,3.975l-21.016,0l-0,-7l18.627,0Z" fill-opacity="0.2"/></g><g transform="matrix(1.08721,0,0,0.888581,-2.53662,1.51583)"><path d="M40.838,13.774c1.511,-0.005 2.741,1.484 2.752,3.332c0.037,5.907 0.111,18.127 0.148,24.066c0.005,0.896 -0.282,1.758 -0.798,2.394c-0.516,0.636 -1.218,0.994 -1.951,0.994c-7.14,0 -26.114,0 -33.206,0c-0.723,0 -1.416,-0.351 -1.927,-0.977c-0.511,-0.625 -0.798,-1.473 -0.798,-2.357c-0,-7.272 -0,-24.487 -0,-31.8c-0,-1.866 1.236,-3.379 2.762,-3.379c2.871,-0 7.232,-0 9.316,-0c0.76,-0 1.487,0.38 2.012,1.053c1.661,2.127 5.26,6.737 5.26,6.737c0,-0 11.137,-0.042 16.43,-0.063Z" stroke="#000" stroke-width="1.01px"/></g><g transform="matrix(1,0,0,1,0,1.63088)"><path d="M6,36l36,0" fill="none" stroke="#000" stroke-width="1px"/></g><path d="M42.034,10.242c0.791,-0 1.549,0.314 2.108,0.873c0.559,0.559 0.874,1.318 0.874,2.108c-0,5.899 -0,18.998 -0,24.901c-0,1.65 -1.338,2.987 -2.988,2.987l-0.028,0l0,-30.869l0.034,-0Z" fill-opacity="0.15"/><path d="M45.016,37.631l-0,0.501c-0,0.79 -0.314,1.548 -0.873,2.107c-0.559,0.558 -1.316,0.872 -2.107,0.872c-7.72,0 -28.311,0 -36.065,0c-1.662,0 -3.009,-1.347 -3.009,-3.009c-0,-0.286 -0,-0.471 -0,-0.471l42.054,-0Z" fill-opacity="0.15"/></g></g></g></svg>