<svg viewBox="0 0 48 48" xmlns="http://www.w3.org/2000/svg" xml:space="preserve" style="fill-rule:evenodd;clip-rule:evenodd;stroke-linecap:round;stroke-linejoin:round;stroke-miterlimit:1.5"><path style="fill:none" d="M83 0h48v48H83z" transform="translate(-83)"/><path d="M126 302v18c0 5-4 9-9 9h-17c-5 0-9-4-9-9v-18c0-5 4-9 9-9h17c5 0 9 4 9 9Z" style="fill:#fff;stroke:#000;stroke-width:1.32px" transform="matrix(.74432 0 0 .774 -57 -217)"/><path d="M119 315v5l-4 2-2 3-2-3-4-2v-5c0-2 2-3 3-3h6c2 0 3 1 3 3Z" style="fill:none;stroke:#000;stroke-width:1.28px" transform="matrix(.79065 0 0 .774 -62 -217)"/><path d="M119 307H97m-3 9h9" style="fill:none;stroke:#000;stroke-width:1.32px" transform="matrix(.74432 0 0 .774 -57 -217)"/><path d="m104 299-6 23" style="fill:none;stroke:#000;stroke-width:1.32px" transform="matrix(.74312 .00435 .00419 .75884 -58 -212)"/><path d="m115 300-2 8" style="fill:none;stroke:#000;stroke-width:1.32px" transform="matrix(.74432 0 0 .774 -57 -217)"/></svg>