<svg xmlns="http://www.w3.org/2000/svg" width="222.8" height="323.6" viewBox="0 0 167.1 242.7" xml:space="preserve"><g style="fill-rule:nonzero;clip-rule:nonzero;stroke:#000;stroke-miterlimit:4"><path style="fill:#fff;stroke-width:.5" d="M167 236c0 3-3 6-7 6H7c-4 0-7-3-7-6V7c0-4 3-7 7-7h153c4 0 7 3 7 7v229z"/></g><path style="fill:#e2d200;fill-opacity:1" d="m132 1233 4-8-5-7c-11-13-15-21-29-63-3-12-6-20-9-23-6-9-4-12 10-12s33 6 44 15c5 4 11 11 17 20l5 4c1 0 4-4 8-13l6-13v-20c-1-18-1-22-4-34-3-16-8-31-11-34-2-3-3-3-7-2-10 1-20-9-20-21 0-6 1-10 5-13 4-5 8-6 14-6 7 0 8 1 16 7l7 5c0-3-7-23-11-30l-4-9h-6c-11 2-19-4-21-15-2-10 0-17 9-22l3-3-11-7a882 882 0 0 1-50-26c-2-1-6 1-15 8l-10 6-7 3a3103 3103 0 0 0 0 174l15 1 16 2c6 1 3 3-53 60l-36 36c-2 1-2-22-2-483V226l14 14 29 30 15 16-1 41 1 41 12-9a791 791 0 0 1 180-104l-3-6c-3-6-4-17-2-24 2-6 6-13 12-17 6-5 13-7 24-7l8 1 2-6c3-9 12-63 13-78v-7l-11-19a2154 2154 0 0 0-49-81l-6-11h199l199 1-3 6c-3 7-4 9-1 11l14 22 13 36c5 16 10 27 14 32 4 3 4 6 0 9-3 2-4 2-16 2s-14 0-20-2c-14-6-26-16-35-28l-5-6-8 14-8 14-1 19c0 15 0 19 2 26 4 13 12 35 15 40 2 4 2 4 6 4 9-1 18 4 20 11 2 6 1 11-2 17-3 5-4 7-8 9-7 3-12 3-18 0-5-3-12-10-14-15l-3-4c-4-3-2 2 6 21l13 28h8c13 1 18 6 18 19 0 8-2 12-6 16l-4 3 10 6a1619 1619 0 0 1 47 26c6 1 7 1 17-6l12-6c3-2 4-3 4-6l1-172-15-1c-12 0-15 0-16-2-3-2-2-4 26-33a2754 2754 0 0 0 55-57l6-6v482l-1 483-10-10-38-40-8-8v-39l-1-40a2126 2126 0 0 1-77 53 794 794 0 0 1-112 59c-2 1-2 1 0 5 3 5 3 19 0 27-2 7-8 13-16 18-5 3-7 3-20 2-3 0-4 0-5 5l-9 44-8 43 2 4a2208 2208 0 0 0 62 103l-195 1H129l3-7zm187-88c2-1 3-2 5-14 4-16 5-24 3-24l-8 4c-13 5-25 8-35 8-15 1-23-4-23-12 0-4 2-5 8-2a60 60 0 0 0 33 2l19-4 8-3 2-5v-11l-9 3c-15 7-28 8-39 3-9-3-14-4-14-2-1 1 4 4 12 7 9 3 26 3 36 0l8-1c1 1-4 4-9 5-19 6-36 3-51-6-6-4-6-6-3-9 4-3 4-5 1-8l-3-2 6-5a81 81 0 0 1 46-18l1 2-15 5-14 5c0 1 5 2 11 2 12 1 15 2 23 6 14 8 16 7 16-8a512 512 0 0 1 20-101 122 122 0 0 0-82-36c-17 1-26 4-37 12a82 82 0 0 0-28 38c-7 17-10 30-11 49a331 331 0 0 1-3 33c-1 8-1 8 1 8l6-2 12-1 12 2c5 1 4-2-3-7-8-5-11-9-10-10 1-2 0-2 17 9l6 3c2 0 1-5-1-12l-7-31c0-6 3-9 11-14l8-5 2-1c4 0 2 3-5 9-10 10-11 13-7 27l7 42c0 11-2 20-6 27-8 10-24 16-38 14-9-1-10-1-10 9 0 8 0 9 2 10a273 273 0 0 0 51 7 1122 1122 0 0 0 78 3zm-52-111 5-6c5-5 6-6 6-9 0-4-2-7-6-7l-9 4c-8 4-14 5-16 2-2-2 0-6 3-8 8-4 16-6 20-7 9-1 15 7 14 17-1 4-2 5-6 10-5 5-9 6-11 4zm18-48c-2-2-3-2-7-1h-16l-13 2c-3 1-4 1-9-1h-7c-5 3-6 3-7-5-1-11 0-12 6-9 4 2 7 2 20 0h16c11 2 15 2 20-1 5-2 8-2 8 0l-8 18-3-3zm-11-23c-5-2-7-2-18-2-12 1-12 1-12-1l1-2 3-1c1-2 1-2-1-4-4-3-2-5 9-4 11 0 13 0 11 3-1 2-1 2 5 4l8 4c2 2 2 2 1 3-1 2-2 2-7 0zm-57 143c4-1 12-7 11-8l-9 1c-9 1-18 1-23-2-4-2-7-1-7 2s4 7 9 8c4 1 13 1 19-1zm7-14c10-4 10-6-1-4-10 3-16 2-23-1l-8-1c-2 1-1 3 3 5 7 4 20 5 29 1zm96-12c2-2 1-3-5-6-7-3-8-2-6 3s3 6 6 5l5-2zm-30-5 4-3c3 0 8 3 8 6 1 3 3 4 3 1l-4-5c-6-6-12-5-16 2-1 3 0 7 1 4l4-5zm-70 2c0-2-5-8-8-8h-5c-3 1-7 5-7 6 0 2 2 1 4-1 5-5 9-4 12 2 1 3 3 4 4 1zm10 0c4-2 4-4-1-6-5-3-7-2-6 2l3 5 4-1zm51-1v-5l-8 4c0 3 6 4 8 1zm-84-4 1-2c-1-1-6 2-6 3 0 2 4 1 5-1zm317-101 12-11 7 5c5 5 5 5 8 4l3-3c0-1-2-4-6-7l-5-7 12-13 13-13v-13l-12-12-13-15 4-6 12-13c9-9 9-9 9-13 0-5 0-5-12-18-9-8-13-14-13-15s4-7 12-15c12-13 13-14 12-23 0-4-13-17-16-17-4 0-4 2 1 7 5 4 11 12 11 14s-24 27-26 27-26-24-26-27c0-1 4-6 10-11l10-12c0-2-4-3-7-2l-10 10-9 9v11l13 14 13 14-19 21c-10 11-11 11 7 30 11 12 13 14 12 16l-13 15-13 14c-1 9 0 11 17 29l8 9c0 1-5 7-12 13-11 12-11 12-10 14l4 1 12-11zm-1-37-13-15c0-2 24-26 26-26 1 0 27 25 27 27l-26 27-14-13zm18-11c4-3 1-10-5-10-5 0-8 6-4 10 2 2 7 3 9 0zm-17-53c-11-12-15-17-14-18l27-25c2 0 26 25 26 27s-24 26-26 27l-13-11zm15-11c3-2 4-3 4-6 0-6-8-8-11-3-2 3-2 3-1 6l3 3h5zm-30 110c3-3 2-4-1-4-2 0-3 1-3 3 0 4 2 4 4 1zm53-7-1-5v-9l5-6c2-2 3-6 1-7-1-1-18 16-18 17 0 2 9 11 11 11l2-1zm-39-9-17-18-1 2c0 2 1 3 4 5 5 3 8 9 7 15v4l3-3 4-5zm-13 4c3-3 2-6 0-8-4-4-5-3-5 4 0 5 0 6 2 6l3-2zm58-5-2-3c-1 0-2 5-1 7 2 2 3 0 3-4zm-346 1a562 562 0 0 0 20-24c0-1-2-6-5-9l-18-28 25-24c5-4 5-4 5-10v-6l-14-15c-8-7-14-14-14-15l6-9c15-18 21-25 21-28 0-4-1-6-2-6-2 0-21-14-25-17l-3-5 10-16c5-8 11-14 12-15 2-2 0-7-3-9-9-5-31-21-31-23-1-1 9-21 16-34 3-4 3-6 2-9l-1-5-15-8c-15-8-21-11-21-13l8-19c7-17 8-18 7-21-2-4-1-3-24-14l-18-9 5-22 5-22-3-6c-2-3-3-3-6-3l-8-1a614 614 0 0 0-28-10 1139 1139 0 0 1 7-40l-2-5c-3-2-4-3-10-3a212 212 0 0 1-35-6l-1-13 2-18c2-9 1-13-1-16-3-2-15-4-17-3-3 3 0 6 6 6 5 0 5 0 4 21l-2 20-4 1c-3 0-5 2-5 4l4 2 4 2v15l1 17 3 3c1 0 2-7 3-22 1-11 1-12 6-11l33 6c1 2 1 5-1 20-2 19-1 17-6 17l-13-3-20-4c-1 2 4 5 16 8l16 6 3 1v7l-3 16v13c2 5 4 2 8-21l3-11a100 100 0 0 1 35 10c2 1 2 2-1 14-5 26-5 27-7 27l-12-4c-21-9-23-9-20-4 1 2 5 4 15 9l15 7c1 2 1 4-3 18-3 12-4 16-1 22 2 5 2 6 16 14 10 6 15 10 15 11l-2 6a740 740 0 0 0-9 31c2 7 3 9 14 16 13 10 16 12 16 14l-11 24c-4 5-4 7-4 11 1 4 1 5 4 7a17620 17620 0 0 0 21 19l-6 10c-11 14-12 16-12 21 0 4 1 5 12 17l11 14-4 6c-19 24-18 22-18 28 0 5 1 6 9 18 13 19 13 20 6 24-5 4-19 18-20 21l-1 7c0 4 0 5 6 11 5 7 9 10 11 10s1-4-3-8c-6-8-9-13-9-15s24-22 26-23c2 0 22 28 23 31l-10 11c-6 4-11 9-11 10l4 3 3-2zm-8-69c-3-3-21-27-21-29 0-3 21-26 23-26l9 7 12 14 6 7c0 2-23 25-26 27h-3zm7-24c3-2 2-5 0-8-3-3-6-3-9 1-3 3-3 4 0 7 2 2 7 3 9 0zm-20-56-11-12c0-2 20-27 22-27 2-1 1-1 15 10 7 5 12 10 12 11 0 2-22 28-25 29l-13-11zm18-12c4-3 1-10-3-10l-4 2c-5 4-3 10 3 10l4-2zm-18-46-12-9-4-4 7-14c5-10 8-16 10-16 2-1 3-1 10 4l19 15c0 1-19 30-21 30l-10-6zm11-14c4-4 2-10-4-10-4 0-6 2-6 5 0 6 6 9 10 5zm-28-52-14-10c-2-2-2-3 6-22 4-9 6-13 8-13 3 0 31 16 31 19l-4 9-4 11c-3 8-7 15-9 15l-14-9zm12-14c3-2 3-5 1-8-4-6-12-2-10 5 1 3 6 5 9 3zm-31-51c-18-9-17-8-17-13l9-31c1-1 7 1 27 10 8 4 10 5 10 7a453 453 0 0 1-16 34l-13-7zm9-16c3-2 3-6-1-9h-5l-3 4c-1 3-1 3 1 5 3 2 5 2 8 0zm198 350 7-9 4-5-5-5-10-7a2023 2023 0 0 0-46-36l-6 3a9567 9567 0 0 1-39 28l9 1a68 68 0 0 1 25 4 265 265 0 0 1 56 31l5-5zm-157-19c4-3 1-9-4-9-2 0-6 3-6 6l1 3c1 2 7 3 9 0zm30-17c0-3 0-5-2-7l-5-10c0-3 3-8 7-10 3-1 3-2 3-6 0-8-1-7-17 8-3 2-5 5-5 6 0 2 15 23 17 23l2-4zm-163-6c19-12 24-21 24-43 0-13-1-17-5-25s-8-10-20-10l-11 1c-2 0-2 3-2 17 0 17 1 23 5 25 3 1 2 4 0 8l-4 8-1 6h-6c-14 0-26 4-27 9-2 5 0 7 6 7s8-3 4-6c-3-3-4-5-2-5s7 5 8 9l1 3 11 1 11-1 7-4zm113-8 7-8c0-3-12-20-14-20l-1 1-1 3c0 1 1 4 4 6l4 6c2 4-1 9-5 11-3 2-5 5-4 7s1 1 10-6zm320-3 9-10-18-19-1 3c0 3 0 4 2 4 4 1 9 8 9 11 0 5-4 10-8 12-2 1-3 2-3 5l1 3 9-9zm53 5c0-2-1-4-3-5-6-4-9-9-6-14l5-7c3-2 4-4 3-5l-1-2-16 18c0 2 16 18 17 17l1-2zm-321-3c0-3-1-6-3-5v7c1 2 2 1 3-2zm-58-8-1-3c-1-1-3 3-3 5 1 2 3 1 4-2zm320 0c3-2 3-7 0-8-3-2-4-1-4 5 0 5 1 6 4 3zm58-3v-3c-1-2-1-2-2-1-1 2-1 6 1 6l1-2zm144-34c2 0 3-6 1-8l-4-2c-3 0-5-3-4-7a644 644 0 0 0 3-32l3-2c3-1 3-5 0-7l-3-3c-1-2 0-26 2-30l-3-7-4-5-15-5-17-6c-1-2-1-2 3-29 1-5 1-7-3-12-2-3-4-5-18-12-20-9-19-8-14-24 5-14 6-20 4-25-1-4-2-4-16-12-19-11-19-11-19-13l7-17c8-20 8-24-1-30l-8-6a967 967 0 0 0-10-8l-6-6 8-17 8-19c0-3-1-4-6-9l-10-8c-5-4-10-9-10-11 0-1 4-8 10-15l10-15-21-25-5-7 3-5 12-13c9-12 10-14 5-21l-17-27c-1-2 0-3 12-15l12-13 1-5c0-5 0-7-3-11-4-8-11-14-11-10l5 9c5 10 6 11 5 13l-12 13c-12 10-12 10-14 8-3-2-23-31-23-33s-2-2-4 0l-3 4 12 18 12 19a457 457 0 0 0-21 20l-9 9v11l14 15c8 7 14 14 14 15 0 2-6 10-18 23-4 5-8 9-8 11-1 2 0 4 14 15a2927 2927 0 0 1 17 17l-12 16c-7 8-12 16-12 17 0 2 5 6 21 18l13 11c1 1-5 12-15 31-6 12-5 15 8 22s25 14 25 16c1 1-11 29-14 33-2 3-2 3 0 7 1 4 4 6 23 13l20 10-5 22c-4 10-6 20-6 22l2 3 22 8c19 6 20 7 20 9l-2 16a1160 1160 0 0 0-4 27c3 3 9 5 34 10l11 2c1 2 1 3-2 34-1 8-1 8 2 13 4 6 10 9 14 7zm-31-64c-19-4-20-5-20-7l6-35c1-2 5-1 11 1l13 4c12 4 13 5 11 16l-1 15c0 5-1 9-3 9l-17-3zm5-15c2-2 1-6-1-8s-4-3-7-1c-3 1-3 7 0 9h8zm-44-45-18-7c-1-2-1-3 2-14a7100 7100 0 0 0 4-16c3-9 3-9 20-1l17 7c2 2 1 5-2 20-2 13-4 17-6 17l-17-6zm9-17c2-3 0-7-3-8s-7 1-8 3c-2 7 7 11 11 5zm-41-47c-17-8-20-10-20-13a184 184 0 0 1 14-32l27 14 6 4v5l-3 12a459 459 0 0 0-6 17c-1 1-9-3-18-7zm10-16c2-3 1-7-3-8-6-1-10 4-7 9 3 3 7 3 10-1zm-36-50-16-10c-1-1 1-4 6-14l8-17c4-7 4-7 16 2 14 9 19 13 19 14a222 222 0 0 1-17 34l-16-9zm11-14c2-1 2-2 2-5s-1-4-3-5h-6c-3 2-4 7-1 9s4 2 8 1zm-19-51-10-8c-8-5-13-9-13-11s19-26 21-27 26 18 27 22c0 2-14 28-16 29-1 1-3 0-9-5zm5-18c4-3 1-10-3-10-2 0-7 4-7 6 0 5 7 8 10 4zm-15-44a873 873 0 0 1-13-12c-9-8-9-6 3-21 8-10 12-13 13-13a140 140 0 0 1 24 27c0 3-17 25-19 25l-8-6zm8-16c2-3 2-5-1-8-4-3-9 0-9 5s6 7 10 3zm-18-56-13-15c0-2 3-6 13-15l15-13 6 6 15 24c0 3-20 27-23 27l-13-14zm16-11c3-2 2-7 0-8-3-3-6-2-9 0-3 3-3 4 0 7 2 3 7 4 9 1zM240 838c0-3 0-4-4-8-6-8-7-13 0-19 3-3 3-3 3-7l-2-5c-1 0-19 20-19 22 0 3 19 22 20 22 1-1 2-2 2-5zm-59-1 7-8 6-8c0-2-13-15-15-15s-1 4 2 6l5 6v7l-3 5c-5 3-7 8-3 8l1-1zm324-7 8-9-4-6-8-8c-4-5-6-5-6-1 0 2 1 2 4 4 9 3 9 17 0 20-3 2-4 2-4 5l1 3 9-8zm53 6-3-4c-3-1-4-3-5-6-2-5-1-9 4-13 4-4 6-9 3-9-2 0-17 15-17 17s15 17 16 17l2-2zm122-4a276 276 0 0 0 2-28c-2-2-29-7-30-5l2 5c3 4 3 4 8 4l7 2c4 3 6 10 4 14v4c3 6 7 8 7 4zm-499-10c-1-4-2-5-3-2 0 3 1 5 2 5l1-3zm377 0-1-3c-1-1-2 3-2 5 2 2 3 1 3-2zm-464-2 8-5c5-2 3-3-4-2-9 0-10-1-3-7 6-6 6-7-3-6-7 0-7-1-2-6 6-6 5-7-2-7h-7c0-1 1-3 4-5l3-5-7-1-5-1 5-5 4-5-6-1-7-1 4-5c3-2 5-5 4-5l-5-1c-10 0-10 0-4-6l3-5h-6l-6-1 4-5c5-5 5-8 2-7l-5 1-4 2c-2 2-2 4-2 45l1 45 11 1 12 1c6 1 8 1 13-3zm146 1-2-4c-2 0-3 4-1 6s3 1 3-2zm259 1c1-3 0-6-3-6l-1 4c0 5 2 6 4 2zm171-2c0-3-3-6-5-6-3 0-3 1 0 4 2 3 5 4 5 2zm-138-29c4-4 1-11-4-11-3 0-7 4-7 6 0 6 7 9 11 5zm171-10c0-5 0-5-1 1v4l1-5zm-66-7 3-14c4-15 4-14-12-19-15-4-17-4-13 2 1 2 2 3 4 3 5 0 10 3 12 6 1 2 1 7-1 15 0 2 0 3 3 6s4 4 4 1zm-454-6 6-9c0-1-7-6-9-6v3c2 4 1 9-1 13l-3 5c0 2 2 1 7-6zm320-2c3-2 5-5 5-6 0-2-3-1-6 3l-4 5c-2 1-3 6-1 4l6-6zm-266 4-2-5c-8-6-9-8-9-12s1-5 4-8l3-6-2-4-5 6a192 192 0 0 1-11 16c0 2 18 15 20 15 1 0 2-1 2-3zm320 1c0-2-2-4-3-3s1 4 2 4l1-1zm-59-12c1-2-1-4-2-2-1 1 0 3 1 3l1-1zm129 0c1-2-1-6-3-6-3-2-3 1-1 4s3 4 4 2zm-392-4c0-3-1-4-3-4v6c1 2 3 0 3-2zm450-15-5-2v2h5zm-11-4a321 321 0 0 1-3-4v-12c1-2 0-5-2-5-1 0-5 14-5 18 0 2 6 5 9 5 2 0 2 0 1-2zm5-5c1-2-3-5-4-3v2c1 2 3 2 4 1zM63 721c3-4 2-4-2-3-3 1-4 3-3 5s2 1 5-2zm112-14 4-10-8-6c-6-4-8-5-9-4s0 2 3 5c5 4 5 5 6 9 0 3 0 6-2 10-2 5-2 8 0 6l6-10zm427 1a1344 1344 0 0 1 7-25c-1-2-29-14-31-13l2 5c2 4 2 5 6 5 4 1 10 6 11 11 0 3 0 5-2 8l-2 5 3 5c1 3 3 5 4 5l2-6zm-541 0-1-2c-1 0-3 3-2 4 1 2 2 1 3-2zm166-1v-4c0-1-1-3-5-5-5-3-8-7-8-12 0-3 2-8 4-8l2-4c0-4-2-10-4-10-1 0-15 27-14 28l13 11c9 6 13 7 12 4zm-60-3c1-1-2-5-3-4l2 5 1-1zm424-11c1-2-2-6-4-6-1 0-1 1 1 5 1 3 2 4 3 1zm-367-5c-1-4-2-6-4-3-1 2 1 7 3 7l1-4zm428-6c0-3-3-6-6-6-2 0-5-1-7-3-3-3-3-4-3-8l2-6v-6l-2 1c-2 3-5 18-5 20l20 10 1-2zm-7-13c0-2-1-4-3-4v3c0 2 3 3 3 1zm-489-23a1299 1299 0 0 1 4-15l-18-10c-2 1 0 5 3 7 2 0 4 3 6 4l2 8-2 6v6c1 2 3 0 5-6zm419-15c6-14 7-13-9-21-11-6-12-6-12-2 1 3 3 5 5 5l6 4c2 3 3 4 3 8l-2 7c-2 4-2 5-1 8l3 3c1 0 3-3 7-12zm-427 6-1-2-1 2 1 2 1-2zm61-3c0-1-1-3-4-4-9-4-12-11-8-20 2-3 2-4 1-8l-3-4c-1 0-11 19-11 23 0 3 0 3 11 9 12 6 14 7 14 4zm354-11-1-2c-2 0-3 1-2 3 0 3 2 2 3-1zm-358 1c1-1-2-9-4-9l-1 3c0 5 4 9 5 6zm420-3c0-2-2-4-4-4l-6-3c-2-3-3-4-3-8l2-9c2-3 2-4 1-6-1-3-1-3-2-2-3 3-10 21-9 22l20 12 1-2zm-4-11c0-2-2-7-4-7v7h4zm-489-31 2-9c0-2-15-9-18-9-2 1 0 3 4 6 6 3 7 6 7 13-1 11 2 11 5-1zm423-16 6-13-3-4a329 329 0 0 1-20-13l-1 4c0 4 0 4 4 6 7 5 8 7 8 13-1 4-1 7-3 9-2 3-3 6-1 10l1 3 2-3 7-12zm-371 8c1-1 0-5-2-7l-5-1c-6-1-10-5-11-10 0-3 0-5 3-9l2-4-2-5c-3-6-4-8-5-6-2 2-8 26-8 28 0 3 0 4 12 9 14 6 16 7 16 5zm-5-14-2-5c-1-3-3-4-4-4-2 1-2 5 0 8 2 2 6 3 6 1zm365-4c-1-3-4-4-4-1l1 4c1 2 1 2 3 1v-4zm61 4c0-4-2-7-5-8-7-3-9-11-5-18 3-5 4-8 2-8s-12 19-11 21c0 2 17 14 18 14l1-1zm-4-18c-1-3-3-4-3-1s1 4 2 4l1-3zm-467-4c2-1 3-7 0-9-2-3-7-2-9 0-3 3-3 7 1 9s5 2 8 0zm-35-13 2-9c1-4 0-5-1-6-1-2-11-5-16-6s-3 2 2 4c7 2 9 5 9 13-1 9 3 13 4 4zm604 2-1-2-3 2c-1 2-1 2 1 2s3-1 3-2zm1-55-1-45c0-1-4-2-9-2l-14-3h-10l-12 10 7 1 6 1-4 4c-7 6-7 7 3 7l9 1-6 5-7 5c0 2 4 2 10 1l7 1-6 6c-8 5-8 6 1 6l8-1c4-1 3 2-2 6-8 5-8 6 1 6h8c1 1-3 5-7 8-4 2-3 4 5 4l7 1-5 5c-7 5-7 6 2 5 8 0 9 0 3 6l-2 5 4 1h3l1-44zm-158 23 3-7c-1-3-19-17-21-17-2 1 0 6 5 11l5 6c1 4-1 9-4 12-2 2-3 7-1 8 1 1 5-4 13-13zm-397 9c0-4-3-6-6-5-6 1-13-4-13-10l2-6 2-5c-1-3-6-9-8-9l-5 18v11l26 8c2 0 2-1 2-2zm443-9-4-3c-4-2-6-7-6-13v-4c-1 0-6 7-6 9s3 5 10 10c4 3 6 4 6 1zm-449-2-4-6c-1-2-2-2-3-1v7c1 1 7 2 7 0zm390-2-1-4c-2-1-3 2-3 4 1 3 4 3 4 0zm-267-3h-1l-1 1 1 1 1-2zm-4-6c5-5 6-7 3-8l-12 13c2 2 3 1 9-5zm328 1c0-4-1-6-3-3v5c1 3 4 2 3-2zm-334-9 11-10v-11l-9-10a89 89 0 0 1-16-18l13-14c12-14 12-14 12-19s-1-6-11-17c-9-9-13-14-13-16s3-5 7-10c18-18 18-19 18-23s-1-5-13-17l-13-15 10-11 12-13v-4l-3-1-12 11-12 11c-1 0-4-2-6-5l-6-4c-4 1-3 4 1 9l5 6-14 17-15 16 15 16 14 17a227 227 0 0 1-29 34l14 16 14 16-15 18a82 82 0 0 0-15 18c0 2 3 6 9 11 8 8 9 9 12 9l4-1-8-9-8-10c0-3 25-29 27-29s23 21 25 25l1 3-11 11-10 12c2 4 5 2 15-9zm-34-67-12-14 12-14c9-10 13-13 15-13 3 0 24 21 24 25 0 2-24 28-26 28l-13-12zm19-11c5-7-3-13-9-8-3 3-3 6 0 8 3 3 8 2 9 0zm-18-56-12-14s4-6 10-11c11-12 14-15 16-15s26 24 26 26-25 27-27 27l-13-13zm17-9c2-1 3-5 2-8-2-4-8-4-10-1s-2 4 0 7 5 4 8 2zM98 474c2-3 1-5-3-7-3-1-3-1-6 1-5 4-4 9 3 9 3 0 4-1 6-3zm108 1c0-2-5-6-5-5v3c0 2 1 3 3 3l2-1zm-145-7 1-8-1-6c-3-1-4 2-4 9s1 9 3 9l1-4zm527-2h-1c-2 1-3 3-1 3l2-3zm-348-7c3-3 2-7-2-9-3-1-4-1-6 1-4 2-4 8 0 10 3 1 6 1 8-2zm-28-24 11-12c0-2-20-23-21-22l-1 4c0 4 0 5 3 5 6 2 10 11 7 18-2 4-5 7-8 7l-2 2-1 5 1 4 11-11zm-101 8-2-4c-2-3-3-3-7-3-5 0-10-2-12-5-1-2-1-8 1-13 0-2 0-3-3-6-6-7-7-6-8 14 0 15-2 14 13 16 12 2 18 2 18 1zm425-9c12-14 12-12 1-24l-11-9-1 4c0 3 1 4 3 6 6 6 6 15 0 21-3 3-4 6-2 9l1 2 9-9zm-269 3-3-4c-4-3-6-7-6-11s2-7 6-9c2-2 3-3 3-6l-1-3-17 18c0 1 16 18 17 17l1-2zm319-1-3-4c-4-3-6-7-6-12s3-9 6-10c2-1 3-5 2-6s-2 0-4 2l-7 8-4 7 15 16 1-1zm-486-7-4-7c-2 1-2 4-1 7 1 2 5 3 5 0zm107-3c2-3 1-7-3-8-2 0-3 0-3 4v5c1 2 4 1 6-1zm60-3c0-5-1-6-3-4v7c2 2 3 1 3-4zm261-1-2-4-1 4 1 3 2-3zm58 0-1-4h-3v5c1 3 3 2 4-1zm117-27c1-20 1-19-4-26l2-7 3-8 3-5c2-2 3-2 8-2 10 2 24-4 24-9 0-4-3-5-8-5-4 0-5 0-5 2s1 3 4 4c5 2 5 3 1 3-5 0-8-2-9-7-1-4-4-5-12-5s-14 2-19 6l-10 8c-7 4-9 7-11 17-5 16 0 45 8 49 4 3 14 5 20 5l5-1v-19zm-638-8c0-1-5-7-7-7s-1 5 2 7h5zm159-30c0-2-20-24-22-24l-1 5c0 5 1 5 4 6 5 2 8 8 8 13-1 5-5 11-9 11l-3 2a655 655 0 0 1 0 10c1 2 23-21 23-23zm43 15-3-4-5-6c-3-6-2-10 4-16 5-4 6-7 4-8-1-1-18 16-18 18l17 18 1-2zm319-3-3-6c-4-4-6-11-4-14l4-4 5-4v-4l-15 14c-1 1 1 4 5 11 6 10 8 11 8 7zm-52-6c8-7 14-12 14-14l-16-23c-2-2-4 2-4 5l2 5c4 4 5 7 5 13-1 4-2 5-5 8-4 3-6 8-5 10 2 2 2 1 9-4zm-328-2 2-4c0-5-6-9-7-5v10c1 2 4 1 5-1zm62-2v-5c-1-2-1-2-2-1-2 2-3 4-2 7s3 2 4-1zm319-4c0-4-1-5-3-4v6c1 2 3 1 3-2zm-112-14 21-15-4-2-24-2a158 158 0 0 1-41-21 228 228 0 0 1-21-14c-2 0-19 19-19 20l14 11c32 24 49 37 51 37l23-14zm56 4-2-2c-2 0-2 1-2 3l1 3c1 1 3-2 3-4zm36-28c4-3 1-9-4-9-3 0-6 2-6 6s5 7 10 3zm-60-1 14-6c11-6 23-18 30-31 5-9 11-25 14-37 2-10 5-38 5-53 1-14 1-15-6-12h-28c-2 1 4 6 12 11 7 5 9 7 5 7-3 0-15-7-20-11-3-3-5-4-5-2-1 2 3 18 6 25l3 11c2 10 0 13-10 21l-12 9-4 2c-1-2 5-10 12-17 6-6 7-7 7-11s-2-15-6-29-5-21-5-32c1-11 4-18 13-26 10-10 20-13 33-10l8 1c1-1 2-13 1-15s-30-6-64-9c-20-2-69-3-70-2-2 1-6 30-5 31s3 1 9-1c19-7 29-9 40-8s21 8 21 14c0 2 0 2-4 2l-10-3c-11-3-21-3-36 1-16 4-22 6-22 9s2 3 6 0c10-6 26-8 38-6s18 5 24 13l2 3-3 3c-3 4-3 3-2 8 1 4 0 6-9 12-10 6-21 11-31 12-9 1-11 1-11-1l4-3 21-6c5-2 3-3-2-3-7 0-18-3-25-7l-9-3c-6 0-5 0-7 12a482 482 0 0 1-20 100c0 1 3 4 8 7 33 22 41 27 58 30h32zm-14-22 2-4 2-2c0-1-2-2-5-2-7-2-8-3-8-5 1-2 2-2 14 0 4 1 6 1 13-1l10-2c3 0 2 3-2 5l-4 3 3 2c5 3 3 5-7 4l-12 1c-5 2-6 2-6 1zm-27-22c-1-2-1-3 1-6l4-7c1-3 3-4 8-1h8c5-1 9-1 17 1l7-1c3-2 6-2 11-1l9-1 4-1 3 8v9c-2 1-2 1-5-1-4-3-12-4-19-1-9 3-11 3-22 1h-16l-7 2-3-1zm20-33c-5-3-7-6-7-14l1-9c2-4 9-8 12-8 3 1 3 3-3 7-3 4-4 5-4 8s1 5 4 6c4 1 6 0 12-4 6-5 11-5 15-2 2 3 2 3 1 6-1 2-3 3-9 5a3422 3422 0 0 0-11 5h-11zm-272 63c8-9 11-12 10-13l-5-6c-3-2-5-3-6-2-2 1-2 1 0 6 1 4 1 4-2 10-2 4-3 6-6 7-3 2-4 3-4 6l1 3 12-11zm54 3c0-3-1-3-3-4-8-4-8-18 1-21 2-1 2-2 2-4l-1-4c-2 0-17 16-18 18 0 1 16 18 18 18l1-3zm284-9c6-5 7-7 3-8-1 0-4 2-10 11-2 3 2 1 7-3zm-345-2c3-5 0-10-4-9-2 1-2 2-2 7 0 6 0 6 2 6s3-2 4-4zm61-4-1-4c-2 0-3 4-2 7s2 2 3-3zm292-120c3-2 4-5 2-5l-3 2c-3 5-10 3-12-2l-2-2c-3 1-2 3 1 7 5 4 9 4 14 0zm-19 0c1-2-3-6-5-6-3 0-7 2-6 4 2 3 9 4 11 2zm-69-1c3-1 6-5 5-7 0-1-2 0-4 3-5 6-5 6-1 4zm13 0c3-2 4-5 1-6h-4c-1 3-2 7 0 7l3-1zm85-1-1-2-2 2 1 2 2-2zm-107-3c-2-4-5-5-5-2 0 2 4 6 6 6l-1-4zm-10 1v-3l-4-2-4 1c0 3 7 6 8 4zm-13-11c7-4 20-7 27-7l16 2c9 2 12 2 9-1-6-3-22-5-35-4-13 2-26 8-24 11 0 1 2 1 7-1zm102-2c7-1 16-1 22 1h6c3-3-5-6-14-6-10 0-25 4-25 6 0 1 2 1 11-1zm-5-7c9-5 17-5 24-3 11 2 11 2 12 1 2-7-16-10-28-7-6 2-14 8-14 10l6-1z" transform="translate(23 22) scale(.15945)"/><path style="fill:#1156a1" d="m132 1233 4-8-5-7c-11-13-15-21-29-63-3-12-6-20-9-23-6-9-4-12 10-12s33 6 44 15c5 4 11 11 17 20l5 4c1 0 4-4 8-13l6-13v-20c-1-18-1-22-4-34-3-16-8-31-11-34-2-3-3-3-7-2-10 1-20-9-20-21 0-6 1-10 5-13 4-5 8-6 14-6 7 0 8 1 16 7l7 5c0-3-7-23-11-30l-4-9h-6c-8 1-12 0-17-5-5-6-6-19-2-26l6-5c3-2 5-3 4-4l-11-7a882 882 0 0 1-50-26c-2-1-6 1-15 8l-10 6-7 3a3103 3103 0 0 0 0 174l15 1 16 2c6 1 3 3-53 60l-36 36c-2 1-2 1-2-3s2-6 40-44c30-29 40-40 39-41 0-2-4-2-40-2H0v-29l3 2c6 3 11 0 11-6 0-5-5-8-11-6l-3 1v-18l12-11a4494 4494 0 0 1 17-16l5-4v-8c0-6 0-7-2-7l-17 14-14 14-1-2c0-2 2-4 5-8l27-25c2-2 2-3 2-9s-1-7-2-7-9 6-17 14l-15 14v-29c0-28 0-29 2-28 3 2 7 1 10-1 3-3 3-6 0-9-2-3-7-4-10-2-2 1-2 1-2-11v-13l17-15 17-16v-7l-2-7-16 15C1 897 0 898 0 895c0-2 2-5 17-18l17-17v-11c0-4-4-1-16 11L3 874l-3 2v-56l2 1c3 3 6 2 9 0 4-3 4-6 1-9-2-3-3-3-7-3l-5 1v-27l17-16 17-16v-7c0-4-1-5-2-5l-17 15-15 14v-3l1-5a308 308 0 0 0 31-28c1-1 2-3 2-7 1-12 1-12-27 15l-7 7v-54l2 1c3 1 7 0 10-3v-6c-2-3-6-5-9-4l-3 1v-21l16-15 17-17c2-4 1-12-2-12l-16 14C2 644 0 645 0 643s2-5 10-13l17-16 7-7v-6l-2-7c-1-1-13 8-15 12l-9 9-8 7v-55l3 1c5 0 8-3 8-7s-2-6-7-6H0v-12c0-12 0-12 3-14a397 397 0 0 0 26-25c4-3 4-3 4-10 0-6 0-7-2-7l-16 14C2 513 0 515 0 513s1-4 4-6l16-16 13-12v-7c0-4-1-6-2-7l-16 14-15 14v-53l2 1c4 0 9-2 10-6 1-5-3-9-10-8l-2 1v-26l15-13 16-15c2-2 2-4 2-10 0-8 0-8-2-8s-7 4-16 14C3 381 0 383 0 381l1-3 16-15 16-14v-8l-2-8-24 21-7 7v-44h2c4 0 8-4 8-6 0-3-4-7-7-7H0v-53l19 20 19 21a47218 47218 0 0 1 2 597c1 1 7 0 10-1 2-1 2-12 2-222a580929 580929 0 0 0 0-307v-70l-8-9-26-27C0 235 0 234 0 230v-4l14 14 29 30 15 16-1 41 1 41 13-9a791 791 0 0 1 179-104l-3-6c-2-5-2-7-2-15-1-11 1-15 8-22s13-9 25-9l11-1a562 562 0 0 0 15-83v-8l-11-19a2154 2154 0 0 0-49-81l-6-11h199l199 1-3 6c-3 7-4 9-1 11l14 22 13 36c5 16 10 27 14 32 4 3 4 6 0 9-3 2-4 2-16 2s-14 0-20-2c-14-6-26-16-35-28l-5-6-8 14-8 14-1 19c0 15 0 19 2 26 4 13 12 35 15 40 2 4 2 4 6 4 9-1 18 4 20 11 2 6 1 11-2 17-3 5-4 7-8 9-7 3-12 3-18 0-5-3-12-10-14-15l-3-4c-4-3-2 2 6 21l13 28h8c13 1 18 6 18 19 0 8-2 12-6 16l-4 3 10 6a1619 1619 0 0 1 47 26c6 1 7 1 17-6l12-6c4-2 4-3 4-7 1-7 2-169 1-171l-15-1c-12 0-15 0-16-2-3-2-2-4 26-33a2754 2754 0 0 0 55-57l6-6v9l-38 39-38 41 66 2h10v26l-2-1c-5-2-11 2-11 6 0 5 9 9 12 6 1-1 1 1 1 10v12l-17 17c-17 16-17 16-17 21l1 5c2 1 5-1 21-16 11-11 12-12 12-10s-3 5-13 15c-23 22-21 19-21 26 1 10 2 10 19-7l15-14v57l-4-1-6 1c-5 5-3 11 4 13l5-1c1-1 1 0 1 13v14l-17 16-17 17v6l1 6 17-14c14-13 16-14 16-12s-2 4-9 11l-18 17c-8 8-8 8-8 13 0 10 2 10 9 3l23-21 3-3v25c0 25 0 26-2 25-5-3-11 0-11 6l2 5c2 2 7 3 9 1 1-3 2 0 2 12v14l-11 9-17 16-7 7v6c0 4 1 6 2 6l17-14 16-14v2c0 2-7 9-18 19l-17 16v8l1 7c1 1 11-8 28-24l6-6v27c0 23 0 26-1 25l-6-1c-3 0-4 1-5 3v6l6 2 5-1c1-1 1 1 1 11v12l-5 5-17 16-12 11v9l1 8c2 0 8-5 17-13l16-15v3a542 542 0 0 0-31 31c-3 3-3 4-3 10s0 7 2 7 10-7 27-23l5-5v25c0 21 0 26-1 25-2-2-9-1-10 1-4 6-1 13 5 12l4-2 1-1 1 13v12l-18 18-18 17v7c0 4 1 6 2 7a360 360 0 0 0 34-28c0 2-4 6-18 19l-18 17v12c1 2 5 0 17-12l16-14 3-2v27c0 25 0 26-2 25-3-3-8-2-11 1-2 2-2 3-1 5 2 5 7 6 11 3l3-2v31l-17 17-18 17v5c0 6 2 7 5 5l16-15c12-11 14-13 14-10 0 2-2 4-11 12a4459 4459 0 0 0-17 17l-7 7v7c0 12-1 12 26-14l9-8v46h-4c-5 0-7 1-7 6 0 4 3 5 8 5l3-1v57l-14-15c-25-25-27-27-27-32l-1-298V356l-3-1-4 1-2 195-1 297v104l5 6 8 8a705 705 0 0 1 39 44l-1 4-10-10-38-40-8-8v-39l-1-40a2126 2126 0 0 1-77 53 794 794 0 0 1-112 59c-2 1-2 1 0 5 3 5 3 19 0 27-2 7-8 13-16 18-5 3-7 3-20 2-3 0-4 0-5 5l-9 44-8 43 2 4a2208 2208 0 0 0 62 103l-195 1H129l3-7zm11-21c3-4 3-5 1-7-1-2-1-2 1-4 3-2 2-3-4-6-6-2-6-4-2-5l5-2-7-5-8-3 3-2c2 0 3-2 3-2 0-2-6-6-10-8l-3-1 2-2c2 0 3-1 3-2s-4-5-8-7c-5-2-5-2-2-4l2-2-4-3c-5-3-6-4-3-6v-3c-3-4-2-4 3-3h4c2-3 4-2 5 2l3 7c3 2 3 2 5 1s2-1 2 3 3 13 4 15c2 1 3 0 4-2 1-3 3-2 3 2 2 10 5 14 7 8 1-3 3-2 4 3 2 7 4 7 7-1l3-5-3-5c-8-13-15-20-29-30-6-4-18-7-28-7-9 0-9 1-5 10l14 38c7 20 19 43 24 43 1 0 3-2 4-5zm176-67c3-1 4-6 7-24 2-11 2-14 1-14l-8 4c-13 5-25 8-35 8-15 1-23-4-23-12 0-4 2-5 8-2a60 60 0 0 0 33 2l19-4c8-3 9-3 10-7v-12l-9 3c-15 7-28 8-39 3-9-3-14-4-14-2-1 1 4 4 12 7 9 3 26 3 36 0l8-1c1 1-4 4-9 5-19 6-36 3-51-6-6-4-6-6-3-9 4-3 4-5 1-8l-3-2 6-5a81 81 0 0 1 46-18l1 2-15 5-14 5c0 1 5 2 11 2 12 1 15 2 23 6 11 6 16 6 16-1a587 587 0 0 1 14-84l6-24a122 122 0 0 0-82-36c-17 1-26 4-37 12a82 82 0 0 0-28 38c-7 17-10 30-11 49a331 331 0 0 1-3 33c-1 8-1 8 1 8l6-2 12-1 12 2c5 1 4-2-3-7-8-5-11-9-10-10 1-2 0-2 17 9l6 3c2 0 1-5-1-12l-7-31c0-6 3-9 11-14l8-5 2-1c4 0 2 3-5 9-10 10-11 13-7 27l7 42c0 11-2 20-6 27-8 10-24 16-38 14-9-1-10-1-10 9 0 8 0 9 2 10a273 273 0 0 0 51 7 1122 1122 0 0 0 78 3zm-52-111 5-6c5-5 6-6 6-9 0-4-2-7-6-7l-9 4c-8 4-14 5-16 2-2-2 0-6 3-8 8-4 16-6 20-7 9-1 15 7 14 17-1 4-2 5-6 10-5 5-9 6-11 4zm18-48c-2-2-3-2-7-1h-16l-13 2c-3 1-4 1-9-1h-7c-5 3-6 3-7-5-1-11 0-12 6-9 4 2 7 2 20 0h16c11 2 15 2 20-1 5-2 8-2 8 0l-8 18-3-3zm-11-23c-5-2-7-2-18-2-12 1-12 1-12-1l1-2 3-1c1-2 1-2-1-4-4-3-2-5 9-4 11 0 13 0 11 3-1 2-1 2 5 4l8 4c2 2 2 2 1 3-1 2-2 2-7 0zm62 182c3-3 8-35 14-95 4-40 10-63 22-84 6-11 8-14 13-18 5-2 12-3 16-1l5 5c3 3 3 4 3 9-1 8-4 13-9 16s-6 3-10-1c-3-3-4-6-1-11 2-5 3-4 2 2 0 6 1 8 7 7 5-1 7-6 7-13-1-5-1-7-3-9-4-3-10-3-15 0-8 4-12 19-8 28 1 4 3 5 7 7 9 5 18 3 26-4 6-6 7-10 8-21 0-8 0-10-2-14-3-6-8-10-16-12h-12c-20 5-31 20-41 60-4 15-6 27-8 50a8118 8118 0 0 1-3 29 858 858 0 0 1-9 70h7zm16-1 4-23a2835 2835 0 0 1 11-90 148 148 0 0 1 11-43l-2-6c-3-6-5-6-8 1-7 13-12 43-18 96a714 714 0 0 1-7 65h9zm13 0a2403 2403 0 0 0 14-100c1-12 4-28 8-41l2-6-2-2c-8-7-12 2-18 41a838 838 0 0 0-10 94c-3 15-3 15 1 15l5-1zm13-1 5-21 7-55a328 328 0 0 1 11-63c0-2-7-6-8-4l-3 8c-4 10-7 27-12 69a1256 1256 0 0 1-7 66h7zm14-1 2-8 3-21 7-48a555 555 0 0 1 10-56l-3-4h-5c-2 2-5 10-6 19l-7 50a1239 1239 0 0 1-8 68c1 2 6 1 7 0zm13-1c2-2 2-5 6-27a968 968 0 0 1 16-94c2-5 2-5-3-8-4-2-4-2-5-1a549 549 0 0 0-21 130h7zm15-2c1-2 4-17 7-40 4-33 8-53 11-66l3-11-2-2c-5-4-9-1-11 11a979 979 0 0 0-16 109c2 1 6 0 8-1zm15-2 9-52c3-25 4-33 8-44l3-13-2-2c-6-5-10-1-12 13a2040 2040 0 0 0-15 99l9-1zm12-2a464 464 0 0 0 11-48 283 283 0 0 1 11-53l-9-4c-2 2-6 17-8 27a455 455 0 0 1-6 39 909 909 0 0 1-6 38c1 2 5 2 7 1zm-230-29c4-1 12-7 11-8l-9 1c-9 1-18 1-23-2-4-2-7-1-7 2s4 7 9 8c4 1 13 1 19-1zm-167-11c2-1 2-10 2-88l-1-88-5-1c-4-1-4-1-5 1l-2 158v18h4a392 392 0 0 0 7 0zm174-3c10-4 10-6-1-4-10 3-16 2-23-1l-8-1c-2 1-1 3 3 5 7 4 20 5 29 1zm-205 1c7-4 5-13-3-13-4 0-7 2-8 5s0 6 3 8h8zm301-13c2-2 1-3-5-6-7-3-8-2-6 3s3 6 6 5l5-2zm-30-5 4-3c3 0 8 3 8 6 1 3 3 4 3 1l-4-5c-6-6-12-5-16 2-1 3 0 7 1 4l4-5zm-70 2c0-2-5-8-8-8h-5c-3 1-7 5-7 6 0 2 2 1 4-1 5-5 9-4 12 2 1 3 3 4 4 1zm10 0c4-2 4-4-1-6-5-3-7-2-6 2l3 5 4-1zm51-1v-5l-8 4c0 3 6 4 8 1zm-249-2c2-2 1-7-2-9-6-5-14 0-12 7 1 4 9 6 14 2zm154 0 2-15c1-13 1-18-4-28-7-16-15-23-25-23-5 0-6 0-9 4-4 4-4 4-4 10 0 10 6 16 17 15l6-1 4 9a136 136 0 0 1 11 30c1 2 2 1 2-1zm11-2 1-2c-1-1-6 2-6 3 0 2 4 1 5-1zm-177-14c2-1 3-2 3-5 0-7-8-10-13-4-3 3-2 6 1 9 3 2 5 2 9 0zm473-24c5-2 13-10 15-15 4-9 4-20-1-26-3-5-5-3-4 5 0 13-6 25-16 31-6 4-6 6-1 6l7-1zm-10-7c4-2 6-4 10-9 5-8 6-12 6-19 0-8-4-16-9-16l-1 10-1 15c-3 5-13 14-18 16s-6 3-4 5c4 2 11 1 17-2zm-12-7c11-6 16-16 15-29-1-10-4-15-8-15-2 0-2 1-2 10s0 11-2 15c-3 6-9 12-17 16l-4 3 2 2c3 3 8 2 16-2zm-278-10 1-14c0-10-13-39-22-48-4-5-5-5-10-6-11-1-17 5-17 14 0 6 2 11 6 13 3 2 5 2 10 2 7-1 8-1 10 1 3 4 8 16 13 31 7 21 7 21 9 7zm264 4c12-6 19-21 15-36-2-7-8-14-10-10l1 5c2 6 1 15-2 21-2 6-9 13-15 17-10 6-1 9 11 3zm-13-6c7-4 12-11 14-17s1-20-1-25c-2-4-7-7-8-5l1 7c1 8 1 14-3 21-3 5-10 14-15 16-4 2-5 4-1 6 4 1 8 0 13-3zm-19-4c2-1 7-3 10-6 4-4 6-6 9-12s3-8 3-13c-1-8-5-16-9-16l-1 10c0 9 0 10-3 16-4 7-6 9-13 14-6 4-7 5-4 7h8zm-8-8c4-3 11-10 14-15 2-5 2-7 2-14 0-9-1-13-5-17-3-2-6-2-5 1 2 4 1 17-1 22-3 8-10 16-17 19l-5 3c0 3 11 4 17 1zm-217-17c3-8-2-21-9-26-5-3-10-4-11-4l5 11 7 16c4 9 6 10 8 3zm314-8 12-11 7 5c5 5 5 5 8 4l3-3-5-7c-4-3-6-6-6-7l13-13 12-13v-13l-12-12-13-15 4-6 12-13c9-9 9-9 9-13 0-5 0-5-12-18-9-8-13-14-13-15s4-7 12-15c12-13 13-14 12-23 0-4-13-17-16-17-4 0-4 2 1 7 5 4 11 12 11 14s-24 27-26 27-26-24-26-27c0-1 4-6 10-11l10-12c0-2-4-3-7-2l-10 10-9 9v11l13 14 13 14-19 21c-10 11-11 11 7 30 11 12 13 14 12 16l-13 15-13 14c-1 9 0 11 17 29l8 9c0 1-5 7-12 13-10 10-11 12-10 13 2 3 5 2 16-9zm-1-37-13-15c0-2 24-26 26-26 1 0 27 25 27 27l-26 27-14-13zm18-11c4-3 1-10-5-10-5 0-8 6-4 10 2 2 7 3 9 0zm-17-53c-11-12-15-17-14-18l27-25c2 0 26 25 26 27s-24 26-26 27l-13-11zm15-11c3-2 4-3 4-6 0-6-8-8-11-3-2 3-2 3-1 6l3 3h5zm-30 110c3-3 2-4-1-4-2 0-3 1-3 3 0 4 2 4 4 1zm-479-2c3-2 3-7 0-10-2-3-8-3-11 0-2 1-3 6-1 9s9 4 12 1zm532-5-1-5v-9l5-6c2-2 3-6 1-7-1-1-18 16-18 17 0 2 9 11 11 11l2-1zm-39-9-17-18-1 2c0 2 1 3 4 5 5 3 8 9 7 15v4l3-3 4-5zm-13 4c3-3 2-6 0-8-4-4-5-3-5 4 0 5 0 6 2 6l3-2zm58-5-2-3c-1 0-2 5-1 7 2 2 3 0 3-4zm-95 1c0-3 0-3-4-3-7 0-10-3-10-10 0-6-2-12-5-13l-13-1h-13l-2-10c-2-16-4-17-20-16-13 0-15 0-15-6l-2-11c-3-10-5-11-19-11-9 0-10 0-13-2-2-3-2-4-2-10 0-7 0-8-3-11s-3-3-13-4h-28c-25-1-26-1-28 17l-1 9-4-1h-12c-11-1-12-1-12 13v10l3-7c1-9 1-8 12-8 18 1 21 0 22-13 1-9 2-12 3-12h32c17 0 18 0 20 13 2 12 5 14 23 14 10 0 11 1 12 11l2 11c2 3 2 4 7 5 3 1 6 2 9 1h14c2 1 2 4 3 10 2 16 3 17 19 16h12l4 8c2 8 3 12 6 13l9 1c6 0 7-1 7-3zm-251 0a562 562 0 0 0 20-24c0-1-2-6-5-9l-18-28 25-24c5-4 5-4 5-10v-6l-14-15c-8-7-14-14-14-15l6-9c15-18 21-25 21-28 0-4-1-6-2-6-2 0-21-14-25-17l-3-5 10-16c5-8 11-14 12-15 2-2 0-7-3-9-9-5-31-21-31-23-1-1 9-21 16-34 3-4 3-6 2-9l-1-5-15-8c-15-8-21-11-21-13l8-19c7-17 8-18 7-21-2-4-1-3-24-14l-18-9 5-22 5-22-3-6c-2-3-3-3-6-3l-8-1a614 614 0 0 0-28-10 1139 1139 0 0 1 7-40l-2-5c-3-2-4-3-10-3a212 212 0 0 1-35-6l-1-13 2-18c2-9 1-13-1-16-3-2-15-4-17-3-3 3 0 6 6 6 5 0 5 0 4 21l-2 20-4 1c-3 0-5 2-5 4l4 2 4 2v15l1 17 3 3c1 0 2-7 3-22 1-11 1-12 6-11l33 6c1 2 1 5-1 20-2 19-1 17-6 17l-13-3-20-4c-1 2 4 5 16 8l16 6 3 1v7l-3 16v13c2 5 4 2 8-21l3-11a100 100 0 0 1 35 10c2 1 2 2-1 14-5 26-5 27-7 27l-12-4c-21-9-23-9-20-4 1 2 5 4 15 9l15 7c1 2 1 4-3 18-3 12-4 16-1 22 2 5 2 6 16 14 10 6 15 10 15 11l-2 6a740 740 0 0 0-9 31c2 7 3 9 14 16 13 10 16 12 16 14l-11 24c-4 5-4 7-4 11 1 4 1 5 4 7a17620 17620 0 0 0 21 19l-6 10c-11 14-12 16-12 21 0 4 1 5 12 17l11 14-4 6c-19 24-18 22-18 28 0 5 1 6 9 18 13 19 13 20 6 24-5 4-19 18-20 21l-1 7c0 4 0 5 6 11 5 7 9 10 11 10s1-4-3-8c-6-8-9-13-9-15s24-22 26-23c2 0 22 28 23 31l-10 11c-6 4-11 9-11 10l4 3 3-2zm-8-69c-3-3-21-27-21-29 0-3 21-26 23-26l9 7 12 14 6 7c0 2-23 25-26 27h-3zm7-24c3-2 2-5 0-8-3-3-6-3-9 1-3 3-3 4 0 7 2 2 7 3 9 0zm-20-56-11-12c0-2 20-27 22-27 2-1 1-1 15 10 7 5 12 10 12 11 0 2-22 28-25 29l-13-11zm18-12c4-3 1-10-3-10l-4 2c-5 4-3 10 3 10l4-2zm-18-46-12-9-4-4 7-14c5-10 8-16 10-16 2-1 3-1 10 4l19 15c0 1-19 30-21 30l-10-6zm11-14c4-4 2-10-4-10-4 0-6 2-6 5 0 6 6 9 10 5zm-28-52-14-10c-2-2-2-3 6-22 4-9 6-13 8-13 3 0 31 16 31 19l-4 9-4 11c-3 8-7 15-9 15l-14-9zm12-14c3-2 3-5 1-8-4-6-12-2-10 5 1 3 6 5 9 3zm-31-51c-18-9-17-8-17-13l9-31c1-1 7 1 27 10 8 4 10 5 10 7a453 453 0 0 1-16 34l-13-7zm9-16c3-2 3-6-1-9h-5l-3 4c-1 3-1 3 1 5 3 2 5 2 8 0zm202 347 8-9-10-10a2585 2585 0 0 1-52-40l-6 3a9567 9567 0 0 1-39 28l9 1a68 68 0 0 1 25 4 265 265 0 0 1 56 31l9-8zm387 5c1-4 0-7-3-9-4-2-6-1-9 1-4 5-1 11 6 11 4 0 5-1 6-3zm-724-2c7-4 5-13-4-13-6 0-9 7-5 12 3 2 5 3 9 1zm711-13c5-4 2-11-4-11-7 0-9 7-4 11l4 2 4-2zm-348-5 5-1a1034 1034 0 0 0-87-69l-27 18-38 26c-4 3-5 5-5 15 0 5 0 6 2 5 2 0 14-7 53-34l18-11 23 17a1048 1048 0 0 0 48 36l8-2zm-372-1c3-3 4-6 1-9-4-4-8-5-12-1-2 1-3 3-3 5 0 6 9 9 14 5zm185 0c4-3 1-9-4-9-2 0-6 3-6 6l1 3c1 2 7 3 9 0zm259-4-2-7a1795 1795 0 0 0-74-59l-12-9a12238 12238 0 0 0-19-15 3221 3221 0 0 1-47-36 5889 5889 0 0 1-59 39l-5 4v7l1 7a2934 2934 0 0 0 62-42l6 3a5857 5857 0 0 0 139 108c8 7 10 7 10 0zm-308 2c1-1-2-6-6-13l-7-14c0-2 2-4 7-9l8-7c0-3-1-5-9-14l-6-8c0-2 7-10 11-16s4-7-4-12l-7-6c-1-1 1-5 7-15l10-15c0-3-2-2-11 2s-9 4-16 14c-10 16-10 16-9 18l7 5 6 6-6 9c-4 4-7 8-7 10l7 10 6 8-7 7-7 8 6 12 6 12 9 4c10 5 11 6 12 4zm9-4c2-5 1-9-1-14l-2-5 4-4c3-4 3-4 4-14l1-12-4-6-3-5 4-5c5-6 6-10 5-21-1-7-1-7-5-11-5-4-5-5 1-12 2-4 3-6 3-10 0-5-2-9-3-8-3 0-21 29-21 31l6 4 7 6 3 2-5 6c-11 14-12 16-11 18l9 11c6 6 7 9 7 10-1 2-4 5-8 7-8 7-9 9-5 15a359 359 0 0 1 10 20c2 2 3 1 4-3zm586-5c4-4 1-11-5-11s-9 6-6 10c3 3 8 4 11 1zm-516-6c0-3 0-5-2-7l-5-10c0-3 3-8 7-10 3-1 3-2 3-6 0-8-1-7-17 8-3 2-5 5-5 6 0 2 15 23 17 23l2-4zm-163-6c11-7 21-16 22-22 2-7 3-17 2-27-1-8-1-11-4-17-5-10-8-12-21-12l-11 1c-2 0-2 3-2 17 0 17 1 23 5 25 3 1 2 4 0 8l-4 8-1 6h-6c-14 0-26 4-27 9-2 5 0 7 6 7s8-3 4-6c-3-3-4-5-2-5s7 5 8 9l1 3 11 1 11-1 8-4zm113-8c4-4 7-7 7-9s-12-19-14-19l-1 1-1 3c0 1 1 4 4 6l4 6c2 4-1 9-5 11-3 2-5 5-4 7s1 1 10-6zm320-3 9-10-18-19-1 3c0 3 0 4 2 4 4 1 9 8 9 11 0 5-4 10-8 12-2 1-3 2-3 5l1 3 9-9zm53 5c0-2-1-4-3-5-6-4-9-9-6-14l5-7c3-2 4-4 3-5l-1-2-16 18c0 2 16 18 17 17l1-2zm-451-5c7-16 6-48-2-67-2-5-4-6-8-3-4 2-4 5-1 11 4 11 5 20 5 32l-3 16c-3 11-3 13 1 14 4 3 6 2 8-3zm130 2c0-3-1-6-3-5v7c1 2 2 1 3-2zm-58-8-1-3c-1-1-3 3-3 5 1 2 3 1 4-2zm320 0c3-2 3-7 0-8-3-2-4-1-4 5 0 5 1 6 4 3zm58-2v-4c-1-2-1-2-2-1-1 2-1 6 1 6l1-1zm144-35c2 0 3-6 1-8l-4-2c-3 0-5-3-4-7a644 644 0 0 0 3-32l3-2c3-1 3-5 0-7l-3-3c-1-2 0-26 2-30l-3-7-4-4-15-6-17-6c-1-2-1-2 3-28 1-6 1-8-3-13-2-3-4-5-18-12-20-9-19-8-14-24 5-14 6-20 4-25-1-4-2-4-16-12-19-11-19-11-19-13l7-17c8-20 8-24-1-30l-8-6a967 967 0 0 0-10-8l-6-6 8-17 8-19c0-3-1-4-6-9l-10-8c-5-4-10-9-10-11 0-1 4-8 10-15l10-15-21-25-5-7 3-5 12-13c9-12 10-14 5-21l-17-27c-1-2 0-3 12-15l12-13 1-5c0-5 0-7-3-11-4-8-11-14-11-10l5 9c5 10 6 11 5 13l-12 13c-12 10-12 10-14 8-3-2-23-31-23-33s-2-2-4 0l-3 4 12 18 12 19a457 457 0 0 0-21 20l-9 9v11l14 15c8 7 14 14 14 15 0 2-6 10-18 23-4 5-8 9-8 11-1 2 0 4 14 15a2927 2927 0 0 1 17 17l-12 16c-7 8-12 16-12 17 0 2 5 6 21 18l13 11c1 1-5 12-15 31-6 12-5 15 8 22s25 14 25 16c1 1-11 29-14 33-2 3-2 3 0 7 1 4 4 6 23 13l20 10-5 22c-4 10-6 20-6 22l2 3 22 8c19 6 20 7 20 9l-2 16a1160 1160 0 0 0-4 27c3 3 9 5 34 10l11 2c1 2 1 3-2 34-1 8-1 8 2 13 4 6 10 9 14 7zm-31-64c-19-4-20-5-20-7l6-35c1-2 5-1 11 1l13 4c12 4 13 5 11 16l-1 15c0 5-1 9-3 9l-17-3zm5-15c2-2 1-6-1-8s-4-3-7-1c-3 1-3 7 0 9h8zm-44-45-18-7c-1-2-1-3 2-14a7100 7100 0 0 0 4-16c3-9 3-9 20-1l17 7c2 2 1 5-2 20-2 13-4 17-6 17l-17-6zm9-17c2-3 0-7-3-8s-7 1-8 3c-2 7 7 11 11 5zm-41-47c-17-8-20-10-20-13a184 184 0 0 1 14-32l27 14 6 4v5l-3 12a459 459 0 0 0-6 17c-1 1-9-3-18-7zm10-16c2-3 1-7-3-8-6-1-10 4-7 9 3 3 7 3 10-1zm-36-50-16-10c-1-1 1-4 6-14l8-17c4-7 4-7 16 2 14 9 19 13 19 14a222 222 0 0 1-17 34l-16-9zm11-14c2-1 2-2 2-5s-1-4-3-5h-6c-3 2-4 7-1 9s4 2 8 1zm-19-51-10-8c-8-5-13-9-13-11s19-26 21-27 26 18 27 22c0 2-14 28-16 29-1 1-3 0-9-5zm5-18c4-3 1-10-3-10-2 0-7 4-7 6 0 5 7 8 10 4zm-15-44a873 873 0 0 1-13-12c-9-8-9-6 3-21 8-10 12-13 13-13a140 140 0 0 1 24 27c0 3-17 25-19 25l-8-6zm8-16c2-3 2-5-1-8-4-3-9 0-9 5s6 7 10 3zm-18-56-13-15c0-2 3-6 13-15l15-13 6 6 15 24c0 3-20 27-23 27l-13-14zm16-11c3-2 2-7 0-8-3-3-6-2-9 0-3 3-3 4 0 7 2 3 7 4 9 1zM240 838c0-3 0-4-4-8-6-8-7-13 0-19 3-3 3-3 3-7l-2-5c-1 0-19 20-19 22 0 3 19 22 20 22 1-1 2-2 2-5zm-220 0c3-2 3-8 0-10-5-4-13-1-13 5 0 7 6 9 13 5zm386-65-1-70c-1-3-11-12-12-11v141l5 4 6 4 1-68zm-225 64 7-8 6-8c0-2-13-15-15-15s-1 4 2 6l5 6v7l-3 5c-5 3-7 8-3 8l1-1zm324-7 8-9-4-6-8-8c-4-5-6-5-6-1 0 2 1 2 4 4 9 3 9 17 0 20-3 2-4 2-4 5l1 3 9-8zm53 6-3-4c-3-1-4-3-5-6-2-5-1-9 4-13 4-4 6-9 3-9-2 0-17 15-17 17s15 17 16 17l2-2zm122-4a276 276 0 0 0 2-28c-2-2-29-7-30-5l2 5c3 4 3 4 8 4l7 2c4 3 6 10 4 14v4c3 6 7 8 7 4zm67 0c8-4 5-15-4-15-3 0-7 4-7 8l2 6c3 2 4 2 9 1zM97 821c5-4 8-7 7-8h-6c-9 0-10-1-3-7 6-6 6-7-3-6-7 0-7-1-2-6 6-6 5-7-2-7h-7l3-5c3-2 4-4 4-5l-7-1-5-1 5-5 4-5-6-1-7-1 4-5c3-2 5-5 4-5l-5-1c-10 0-10 0-4-6l3-5h-6l-6-1 4-5c5-5 5-8 2-7l-5 1-4 2c-2 2-2 4-2 45l1 45 10 1 15 1c7 2 9 2 14-2zm84 1c-1-4-2-5-3-2 0 3 1 5 2 5l1-3zm377 0-1-3c-1-1-2 3-2 5 2 2 3 1 3-2zm-318-1c0-2-1-3-2-3-2 0-3 3-1 5s3 1 3-2zm259 1c1-3 0-6-3-6l-1 4c0 5 2 6 4 2zm-469-1c4-3 2-13-4-13-2 0-7 3-8 5-1 3 1 7 4 8 3 2 5 2 8 0zm358-4c0-4 0-5-5-11l-6-7c-3-2-2-5 5-12l7-7-1-4c-1-8-1-8-18 9l-9 11c1 3 24 26 25 26s2-2 2-5zm282 3c0-3-3-6-5-6-3 0-3 1 0 4 2 3 5 4 5 2zm70-9c3-6-3-12-9-10-8 3-6 12 3 12l6-2zm-376-4c-4-5-7-7-8-7-2 2-1 4 4 7 7 5 8 5 4 0zm-343-6c4-3 0-11-6-11-8 0-11 10-5 13 4 1 9 1 11-2zm331-6c0-2-26-28-27-28l-2 5c0 4 0 5 2 7l10 8c12 11 17 13 17 8zm397-3c2-1 2-7 1-9l-5-2c-2 0-3 0-5 2-3 3-4 6-1 9 1 2 8 3 10 0zm-217-1c4-4 1-11-4-11-3 0-7 4-7 6 0 6 7 9 11 5zm-160-14 14-15c1-2 0-4-15-20l-13-11c-2 0-31 27-31 29a192 192 0 0 0 30 30l15-13zm-25-6-8-11c0-2 16-18 18-18s18 16 18 19c0 2-16 18-18 18l-10-8zm15-7c2-3 3-6 0-8-2-3-5-2-8 1-4 3-4 4-1 7s5 3 9 0zm341 17c0-5 0-5-1 1v4l1-5zm-66-7 3-14c4-15 4-14-12-19-15-4-17-4-13 2 1 2 2 3 4 3 5 0 10 3 12 6 1 2 1 7-1 15 0 2 0 3 3 6s4 4 4 1zm-454-6 6-9c0-1-7-6-9-6v3c2 4 1 9-1 13l-3 5c0 2 2 1 7-6zm136 4a4334 4334 0 0 0-2-167l-3 1c-2 1-2 10-2 81l-1 80 3 3c3 3 4 4 5 2zm184-6c3-2 5-5 5-6 0-2-3-1-6 3l-4 5c-2 1-3 6-1 4l6-6zm-266 4-2-5c-8-6-9-8-9-12s1-5 4-8l3-6-2-4-5 6a192 192 0 0 1-11 16c0 2 18 15 20 15 1 0 2-1 2-3zm320 1c0-2-2-4-3-3s1 4 2 4l1-1zm44-9c14-1 16-2 14-7-1-2-1-2-6-2h-30v-20c0-16 1-20 2-20 7-1 9-1 9-3l-4-7-14-1a191 191 0 0 1-124-49c-14-13-18-17-36-40-35-46-40-51-62-70a256 256 0 0 0-115-55c-21-5-36-6-59-6-22 0-27 1-27 4 0 4 2 4 16 4h15c2 1 2 2 2 18l-1 19-3 4c-4 1-4 3-1 6 2 1 4 2 15 2a212 212 0 0 1 158 86c27 39 31 44 49 62 36 36 79 59 132 70 25 5 48 7 70 5zm-49-9c-8-1-31-5-33-7v-6c2-12 8-31 9-32l17 1c25 4 22 3 23 12l-1 20v13h-6l-9-1zm-9-10 4-1c5 1 6 0 6-5 0-2 1-3 3-4 3-2 3-3 0-5l-2-5c0-2-1-2-3-2l-4-2c-2-4-4-4-6-1-2 2-3 2-4 1-3-1-5-1-5 2l-3 4c-2 1-2 2-1 4l1 6c0 3 0 3 3 4l4 3c2 2 5 3 7 1zm-53-6c-15-6-25-11-29-14-3-2-3-4 2-11l7-13 7-10c1-1 3 0 11 3l18 8c8 2 10 4 10 7l-10 32c-1 3-5 3-16-2zm7-12c0-2 2-3 3-4 1 0 2-1 2-7 0-7 0-7-3-8l-4-2c-1-2-2-2-4-2h-6c-2-3-4-2-6 1 0 2-2 4-4 4-2 1-3 3-1 5v4c-3 4-2 5 2 5 3 0 4 1 5 3 1 3 2 3 5 3 2-1 4 0 5 1 3 2 4 1 6-3zm-59-14-23-19c-4-3-5-5-5-7 0-3 8-13 18-23 8-7 7-8 19 3a345 345 0 0 0 20 17l-9 15-10 16c-1 3-3 2-10-2zm6-12 4-3c4 0 5-2 4-5l1-4c2-2 1-5-1-6l-3-4c0-3-2-4-5-3l-5-1c-2-3-5-2-6 1l-5 2c-2 0-3 0-3 3l-1 5c-1 1-1 2 1 3l3 6c0 2 1 3 4 3s4 1 6 3c2 3 4 3 6 0zm-55-34c-14-16-20-25-20-27s29-23 32-23l3 3a830 830 0 0 0 22 31c0 2-25 27-27 27l-10-11zm11-6 4-2c3 0 4-1 4-4 0-2 2-4 3-5 1-2 1-2-1-5-2-1-2-3-2-6s0-3-3-3l-4-1-2-3c-2-2-2-2-5 0-1 2-4 3-5 3l-3 3-3 5-2 2 2 2c1 2 2 4 1 5 0 3 2 5 5 5 2 0 3 1 5 3 1 2 4 3 6 1zm-44-34-23-30 8-8a496 496 0 0 0 21-20l13 14c12 15 16 22 16 25 0 2-6 7-18 15l-6 4c-5 4-7 4-11 0zm9-13 5-2c3 0 4-1 4-3l2-5v-4l-2-5c0-3 0-3-3-3l-5-2c-2-2-2-2-6-1l-6 1c-2 1-3 2-3 4l-1 5c-2 3-2 3 0 5l2 4c0 3 1 4 4 4l4 2c1 3 3 3 5 0zm-47-31-11-9-9-6-4-5c0-1 15-27 18-30 2-2 2-2 5 0l29 21 5 7c0 3-24 27-26 27l-7-5zm8-9 4-3c2-1 3-2 3-7 1-5 1-6-1-7l-2-4c0-3 0-3-3-3h-6c-3-2-3-2-6 0-1 2-4 3-5 3l-2 1a1000 1000 0 0 1 0 12l2 4c0 2 1 3 5 3l6 2c2 2 3 1 5-1zm-52-20-16-7a3244 3244 0 0 1-11-4l-3-3 9-29c1-5 2-6 4-6 5 0 42 15 45 19 1 2 1 3-2 7-8 15-15 26-17 27l-9-4zm8-11c0-2 2-4 3-5 2-2 2-2 2-7 0-4-1-5-2-6-1 0-3-1-3-3-1-2-2-3-5-3h-7c-1-1-2-1-3 2l-5 4c-3 0-3 1-3 3l1 7 2 4 4 3c1 2 3 2 6 2l4 1c2 2 4 1 6-2zm-56-5a537 537 0 0 0-33-6v-19c1-16 2-19 3-20 2-1 6-1 30 4 10 1 14 2 15 4 2 2 2 2-1 14l-4 16c-1 4-4 8-5 8l-5-1zm-6-8 4-2c3 0 4-1 4-4l2-4v-6l-1-3-3-4-4-3c-3-3-4-3-6 0l-5 2c-3 0-4 1-4 3l-2 4c-1 2-1 3 1 5l1 4c0 2 1 3 3 4 2 0 3 2 4 3 1 2 4 3 6 1zm278 231c1-2-1-4-2-2-1 1 0 3 1 3l1-1zm129 0c1-2-1-6-3-6-3-2-3 1-1 4s3 4 4 2zm-392-2c1-1-1-6-2-6-2 1-2 3-2 6h4zm97-9 21-22c0-2-23-26-26-27-3-2-4 0-4 5 0 2 2 4 8 11l7 10-6 8-8 9c-2 5-1 11 1 11l7-5zm57 0c1-5-1-9-7-16l-6-7 7-9c5-6 6-7 6-10l-2-4c-2 0-25 22-25 24l25 25 2-3zm214-8c1-3 1-3-1-9l-6-7c-4-2-7-1-7 2l-2 3v6l1 4c0 3 1 3 4 3l5 1c3 2 4 1 6-3zm82 0-5-2v2h5zm-11-4a321 321 0 0 1-3-4v-12c1-2 0-5-2-5-1 0-5 14-5 18 0 2 6 5 9 5 2 0 2 0 1-2zm5-5c1-2-3-5-4-3v2c1 2 3 2 4 1zM63 721c3-4 2-4-2-3-3 1-4 3-3 5s2 1 5-2zm310-14 13-14c0-2-30-31-31-31-2 0-28 25-28 27a286 286 0 0 0 30 31c2 0 7-5 16-13zm-24-6c-12-12-12-11-2-20l9-8 10 9c6 7 8 9 7 11-1 3-15 15-16 15s-5-3-8-7zm13-5c3-3 3-5-1-9s-6-4-9-1c-4 3-4 5 0 9 3 4 6 4 10 1zm-187 11 4-10-8-6c-6-4-8-5-9-4s0 2 3 5c5 4 5 5 6 9 0 3 0 6-2 10-2 5-2 8 0 6l6-10zm-155 5c5-6 0-15-6-14l-6 4c-2 2-2 3-2 5 2 7 9 9 14 5zm582-4a1344 1344 0 0 1 7-25c-1-2-29-14-31-13l2 5c2 4 2 5 6 5 4 1 10 6 11 11 0 3 0 5-2 8l-2 5 3 5c1 3 3 5 4 5l2-6zm-541 0-1-2c-1 0-3 3-2 4 1 2 2 1 3-2zm166-1v-4c0-1-1-3-5-5-5-3-8-7-8-11s2-9 4-9l2-4c0-4-2-10-4-10-1 0-15 27-14 28l13 11c9 6 13 7 12 4zm522-3c3-2 3-7-1-10l-4-2-4 2c-3 3-4 7-1 10 2 2 8 3 10 0zm-582 0c1-1-2-5-3-4l2 5 1-1zM31 692c3-2 2-7 0-9-3-3-8-3-10 0-2 2-3 7-1 10 2 2 8 2 11-1zm560 1c1-2-2-6-4-6-1 0-1 1 1 5 1 3 2 4 3 1zm-367-5c-1-4-2-6-4-3-1 2 1 7 3 7l1-4zm515-3c2-1 3-3 3-5 0-6-9-9-12-5-3 3-3 7-1 9 3 4 7 4 10 1zm-87-3c0-3-3-6-6-6-2 0-5-1-7-3-3-3-3-4-3-8l2-6v-6l-2 1c-2 3-5 18-5 20l20 10 1-2zm-313-13 11-12c0-2-23-24-25-24l-1 3c0 3 1 5 7 11l7 9-8 8c-7 8-7 8-6 12 0 5 1 5 2 4l13-11zm173 7c30-18 46-28 47-30v-6c-2-5-4-6-8-3a1727 1727 0 0 1-58 38c0 1 8 6 11 6l8-5zm-492 0c3-4 2-9-1-11-3-3-7-3-10 1-3 3-3 7 0 10s9 3 11 0zm354-7c-2-4-11-14-12-14-4 0-3 3 4 9 6 7 10 9 8 5zm271 0c0-2-1-4-3-4v3c0 2 3 3 3 1zm105-2c3-4 3-8-1-11l-4-2c-6 0-10 7-7 11 4 4 8 5 12 2zm-522-15a946 946 0 0 0 53-35l12-6c3 0 22-13 22-14 0-2-5-6-7-6l-12 8a2168 2168 0 0 1-29 19 2820 2820 0 0 0-19 12 4420 4420 0 0 1-19 12l-9 7c0 2 2 5 3 5l5-2zm-72-6a1299 1299 0 0 1 4-15l-18-10c-2 1 0 5 3 7 2 0 4 3 6 4l2 8-2 6v6c1 2 3 0 5-6zm201 4c1-1 0-4-4-10l-17-22c-2 0-8 5-8 7s25 27 27 27l2-2zm113-9a19896 19896 0 0 0 73-48c1-2-1-7-3-7l-45 27a6916 6916 0 0 1-45 31c-1 2 3 6 5 6l15-9zm105-10c6-14 7-13-9-21-11-6-12-6-12-2 1 3 3 5 5 5l6 4c2 3 3 4 3 8l-2 8c-2 3-2 4-1 7l3 3c1 0 3-3 7-12zm-427 6-1-2-1 2 1 2 1-2zm298 1 1-83 1-82-3-2c-4-5-4-3-5 43a14558 14558 0 0 1 1 123c1 2 3 3 5 1zm-237-4c0-1-1-3-4-4-9-4-12-11-8-20 2-3 2-4 1-8l-3-4c-1 0-11 19-11 23 0 3 0 3 11 9 12 6 14 7 14 4zm354-11-1-2c-2 0-3 1-2 3 0 3 2 2 3-1zm-358 1c1-1-2-9-4-9l-1 3c0 5 4 9 5 6zm229-2c0-2-21-22-22-22s-1 1 5 10l9 11c4 3 5 4 6 3l2-2zm191-1c0-2-2-4-4-4l-6-3c-2-3-3-4-3-8l2-9c2-3 2-4 1-6-1-3-1-3-2-2-3 3-10 21-9 22l20 12 1-2zm-296-7 2-3-2-3c-3-3-5-2-5 4 0 5 1 5 5 2zm108-6c0-3 0-4-2-6-5-5-13-14-13-16 0 0 3-5 8-9 7-7 7-8 7-12l-2-4c-2 0-26 24-26 26l12 14c13 14 15 15 16 7zm184 2c0-2-2-7-4-7v7h4zm-411-4a838 838 0 0 0 56-37l3-3-2-1c-5-4-6-3-22 7a3430 3430 0 0 1-39 27c-2 1-2 4 0 7h4zm307-14-2 1-2 2 2-1 2-2zm-385-13 2-9c0-2-15-9-18-9-2 1 0 3 4 6 6 3 7 6 7 13-1 11 2 11 5-1zm-115 7c3-2 5-4 5-6 0-8-11-11-15-4-2 4-1 7 2 9s5 3 8 1zm403-18c8-7 14-14 14-15l-32-30c-2 0-29 27-29 29s29 30 31 30 8-5 16-14zm-18 1-17-17c0-2 16-18 18-18s18 16 19 19c0 1-12 15-16 17l-4-1zm7-13 3-3c0-2-6-8-9-8-2 0-7 4-7 6s6 8 8 8l5-3zm146 7 6-13-3-4a329 329 0 0 1-20-13l-1 4c0 4 0 4 4 6 7 5 8 7 8 13-1 4-1 7-3 9-2 3-3 6-1 10l1 3 2-3 7-12zm194 12c4-5 1-10-4-10-4 0-8 3-8 6 0 5 9 8 12 4zm-565-4c1-1 0-5-2-7l-5-1c-6-1-10-5-11-10 0-3 0-5 3-9l2-4-2-5c-3-6-4-8-5-6-2 2-8 26-8 28 0 3 0 4 12 9 14 6 16 7 16 5zm-154-7c3-3 3-4 0-7-2-3-3-3-6-3-7 1-9 10-3 13 3 1 6 1 9-3zm709-7c2-2 2-6 0-8-2-3-7-3-9 0-4 5-1 10 4 10l5-2zm-560 0-2-5c-1-3-3-4-4-4-2 1-2 5 0 8 2 2 6 3 6 1zm365-4c-1-3-4-4-4-1l1 4c1 2 1 2 3 1v-4zm61 4c0-4-2-7-5-8-7-3-9-11-5-18 3-5 4-8 2-8s-12 19-11 21c0 2 17 14 18 14l1-1zm-585-9c2-3 3-6 0-9-2-3-8-3-11-1-2 2-2 8 0 10 2 3 8 2 11 0zm344-5V407l-3-2-3-2-1 3-1 68v66l3 2c3 3 5 4 5 1zm21-11 12-14-26-24c-1 0-2 1-2 3 0 4 2 6 9 13l7 6c0 2-2 4-8 10-8 8-8 9-8 13 0 9 1 8 16-7zm52 8c0-4 0-5-8-12l-8-10c0-2 3-6 8-10 8-8 8-9 8-13 0-9-1-9-16 7-8 7-14 14-14 15 0 2 27 28 28 28l2-5zm164-1c-1-3-3-4-3-1s1 4 2 4l1-3zm148 1c6-4 3-11-3-11s-10 4-7 9c1 2 4 4 7 4l3-2zm-615-5c2-1 3-7 0-9-2-3-7-2-9 0-3 3-3 7 1 9s5 2 8 0zm-35-13 2-9c1-4 0-5-1-6-1-2-11-5-16-6s-3 2 2 4c7 2 9 5 9 13-1 9 3 13 4 4zm604 2-1-2-3 2c-1 2-1 2 1 2s3-1 3-2zm-533-8 2-3v-4l-2-3-1-3c-1-2-1-2-4 0l-4 3 3 7c3 6 5 7 6 3zm248-18 15-17c0-2-26-28-29-28-2 0-32 28-32 31 0 2 28 29 30 29l16-15zm-23-5-9-9c-1-1 1-4 8-11l10-9 9 8 9 10c0 2-16 19-18 19l-9-8zm12-5 4-5-7-8c-2 0-8 6-8 8l7 8 4-3zm297-19-1-45c0-1-4-2-9-2l-14-3h-10l-12 10 7 1 6 1-4 4c-7 6-7 7 3 7l9 1-6 5-7 5c0 2 4 2 10 1l7 1-6 6c-8 5-8 6 1 6l8-1c4-1 3 2-2 6-8 5-8 6 1 6h8c1 1-3 5-7 8-4 2-3 4 5 4l7 1-5 5c-7 5-7 6 2 5 8 0 9 0 3 6l-2 5 4 1h3l1-44zm-158 23 3-7c-1-3-19-17-21-17-2 1 0 6 5 11l5 6c1 4-1 9-4 12-2 2-3 7-1 8 1 1 5-4 13-13zm-397 9c0-4-3-6-6-5-6 1-13-4-13-10l2-6 2-5c-1-3-6-9-8-9l-5 18v11l26 8c2 0 2-1 2-2zm443-9-4-3c-4-2-6-7-6-13v-4c-1 0-6 7-6 9s3 5 10 10c4 3 6 4 6 1zm-449-2-4-6c-1-2-2-2-3-1v7c1 1 7 2 7 0zm390-2-1-4c-2-1-3 2-3 4 1 3 4 3 4 0zm-267-3h-1l-1 1 1 1 1-2zm-4-6c5-5 6-7 3-8l-12 13c2 2 3 1 9-5zm329 2-1-4c-2-2-2-2-3 0v5c1 3 3 2 4-1zm-335-10 11-10v-11l-9-10a89 89 0 0 1-16-18l13-14c12-14 12-14 12-19s-1-6-11-17c-9-9-13-14-13-16s3-5 7-10c18-18 18-19 18-23s-1-5-13-17l-13-15 10-11 12-13v-4l-3-1-12 11-12 11c-1 0-4-2-6-5l-6-4c-4 1-3 4 1 9l5 6-14 17-15 16 15 16 14 17a227 227 0 0 1-29 34l14 16 14 16-15 18a82 82 0 0 0-15 18c0 2 3 6 9 11 8 8 9 9 12 9l4-1-8-9-8-10c0-3 25-29 27-29s23 21 25 25l1 3-11 11-10 12c2 4 5 2 15-9zm-34-67-12-14 12-14c9-10 13-13 15-13 3 0 24 21 24 25 0 2-24 28-26 28l-13-12zm19-11c5-7-3-13-9-8-3 3-3 6 0 8 3 3 8 2 9 0zm-18-56-12-14s4-6 10-11c11-12 14-15 16-15s26 24 26 26-25 27-27 27l-13-13zm17-9c2-1 3-5 2-8-2-4-8-4-10-1s-2 4 0 7 5 4 8 2zM98 474c2-3 1-5-3-7-3-1-3-1-6 1-5 4-4 9 3 9 3 0 4-1 6-3zm108 1c0-2-5-6-5-5v3c0 2 1 3 3 3l2-1zm180-12c11-12 13-14 13-16-1-3-27-28-28-26l-2 4c0 3 0 4 8 12l9 10-9 9-8 8v6c0 5 0 6 2 6l15-13zm51 6v-6l-12-9c-12-9-15-11-16-7 0 3 24 27 26 27s2-1 2-5zm-376-1 1-8-1-6c-3-1-4 2-4 9s1 9 3 9l1-4zm527-2h-1c-2 1-3 3-1 3l2-3zm-348-7c3-3 2-7-2-9-3-1-4-1-6 1-4 2-4 8 0 10 3 1 6 1 8-2zm-219-3c2-2 2-3 2-5-1-4-5-6-9-6-6 0-9 7-5 12 4 3 8 3 12-1zm729-7c5-2 1-12-4-12l-7 3c-2 3-1 7 2 9 2 2 5 2 9 0zm-538-14 11-12c0-2-20-23-21-22l-1 4c0 4 0 5 3 5 6 2 10 11 7 18-1 4-5 7-8 7-1 0-2 1-2 4v7l11-11zm-101 8-2-4c-2-3-3-3-7-3-5 0-10-2-12-5-1-2-1-8 1-13 0-2 0-3-3-6-6-7-7-6-8 14 0 15-2 14 13 16 12 2 18 2 18 1zm503-3 9-5 8-12 8-11-8-7-8-6 7-9 7-9-6-11-7-9 8-7 7-7-6-12-9-14c-2-3-4-5-9-7l-8-4c-2 0-1 3 3 9 13 20 14 23 13 24l-8 7-7 8c0 2 4 8 11 16l4 5-9 11-9 10 9 7 9 8-8 12-12 16c0 2 2 1 11-3zm-78-6c12-14 12-12 1-24l-11-9-1 4c0 3 1 4 3 6 6 6 6 15 0 21-3 3-4 6-2 9l1 2 9-9zm-130 7c0-3-17-16-19-15l7 8c5 6 8 8 10 8l2-1zm201-11 10-14-9-7-10-8c0-2 3-5 9-11l9-11-7-11-7-10c0-2 2-4 9-9l7-7c0-2-13-22-16-25-2-1-3-1-4 6-1 5-1 5 2 10l3 6-4 4-4 3-1 12v11l4 5 4 5-4 6-5 5v22l4 3 4 4-3 5c-4 6-5 8-5 13 2 8 3 7 14-7zm-579 9c6-3 6-8 1-12-5-3-12 2-11 8 1 2 5 4 8 5l2-1zm239-2-3-4c-4-3-6-7-6-11s2-7 6-9c2-2 3-3 3-6l-1-3-17 18c0 1 16 18 17 17l1-2zm187 1c4-1 51-33 59-39 5-3 5-3 5-9l-1-6c-1-1-6 2-39 24l-28 17c-2 0-3 0-6-3a4940 4940 0 0 0-144-107c-2 0-2 0-2 4 0 6-2 4 45 40a399427 399427 0 0 1 33 26l28 20 26 21c20 16 19 15 24 12zm132-2-3-4c-4-3-6-7-6-12s3-9 6-10c2-1 3-5 2-6s-2 0-4 2l-7 8-4 7 15 16 1-1zm153-4c4-4 2-10-3-12-3-1-3-1-6 1-4 3-4 10 0 12 4 1 7 1 9-1zm-639-3-4-7c-2 1-2 4-1 7 1 2 5 3 5 0zm107-3c2-3 1-7-3-8-2 0-3 0-3 4v5c1 2 4 1 6-1zm60-3c0-5-1-6-3-4v7c2 2 3 1 3-4zm261-1-2-4-1 4 1 3 2-3zm58 0-1-4h-3v5c1 3 3 2 4-1zm-567 0c3-2 4-3 4-6 0-5-3-7-8-7s-9 3-9 7c0 5 8 9 13 6zm650-11-2-12a106 106 0 0 1 1-52c0-2 0-3-4-5l-5-3c-2 1-6 13-7 22-1 10-1 24 1 36 1 8 5 19 6 20 2 1 9-3 10-6zm35-16c0-20 0-19-5-26l2-7 3-8 3-5c2-2 3-2 8-2 10 2 24-4 24-9 0-4-3-5-8-5-4 0-5 0-5 2s1 3 4 4c5 2 5 3 1 3-5 0-8-2-9-7-1-4-4-5-12-5s-14 2-19 6l-10 8c-7 4-9 7-11 17-5 16 0 45 8 49 4 3 14 5 20 5l5-1v-19zm46 17c5-5 1-12-6-12-3 0-7 5-7 8 0 6 9 9 13 4zm-270-13c4-1 5-5 7-16l2-10h15c8 2 9 2 11 0 3-1 4-2 4-9 1-10 1-17-1-18-1 0-4 5-4 11-2 8-2 8-14 8-17-1-19 0-22 15l-2 9-26 1c-21 1-24 0-26-1l-2-10c-2-15-4-17-18-15-10 0-14 0-15-3l-2-10c-1-14-2-14-20-15-13-1-13-2-14-12-1-8-3-12-6-14h-18c-7 2-10 0-11-8-1-9-2-13-6-14-5-1-11-1-13 2l-1 3c0 2 1 3 5 3l6 1 2 8 2 9c2 3 8 4 17 3h10c2 1 3 7 4 16 1 7 2 8 5 9 2 1 5 2 14 1 12 0 12 0 14 2l2 10 2 10c3 6 4 6 18 6 11 0 12 0 13 2l2 11c1 14 3 15 24 14l22 1h20zM65 387c0-1-5-7-7-7s-1 5 2 7h5zm159-30c0-2-20-24-22-24l-1 5c0 5 1 5 4 6 5 2 8 8 8 13-1 5-5 11-9 11l-3 2a655 655 0 0 1 0 10c1 2 23-21 23-23zm262-1 36-23v-6c1-9 0-10-7-5a2148 2148 0 0 1-64 41c-1 0-9-5-52-38l-20-15h-5l-10 3 11 10a4348 4348 0 0 0 75 57l36-24zm-219 16-3-4-5-6c-3-6-2-10 4-16 5-4 6-7 4-8-1-1-18 16-18 18l17 18 1-2zm319-3-3-6c-4-4-6-11-4-14l4-4 5-4v-4l-15 14c-1 1 1 4 5 11 6 10 8 11 8 7zm-52-6c8-7 14-12 14-14l-16-24c-2-1-4 3-4 6l2 5c4 4 5 7 5 13-1 4-2 5-5 8-4 3-6 8-5 10 2 2 2 1 9-4zm-328-2 2-5c0-4-6-8-7-4v10c1 2 4 1 5-1zm62-2v-5c-1-2-1-2-2-1-2 2-3 4-2 7s3 2 4-1zm319-4c0-4-1-5-3-4v6c1 2 3 1 3-2zm-122-7 28-19c4-3 5-6 1-5-2 1-18-1-24-2a157 157 0 0 1-43-21 228 228 0 0 1-21-14c-2 0-19 19-19 20l14 11c32 24 49 37 51 37l13-7zm66-3-2-2c-2 0-2 1-2 3l1 3c1 1 3-2 3-4zM16 332l2-4c0-4-2-6-6-6-6 0-8 7-3 10h7zm702-9 1-176-4-1-4 1c-1 2-2 173-1 175s8 3 8 1zm32-1c2-2 3-7 0-9-2-3-9-2-11 0-4 4-1 11 6 11l5-2zm-183-5c4-3 1-9-4-9-3 0-6 2-6 6s5 7 10 3zm-539-3c3-2 2-5 0-8-5-4-10-2-12 4 0 2 0 3 2 5 4 2 7 2 10-1zm479 2 14-6c11-6 23-18 30-31 5-9 11-25 14-37 2-10 5-38 5-53 1-14 1-15-6-12h-28c-2 1 4 6 12 11 7 5 9 7 5 7-3 0-15-7-20-11-3-3-5-4-5-2-1 2 3 18 6 25l3 11c2 10 0 13-10 21l-12 9-4 2c-1-2 5-10 12-17 6-6 7-7 7-11s-2-15-6-29-5-21-5-32c1-11 4-18 13-26 10-10 20-13 33-10l8 1c1-1 2-13 1-15s-30-6-64-9c-20-2-69-3-70-2-2 1-6 30-5 31s3 1 9-1c19-7 29-9 40-8s21 8 21 14c0 2 0 2-4 2l-10-3c-11-3-21-3-36 1-16 4-22 6-22 9s2 3 6 0c10-6 26-8 38-6s18 5 24 13l2 3-3 3c-3 4-3 3-2 8 1 4 0 6-9 12-10 6-21 11-31 12-9 1-11 1-11-1l4-3 21-6c5-2 3-3-2-3-7 0-18-3-25-7l-9-3c-6 0-5 0-7 12a482 482 0 0 1-20 100c0 1 3 4 8 7 33 22 41 27 58 30h32zm-14-22 2-4 2-2c0-1-2-2-5-2-7-2-8-3-8-5 1-2 2-2 14 0 4 1 6 1 13-1l10-2c3 0 2 3-2 5l-4 3 3 2c5 3 3 5-7 4l-12 1c-5 2-6 2-6 1zm-27-22c-1-2-1-3 1-6l4-7c1-3 3-4 8-1h8c5-1 9-1 17 1l7-1c3-2 6-2 11-1l9-1 4-1 3 8v9c-2 1-2 1-5-1-4-3-12-4-19-1-9 3-11 3-22 1h-16l-7 2-3-1zm20-33c-5-3-7-6-7-14l1-9c2-4 9-8 12-8 3 1 3 3-3 7-3 4-4 5-4 8s1 5 4 6c4 1 6 0 12-4 6-5 11-5 15-2 2 3 2 3 1 6-1 2-3 3-9 5a3422 3422 0 0 0-11 5h-11zm-272 63c8-9 11-12 10-13l-5-6c-3-2-5-3-6-2-2 1-2 1 0 6 1 4 1 4-2 10-2 4-3 6-6 7-3 2-4 3-4 6l1 3 12-11zm54 3c0-3-1-3-3-4-8-4-8-18 1-21 2-1 2-2 2-4l-1-4c-2 0-17 16-18 18 0 1 16 18 18 18l1-3zm108 0 13-8c8-8 11-13 16-23a404 404 0 0 0 22-127 1514 1514 0 0 0 6-42c1-5 0-7-4-7s-5 1-6 10a710 710 0 0 1-7 53c-1 22-6 56-10 75-5 23-13 40-23 51-4 5-10 8-17 8-14 0-19-18-7-28 6-5 12-5 15 0 2 4 1 10-2 13-3 2-4 1-2-4s0-8-4-8c-5 0-11 10-9 17 0 3 5 6 10 6 8 0 17-9 19-18 1-8-3-16-10-20-4-2-12-1-17 1-4 2-13 11-16 17-2 5-1 19 2 25 5 10 18 14 31 9zm364-2c4-4 1-11-4-11s-8 2-8 7c0 6 8 8 12 4zm-188-7c6-5 7-7 3-8-1 0-4 2-10 11-2 3 2 1 7-3zm60 1c3-1 4-4 6-7v-8c-3-8-11-11-18-7-2 1-4 2-5 1s-9-17-13-28-8-17-9-17c-2-1-3 4-3 13s3 17 11 33c9 20 20 27 31 20zm-595 0c3-2 3-6 0-9s-7-3-10 1c-3 3-3 5 0 8 3 2 7 3 10 0zm190-3c3-5 0-10-4-9-2 1-2 2-2 7 0 6 0 6 2 6s3-2 4-4zm61-4-1-4c-2 0-3 4-2 7s2 2 3-3zm69-8c0-8 0-9 3-15s10-13 18-17c6-4 5-6-2-5-11 0-21 8-25 19-5 12-5 17 0 24 5 5 6 4 6-6zm242 5-1-4-6-12-5-10c-2 0-4 4-4 9l2 8c2 5 3 7 6 8 4 2 8 3 8 1zm171-2c3-3 2-7 0-10-4-3-8-3-12 1-5 5 0 13 7 12l5-3zm-427-9c1-7 1-10 3-14 4-7 10-14 17-19 4-2 5-3 4-5-4-4-15-1-22 7-6 7-11 18-11 25 0 6 1 9 4 13 4 4 5 2 5-7zm-14-1 1-9c1-10 8-22 18-30 7-5 6-7-1-7-4 0-6 1-12 6s-10 12-13 22c-2 8-1 12 3 17 3 4 4 4 4 1zm-11-11c0-15 4-24 15-33l5-5c1-2-5-2-9-1-7 4-13 10-16 16-6 12-6 22 0 29 4 5 5 4 5-6zm-13-7c1-14 6-25 17-32l5-5c0-2-5-2-10-1-11 5-19 14-21 26-2 11 2 23 7 22 1 0 2-2 2-10zm111-1c5-14 12-53 16-89a1329 1329 0 0 1 7-67c-1-2-7-3-9-1l-2 12a2804 2804 0 0 1-13 107c-2 11-7 30-9 33s4 13 6 13l4-8zm-125-6c1-11 3-16 9-23l9-8 6-5c0-3-9-3-15 0-10 5-15 13-17 24s1 22 6 22c1 0 2-1 2-10zm-13-9c1-14 7-24 18-29 7-3 7-5 2-6-9-1-20 6-24 14-4 5-5 15-4 21 1 5 5 9 6 9 1-1 2-4 2-9zm126 3c6-14 11-44 15-85a1138 1138 0 0 1 6-54c0-4-2-7-5-7-4 0-5 3-6 19l-3 26a893 893 0 0 0-3 20 451 451 0 0 1-13 75l-2 7 3 2 4 2c1 0 3-2 4-5zm-13-8a180 180 0 0 0 9-49 7659 7659 0 0 1 10-86c-2-2-8-1-9 1l-2 15a1087 1087 0 0 1-17 124c5 3 7 1 9-5zm-13-3 6-32a4230 4230 0 0 1 10-71l1-18v-10h-3c-5 0-5 0-7 16a6703 6703 0 0 1-3 26l-4 35c-3 24-6 41-8 47s-2 6 0 8c2 3 6 2 8-1zm256-5c9-11 1-25-13-21h-5c-2-2-8-15-12-28-6-20-8-19-8 3l1 20c5 13 11 23 18 27 4 3 5 3 10 3 5-1 6-1 9-4zm-270-1c4-7 7-20 9-46a572 572 0 0 1 8-61l2-15c0-3-2-4-6-3-3 1-4 2-5 6l-1 12a2289 2289 0 0 1-14 99l-2 7 3 2c3 3 5 3 6-1zm-12-4c2-5 5-22 8-50a2105 2105 0 0 1 7-64l1-5h-4l-5 1c-1 0-2 5-2 11l-2 16-4 28c-5 41-6 46-8 52-2 7-2 9 3 11h6zm-13-13a265 265 0 0 0 7-37l1-12 3-24c4-30 4-33-2-31-4 0-5 3-5 7l-1 14a2301 2301 0 0 0-3 22 618 618 0 0 1-11 64l3 3c5 3 6 1 8-6zm-15-4c3-5 8-33 11-64l3-20c1-11 1-14-2-14s-4 1-5 3l-6 33a1148 1148 0 0 1-9 52c-2 8-2 11 1 13s5 1 7-3zm446-13c2-3 3-8 0-10-2-2-9-3-11-1l-2 5c0 2 0 3 2 5 4 4 7 4 11 1zm-9-18c6-6-2-14-10-10-3 2-4 8-1 10 2 3 8 3 11 0zm-181-5c3-2 4-5 2-5l-3 3c-3 4-10 2-12-3l-2-2c-3 1-2 3 1 7 5 4 9 4 14 0zm-19 0c1-2-3-6-5-6-3 0-7 2-6 4 2 3 9 4 11 2zm-69-1c3-1 6-5 5-7 0-1-2 0-4 3-5 6-5 6-1 4zm13 0c3-2 4-5 1-6h-4c-1 3-2 7 0 7l3-1zm85-1-1-2-2 2 1 2 2-2zm-107-3c-2-4-5-5-5-2 0 2 4 6 6 6l-1-4zm-10 1v-3l-4-2-4 1c0 3 7 6 8 4zm295-7c7-5 0-15-8-11-4 4-3 11 2 12l3 1 3-2zm-308-4c7-4 20-7 28-7l15 2c9 2 12 2 9-1-6-3-22-5-35-4-13 2-26 8-24 11 0 1 2 1 7-1zm102-2c7-1 16-1 22 1h6c3-3-5-6-14-6-10 0-25 4-25 6 0 1 2 1 11-1zm-5-7c9-5 17-5 24-3 11 2 11 2 12 1 2-7-16-10-28-7-6 2-14 8-14 10l6-1zm128-33c2-2 2-2-1-6l-14-35c-6-20-9-29-13-35l-11-13-3 3-2 3 2 2c4 3 4 3 0 5-5 2-4 4 4 8l6 4-4 1c-7-1-6 2 1 6l6 4-3 1c-6 1-5 3 1 7 7 4 7 5 4 5-4 1-3 4 1 7 6 4 6 5 3 5-3 1-2 3 5 8 4 3 5 3 4 5-1 1-1 2 4 6 6 5 5 6-3 3-3-1-6-2-8-1-1 0-2-1-3-5-3-7-7-10-9-6-2 3-3 2-3-4-1-7-4-14-6-14l-3 3c-1 3-1 3-2 2l-1-4c0-5-2-11-3-11l-3 4c-1 3-3 4-3 1 0-4-1-7-2-7s-3 2-4 5l-2 4 2 5c3 6 20 23 26 27 12 6 33 10 37 7zM0 1141v-27h25c17 0 25 1 26 2 2 2 0 4-45 48l-6 5v-28zM715 125c-2-1-2-2-1-4l23-24 23-23v52h-22l-23-1z" transform="translate(23 22) scale(.15945)"/><path style="fill:#df0000;fill-opacity:1" d="M138 1231c4-9 4-11 1-11-7 0-22-28-33-61a303 303 0 0 0-13-37h13c20 1 29 6 47 22 3 3 9 11 12 17l4 5 5-9c11-18 9-17 14-16l14 1a710 710 0 0 0 100 8c18 0 21 0 21-5l2-11a207 207 0 0 0 6-37l2-12a606 606 0 0 1 23-125c0-2 5-8 12-16s8-9 7-12l-3-3-5-4-2-2-8-6a629 629 0 0 0-7-8c11 9 29 23 31 23h6l7-1 3-1a883 883 0 0 0-87-69l-27 18-38 27c-4 2-5 4-5 15l-2 7-3-2 3-31a627 627 0 0 0-10-188 225 225 0 0 0-9-41 353 353 0 0 0-18-61c-3-8-3-9 3-13l7-4 4-3 7-5c14-8 32-21 32-22-1-2-7-4-17-7a271 271 0 0 0-62-11c-4-4-9-12-11-17-4-9-7-15-10-17-2-3-6-10-6-13l-2-5-3-6c0-1 8-3 14-3h3l1-13v-85l2-77c0-3 5-7 10-9l9-5c10-5 17-9 18-8v34a2367 2367 0 0 0 0 88 433 433 0 0 0 0 9 4625 4625 0 0 1 1 64l12 3 17 2 27 7 7 3 2-3a724 724 0 0 0 2-121 20500 20500 0 0 0 2-102c2-1 2-1 0-4-2-1-2-2-1-2s2-2 2-10c1-11 3-16 9-23l9-8c6-4 7-6 3-7-8-2-21 5-25 15-5 10-6 24-1 31 2 3 0 3-8-4-8-5-10-8-12-15-3-14 6-29 18-34 5-2 14-3 20-2 8 2 8 2 15-44a686 686 0 0 0 6-37c3-24 3-23 1-26l-8-12a509 509 0 0 0-25-44 729 729 0 0 1-24-39l190-1h190l-4 7c-3 6-3 10-1 10s9 8 13 14c5 8 8 16 14 34 7 23 14 39 19 43l3 2-3 2c-1 1-4 3-7 3-11 4-32-3-45-14-7-6-18-18-20-24l-4-4-7 11c-7 14-5 13-24 10a733 733 0 0 0-131-7c6 0 6 1 2 26a762 762 0 0 0-11 91 1291 1291 0 0 0-2 14 408 408 0 0 1 6-71 1514 1514 0 0 0 6-42c1-5 0-7-4-7s-5 1-6 10a710 710 0 0 1-7 53c-1 22-6 56-10 75-5 23-13 40-23 51-4 5-10 8-17 8-14 0-19-18-7-28 6-5 12-5 15 0 2 4 1 10-2 13-3 2-4 1-2-4s0-8-4-8c-5 0-11 10-9 17 0 3 5 6 10 6 8 0 17-9 19-18 1-8-3-16-10-20-4-2-12-1-16 1-5 2-14 11-17 17-2 5-1 19 2 25 3 7 12 11 21 11 4 0 14-3 17-5 1-1 1-1 0 0-1 2-1 3 2 5l13 11a5253 5253 0 0 1 16 12l35 25 3 2 8-5a294 294 0 0 0 23-15c8-5 18-12 23-17l10-6 6-3 2 4v14a710 710 0 0 0 16 247l2 7 3 7c2 10 10 35 15 47 3 10 3 12-8 18a1111 1111 0 0 0-45 29 222 222 0 0 0 80 14l4 6a222 222 0 0 0 5 9l3 7 4 8a60 60 0 0 1 7 13l10 19c0 2-5 3-16 5l-5 1-1 89c0 80 0 87-2 88-7 6-34 20-36 19l-2-18a42951 42951 0 0 0 0-170c0-8-1-10-6-10-6 0-29-5-42-8-12-3-14-4-15-2a6219 6219 0 0 0-2 222c-2 1 3 6 8 7 7 2 12 12 11 22-1 4-1 4-1 1 0-8-5-17-7-16l-1 8c0 13-6 25-16 31-6 4-6 6-1 6 4 0 4 0 2 1-3 1-4 1-7-1-4-2-7-3-10-1h-2l-9-4c-2 2-6 17-8 27a455 455 0 0 1-6 39 909 909 0 0 1-6 38c1 2 5 3 8 1 2-1 2-1 1 2-1 2-1 2 2 2 4 0 4 0 14 18a3103 3103 0 0 1 45 79l2 4H133l5-9zm5-19c3-4 3-5 1-7-1-2-1-2 1-4 3-2 2-3-4-6-6-2-6-4-2-5l5-2-7-5-8-3 3-2c2 0 3-2 3-2 0-2-6-6-10-8l-3-1 2-2c2 0 3-1 3-2s-4-5-8-7c-5-2-5-2-2-4l2-2-4-3c-5-3-6-4-3-6v-3c-3-4-2-4 3-3h4c2-3 4-2 5 2l3 7c3 2 3 2 5 1s2-1 2 3 3 13 4 15c2 1 3 0 4-2 1-3 3-2 3 2 2 10 5 14 7 8 1-3 3-2 4 3 2 7 4 7 7-1l3-5-3-5c-8-13-15-20-29-30-6-4-18-7-28-7-9 0-9 1-5 10l14 38c7 20 19 43 24 43 1 0 3-2 4-5zm228-65-2-1-2 1 2 1 2-1zm-35-2c3-3 8-35 14-95 4-40 10-63 22-84 6-11 8-14 13-18 5-2 12-3 16-1l5 5c3 3 3 4 3 9-1 8-4 13-9 16s-6 3-10-1c-3-3-4-6-1-11 2-5 3-4 2 2 0 6 1 8 7 7 5-1 7-6 7-13-1-5-1-7-3-9-4-3-10-3-15 0-8 4-12 19-8 28 1 4 3 5 7 7 9 5 18 3 26-4 6-6 7-10 8-21 0-8 0-10-2-14-3-6-8-10-16-12h-12c-20 5-31 20-41 59-4 16-6 28-8 50a8118 8118 0 0 1-3 30 858 858 0 0 1-9 70h7zm16-1 4-23a2835 2835 0 0 1 11-90 148 148 0 0 1 11-43l-2-6c-3-6-5-6-8 1-7 13-12 43-18 95a714 714 0 0 1-7 66h9zm13 0a2403 2403 0 0 0 14-100c1-12 4-28 8-41l2-6-2-2c-8-7-12 2-18 41a836 836 0 0 0-10 94c-3 15-3 15 1 15l5-1zm13-1 5-21 7-55a328 328 0 0 1 11-63c0-2-7-6-8-4l-3 8c-4 10-7 27-12 69a1256 1256 0 0 1-7 66h7zm14-1 2-8 3-21 7-49a555 555 0 0 1 10-55l-3-4h-5c-2 2-5 10-6 18l-7 50a1239 1239 0 0 1-8 69c1 2 6 1 7 0zm31 0h-1l-2 1h2l1-1zm-18-1c2-2 2-5 6-27a968 968 0 0 1 16-94c2-5 2-5-3-8-4-2-4-2-5-1a549 549 0 0 0-21 130h7zm15-2c1-2 4-17 7-40 4-33 8-53 11-66l3-11-2-2c-5-4-9-1-11 11a979 979 0 0 0-16 109c2 1 6 0 8-1zm15-2 9-53c3-24 4-32 8-43l3-13-2-2c-6-5-10-1-12 13a2040 2040 0 0 0-15 99l9-1zm48-110c4-2 6-4 10-9 5-8 6-12 6-19 0-8-4-16-9-16l-1 10-1 15c-3 5-13 14-18 16s-6 3-4 5c4 2 11 1 17-2zm-12-7c11-6 16-16 15-29-1-10-4-15-8-15-2 0-2 1-2 10s0 11-2 15c-3 6-9 12-17 16l-4 3 2 2c3 3 8 2 16-2zm-14-6c12-6 19-21 15-36-2-7-8-14-10-10l1 5c2 6 1 15-2 21-2 6-9 13-15 17-10 6-1 9 11 3zm-13-6c7-4 12-11 14-17s1-20-1-25c-2-4-7-7-8-5l1 7c1 8 1 14-3 20-3 6-10 15-15 17-4 2-5 4-1 6 4 1 8 0 13-3zm-19-4c2-1 7-3 10-6 4-4 6-6 9-12s3-8 3-13c-1-8-5-16-9-16l-1 10c0 9 0 10-3 16-4 7-6 9-13 14-6 4-7 5-4 7h8zm-8-8c4-3 11-10 14-16 2-4 2-6 2-13 0-9-1-13-5-17-3-2-6-2-5 1 2 4 1 17-1 22-3 8-10 16-17 19l-5 3c0 3 11 4 17 1zm46-43c0-3 0-3-4-3-7 0-10-3-10-10 0-6-2-12-5-13l-13-1h-13l-2-10c-2-16-4-17-20-16-13 0-15 0-15-6l-2-11c-3-10-5-11-19-11-9 0-10 0-13-2-2-3-2-4-2-10 0-7 0-8-3-11s-3-3-13-4h-28c-25-1-26-1-28 16l-1 9h-16c-11-1-12-1-12 13v10l3-7c1-9 1-8 12-8 18 1 21 0 22-13 1-9 2-12 3-12h32c17 0 18 0 20 13 2 12 5 14 23 14 10 0 11 1 12 11l2 10c2 4 2 5 7 6 3 1 6 2 9 1h14c2 1 2 4 3 10 2 16 3 17 19 16h12l4 8c2 8 3 12 6 13l9 1c6 0 7-1 7-3zm1-27-2-7a1795 1795 0 0 0-74-59l-12-9a12238 12238 0 0 0-19-15 3221 3221 0 0 1-47-36 5889 5889 0 0 1-59 39l-5 4v7l1 7a2934 2934 0 0 0 62-42l6 3a5857 5857 0 0 0 139 108c8 7 10 7 10 0zm-58-153-1-70c-1-3-11-12-12-11v140l5 5 6 4 1-68zm-18 44c0-4 0-5-5-11l-6-7c-3-2-2-5 5-12l7-7-1-4c-1-8-1-8-18 9l-9 11c1 3 24 26 25 26s2-2 2-5zm-24-10c-4-5-7-7-8-7-2 2-1 4 4 7 7 5 8 5 4 0zm-12-12c0-2-26-28-27-28l-2 5c0 4 0 5 2 7l10 8c12 11 17 13 17 8zm20-18 14-15c1-2 0-4-15-20l-13-11c-2 0-31 27-31 29a192 192 0 0 0 30 30l15-13zm-25-6-8-11c0-2 16-18 18-18s18 16 18 19c0 2-16 18-18 18l-10-8zm15-7c2-3 3-6 0-8-2-3-5-2-8 1-4 3-4 4-1 7s5 3 9 0zm-43 8a4334 4334 0 0 0-2-167l-3 1c-2 1-2 10-2 81l-1 80 3 3c3 3 4 4 5 2zm282-10c14-1 16-2 14-7-1-2-1-2-6-2h-30v-20c0-16 1-20 2-20 7-1 9-1 9-3l-4-7-14-1a191 191 0 0 1-124-49c-14-13-18-17-36-40-35-46-40-51-62-70a256 256 0 0 0-115-55c-21-5-36-6-59-6-22 0-27 1-27 4 0 4 2 4 16 4h15c2 1 2 2 2 18l-1 19-3 4c-4 1-4 3-1 6 2 1 4 2 15 2a222 222 0 0 1 158 86c27 39 31 44 49 62 36 36 79 59 132 70 25 5 48 7 70 5zm-49-9c-8-1-31-5-33-7v-6c2-12 8-31 9-32l17 1c25 4 22 3 23 12l-1 20v13h-6l-9-1zm-9-10 4-1c5 1 6 0 6-5 0-2 1-3 3-4 3-2 3-3 0-5l-2-5c0-2-1-2-3-2l-4-2c-2-4-4-4-6-1-2 2-3 2-4 1-3-1-5-1-5 2l-3 4c-2 1-2 2-1 4l1 6c0 3 0 3 3 4l4 3c2 2 5 3 7 1zm-53-6c-15-6-25-11-29-14-3-2-3-4 2-11l7-13 7-10c1-1 3 0 11 3l18 8c8 2 10 4 10 7l-10 32c-1 3-5 3-16-2zm7-12c0-2 2-3 3-4 1 0 2-1 2-7 0-7 0-7-3-8l-4-2c-1-2-2-2-4-2h-6c-2-3-4-2-6 1 0 2-2 4-4 4-2 1-3 3-1 5v4c-3 4-2 5 2 5 3 0 4 1 5 3 1 3 2 3 5 3 2-1 4 0 5 1 3 2 4 1 6-3zm-59-14-23-19c-4-3-5-5-5-7 0-3 8-13 18-23 8-7 7-8 19 3a345 345 0 0 0 20 17l-9 15-10 16c-1 3-3 2-10-2zm6-12 4-3c4 0 5-2 4-5l1-4c2-2 1-5-1-6l-3-4c0-3-2-4-5-3l-5-1c-2-3-5-2-6 1l-5 2c-2 0-3 0-3 3l-1 5c-1 1-1 2 1 3l3 6c0 2 1 3 4 3s4 1 6 3c2 3 4 3 6 0zm-55-34c-14-16-20-25-20-27s29-23 32-23l3 3a830 830 0 0 0 22 31c0 2-25 27-27 27l-10-11zm11-6 4-2c3 0 4-1 4-4 0-2 2-4 3-5 1-2 1-2-1-5-2-1-2-3-2-6s0-3-3-3l-4-1-2-3c-2-2-2-2-5 0-1 2-4 3-5 3l-3 3-3 5-2 2 2 2c1 2 2 4 1 5 0 3 2 5 5 5 2 0 3 1 5 3 1 2 4 3 6 1zm-44-34-23-30 8-8a496 496 0 0 0 21-20l13 14c12 15 16 22 16 25 0 2-6 7-18 15l-6 4c-5 4-7 4-11 0zm9-13 5-2c3 0 4-1 4-3l2-5v-4l-2-5c0-3 0-3-3-3l-5-2c-2-2-2-2-6-1l-6 1c-2 1-3 2-3 4l-1 5c-2 3-2 3 0 5l2 4c0 3 1 4 4 4l4 2c1 3 3 3 5 0zm-47-31-11-9-9-6-4-5c0-1 15-27 18-30 2-2 2-2 5 0l29 21 5 7c0 3-24 27-26 27l-7-5zm8-9 4-3c2-1 3-2 3-7 1-5 1-6-1-7l-2-4c0-3 0-3-3-3h-6c-3-2-3-2-6 0-1 2-4 3-5 3l-2 1a1000 1000 0 0 1 0 12l2 4c0 2 1 3 5 3l6 2c2 2 3 1 5-1zm-52-20-16-7a3244 3244 0 0 1-11-4l-3-3 9-29c1-5 2-6 4-6 5 0 42 15 45 19 1 2 1 3-2 7-8 15-15 26-17 27l-9-4zm8-11c0-2 2-4 3-5 2-2 2-2 2-7 0-4-1-5-2-6-1 0-3-1-3-3-1-2-2-3-5-3h-7c-1-1-2-1-3 2l-5 4c-3 0-3 1-3 3l1 7 2 4 4 3c1 2 3 2 6 2l4 1c2 2 4 1 6-2zm-56-5a537 537 0 0 0-33-6v-19c1-16 2-19 3-20 2-1 6-1 30 4 10 1 14 2 15 4 2 2 2 2-1 14l-4 16c-1 4-4 8-5 8l-5-1zm-6-8 4-2c3 0 4-1 4-4l2-4v-6l-1-3-3-4-4-3c-3-3-4-3-6 0l-5 2c-3 0-4 1-4 3l-2 4c-1 2-1 3 1 5l1 4c0 2 1 3 3 4 2 0 3 2 4 3 1 2 4 3 6 1zm112 220 21-22c0-2-23-26-26-27-3-2-4 0-4 5 0 2 2 4 8 11l7 10-6 8-8 9c-2 5-1 11 1 11l7-5zm57 0c1-5-1-9-7-16l-6-7 7-9c5-6 6-7 6-10l-2-4c-2 0-25 22-25 24l25 25 2-3zm214-8c1-3 1-3-1-9l-6-7c-4-2-7-1-7 2l-1 3c-2 2-2 4-1 6l1 4c0 3 1 3 4 3l5 1c3 2 4 1 6-3zm-230-33 13-14c0-2-30-31-31-31-2 0-28 25-28 27a286 286 0 0 0 30 31c2 0 7-5 16-13zm-24-6c-12-12-12-11-2-20l9-8 10 9c6 7 8 9 7 11-1 3-15 15-16 15s-5-3-8-7zm13-5c3-3 3-5-1-9s-6-4-9-1c-4 3-4 5 0 9 3 4 6 4 10 1zm-23-27 11-12c0-2-23-24-25-24l-1 3c0 3 1 5 7 11l7 9-8 8c-7 8-7 8-6 12 0 5 1 5 2 4l13-11zm173 7c30-18 46-28 47-30v-6c-2-5-4-6-8-3a1727 1727 0 0 1-58 38c0 1 8 6 11 6l8-5zm-138-7c-2-4-11-14-12-14-4 0-3 3 4 9 6 7 10 9 8 5zm-146-17a946 946 0 0 0 54-35l11-6c3 0 22-13 22-14 0-2-5-6-7-6l-12 8a2168 2168 0 0 1-29 19 2820 2820 0 0 0-18 12 4420 4420 0 0 1-20 12l-9 7c0 2 2 5 3 5l5-2zm129-2c1-1 0-4-4-10l-17-22c-2 0-8 5-8 7s25 27 27 27l2-2zm113-9a20895 20895 0 0 0 73-48c1-2-1-7-3-7a6916 6916 0 0 1-91 58c0 2 4 6 6 6l15-9zm-24-3 1-83 1-82-3-2c-4-5-4-3-5 43a14558 14558 0 0 1 1 123c1 2 3 3 5 1zm-12-16c0-2-21-22-22-22s-1 1 5 10l9 11c4 3 5 4 6 3l2-2zm-105-8 2-3-2-3c-3-3-5-2-5 4 0 5 1 5 5 2zm108-6c0-3 0-4-2-6-5-5-13-14-13-16 0 0 3-5 8-9 7-7 7-8 7-12l-2-4c-2 0-26 24-26 26l12 14c13 14 15 15 16 7zm-227-2a838 838 0 0 0 56-37l3-3-2-1c-5-4-6-3-22 7a3430 3430 0 0 1-39 27c-2 1-2 4 0 7h4zm305-11 5-4s-6 2-8 5c-4 3-2 3 3-1zm11-7c1-2-2-1-4 1-1 2-1 2 1 1l3-2zm-106-20c8-7 14-14 14-15l-32-30c-2 0-29 27-29 29s29 30 31 30 8-5 16-14zm-18 1-17-17c0-2 16-18 18-18s18 16 19 19c0 1-12 15-16 17l-4-1zm7-13 3-3c0-2-6-8-9-8-2 0-7 4-7 6s6 8 8 8l5-3zm-45-13V407l-3-2-3-2-1 3-1 68v66l3 2c3 3 5 4 5 1zm21-11 12-14-26-24c-1 0-2 1-2 3 0 4 2 6 9 13l7 6c0 2-2 4-8 10-8 8-8 9-8 13 0 9 1 8 16-7zm52 8c0-4 0-5-8-12l-8-10c0-2 3-6 8-10 8-8 8-9 8-13 0-9-1-9-16 7-8 7-14 14-14 15 0 2 27 28 28 28l2-5zm-119-25-10-6 4 4a1254 1254 0 0 1 6 2zm-148 1 2-3v-4l-2-3-1-3c-1-2-1-2-4 0l-4 3 3 7c3 6 5 7 6 3zm248-18 15-17c0-2-26-28-29-28-2 0-32 28-32 31 0 2 28 29 30 29l16-15zm-23-5-9-9c-1-1 1-4 8-11l10-9 9 8 9 10c0 2-16 19-18 19l-9-8zm12-5 4-5-7-8c-2 0-8 6-8 8l7 8 4-3zm-21-25c11-12 13-14 13-16-1-3-27-28-28-26l-2 4c0 3 0 4 8 12l9 10-9 9-8 8v6c0 5 0 6 2 6l15-13zm51 6v-6l-12-9c-12-9-15-11-16-7 0 3 24 27 26 27s2-1 2-5zm-31-28c0-3-17-16-19-15l7 8c5 6 8 8 10 8l2-1zm48-3c4-1 51-33 59-39 5-3 5-3 5-9l-1-6c-1-1-6 2-39 24l-28 17c-2 0-3 0-6-3a4940 4940 0 0 0-144-107c-2 0-2 0-2 4 0 6-2 4 45 40a399427 399427 0 0 1 33 26l28 20 26 21c20 16 19 15 24 12zm26-39c4-1 5-5 7-16l2-10h15c8 2 9 2 11 0 3-1 4-2 4-9 1-10 1-17-1-18-1 0-4 5-4 11-2 8-2 8-14 8-17-1-19 0-22 15l-2 9-26 1c-21 1-24 0-26-1l-2-10c-2-15-4-17-18-15-10 0-14 0-15-3l-2-10c-1-14-2-14-20-15-13-1-13-2-14-12-1-8-3-12-6-14h-18c-7 2-10 0-11-8-1-9-2-13-6-14-5-1-11-1-13 2l-1 3c0 2 1 3 5 3l6 1 2 8 2 9c2 3 8 4 17 3h10c2 1 3 7 4 16 1 7 2 8 5 9 2 1 5 2 14 1 12 0 12 0 14 2l2 10 2 10c3 6 4 6 18 6 11 0 12 0 13 2l2 11c1 14 3 15 24 14l22 1h20zm6-43 36-23v-6c1-9 0-10-7-5a2148 2148 0 0 1-64 41c-1 0-9-5-52-38l-20-15h-5l-10 3 11 10a4348 4348 0 0 0 75 57l36-24zm-149-74c0-8 0-9 3-15s10-13 18-17c6-4 5-6-2-5-11 0-21 8-25 19-5 12-5 17 0 24 5 5 6 4 6-6zm-14-6c1-7 1-10 3-14 4-7 10-14 17-19 4-2 5-3 4-5-4-4-15-1-22 7-6 7-11 18-11 25 0 6 1 9 4 13 4 4 5 2 5-7zm-14-1 1-9c1-10 8-22 18-30 7-5 6-7-1-7-4 0-6 1-12 6s-10 12-13 22c-2 8-1 12 3 17 3 4 4 4 4 1zm-11-11c0-15 4-24 15-33l5-5c1-2-5-2-9-1-7 4-13 10-16 16-6 12-6 22 0 29 4 5 5 4 5-6zm-13-7c1-14 6-25 17-32l5-5c0-2-5-2-10-1-11 5-19 14-21 26-2 11 2 23 7 22 1 0 2-2 2-10zm111-1c5-14 12-53 16-89a1329 1329 0 0 1 7-67c-1-2-7-3-9-1l-2 12a2804 2804 0 0 1-13 107c-2 11-7 30-9 33s4 13 6 13l4-8zm-138-15c1-14 7-24 18-29 7-3 7-5 2-6-9-1-20 6-24 14-4 5-5 15-4 21 1 5 5 9 6 9 1-1 2-4 2-9zm126 3c6-14 11-44 15-85a1138 1138 0 0 1 6-54c0-4-2-7-5-7-4 0-5 3-6 19l-3 26a893 893 0 0 0-3 20 451 451 0 0 1-13 75l-2 7 3 2 4 2c1 0 3-2 4-5zm-13-8a180 180 0 0 0 9-49 7659 7659 0 0 1 10-86c-2-2-8-1-9 1l-2 15a1087 1087 0 0 1-17 124c5 3 7 1 9-5zm-13-3 6-32a4230 4230 0 0 1 10-71l1-18v-10h-3c-5 0-5 0-7 16a6703 6703 0 0 1-3 26l-4 35c-3 24-6 41-8 47s-2 6 0 8c2 3 6 2 8-1zm-14-6c4-7 7-20 9-46a572 572 0 0 1 8-61l2-15c0-3-2-4-6-3-3 1-4 2-5 6l-1 12a2289 2289 0 0 1-14 99l-2 7 3 2c3 3 5 3 6-1zm-12-4c2-5 5-22 8-50a2105 2105 0 0 1 7-64l1-5h-4l-5 1c-1 0-2 5-2 11l-2 16-4 28c-5 41-6 46-8 52-2 7-2 9 3 11h6zm-13-13a265 265 0 0 0 7-37l1-12 3-24c4-30 4-33-2-31-4 0-5 3-5 7l-1 14a2301 2301 0 0 0-3 22 618 618 0 0 1-11 64l3 3c5 3 6 1 8-6zm-15-4c3-5 8-33 11-64l3-20c1-11 1-14-2-14s-4 1-5 3l-6 33a1148 1148 0 0 1-9 52c-2 8-2 11 1 13s5 1 7-3zm361-93c2-2 2-2-1-6l-14-35c-6-20-9-29-13-35l-11-13-3 3-2 3 2 2c4 3 4 3 0 5-5 2-4 4 4 8l6 4-4 1c-7-1-6 2 1 6l6 4-3 1c-6 1-5 3 1 7 7 4 7 5 4 5-4 1-3 4 1 7 6 4 6 5 3 5-3 1-2 3 5 8 4 3 5 3 4 5-1 1-1 2 4 6 6 5 5 6-3 3-3-1-6-2-8-1-1 0-2-1-3-5-3-7-7-10-9-6-2 3-3 2-3-4-1-7-4-14-6-14l-3 3c-1 3-1 3-2 2l-1-4c0-5-2-11-3-11l-3 4c-1 3-3 4-3 1 0-4-1-7-2-7s-3 2-4 5l-2 4 2 5c3 6 20 23 26 27 12 6 33 10 37 7zM0 1187l40-41c30-29 40-40 39-41 0-2-4-2-40-2H0v-29l3 2c6 3 11 0 11-6 0-5-5-8-11-6l-3 1v-18l12-11a4494 4494 0 0 1 17-16l5-4v-8c0-6 0-7-2-7l-17 14-14 14-1-2c0-2 2-4 5-8l27-25c2-2 2-3 2-9s-1-7-2-7-9 6-17 14l-15 14v-29c0-28 0-29 2-28 3 2 7 1 10-1 3-3 3-6 0-9-2-3-7-4-10-2-2 1-2 1-2-11v-13l17-15 17-16v-7l-2-7-16 15C1 897 0 898 0 895c0-2 2-5 17-18l17-17v-11c0-4-4-1-16 11L3 874l-3 2v-56l2 1c3 3 6 2 9 0 4-3 4-6 1-9-2-3-3-3-7-3l-5 1v-27l17-16 17-16v-7c0-4-1-5-2-5l-17 15-15 14v-3l1-5a308 308 0 0 0 31-28c1-1 2-3 2-7 1-12 1-12-27 15l-7 7v-54l2 1c3 1 7 0 10-3v-6c-2-3-6-5-9-4l-3 1v-21l16-15 17-17c2-4 1-12-2-12l-16 14C2 644 0 645 0 643s2-5 10-13l17-16 7-7v-6l-2-7c-1-1-13 8-15 12l-9 9-8 7v-55l3 1c5 0 8-3 8-7s-2-6-7-6H0v-12c0-12 0-12 3-14a397 397 0 0 0 26-25c4-3 4-3 4-10 0-6 0-7-2-7l-16 14C2 513 0 515 0 513s1-4 4-6l16-16 13-12v-7c0-4-1-6-2-7l-16 14-15 14v-53l2 1c4 0 9-2 10-6 1-5-3-9-10-8l-2 1v-26l15-13 16-15c2-2 2-4 2-10 0-8 0-8-2-8s-7 4-16 14C3 381 0 383 0 381l1-3 16-15 16-14v-8l-2-8-24 21-7 7v-44h2c4 0 8-4 8-6 0-3-4-7-7-7H0v-53l19 20 19 21 1 299 1 298c1 2 0 4-5 5-6 1-10 4-12 8-3 5-2 7 2 8l22 4c6 0 7 0 8 3v54a1677566 1677566 0 0 1 1 126l16 1c17 0 18 0 10 8a5591 5591 0 0 1-82 81zm50-92c2-1 2-10 2-88v-88l-6-1c-4-1-4-1-5 1l-2 158v18h4a392 392 0 0 0 7 0zm-31-2c7-4 5-13-3-13-4 0-7 2-8 5s0 6 3 8h8zm13-19c2-2 1-7-2-9-6-5-14 0-12 7 1 4 9 6 14 2zm-12-16c2-1 3-2 3-5 0-7-8-10-13-4-3 3-2 6 1 9 3 2 5 2 9 0zm0-91c3-2 3-7 0-10-2-3-8-3-11 0-2 1-3 6-1 9s9 4 12 1zm9-18c7-4 5-13-4-13-6 0-9 7-5 12 3 2 5 3 9 1zm-9-19c3-3 4-6 1-9-4-4-8-5-12-1-2 1-3 3-3 5 0 6 9 9 14 5zm0-92c3-2 3-8 0-10-5-4-13-1-13 5 0 7 6 9 13 5zm10-17c4-3 2-13-4-13-2 0-7 3-8 5-1 3 1 7 4 8 3 2 5 2 8 0zm-9-20c4-3 0-11-6-11-8 0-11 10-5 13 4 1 9 1 11-2zm-1-89c5-6 0-15-6-14l-6 4c-2 2-2 3-2 5 2 7 9 9 14 5zm11-20c3-2 2-7 0-9-3-3-8-3-10 0-2 2-3 7-1 10 2 2 8 2 11-1zm-11-16c3-4 2-9-1-11-3-3-7-3-10 1-3 3-3 7 0 10s9 3 11 0zm-3-90c3-2 5-4 5-6 0-8-11-11-15-4-2 4-1 7 2 9s5 3 8 1zm13-22c3-3 3-4 0-7-2-3-3-3-6-3-7 1-9 10-3 13 3 1 6 1 9-3zm-10-16c2-3 3-6 0-9-2-3-8-3-11-1-2 2-2 8 0 10 2 3 8 2 11 0zm1-92c2-2 2-3 2-5-1-4-5-6-9-6-6 0-9 7-5 12 4 3 8 3 12-1zm7-17c6-3 6-8 1-12-5-3-12 2-11 8 1 2 5 4 8 5l2-1zm-9-17c3-2 4-3 4-6 0-5-3-7-8-7s-9 3-9 7c0 5 8 9 13 6zm-3-90 2-4c0-4-2-6-6-6-6 0-8 7-3 10h7zm12-18c3-2 2-5 0-8-5-4-10-2-12 4 0 2 0 3 2 5 4 2 7 2 10-1zm-11-17c3-2 3-6 0-9s-7-3-10 1c-3 3-3 5 0 8 3 2 7 3 10 0zM0 1141v-27h25c17 0 25 1 26 2 2 2 0 4-45 48l-6 5v-28zm452-16 1-2v2h-1zm1-6c0-2 0-3 1-2v3c-1 1-1 0-1-1zm2-8 1-7v2l-1 7v-2zm2-14c0-1 0-2 1-1v2c-1 1-1 0-1-1zm-273-4-1-9-1-6-2-6c-2-9-8-26-11-30-2-3-3-3-7-3-8 1-15-3-18-11-3-7-2-14 4-19 5-6 12-7 21-3l14 15 2 1c2 0 1-4-4-19-5-14-9-24-12-28-2-3-2-3-9-2-9 0-12-1-16-7l-2-10c0-9 4-15 12-18h10l6 3 7 2c10 3 30 12 31 15v5l-3 6a5027 5027 0 0 1-9 34l-3 17-2 23-6 50-1 5v-5zm2-19 2-15c1-13 1-18-4-28-7-16-15-23-25-23-5 0-6 0-9 4-4 4-4 4-4 10 0 10 6 16 17 15l6-1 4 9a136 136 0 0 1 11 30c1 2 2 1 2-1zm7-64 1-14c0-10-13-39-22-48-4-5-5-5-10-6-11-1-17 5-17 14 0 6 2 11 6 13 3 2 5 2 10 2 7-1 8-1 10 1 3 4 8 16 13 31 7 21 7 21 9 7zm7-31c3-8-2-21-9-26-5-3-10-4-11-4l5 11 7 16c4 9 6 10 8 3zm258 110c0-1 0-2 1-1v2c-1 1-1 0-1-1zm2-8c0-8 3-19 3-16l-3 19v-3zm3-21 1-4 1-2v2l-1 4h-1zm2-8 1-1c1-1 1 0 0 0 0 2-1 2-1 1zm285-51a11330 11330 0 0 0-21-22c-16-16-22-22-23-25l-1-57V763l-3-4a2567 2567 0 0 0-37-56 2703 2703 0 0 0-4-7 1534 1534 0 0 1-35-77 189 189 0 0 1-6-17 424 424 0 0 1-21-76l-1-7-2-8-1-7-2-7-1-12a4244 4244 0 0 1-2-16l-2-10 1-6 1-5-2-13c0-9 0-10 2-14l2-4-2-3c-3-2-3-3-3-17s1-15 3-17c3-3 3-5 0-9-2-3-2-5-2-13l1-10c0-5 0-6 3-9 3-4 4-7 2-9-3-3-1-22 2-26 2-1 2-2 1-2l-4-2-3-2-4-2-3-2-19-8-6-3-4-2 2-9c7-15 11-33 14-51 0-5 0-5 2-3l3 6 2 7 5 10a597 597 0 0 0 11 25c2 3 3 3 8 3 13-2 21 6 20 17l-3 9-10 7-3 2 12 6 11 7c1 3 3 4 13 9l6 4 4 1 11 4c7 4 8 4 8 7l-1 3h-1l-9-6c-2 1-6 13-7 22-2 15 0 35 4 49 2 7 3 8 6 7h1l-3 4-6 5-6 4 16 43a426 426 0 0 0 41 75v-98c0-90 1-97 2-99l11-1c9 0 11 0 13-2 9-5 12-13 6-15l-24-5-8-1V146l-3-2-13-1c-10 0-14 0-14-2l26-28a1811 1811 0 0 0 57-59c1-1 2 0 2 2s-7 9-38 41l-38 41 66 2h10v26l-2-1c-5-2-11 2-11 6 0 5 9 9 12 6 1-1 1 1 1 10v12l-17 17c-17 16-17 16-17 21l1 5c2 1 5-1 21-16 11-11 12-12 12-10s-3 5-13 15c-23 22-21 19-21 26 1 10 2 10 19-7l15-14v57l-4-1-6 1c-5 5-3 11 4 13l5-1c1-1 1 0 1 13v14l-17 16-17 17v6l1 6 17-14c14-13 16-14 16-12s-2 4-9 11l-18 17c-8 8-8 8-8 13 0 10 2 10 9 3l23-21 3-3v25c0 25 0 26-2 25-5-3-11 0-11 6l2 5c2 2 7 3 9 1 1-3 2 0 2 12v14l-11 9-17 16-7 7v6c0 4 1 6 2 6l17-14 16-14v2c0 2-7 9-18 19l-17 16v8l1 7c1 1 11-8 28-24l6-6v27c0 23 0 26-1 25l-6-1c-3 0-4 1-5 3v6l6 2 5-1c1-1 1 1 1 11v12l-5 5-17 16-12 11v9l1 8c2 0 8-5 17-13l16-15v3a542 542 0 0 0-31 31c-3 3-3 4-3 10s0 7 2 7 10-7 27-23l5-5v25c0 21 0 26-1 25-2-2-9-1-10 1-4 6-1 13 5 12l4-2 1-1 1 13v12l-18 18-18 17v7c0 4 1 6 2 7a360 360 0 0 0 34-28c0 2-4 6-18 19l-18 17v12c1 2 5 0 17-12l16-14 3-2v27c0 25 0 26-2 25-3-3-8-2-11 1-2 2-2 3-1 5 2 5 7 6 11 3l3-2v31l-17 17-18 17v5c0 6 2 7 5 5l16-15c12-11 14-13 14-10 0 2-2 4-11 12a4459 4459 0 0 0-17 17l-7 7v7c0 12-1 12 26-14l9-8v46h-4c-5 0-7 1-7 6 0 4 3 5 8 5l3-1v57l-14-15c-25-25-27-27-27-32l-1-298V356l-3-1-4 1-2 195-1 297v104l5 6 8 8a710 710 0 0 1 39 43c0 2-2 1-10-7zm3-50c1-4 0-7-3-9-4-2-6-1-9 1-4 5-1 11 6 11 4 0 5-1 6-3zm-13-15c5-4 2-11-4-11-7 0-9 7-4 11l4 2 4-2zm11-17c4-4 1-11-5-11s-9 6-6 10c3 3 8 4 11 1zm-4-87c8-4 5-15-4-15-3 0-7 4-7 8l2 6c3 2 4 2 9 1zm-7-21c3-6-3-12-9-10-8 3-6 12 3 12l6-2zm9-19c2-1 2-7 1-9l-5-2c-2 0-3 0-5 2-3 3-4 6-1 9 1 2 8 3 10 0zm0-88c3-2 3-7-1-10l-4-2-4 2c-3 3-4 7-1 10 2 2 8 3 10 0zm-10-19c2-1 3-3 3-5 0-6-9-9-12-5-3 3-3 7-1 9 3 4 7 4 10 1zm11-18c3-4 3-8-1-11l-5-2c-5 0-9 7-6 11 4 4 8 5 12 2zm-1-92c4-5 1-10-4-10-4 0-8 3-8 6 0 5 9 8 12 4zm-10-18c2-2 2-6 0-8-2-3-7-3-9 0-4 5-1 10 4 10l5-2zm10-17c6-4 3-11-3-11s-10 4-7 9c1 2 4 4 7 4l3-2zm1-91c5-2 1-12-4-12l-7 3c-2 3-1 7 2 9 2 2 5 2 9 0zm-136-9 9-5 8-12 8-11-8-7-8-6 7-9 7-9-6-11-7-9 8-7 7-7-6-12-9-14c-2-3-4-5-9-7l-8-4c-2 0-1 3 3 9 13 20 14 23 13 24l-8 7-7 8c0 2 4 8 11 16l4 5-9 11-9 10 9 7 9 8-8 12-12 16c0 2 2 1 11-3zm-7-10 10-14-9-7-10-8c0-2 3-5 9-11l9-11-7-11-7-10c0-2 2-4 9-9l7-7c0-2-13-22-16-25-2-1-3-1-4 6-1 5-1 5 2 10l3 6-4 4-4 4-1 11v11l4 5 4 5-4 6-5 5v22l4 3 4 4-3 5c-4 6-5 8-5 13 2 8 3 7 14-7zm132 2c4-4 2-10-3-12-3-1-3-1-6 1-4 3-4 10 0 12 4 1 7 1 9-1zm11-20c5-5 1-12-6-12-3 0-7 5-7 8 0 6 9 9 13 4zm-32-89 1-176-4-1-4 1c-1 2-2 173-1 175s8 3 8 1zm32-1c2-2 3-7 0-9-2-3-9-2-11 0-4 4-1 11 6 11l5-2zm-10-19c4-4 1-11-4-11s-8 2-8 7c0 6 8 8 12 4zm-128-6c3-1 4-4 6-7v-8c-3-8-11-11-18-7-2 1-4 2-5 1s-9-17-13-28-8-17-9-17c-2-1-3 4-3 13s3 17 11 33c9 20 20 27 31 20zm-33-10-1-4-6-12-5-10c-2 0-4 4-4 9l2 8c2 5 3 7 6 8 4 2 8 3 8 1zm171-2c3-3 2-7 0-10-4-3-8-3-12 1-5 5 0 13 7 12l5-3zm0-92c2-3 3-8 0-10-2-2-9-3-11-1l-2 5c0 2 0 3 2 5 4 4 7 4 11 1zm-9-18c6-6-2-14-10-10-3 2-4 8-1 10 2 3 8 3 11 0zm7-16c7-5 0-15-8-11-4 4-3 11 2 12l3 1 3-2zM158 931c-3 0-8-2-11-4l-11-4-9-4-8-4-15-10-8-6c-5-4-6-5-4-9 7-13 7-36 1-52l-4-9c-1-3-1-3 2-4l7-5c3-2 5-3 8-3l4-1 12-6 10-6c2-2-1-1-8 2l-9 3-4-8a635 635 0 0 0-6-15 1182 1182 0 0 1-7-16 256 256 0 0 0-17-38 364 364 0 0 0-26-45l-1 100c0 92 0 99-2 101s-8 4-8 2l2-1 4-1c2-1 2-4 2-222a580929 580929 0 0 0 0-307v-70l-5-5a1470 1470 0 0 0-47-51c-1-3 3-1 8 5l5 6 5 5a1011 1011 0 0 0 35 38 1002 1002 0 0 1 1 102 3338 3338 0 0 1 1 87 539 539 0 0 1 74 134 620 620 0 0 1 43 202c-2 2-2 2-1 0 2-6 1-17-2-15-3 0-21 29-21 31l6 4 7 6 3 2-5 6c-11 14-12 16-11 18l9 11c6 6 7 9 7 10-1 2-4 5-8 7-8 7-9 8-6 14a1327 1327 0 0 1 13 21c3 0 4-11 1-17-2-5-2-5 0-7s2-2 1 0l2 4 1 11-1 10c-1 3-5 4-9 3zm-2-3c1-1-2-6-6-13l-7-14c0-2 2-4 7-9l8-7c0-3-1-5-9-14l-6-8c0-2 7-10 11-16s4-7-4-12l-7-6c-1-1 1-5 7-15l10-15c0-3-2-2-11 2s-9 4-16 14c-10 16-10 16-9 18l7 5 6 6-6 9c-4 4-7 8-7 10l7 10 6 8-7 7-7 8 6 12 6 12 9 4c10 5 11 6 12 4zm-49-32c7-16 6-48-2-67-2-5-4-6-8-3-4 2-4 5-1 11 4 11 5 20 5 32l-3 16c-3 11-3 13 1 14 4 3 6 2 8-3zm62 2 2-11c1-9 1-9 1-3s-1 13-3 14c-1 1-1 1 0 0zm2-23-4-7-3-4 2-3 1-2 1 2 2 5 2 7c0 3-1 3-1 2zm2-27c0-1 0-2 1-1v2c-1 1-1 0-1-1zm0-10c0-6 0-6-4-11-4-3-5-4-4-6 1-3 3-4 3-2l3 3c3 3 4 12 3 18-1 3-1 3-1-2zm495-436c-2-8-2-12 0-7s3 14 2 15l-2-8zm-3-17-1-10 1 6 1 10-1-6zm-1-17c0-2 0-3 1-2v4c-1 1-1 0-1-2zm1-7c0-1 0-2 1-1v2c-1 1-1 0-1-1zm2-11 1-1c1-1 1 0 0 0 0 2-1 2-1 1zm-278-53 4-4 4-4-4 4-4 4zm13-16 1-2-1 2c-1 1-1 1 0 0zm194-48c-6-2-11-8-16-17-8-12-9-20-8-44a365 365 0 0 0 2-20l12 24c8 25 9 26 18 26 8-1 11 1 14 8 3 5 3 5 1 10-1 6-5 11-8 13-4 2-11 2-15 0zm18-5c9-11 1-25-13-21h-5c-2-2-8-15-12-28-6-20-8-19-8 3l1 20c5 13 11 23 18 27 4 3 5 3 10 3 5-1 6-1 9-4zm101-103c-2-1-2-2-1-4l23-24 23-23v52h-22l-23-1z" transform="translate(23 22) scale(.15945)"/><path style="fill:#000;fill-opacity:1" d="M138 1231c4-9 4-11 1-11-7 0-22-28-33-61a303 303 0 0 0-13-37h13c20 1 29 6 47 22 3 3 9 11 12 17l4 5 5-9c11-18 9-17 14-16l14 1a710 710 0 0 0 100 8c18 0 21 0 21-5l2-11a207 207 0 0 0 6-37l2-12a606 606 0 0 1 23-125c0-2 5-8 12-16s8-9 7-12l-3-3-5-4-2-2-8-6a629 629 0 0 0-7-8c11 9 29 23 31 23h6l7-1 3-1a883 883 0 0 0-87-69l-27 18-38 27c-4 2-5 4-5 15l-2 7-3-2 3-31a627 627 0 0 0-10-188 225 225 0 0 0-9-41 353 353 0 0 0-18-61c-3-8-3-9 3-13l7-4 4-3 7-5c14-8 32-21 32-22-1-2-7-4-17-7a271 271 0 0 0-62-11c-4-4-9-12-11-17-4-9-7-15-10-17-2-3-6-10-6-13l-2-5-3-6c0-1 8-3 14-3h3l1-13v-85l2-77c0-3 5-7 10-9l9-5c10-5 17-9 18-8v34a2367 2367 0 0 0 0 88 433 433 0 0 0 0 9 4625 4625 0 0 1 1 64l12 3 17 2 27 7 7 3 2-3a724 724 0 0 0 2-121 20500 20500 0 0 0 2-102c2-1 2-1 0-4-2-1-2-2-1-2s2-2 2-10c1-11 3-16 9-23l9-8c6-4 7-6 3-7-8-2-21 5-25 15-5 10-6 24-1 31 2 3 0 3-8-4-8-5-10-8-12-15-3-14 6-29 18-34 5-2 14-3 20-2 8 2 8 2 15-44a686 686 0 0 0 6-37c3-24 3-23 1-26l-8-12a509 509 0 0 0-25-44 729 729 0 0 1-18-35l7 12a1392 1392 0 0 1 46 76c2 2 2 2 18-1a1042 1042 0 0 1 184-6 2541 2541 0 0 1 69 7l37-76c8-17 8-17 11-17 2 0 2 0-2 7-3 6-3 10-1 10s9 8 13 14c5 8 8 16 14 34 7 23 14 39 19 43l3 2-3 2c-1 1-4 3-7 3-11 4-32-3-45-14-7-6-18-18-20-24l-4-4-7 11c-7 14-5 13-24 10a733 733 0 0 0-131-7c6 0 6 1 2 26a762 762 0 0 0-11 91 1291 1291 0 0 0-2 14 408 408 0 0 1 6-71 1514 1514 0 0 0 6-42c1-5 0-7-4-7s-5 1-6 10a710 710 0 0 1-7 53c-1 22-6 56-10 75-5 23-13 40-23 51-4 5-10 8-17 8-14 0-19-18-7-28 6-5 12-5 15 0 2 4 1 10-2 13-3 2-4 1-2-4s0-8-4-8c-5 0-11 10-9 17 0 3 5 6 10 6 8 0 17-9 19-18 1-8-3-16-10-20-4-2-12-1-16 1-5 2-14 11-17 17-2 5-1 19 2 25 3 7 12 11 21 11 4 0 14-3 17-5 1-1 1-1 0 0-1 2-1 3 2 5l13 11a5253 5253 0 0 1 16 12l35 25 3 2 8-5a294 294 0 0 0 23-15c8-5 18-12 23-17l10-6 6-3 2 4v14a710 710 0 0 0 0 158 480 480 0 0 1-5-49c0-11-1-11-13-3a1011 1011 0 0 1-8 5c-15 10-25 17-25 19v161l13-7a458 458 0 0 1 34-21 709 709 0 0 1 19-15l-1-8a511 511 0 0 1 22 68c3 10 3 12-8 18a1111 1111 0 0 0-45 29 222 222 0 0 0 80 14l4 6a222 222 0 0 0 5 9l3 7 4 8a60 60 0 0 1 7 13l10 19c0 2-5 3-16 5l-5 1-1 89c0 80 0 87-2 88-7 6-34 20-36 19l-2-18a42951 42951 0 0 0 0-170c0-8-1-10-6-10-6 0-29-5-42-8-12-3-14-4-15-2a6219 6219 0 0 0-2 222c-2 1 3 6 8 7 7 2 12 12 11 22-1 4-1 4-1 1 0-8-5-17-7-16l-1 8c0 13-6 25-16 31-6 4-6 6-1 6 4 0 4 0 2 1-3 1-4 1-7-1-4-2-7-3-10-1h-2l-9-4c-2 2-6 17-8 27a455 455 0 0 1-6 39 909 909 0 0 1-6 38c1 2 5 3 8 1 2-1 2-1 1 2-1 2-1 2 2 2 4 0 4 0 14 18a3103 3103 0 0 1 45 79l2 4h-3c-3 0-4-1-10-10a822 822 0 0 1-27-47 1391 1391 0 0 1-8-14l-8-12c-4-7-4-7-8-7l-11 1-16 3a747 747 0 0 1-231-4c-3 0-6 2-8 6a2461 2461 0 0 0-5 10 289 289 0 0 1-9 16 553 553 0 0 1-32 58h-3l5-9zm5-19c3-4 3-5 1-7-1-2-1-2 1-4 3-2 2-3-4-6-6-2-6-4-2-5l5-2-7-5-8-3 3-2c2 0 3-2 3-2 0-2-6-6-10-8l-3-1 2-2c2 0 3-1 3-2s-4-5-8-7c-5-2-5-2-2-4l2-2-4-3c-5-3-6-4-3-6v-3c-3-4-2-4 3-3h4c2-3 4-2 5 2l3 7c3 2 3 2 5 1s2-1 2 3 3 13 4 15c2 1 3 0 4-2 1-3 3-2 3 2 2 10 5 14 7 8 1-3 3-2 4 3 2 7 4 7 7-1l3-5-3-5c-8-13-15-20-29-30-6-4-18-7-28-7-9 0-9 1-5 10l14 38c7 20 19 43 24 43 1 0 3-2 4-5zm228-65-2-1-2 1 2 1 2-1zm-35-2c3-3 8-35 14-95 4-40 10-63 22-84 6-11 8-14 13-18 5-2 12-3 16-1l5 5c3 3 3 4 3 9-1 8-4 13-9 16s-6 3-10-1c-3-3-4-6-1-11 2-5 3-4 2 2 0 6 1 8 7 7 5-1 7-6 7-13-1-5-1-7-3-9-4-3-10-3-15 0-8 4-12 19-8 28 1 4 3 5 7 7 9 5 18 3 26-4 6-6 7-10 8-21 0-8 0-10-2-14-3-6-8-10-16-12h-12c-20 5-31 20-41 59-4 16-6 28-8 50a8118 8118 0 0 1-3 30 858 858 0 0 1-9 70h7zm16-1 4-23a2835 2835 0 0 1 11-90 148 148 0 0 1 11-43l-2-6c-3-6-5-6-8 1-7 13-12 43-18 95a714 714 0 0 1-7 66h9zm13 0a2403 2403 0 0 0 14-100c1-12 4-28 8-41l2-6-2-2c-8-7-12 2-18 41a836 836 0 0 0-10 94c-3 15-3 15 1 15l5-1zm13-1 5-21 7-55a328 328 0 0 1 11-63c0-2-7-6-8-4l-3 8c-4 10-7 27-12 69a1256 1256 0 0 1-7 66h7zm14-1 2-8 3-21 7-49a555 555 0 0 1 10-55l-3-4h-5c-2 2-5 10-6 18l-7 50a1239 1239 0 0 1-8 69c1 2 6 1 7 0zm31 0h-1l-2 1h2l1-1zm-18-1c2-2 2-5 6-27a968 968 0 0 1 16-94c2-5 2-5-3-8-4-2-4-2-5-1a549 549 0 0 0-21 130h7zm15-2c1-2 4-17 7-40 4-33 8-53 11-66l3-11-2-2c-5-4-9-1-11 11a979 979 0 0 0-16 109c2 1 6 0 8-1zm15-2 9-53c3-24 4-32 8-43l3-13-2-2c-6-5-10-1-12 13a2040 2040 0 0 0-15 99l9-1zm48-110c4-2 6-4 10-9 5-8 6-12 6-19 0-8-4-16-9-16l-1 10-1 15c-3 5-13 14-18 16s-6 3-4 5c4 2 11 1 17-2zm-12-7c11-6 16-16 15-29-1-10-4-15-8-15-2 0-2 1-2 10s0 11-2 15c-3 6-9 12-17 16l-4 3 2 2c3 3 8 2 16-2zm-14-6c12-6 19-21 15-36-2-7-8-14-10-10l1 5c2 6 1 15-2 21-2 6-9 13-15 17-10 6-1 9 11 3zm-13-6c7-4 12-11 14-17s1-20-1-25c-2-4-7-7-8-5l1 7c1 8 1 14-3 20-3 6-10 15-15 17-4 2-5 4-1 6 4 1 8 0 13-3zm-19-4c2-1 7-3 10-6 4-4 6-6 9-12s3-8 3-13c-1-8-5-16-9-16l-1 10c0 9 0 10-3 16-4 7-6 9-13 14-6 4-7 5-4 7h8zm-8-8c4-3 11-10 14-16 2-4 2-6 2-13 0-9-1-13-5-17-3-2-6-2-5 1 2 4 1 17-1 22-3 8-10 16-17 19l-5 3c0 3 11 4 17 1zm46-43c0-3 0-3-4-3-7 0-10-3-10-10 0-6-2-12-5-13l-13-1h-13l-2-10c-2-16-4-17-20-16-13 0-15 0-15-6l-2-11c-3-10-5-11-19-11-9 0-10 0-13-2-2-3-2-4-2-10 0-7 0-8-3-11s-3-3-13-4h-28c-25-1-26-1-28 16l-1 9h-16c-11-1-12-1-12 13v10l3-7c1-9 1-8 12-8 18 1 21 0 22-13 1-9 2-12 3-12h32c17 0 18 0 20 13 2 12 5 14 23 14 10 0 11 1 12 11l2 10c2 4 2 5 7 6 3 1 6 2 9 1h14c2 1 2 4 3 10 2 16 3 17 19 16h12l4 8c2 8 3 12 6 13l9 1c6 0 7-1 7-3zm1-27-2-7a1795 1795 0 0 0-74-59l-12-9a12238 12238 0 0 0-19-15 3221 3221 0 0 1-47-36 5889 5889 0 0 1-59 39l-5 4v7l1 7a2934 2934 0 0 0 62-42l6 3a5857 5857 0 0 0 139 108c8 7 10 7 10 0zm-1-43a3034 3034 0 0 0-1-142l-6-4-38-24c-7-6-7-10-7 66v68l2 2 14 11a3247 3247 0 0 1 18 15c16 12 17 12 18 8zm-57-110-1-70c-1-3-11-12-12-11v140l5 5 6 4 1-68zm-18 44c0-4 0-5-5-11l-6-7c-3-2-2-5 5-12l7-7-1-4c-1-8-1-8-18 9l-9 11c1 3 24 26 25 26s2-2 2-5zm-24-10c-4-5-7-7-8-7-2 2-1 4 4 7 7 5 8 5 4 0zm-109-1a450 450 0 0 0 33-24l1-48v-87c1-25 1-25-7-20a11173 11173 0 0 1-25 16c-27 18-30 20-31 22l1 6c7 31 10 47 12 63a694 694 0 0 0 2 16l5 50c0 12 1 12 9 6zm97-11c0-2-26-28-27-28l-2 5c0 4 0 5 2 7l10 8c12 11 17 13 17 8zm20-18 14-15c1-2 0-4-15-20l-13-11c-2 0-31 27-31 29a192 192 0 0 0 30 30l15-13zm-25-6-8-11c0-2 16-18 18-18s18 16 18 19c0 2-16 18-18 18l-10-8zm15-7c2-3 3-6 0-8-2-3-5-2-8 1-4 3-4 4-1 7s5 3 9 0zm-43 8a4334 4334 0 0 0-2-167l-3 1c-2 1-2 10-2 81l-1 80 3 3c3 3 4 4 5 2zm282-10c14-1 16-2 14-7-1-2-1-2-6-2h-30v-20c0-16 1-20 2-20 7-1 9-1 9-3l-4-7-14-1a191 191 0 0 1-124-49c-14-13-18-17-36-40-35-46-40-51-62-70a256 256 0 0 0-115-55c-21-5-36-6-59-6-22 0-27 1-27 4 0 4 2 4 16 4h15c2 1 2 2 2 18l-1 19-3 4c-4 1-4 3-1 6 2 1 4 2 15 2a222 222 0 0 1 158 86c27 39 31 44 49 62 36 36 79 59 132 70 25 5 48 7 70 5zm-49-9c-8-1-31-5-33-7v-6c2-12 8-31 9-32l17 1c25 4 22 3 23 12l-1 20v13h-6l-9-1zm-9-10 4-1c5 1 6 0 6-5 0-2 1-3 3-4 3-2 3-3 0-5l-2-5c0-2-1-2-3-2l-4-2c-2-4-4-4-6-1-2 2-3 2-4 1-3-1-5-1-5 2l-3 4c-2 1-2 2-1 4l1 6c0 3 0 3 3 4l4 3c2 2 5 3 7 1zm-53-6c-15-6-25-11-29-14-3-2-3-4 2-11l7-13 7-10c1-1 3 0 11 3l18 8c8 2 10 4 10 7l-10 32c-1 3-5 3-16-2zm7-12c0-2 2-3 3-4 1 0 2-1 2-7 0-7 0-7-3-8l-4-2c-1-2-2-2-4-2h-6c-2-3-4-2-6 1 0 2-2 4-4 4-2 1-3 3-1 5v4c-3 4-2 5 2 5 3 0 4 1 5 3 1 3 2 3 5 3 2-1 4 0 5 1 3 2 4 1 6-3zm-59-14-23-19c-4-3-5-5-5-7 0-3 8-13 18-23 8-7 7-8 19 3a345 345 0 0 0 20 17l-9 15-10 16c-1 3-3 2-10-2zm6-12 4-3c4 0 5-2 4-5l1-4c2-2 1-5-1-6l-3-4c0-3-2-4-5-3l-5-1c-2-3-5-2-6 1l-5 2c-2 0-3 0-3 3l-1 5c-1 1-1 2 1 3l3 6c0 2 1 3 4 3s4 1 6 3c2 3 4 3 6 0zm-55-34c-14-16-20-25-20-27s29-23 32-23l3 3a830 830 0 0 0 22 31c0 2-25 27-27 27l-10-11zm11-6 4-2c3 0 4-1 4-4 0-2 2-4 3-5 1-2 1-2-1-5-2-1-2-3-2-6s0-3-3-3l-4-1-2-3c-2-2-2-2-5 0-1 2-4 3-5 3l-3 3-3 5-2 2 2 2c1 2 2 4 1 5 0 3 2 5 5 5 2 0 3 1 5 3 1 2 4 3 6 1zm-44-34-23-30 8-8a496 496 0 0 0 21-20l13 14c12 15 16 22 16 25 0 2-6 7-18 15l-6 4c-5 4-7 4-11 0zm9-13 5-2c3 0 4-1 4-3l2-5v-4l-2-5c0-3 0-3-3-3l-5-2c-2-2-2-2-6-1l-6 1c-2 1-3 2-3 4l-1 5c-2 3-2 3 0 5l2 4c0 3 1 4 4 4l4 2c1 3 3 3 5 0zm-47-31-11-9-9-6-4-5c0-1 15-27 18-30 2-2 2-2 5 0l29 21 5 7c0 3-24 27-26 27l-7-5zm8-9 4-3c2-1 3-2 3-7 1-5 1-6-1-7l-2-4c0-3 0-3-3-3h-6c-3-2-3-2-6 0-1 2-4 3-5 3l-2 1a1000 1000 0 0 1 0 12l2 4c0 2 1 3 5 3l6 2c2 2 3 1 5-1zm-52-20-16-7a3244 3244 0 0 1-11-4l-3-3 9-29c1-5 2-6 4-6 5 0 42 15 45 19 1 2 1 3-2 7-8 15-15 26-17 27l-9-4zm8-11c0-2 2-4 3-5 2-2 2-2 2-7 0-4-1-5-2-6-1 0-3-1-3-3-1-2-2-3-5-3h-7c-1-1-2-1-3 2l-5 4c-3 0-3 1-3 3l1 7 2 4 4 3c1 2 3 2 6 2l4 1c2 2 4 1 6-2zm-56-5a537 537 0 0 0-33-6v-19c1-16 2-19 3-20 2-1 6-1 30 4 10 1 14 2 15 4 2 2 2 2-1 14l-4 16c-1 4-4 8-5 8l-5-1zm-6-8 4-2c3 0 4-1 4-4l2-4v-6l-1-3-3-4-4-3c-3-3-4-3-6 0l-5 2c-3 0-4 1-4 3l-2 4c-1 2-1 3 1 5l1 4c0 2 1 3 3 4 2 0 3 2 4 3 1 2 4 3 6 1zm112 220 21-22c0-2-23-26-26-27-3-2-4 0-4 5 0 2 2 4 8 11l7 10-6 8-8 9c-2 5-1 11 1 11l7-5zm57 0c1-5-1-9-7-16l-6-7 7-9c5-6 6-7 6-10l-2-4c-2 0-25 22-25 24l25 25 2-3zm214-8c1-3 1-3-1-9l-6-7c-4-2-7-1-7 2l-1 3c-2 2-2 4-1 6l1 4c0 3 1 3 4 3l5 1c3 2 4 1 6-3zm-230-33 13-14c0-2-30-31-31-31-2 0-28 25-28 27a286 286 0 0 0 30 31c2 0 7-5 16-13zm-24-6c-12-12-12-11-2-20l9-8 10 9c6 7 8 9 7 11-1 3-15 15-16 15s-5-3-8-7zm13-5c3-3 3-5-1-9s-6-4-9-1c-4 3-4 5 0 9 3 4 6 4 10 1zm-23-27 11-12c0-2-23-24-25-24l-1 3c0 3 1 5 7 11l7 9-8 8c-7 8-7 8-6 12 0 5 1 5 2 4l13-11zm173 7c30-18 46-28 47-30v-6c-2-5-4-6-8-3a1727 1727 0 0 1-58 38c0 1 8 6 11 6l8-5zm-138-7c-2-4-11-14-12-14-4 0-3 3 4 9 6 7 10 9 8 5zm-129-26a46935 46935 0 0 0 70-46c0-2-5-6-7-6l-11 7a1891 1891 0 0 1-48 31 4858 4858 0 0 1-20 13l-9 7 2 4 2 3 4-2 17-11zm112 7c1-1 0-4-4-10l-17-22c-2 0-8 5-8 7s25 27 27 27l2-2zm113-9a19896 19896 0 0 0 73-48c1-2-1-7-3-7a6916 6916 0 0 1-91 58c0 2 4 6 6 6l15-9zm-24-3 1-83 1-82-3-2c-4-5-4-3-5 43a14558 14558 0 0 1 1 123c1 2 3 3 5 1zm-12-16c0-2-21-22-22-22s-1 1 5 10l9 11c4 3 5 4 6 3l2-2zm-105-8 2-3-2-3c-3-3-5-2-5 4 0 5 1 5 5 2zm108-6c0-3 0-4-2-6-5-5-13-14-13-16 0 0 3-5 8-9 7-7 7-8 7-12l-2-4c-2 0-26 24-26 26l12 14c13 14 15 15 16 7zm-227-2a838 838 0 0 0 56-37l3-3-2-1c-5-4-6-3-22 7a3430 3430 0 0 1-39 27c-2 1-2 4 0 7h4zm210-38c8-7 14-14 14-15l-32-30c-2 0-29 27-29 29s29 30 31 30 8-5 16-14zm-18 1-17-17c0-2 16-18 18-18s18 16 19 19c0 1-12 15-16 17l-4-1zm7-13 3-3c0-2-6-8-9-8-2 0-7 4-7 6s6 8 8 8l5-3zm-45-13V407l-3-2-3-2-1 3-1 68v66l3 2c3 3 5 4 5 1zm21-11 12-14-26-24c-1 0-2 1-2 3 0 4 2 6 9 13l7 6c0 2-2 4-8 10-8 8-8 9-8 13 0 9 1 8 16-7zm52 8c0-4 0-5-8-12l-8-10c0-2 3-6 8-10 8-8 8-9 8-13 0-9-1-9-16 7-8 7-14 14-14 15 0 2 27 28 28 28l2-5zm-86-77v-66l-2-2-26-21a2263 2263 0 0 1-16-12c-6-5-8-6-8-4l-3 99v42l4 2 9 5 33 22c6 4 7 4 8 2l1-67zm-33 52-10-6 4 4a1254 1254 0 0 1 6 2zm-148 1 2-3v-4l-2-3-1-3c-1-2-1-2-4 0l-4 3 3 7c3 6 5 7 6 3zm248-18 15-17c0-2-26-28-29-28-2 0-32 28-32 31 0 2 28 29 30 29l16-15zm-23-5-9-9c-1-1 1-4 8-11l10-9 9 8 9 10c0 2-16 19-18 19l-9-8zm12-5 4-5-7-8c-2 0-8 6-8 8l7 8 4-3zm-21-25c11-12 13-14 13-16-1-3-27-28-28-26l-2 4c0 3 0 4 8 12l9 10-9 9-8 8v6c0 5 0 6 2 6l15-13zm51 6v-6l-12-9c-12-9-15-11-16-7 0 3 24 27 26 27s2-1 2-5zm-31-28c0-3-17-16-19-15l7 8c5 6 8 8 10 8l2-1zm48-3c4-1 51-33 59-39 5-3 5-3 5-9l-1-6c-1-1-6 2-39 24l-28 17c-2 0-3 0-6-3a4940 4940 0 0 0-144-107c-2 0-2 0-2 4 0 6-2 4 45 40a399427 399427 0 0 1 33 26l28 20 26 21c20 16 19 15 24 12zm26-39c4-1 5-5 7-16l2-10h15c8 2 9 2 11 0 3-1 4-2 4-9 1-10 1-17-1-18-1 0-4 5-4 11-2 8-2 8-14 8-17-1-19 0-22 15l-2 9-26 1c-21 1-24 0-26-1l-2-10c-2-15-4-17-18-15-10 0-14 0-15-3l-2-10c-1-14-2-14-20-15-13-1-13-2-14-12-1-8-3-12-6-14h-18c-7 2-10 0-11-8-1-9-2-13-6-14-5-1-11-1-13 2l-1 3c0 2 1 3 5 3l6 1 2 8 2 9c2 3 8 4 17 3h10c2 1 3 7 4 16 1 7 2 8 5 9 2 1 5 2 14 1 12 0 12 0 14 2l2 10 2 10c3 6 4 6 18 6 11 0 12 0 13 2l2 11c1 14 3 15 24 14l22 1h20zm6-43 36-23v-6c1-9 0-10-7-5a2148 2148 0 0 1-64 41c-1 0-9-5-52-38l-20-15h-5l-10 3 11 10a4348 4348 0 0 0 75 57l36-24zm-149-74c0-8 0-9 3-15s10-13 18-17c6-4 5-6-2-5-11 0-21 8-25 19-5 12-5 17 0 24 5 5 6 4 6-6zm-14-6c1-7 1-10 3-14 4-7 10-14 17-19 4-2 5-3 4-5-4-4-15-1-22 7-6 7-11 18-11 25 0 6 1 9 4 13 4 4 5 2 5-7zm-14-1 1-9c1-10 8-22 18-30 7-5 6-7-1-7-4 0-6 1-12 6s-10 12-13 22c-2 8-1 12 3 17 3 4 4 4 4 1zm-11-11c0-15 4-24 15-33l5-5c1-2-5-2-9-1-7 4-13 10-16 16-6 12-6 22 0 29 4 5 5 4 5-6zm-13-7c1-14 6-25 17-32l5-5c0-2-5-2-10-1-11 5-19 14-21 26-2 11 2 23 7 22 1 0 2-2 2-10zm111-1c5-14 12-53 16-89a1329 1329 0 0 1 7-67c-1-2-7-3-9-1l-2 12a2804 2804 0 0 1-13 107c-2 11-7 30-9 33s4 13 6 13l4-8zm-138-15c1-14 7-24 18-29 7-3 7-5 2-6-9-1-20 6-24 14-4 5-5 15-4 21 1 5 5 9 6 9 1-1 2-4 2-9zm126 3c6-14 11-44 15-85a1138 1138 0 0 1 6-54c0-4-2-7-5-7-4 0-5 3-6 19l-3 26a893 893 0 0 0-3 20 451 451 0 0 1-13 75l-2 7 3 2 4 2c1 0 3-2 4-5zm-13-8a180 180 0 0 0 9-49 7659 7659 0 0 1 10-86c-2-2-8-1-9 1l-2 15a1087 1087 0 0 1-17 124c5 3 7 1 9-5zm-13-3 6-32a4230 4230 0 0 1 10-71l1-18v-10h-3c-5 0-5 0-7 16a6703 6703 0 0 1-3 26l-4 35c-3 24-6 41-8 47s-2 6 0 8c2 3 6 2 8-1zm-14-6c4-7 7-20 9-46a572 572 0 0 1 8-61l2-15c0-3-2-4-6-3-3 1-4 2-5 6l-1 12a2289 2289 0 0 1-14 99l-2 7 3 2c3 3 5 3 6-1zm-12-4c2-5 5-22 8-50a2105 2105 0 0 1 7-64l1-5h-4l-5 1c-1 0-2 5-2 11l-2 16-4 28c-5 41-6 46-8 52-2 7-2 9 3 11h6zm-13-13a265 265 0 0 0 7-37l1-12 3-24c4-30 4-33-2-31-4 0-5 3-5 7l-1 14a2301 2301 0 0 0-3 22 618 618 0 0 1-11 64l3 3c5 3 6 1 8-6zm-15-4c3-5 8-33 11-64l3-20c1-11 1-14-2-14s-4 1-5 3l-6 33a1148 1148 0 0 1-9 52c-2 8-2 11 1 13s5 1 7-3zm361-93c2-2 2-2-1-6l-14-35c-6-20-9-29-13-35l-11-13-3 3-2 3 2 2c4 3 4 3 0 5-5 2-4 4 4 8l6 4-4 1c-7-1-6 2 1 6l6 4-3 1c-6 1-5 3 1 7 7 4 7 5 4 5-4 1-3 4 1 7 6 4 6 5 3 5-3 1-2 3 5 8 4 3 5 3 4 5-1 1-1 2 4 6 6 5 5 6-3 3-3-1-6-2-8-1-1 0-2-1-3-5-3-7-7-10-9-6-2 3-3 2-3-4-1-7-4-14-6-14l-3 3c-1 3-1 3-2 2l-1-4c0-5-2-11-3-11l-3 4c-1 3-3 4-3 1 0-4-1-7-2-7s-3 2-4 5l-2 4 2 5c3 6 20 23 26 27 12 6 33 10 37 7zM158 1240a421 421 0 0 1 27-67c3-7 5-8 12-7l21 3c29 2 30 3 30 7l-11 63-6 1h-6l1-4a830 830 0 0 0 9-56c-1-2-17-4-33-6h-7l-4 8-23 57-5 1h-5zm100-2a655 655 0 0 0 8-62c2-3 5-4 20-3a943 943 0 0 0 80 2l5 16a1182 1182 0 0 0 12 48l-5 1h-4l-3-9a4383 4383 0 0 1-12-48c-1-1-7-2-43-1l-42 1-7 49v8h-5c-5 0-5 0-4-2zm143-8-7-23c-12-37-12-36-7-36a868 868 0 0 1 53-6l6-1 9 16a1963 1963 0 0 0 35 57l2 3h-13l-3-7-7-13a240 240 0 0 1-15-25l-1-2c0-2-11-20-13-21s-20 0-22 2l-11 1c-13 1-14 2-12 9a1182 1182 0 0 0 18 56h-10l-2-10zM0 1187l40-41c30-29 40-40 39-41 0-2-4-2-40-2H0v-29l3 2c6 3 11 0 11-6 0-5-5-8-11-6l-3 1v-18l12-11a4494 4494 0 0 1 17-16l5-4v-8c0-6 0-7-2-7l-17 14-14 14-1-2c0-2 2-4 5-8l27-25c2-2 2-3 2-9s-1-7-2-7-9 6-17 14l-15 14v-29c0-28 0-29 2-28 3 2 7 1 10-1 3-3 3-6 0-9-2-3-7-4-10-2-2 1-2 1-2-11v-13l17-15 17-16v-7l-2-7-16 15C1 897 0 898 0 895c0-2 2-5 17-18l17-17v-11c0-4-4-1-16 11L3 874l-3 2v-56l2 1c3 3 6 2 9 0 4-3 4-6 1-9-2-3-3-3-7-3l-5 1v-27l17-16 17-16v-7c0-4-1-5-2-5l-17 15-15 14v-3l1-5a308 308 0 0 0 31-28c1-1 2-3 2-7 1-12 1-12-27 15l-7 7v-54l2 1c3 1 7 0 10-3v-6c-2-3-6-5-9-4l-3 1v-21l16-15 17-17c2-4 1-12-2-12l-16 14C2 644 0 645 0 643s2-5 10-13l17-16 7-7v-6l-2-7c-1-1-13 8-15 12l-9 9-8 7v-55l3 1c5 0 8-3 8-7s-2-6-7-6H0v-12c0-12 0-12 3-14a397 397 0 0 0 26-25c4-3 4-3 4-10 0-6 0-7-2-7l-16 14C2 513 0 515 0 513s1-4 4-6l16-16 13-12v-7c0-4-1-6-2-7l-16 14-15 14v-53l2 1c4 0 9-2 10-6 1-5-3-9-10-8l-2 1v-26l15-13 16-15c2-2 2-4 2-10 0-8 0-8-2-8s-7 4-16 14C3 381 0 383 0 381l1-3 16-15 16-14v-8l-2-8-24 21-7 7v-44h2c4 0 8-4 8-6 0-3-4-7-7-7H0v-53l19 20 19 21 1 299 1 298c1 2 0 4-5 5-6 1-10 4-12 8-3 5-2 7 2 8l22 4c6 0 7 0 8 3v54a1677566 1677566 0 0 1 1 126l16 1c17 0 18 0 10 8a5591 5591 0 0 1-82 81zm50-92c2-1 2-10 2-88v-88l-6-1c-4-1-4-1-5 1l-2 158v18h4a392 392 0 0 0 7 0zm-31-2c7-4 5-13-3-13-4 0-7 2-8 5s0 6 3 8h8zm13-19c2-2 1-7-2-9-6-5-14 0-12 7 1 4 9 6 14 2zm-12-16c2-1 3-2 3-5 0-7-8-10-13-4-3 3-2 6 1 9 3 2 5 2 9 0zm0-91c3-2 3-7 0-10-2-3-8-3-11 0-2 1-3 6-1 9s9 4 12 1zm9-18c7-4 5-13-4-13-6 0-9 7-5 12 3 2 5 3 9 1zm-9-19c3-3 4-6 1-9-4-4-8-5-12-1-2 1-3 3-3 5 0 6 9 9 14 5zm0-92c3-2 3-8 0-10-5-4-13-1-13 5 0 7 6 9 13 5zm10-17c4-3 2-13-4-13-2 0-7 3-8 5-1 3 1 7 4 8 3 2 5 2 8 0zm-9-20c4-3 0-11-6-11-8 0-11 10-5 13 4 1 9 1 11-2zm-1-89c5-6 0-15-6-14l-6 4c-2 2-2 3-2 5 2 7 9 9 14 5zm11-20c3-2 2-7 0-9-3-3-8-3-10 0-2 2-3 7-1 10 2 2 8 2 11-1zm-11-16c3-4 2-9-1-11-3-3-7-3-10 1-3 3-3 7 0 10s9 3 11 0zm-3-90c3-2 5-4 5-6 0-8-11-11-15-4-2 4-1 7 2 9s5 3 8 1zm13-22c3-3 3-4 0-7-2-3-3-3-6-3-7 1-9 10-3 13 3 1 6 1 9-3zm-10-16c2-3 3-6 0-9-2-3-8-3-11-1-2 2-2 8 0 10 2 3 8 2 11 0zm1-92c2-2 2-3 2-5-1-4-5-6-9-6-6 0-9 7-5 12 4 3 8 3 12-1zm7-17c6-3 6-8 1-12-5-3-12 2-11 8 1 2 5 4 8 5l2-1zm-9-17c3-2 4-3 4-6 0-5-3-7-8-7s-9 3-9 7c0 5 8 9 13 6zm-3-90 2-4c0-4-2-6-6-6-6 0-8 7-3 10h7zm12-18c3-2 2-5 0-8-5-4-10-2-12 4 0 2 0 3 2 5 4 2 7 2 10-1zm-11-17c3-2 3-6 0-9s-7-3-10 1c-3 3-3 5 0 8 3 2 7 3 10 0zM0 1165c0-4 0-4 12-15l27-28c0-2-11-3-27-3H0v-5h25c17 0 25 1 26 2 2 2 0 4-45 48l-6 5v-4zm452-40 1-2v2h-1zm1-7c0-1 0-2 1-1v3c-1 1-1 0-1-2zm2-8 1-7v3l-1 7v-3zm2-13c0-1 0-2 1-1v2c-1 1-1 0-1-1zm-273-4-1-9-1-6-2-6c-2-9-8-26-11-30-2-3-3-3-7-3-8 1-15-3-18-11-3-7-2-14 4-19 5-6 12-7 21-3l14 15 2 1c2 0 1-4-4-19-5-14-9-24-12-28-2-3-2-3-9-2-9 0-12-1-16-7l-2-10c0-9 4-15 12-18h10l6 3 7 2c10 3 30 12 31 15v5l-3 6a5027 5027 0 0 1-9 34l-3 16-2 23-6 50-1 5v-4zm2-19 2-15c1-13 1-18-4-28-7-16-15-23-25-23-5 0-6 0-9 4-4 4-5 4-5 10 0 10 7 16 18 15l6-1 4 9a136 136 0 0 1 11 30c1 2 2 1 2-1zm7-64 1-14c0-10-13-39-22-48-4-5-5-5-10-6-11-1-17 5-17 14 0 6 2 11 6 13 3 2 5 2 10 2 7-1 8-1 10 1 3 4 8 16 13 31 7 21 7 21 9 7zm7-31c3-8-2-21-9-26-5-3-10-4-11-4l5 11 7 16c4 9 6 10 8 3zm258 110c0-1 0-2 1-1v2c-1 1-1 0-1-1zm2-8c0-8 3-19 3-16l-3 19v-3zm3-21 1-4 1-2v2l-1 4h-1zm2-8 1-1c1-1 1 0 0 0 0 2-1 2-1 1zm285-51a11330 11330 0 0 0-21-22c-16-16-22-22-23-25l-1-57V763l-3-4a2567 2567 0 0 0-37-56 2703 2703 0 0 0-4-7 1534 1534 0 0 1-35-77 189 189 0 0 1-6-17 424 424 0 0 1-21-76l-1-7-2-8-1-7-2-7-1-12a4244 4244 0 0 1-2-16l-2-10 1-6 1-5-2-13c0-9 0-10 2-14l2-4-2-3c-3-2-3-3-3-17s1-15 3-17c3-3 3-5 0-9-2-3-2-5-2-13l1-10c0-5 0-6 3-9 3-4 4-7 2-9-3-3-1-22 2-26 2-1 2-2 1-2l-4-2-3-2-4-2-3-2-19-8-6-3-4-2 2-9c7-15 11-33 14-51 0-5 0-5 2-3l3 6 2 7 5 10a597 597 0 0 0 11 25c2 3 3 3 8 3 13-2 21 6 20 17l-3 9-10 7-3 2 12 6 11 7c1 3 3 4 13 9l6 4 4 1 11 4c7 4 8 4 8 7l-1 3h-1l-9-6c-2 1-6 13-7 22-2 15 0 35 4 49 2 7 3 8 6 7h1l-3 4-6 5-6 4 16 43a426 426 0 0 0 41 75v-98c0-90 1-97 2-99l11-1c9 0 11 0 13-2 9-5 12-13 6-15l-24-5-8-1V146l-3-2-13-1c-10 0-14 0-14-2l26-28a1811 1811 0 0 0 57-59c1-1 2 0 2 2s-7 9-38 41l-38 41 66 2h10v26l-2-1c-5-2-11 2-11 6 0 5 9 9 12 6 1-1 1 1 1 10v12l-17 17c-17 16-17 16-17 21l1 5c2 1 5-1 21-16 11-11 12-12 12-10s-3 5-13 15c-23 22-21 19-21 26 1 10 2 10 19-7l15-14v57l-4-1-6 1c-5 5-3 11 4 13l5-1c1-1 1 0 1 13v14l-17 16-17 17v6l1 6 17-14c14-13 16-14 16-12s-2 4-9 11l-18 17c-8 8-8 8-8 13 0 10 2 10 9 3l23-21 3-3v25c0 25 0 26-2 25-5-3-11 0-11 6l2 5c2 2 7 3 9 1 1-3 2 0 2 12v14l-11 9-17 16-7 7v6c0 4 1 6 2 6l17-14 16-14v2c0 2-7 9-18 19l-17 16v8l1 7c1 1 11-8 28-24l6-6v27c0 23 0 26-1 25l-6-1c-3 0-4 1-5 3v6l6 2 5-1c1-1 1 1 1 11v12l-5 5-17 16-12 11v9l1 8c2 0 8-5 17-13l16-15v3a542 542 0 0 0-31 31c-3 3-3 4-3 10s0 7 2 7 10-7 27-23l5-5v25c0 21 0 26-1 25-2-2-9-1-10 1-4 6-1 13 5 12l4-2 1-1 1 13v12l-18 18-18 17v7c0 4 1 6 2 7a360 360 0 0 0 34-28c0 2-4 6-18 19l-18 17v12c1 2 5 0 17-12l16-14 3-2v27c0 25 0 26-2 25-3-3-8-2-11 1-2 2-2 3-1 5 2 5 7 6 11 3l3-2v31l-17 17-18 17v5c0 6 2 7 5 5l16-15c12-11 14-13 14-10 0 2-2 4-11 12a4459 4459 0 0 0-17 17l-7 7v7c0 12-1 12 26-14l9-8v46h-4c-5 0-7 1-7 6 0 4 3 5 8 5l3-1v57l-14-15c-25-25-27-27-27-32l-1-298V356l-3-1-4 1-1 161-2 297v138l5 6 8 8a710 710 0 0 1 39 43c0 2-2 1-10-7zm3-50c1-4 0-7-3-9-4-2-6-1-9 1-4 5-1 11 6 11 4 0 5-1 6-3zm-13-15c5-4 2-11-4-11-7 0-9 7-4 11l4 2 4-2zm11-17c4-4 1-11-5-11s-9 6-6 10c3 3 8 4 11 1zm-4-87c8-4 5-15-4-15-3 0-7 4-7 8l2 6c3 2 4 2 9 1zm-7-21c3-6-3-12-9-10-8 3-6 12 3 12l6-2zm9-19c2-1 2-7 1-9l-5-2c-2 0-3 0-5 2-3 3-4 6-1 9 1 2 8 3 10 0zm-45-138v-94l-4-7-5-9a926 926 0 0 1-50-109c-1-1-4 0-17 6-24 12-31 15-32 17-1 1 1 20 3 30a1902 1902 0 0 1 3 16 1621 1621 0 0 0 21 89l13 38a2401 2401 0 0 1 7 15 796 796 0 0 0 57 104c4 2 4-1 4-96zm-22 47-4-8-7-12-23-48c-6-15-21-59-24-74a2296 2296 0 0 0-5-17c-5-21-11-59-11-70v-7l13-6 14-6 4 9 13 31a1107 1107 0 0 0 36 71c1 4 0 136-1 139 0 2-2 1-5-2zm67 3c3-2 3-7-1-10l-4-2-4 2c-3 3-4 7-1 10 2 2 8 3 10 0zm-10-19c2-1 3-3 3-5 0-6-9-9-12-5-3 3-3 7-1 9 3 4 7 4 10 1zm11-18c3-4 3-8-1-11l-5-2c-5 0-9 7-6 11 4 4 8 5 12 2zm-1-92c4-5 1-10-4-10-4 0-8 3-8 6 0 5 9 8 12 4zm-10-18c2-2 2-6 0-8-2-3-7-3-9 0-4 5-1 10 4 10l5-2zm10-17c6-4 3-11-3-11s-10 4-7 9c1 2 4 4 7 4l3-2zm1-91c5-2 1-12-4-12l-7 3c-2 3-1 7 2 9 2 2 5 2 9 0zm-136-8c4-2 9-5 10-7a388 388 0 0 1 15-22l-8-7-8-6 7-9 7-9-6-11-7-9 8-7 7-7-6-12-9-14c-2-3-4-5-9-7l-8-4c-2 0-1 3 3 9 13 20 14 23 13 24l-8 7-7 8c0 2 4 8 11 16l4 5-9 11-9 10 9 7 9 8-8 12c-9 12-13 17-12 18 0 1 1 1 11-4zm-7-11 10-14-9-7-10-8c0-2 3-5 9-11l9-11-7-11-7-10c0-2 2-4 9-9l7-7c0-2-13-22-16-25-2-1-3-1-4 6-1 5-1 5 2 10l3 6-4 4-4 4-1 11v11l4 5 4 5-4 6-5 5v22l4 3 4 4-3 5c-4 6-5 8-5 13 2 8 3 7 14-7zm132 2c4-4 2-10-3-12-3-1-3-1-6 1-4 3-4 10 0 12 4 1 7 1 9-1zm11-20c5-5 1-12-6-12-3 0-7 5-7 8 0 6 9 9 13 4zm-32-89 1-176-4-1-4 1c-1 2-2 173-1 175s8 3 8 1zm32-1c2-2 3-7 0-9-2-3-9-2-11 0-4 4-1 11 6 11l5-2zm-10-19c4-4 1-11-4-11s-8 2-8 7c0 6 8 8 12 4zm-128-6c3-1 4-4 6-7v-8c-3-8-11-11-18-7-2 1-4 2-5 1s-9-17-13-28-8-17-9-17c-2-1-3 4-3 13s3 17 11 33c9 20 20 27 31 20zm-33-10-1-4-6-12-5-10c-2 0-4 4-4 9l2 8c2 5 3 7 6 8 4 2 8 3 8 1zm171-2c3-3 2-7 0-10-4-3-8-3-12 1-5 5 0 13 7 12l5-3zm0-92c2-3 3-8 0-10-2-2-9-3-11-1l-2 5c0 2 0 3 2 5 4 4 7 4 11 1zm-9-18c6-6-2-14-10-10-3 2-4 8-1 10 2 3 8 3 11 0zm7-16c7-5 0-15-8-11-4 4-3 11 2 12l3 1 3-2zM158 931c-3 0-8-2-11-4l-11-4-9-4-8-4-15-10-8-6c-5-4-6-5-4-9 7-13 7-36 1-52l-4-9c-1-3-1-3 2-4l7-5 7-3 7-2 9-5 11-6 19-10 17-10 1-6c0-2 0-3 1-2l2 7 1 16-1 13-1 1c2-7 1-18-2-16-3 0-21 29-21 31l6 4 7 6 3 2-5 6c-11 14-12 16-11 18l9 11c6 6 7 9 7 10-1 2-4 5-8 7-8 7-9 8-6 14a1327 1327 0 0 1 13 21c3 0 4-11 1-17-2-5-2-5 0-7s2-2 1 0l2 4 1 11-1 10c-1 3-5 4-9 3zm-2-3c1-1-2-6-6-13l-7-14c0-2 2-4 7-9l8-7c0-3-1-5-9-14l-6-8c0-2 7-10 11-16s4-7-4-12l-7-6c-1-1 1-5 7-15l10-15c0-3-2-2-11 2s-9 4-16 14c-10 16-10 16-9 18l7 5 6 6-6 9c-4 4-7 8-7 10l7 10 6 8-7 7-7 8 6 12 6 12 9 4c10 5 11 6 12 4zm-49-32c7-16 6-48-2-67-2-5-4-6-8-3-4 2-4 5-1 11 4 11 5 20 5 32l-3 16c-3 11-3 13 1 14 4 3 6 2 8-3zm62 2 2-11c1-9 1-9 1-3s-1 13-3 14c-1 1-1 1 0 0zm-125-8 2-1 4-1c2-1 2-4 2-222a580929 580929 0 0 0 0-307v-70l-5-5a1470 1470 0 0 0-47-51c-1-3 3-1 8 5l5 6 5 5a1011 1011 0 0 0 35 38 1002 1002 0 0 1 1 102 3338 3338 0 0 1 1 87 539 539 0 0 1 74 134 555 555 0 0 1-71-125l-1 96c0 105-1 96 6 106a565 565 0 0 1 55 122c-3 2-4 1-7-8a780 780 0 0 0-6-15 1293 1293 0 0 1-7-17 256 256 0 0 0-17-38 364 364 0 0 0-26-44l-1 100c0 92 0 99-2 101s-8 4-8 2zm127-15-4-7-3-4 2-3 1-2 1 2 2 5 2 7c0 3-1 3-1 1zm2-27c0-1 0-2 1-1v2c-1 1-1 0-1-1zm0-10c0-6 0-6-4-11-4-3-5-4-4-6 1-3 3-4 3-2l3 3c3 3 4 12 3 18-1 3-1 3-1-2zm-49-50-4-12a482 482 0 0 0-47-97l-3-5v-69l1-70c2-5 7 1 19 24a616 616 0 0 1 58 164l6 48c0 3 0 4-4 6l-7 4-10 5c-8 3-8 3-9 2zm44-21-1-8 2 13-1-5zm-2-13c0-2 0-3 1-2v4c-1 1-1 1-1-2zm-1-8c0-1 0-2 1-1v2c-1 1-1 0-1-1zm-1-5 1-2v2h-1zm-1-7 1-2v2h-1zm-2-12c0-1 0-2 1-1v2c-1 1-1 0-1-1zm-2-10c0-1 0-2 1-1v2c-1 1-1 0-1-1zm-1-7-1-5 1 4 1 5-1-4zm510-303c-2-8-2-12 0-7s3 14 2 15l-2-8zm-3-17-1-10 1 6 1 10-1-6zm-1-17c0-2 0-3 1-2v4c-1 1-1 0-1-2zm1-7c0-1 0-2 1-1v2c-1 1-1 0-1-1zm2-11 1-1c1-1 1 0 0 0 0 2-1 2-1 1zm-278-53 4-4 4-4-4 4-4 4zm13-16 1-2-1 2c-1 1-1 1 0 0zm194-48c-6-2-11-8-16-17-8-12-9-20-8-44a365 365 0 0 0 2-20l12 24c8 25 9 26 18 26 8-1 11 1 14 8 3 5 3 5 1 10-1 6-5 11-8 13-4 2-11 2-15 0zm18-5c9-11 1-25-13-21h-5c-2-2-8-15-12-28-6-20-8-19-8 3l1 20c5 13 11 23 18 27 4 3 5 3 10 3 5-1 6-1 9-4zm101-103-2-2 13-15 24-24 10-10v4c0 3-1 4-4 8-22 22-29 30-29 32l2 1a316 316 0 0 1 18 1h13v6h-22l-23-1zM303 62a1643 1643 0 0 0-32-56l-3-6h15l4 8a1155 1155 0 0 0 31 55l2 3h8l12-2 12-2 10-1c2-1 1-8-6-32l-7-24-2-5h13l2 8a6504 6504 0 0 0 6 24c7 28 9 34 8 35 0 2-15 4-23 4a263 263 0 0 0-40 5c-1 0-5-5-10-14zm260 12a974 974 0 0 0-47-6c-1-2 1-16 5-37a241 241 0 0 0 4-26l1-5h6l5 1a1170 1170 0 0 1-9 55c0 4 0 4 2 5l36 5a16091 16091 0 0 1 29-64c1-2 2-2 6-2l6 1-9 21a1883 1883 0 0 0-25 54l-10-2zm-169-9a955 955 0 0 1-15-61l-1-4h6c5 0 6 0 6 2a332 332 0 0 0 11 48l2 7c2 1 83 0 84-1a243 243 0 0 0 7-52V0h13l-3 20a1936 1936 0 0 0-6 44l-2 2h-51c-45 1-51 0-51-1z" transform="translate(23 22) scale(.15945)"/><g style="fill-rule:nonzero;stroke:#000;stroke-miterlimit:4;stroke-width:1.82777796;stroke-dasharray:none;fill:none"><path style="fill:none;stroke-width:1.82777796;stroke-miterlimit:4;stroke-dasharray:none" d="M167 236c0 3-3 6-7 6H7c-4 0-7-3-7-6V7c0-4 3-7 7-7h153c4 0 7 3 7 7v229z" transform="matrix(.73316 0 0 .81584 22 22)"/></g><text xml:space="preserve" style="font-size:32px;font-style:normal;font-weight:400;line-height:125%;letter-spacing:0;word-spacing:0;fill:#000;fill-opacity:1;stroke:none;font-family:Bitstream Vera Sans" x="3.7" y="26.6"><tspan x="3.7" y="26.6" style="font-style:normal;font-variant:normal;font-weight:400;font-stretch:normal;font-family:Arial;-inkscape-font-specification:Arial">J</tspan></text><path d="M50 23s3-2 3-5c0-1-2-4-5-4s-4 3-4 4c0 3 2 5 2 5-3-2-7-1-7 3 0 2 1 4 4 4s4-3 4-3 1 4-1 6h5c-3-2-2-6-2-6s1 3 4 3 5-2 5-4c0-4-5-5-8-3z" style="fill:#000" transform="translate(-55 -5) scale(2.07389)"/><path d="M50 23s3-2 3-5c0-1-2-4-5-4s-4 3-4 4c0 3 2 5 2 5-3-2-7-1-7 3 0 2 1 4 4 4s4-3 4-3 1 4-1 6h5c-3-2-2-6-2-6s1 3 4 3 5-2 5-4c0-4-5-5-8-3z" style="fill:#000" transform="translate(-37 16) scale(1.00122)"/><text xml:space="preserve" style="font-size:32px;font-style:normal;font-weight:400;line-height:125%;letter-spacing:0;word-spacing:0;fill:#000;fill-opacity:1;stroke:none;font-family:Bitstream Vera Sans" x="-163" y="-215.8" transform="scale(-1)"><tspan x="-163" y="-215.8" style="font-style:normal;font-variant:normal;font-weight:400;font-stretch:normal;font-family:Arial;-inkscape-font-specification:Arial">J</tspan></text><path d="M50 23s3-2 3-5c0-1-2-4-5-4s-4 3-4 4c0 3 2 5 2 5-3-2-7-1-7 3 0 2 1 4 4 4s4-3 4-3 1 4-1 6h5c-3-2-2-6-2-6s1 3 4 3 5-2 5-4c0-4-5-5-8-3z" style="fill:#000" transform="rotate(180 111 124) scale(2.07389)"/><path d="M50 23s3-2 3-5c0-1-2-4-5-4s-4 3-4 4c0 3 2 5 2 5-3-2-7-1-7 3 0 2 1 4 4 4s4-3 4-3 1 4-1 6h5c-3-2-2-6-2-6s1 3 4 3 5-2 5-4c0-4-5-5-8-3z" style="fill:#000" transform="rotate(180 102 113) scale(1.00122)"/></svg>