<svg xmlns="http://www.w3.org/2000/svg" xmlns:xlink="http://www.w3.org/1999/xlink" width="222.783" height="323.556" viewBox="0 0 167.087 242.667" xml:space="preserve"><defs><linearGradient id="a"><stop style="stop-color:#000;stop-opacity:1" offset="0"/><stop style="stop-color:#000;stop-opacity:.64885497" offset="1"/></linearGradient><linearGradient id="b"><stop style="stop-color:#fff;stop-opacity:.4351145" offset="0"/><stop style="stop-color:#000;stop-opacity:0" offset="1"/></linearGradient><linearGradient id="c"><stop style="stop-color:#fff;stop-opacity:.48854962" offset="0"/><stop style="stop-color:#000;stop-opacity:0" offset="1"/></linearGradient><linearGradient id="d"><stop style="stop-color:#fff;stop-opacity:.23664123" offset="0"/><stop style="stop-color:#000;stop-opacity:0" offset="1"/></linearGradient><linearGradient id="e"><stop style="stop-color:#fff;stop-opacity:.29007635" offset="0"/><stop style="stop-color:#000;stop-opacity:0" offset="1"/></linearGradient><linearGradient id="g"><stop style="stop-color:#df0000;stop-opacity:1" offset="0"/><stop style="stop-color:#df0000;stop-opacity:.64122134" offset="1"/></linearGradient><linearGradient id="f"><stop style="stop-color:#fff;stop-opacity:.4351145" offset="0"/><stop style="stop-color:#000;stop-opacity:0" offset="1"/></linearGradient><radialGradient r="81.903" fy="511.223" fx="171.487" cy="511.223" cx="171.487" gradientTransform="matrix(1.15299 -.67392 .39482 .67549 -233.633 270.4)" gradientUnits="userSpaceOnUse" id="i" xlink:href="#f"/><radialGradient xlink:href="#g" id="h" gradientUnits="userSpaceOnUse" gradientTransform="matrix(-1.12242 .00551 -.00909 -1.85031 -.03 -10.228)" cx="0" cy="-3.234" fx="0" fy="-3.234" r="8"/></defs><g style="fill-rule:nonzero;clip-rule:nonzero;stroke:#000;stroke-miterlimit:4"><path style="fill:#fff;stroke-width:.5" d="M166.837 235.548c0 3.777-3.087 6.869-6.871 6.869H7.11c-3.775 0-6.861-3.092-6.861-6.87V7.12C.25 3.343 3.336.25 7.11.25h152.856c3.784 0 6.87 3.093 6.87 6.87v228.428z"/></g><text xml:space="preserve" style="font-size:32px;font-style:normal;font-weight:400;line-height:125%;letter-spacing:0;word-spacing:0;fill:#df0000;fill-opacity:1;stroke:none;font-family:Bitstream Vera Sans" x="6.246" y="28.013"><tspan x="6.246" y="28.013" style="font-style:normal;font-variant:normal;font-weight:400;font-stretch:normal;font-family:Arial;-inkscape-font-specification:Arial;fill:#df0000;fill-opacity:1">A</tspan></text><text xml:space="preserve" style="font-size:32px;font-style:normal;font-weight:400;line-height:125%;letter-spacing:0;word-spacing:0;fill:#df0000;fill-opacity:1;stroke:none;font-family:Bitstream Vera Sans" x="-161.088" y="-213.515" transform="scale(-1)"><tspan x="-161.088" y="-213.515" style="font-style:normal;font-variant:normal;font-weight:400;font-stretch:normal;fill:#df0000;fill-opacity:1;font-family:Arial;-inkscape-font-specification:Arial">A</tspan></text><path d="M3.243-4.725C1.126-7.59 0-10.5 0-10.5s-1.126 2.91-3.243 5.775C-5.361-1.862-8 0-8 0s2.639 1.861 4.757 4.726C-1.126 7.59 0 10.5 0 10.5s1.126-2.91 3.243-5.774C5.361 1.861 8 0 8 0S5.361-1.862 3.243-4.725z" style="fill:url(#h);fill-opacity:1" transform="translate(82.284 116.888) scale(5.95137)"/><path transform="matrix(-.2491 .04028 -.04172 -.25798 131.779 225.09)" d="M117.301 604.266s-8.067-94.95 22.857-122.857c34.761-31.369 140-11.429 140-11.429s-71.54 24.838-100 48.572c-27.21 22.692-62.857 85.714-62.857 85.714z" style="fill:url(#i);fill-opacity:1;stroke:none;filter:url(#filter3834-6-0)"/><path style="fill:#df0000" d="M3.243-4.725C1.126-7.59 0-10.5 0-10.5s-1.126 2.91-3.243 5.775C-5.361-1.862-8 0-8 0s2.639 1.861 4.757 4.726C-1.126 7.59 0 10.5 0 10.5s1.126-2.91 3.243-5.774C5.361 1.861 8 0 8 0S5.361-1.862 3.243-4.725z" transform="matrix(1.4769 0 0 1.4769 16.968 44.236)"/><g><path style="fill:#df0000" d="M3.243-4.725C1.126-7.59 0-10.5 0-10.5s-1.126 2.91-3.243 5.775C-5.361-1.862-8 0-8 0s2.639 1.861 4.757 4.726C-1.126 7.59 0 10.5 0 10.5s1.126-2.91 3.243-5.774C5.361 1.861 8 0 8 0S5.361-1.862 3.243-4.725z" transform="matrix(1.4769 0 0 1.4769 150.62 198.503)"/></g></svg>