<svg xmlns="http://www.w3.org/2000/svg" width="222.8" height="323.6" viewBox="0 0 167.1 242.7" xml:space="preserve"><g style="fill-rule:nonzero;clip-rule:nonzero;stroke:#000;stroke-miterlimit:4"><path style="fill:#fff;stroke-width:.5" d="M167 236c0 3-3 6-7 6H7c-4 0-7-3-7-6V7c0-4 3-7 7-7h153c4 0 7 3 7 7v229z"/></g><text xml:space="preserve" style="font-size:28.75612259px;font-style:normal;font-weight:400;line-height:125%;letter-spacing:0;word-spacing:0;fill:#000;fill-opacity:1;stroke:none;font-family:Bitstream Vera Sans" x=".4" y="24.3"><tspan x=".4" y="24.3" style="font-style:normal;font-variant:normal;font-weight:400;font-stretch:normal;font-family:Arial;-inkscape-font-specification:Arial">Q</tspan></text><path d="M8 3C8-1 0-9 0-10 0-9-8-1-8 3c0 3 2 4 3 4 2 0 4-3 4-3 1 1-1 7-2 7h6c-1 0-3-6-2-7 0 0 2 3 4 3 1 0 3-1 3-4z" style="fill:#000" transform="matrix(2.2448 0 0 2.05244 43 47)"/><path d="M8 3C8-1 0-9 0-10 0-9-8-1-8 3c0 3 2 4 3 4 2 0 4-3 4-3 1 1-1 7-2 7h6c-1 0-3-6-2-7 0 0 2 3 4 3 1 0 3-1 3-4z" style="fill:#000" transform="matrix(1.13877 0 0 1.0412 11 38)"/><path style="fill:#e2d200;fill-opacity:1" d="M139 1199v-44l-3-7-20-59a679 679 0 0 1-20-175 188 188 0 0 0-27-19l-1 8-2 15a2904 2904 0 0 0-13 109c-2 2 0 3 5 1 6-2 11-1 16 4 7 6 8 18 2 25-3 3-10 6-13 6l-4 1 5 13 6 14-4 10c-12 21-21 34-22 35-3 2-5-1-10-12a455 455 0 0 0-16-30c-1-2 1-6 7-16l8-14-5-2-7-2c-7-4-11-13-10-20 1-4 7-10 11-12s6-2 11-2l6 1v-3l-3-31-5-31a5857 5857 0 0 0-10-96c2-8 2-8-9-17l-11-9-1-209 1-208 9 4 53 26 16-9c1-1-1-4-4-7-5-7-8-12-10-20-1-6-2-7-6-11-6-5-7-5-19 0-7 3-10 3-10 1l2-9c2-3 3-9 3-11 1-4 1-5-2-7-6-6-6-19 0-26 4-5 3-8-2-23l-2-12c1-1 4 0 12 4l12 5 5-3c5-5 9-6 14-6s12 3 15 6l4 3c2 0 10-3 17-7 5-2 9-3 9 0l-3 7-5 11-2 6 5 5c8 9 9 19 4 27l-6 6c-4 2-4 4-1 15 2 7 2 9 1 10l-10-3c-4-1-9-3-10-2l-2 7c2 3 7 10 11 13 8 5 8 5 37-14a786 786 0 0 0 171-156c24-31 27-36 25-37-12-8-42-20-65-25-13-3-15-4-16-7-1-1 0-6 3-17a284 284 0 0 0 1-152l-4-14 132-1 132 1-3 7-2 5 6-6c3-5 5-7 7-7 3 0 3 2-2 9s-8 10-15 14c-5 3-9 9-7 10l8-4c9-5 17-15 21-23 3-4 4-6 6-6 4 0 4 1-1 10-4 7-12 16-19 21l-19 9c-1 0-4 3-4 5 0 3 16-4 26-10 8-6 16-16 23-29l4-6c5 0 0 12-9 25-7 9-9 11-19 17-7 4-16 7-28 11-4 1-4 3 1 3a75 75 0 0 0 62-50c3-8 6-8 9-1 5 15 15 28 29 41 11 10 24 16 25 13 1-2 0-4-4-5-17-9-35-28-41-45-4-8-4-9-1-9 2 0 3 2 5 7 7 16 25 35 36 39 8 4 8-2 0-7-11-7-25-22-29-32-2-6-2-7 0-7s3 1 5 5c5 11 17 25 25 29 7 3 7-4 0-8-8-5-18-17-20-23 0-3 0-3 2-3l7 7c4 7 12 14 14 14 3 0 2-4-1-7-4-3-10-11-10-13s4-1 7 3 5 4 5-1c0-3 0-3 2-3s3 1 3 15l1 36-1 22 4 11 8 25a593 593 0 0 1 31 205v9l15 11 16 11a4702 4702 0 0 1 16-134l-6 1c-7 2-13 1-18-5-7-7-7-15-2-22 4-6 8-9 16-8l6-1-7-14-7-14 4-8 8-14 13-22c3-2 5 1 21 29l6 14-9 16-9 14h6c5 0 6 0 10 2 8 4 11 13 9 22s-9 13-20 13h-6l1 13a20953 20953 0 0 1 13 106c2 16 3 40 2 45-1 3-1 3 19 18l4 2v208l-1 207-30-14-29-15-5 2c-7 3-16 8-17 10l5 6c5 6 8 12 12 21l5 9c3 4 4 4 8 4l12-4c9-4 10-4 7 5l-3 11-1 5 3 3c10 8 10 22 2 30l-5 4 2 5a305 305 0 0 0 8 25l-13-5-14-6-4 4c-4 6-14 9-21 6l-7-6c-5-5-7-5-20-1-7 3-9 4-10 3s-1-2 1-6l7-18-4-4c-11-8-10-24 0-32 5-3 5-5 1-17s-3-13 8-8c9 5 11 5 12 2 3-7-14-23-21-20a748 748 0 0 0-222 211 217 217 0 0 0 68 26c10 1 13 3 14 5l-3 13c-15 54-13 115 5 174v2H380c-122 0-134 0-133-2a177 177 0 0 1 10-19c0-4-11 7-15 14-3 6-4 7-6 7-4 0-3-1 2-11 4-9 9-14 18-18 7-4 10-6 10-8 0-4-16 4-24 12-5 5-12 17-12 21 0 2-2 4-5 4s-3-1 0-9c7-18 23-32 41-36 5-1 8-4 7-6-2-1-12 2-22 6-8 4-11 6-17 12-8 8-11 14-14 24-3 8-3 8-6 9-3 0-4-1-2-7 7-22 24-41 44-47l13-3c8-1 12-2 10-4h-16c-13 4-22 8-32 17-11 9-22 28-24 39 0 4-1 5-3 5l-2-1c-1-12-5-20-17-35a81 81 0 0 0-29-26c-7-3-9-3-9 0 0 2 1 3 7 6 13 6 28 22 35 35 3 7 7 18 6 20l-3 1-4-5c-4-15-14-29-26-38-10-7-14-9-15-7s0 3 8 9c10 7 18 16 24 27 5 10 5 14 1 14l-3-3c-6-14-12-23-20-29-5-4-9-6-10-4-1 1 0 2 2 4 11 9 14 13 18 20 5 10 5 12 1 12-2 0-3-1-4-3-2-11-16-25-18-19l5 6c4 5 9 13 9 15l-3 1c-2 0-3-1-5-4-1-4-4-6-5-6l-1 3c0 6-1 7-4 7h-3v-44zm70 17c6-11 20-26 30-31 13-7 28-11 40-11 6 0 6 0 11-9a525 525 0 0 1 23-42 5562 5562 0 0 1 25-43l2-5-3-8c-8-24-24-46-45-64-26-22-57-34-83-33-16 1-27 9-37 27-13 25-21 46-23 70-2 15-4 44-3 46s2 2 6-1c5-2 7-2 14-2h15c6 1 6 0 0-5-5-3-7-7-5-8 1-1 2 0 6 2l6 3c1-1-1-13-5-30-2-9-3-15-1-18l8-6 9-8c3-3 5-2 4 2-1 5-3 8-9 13-7 6-7 8-3 23 6 21 8 42 5 54-4 12-6 17-12 23-7 7-13 9-27 8h-11v4c0 3 0 3 9 7 6 2 16 9 22 14s11 12 19 24l9 12 4-8zm31-48c-9-1-15-4-22-9-4-4-6-9-4-10 1-1 3-1 6 1 10 4 15 5 28 5 10 0 15 0 24-2l16-5c4-1 6-1 6 2 0 5-12 11-28 15-12 3-17 4-26 3zm0-22c-7-3-9-4-12-3-3 0-3 0-3-2l3-6c3-4 4-7 1-8l-3-5c-1-3-1-4 1-5l2-5 4-7c5-5 21-15 23-15 3 2 2 3-9 11l-9 9c-1 2-1 2 1 2l12-2c8 0 9 0 21 4 13 4 17 5 25 3 3-1 4-1 6 1 4 2 3 3-13 17a56 56 0 0 1-36 15c-6 0-8 0-14-4zm22-3c8-2 19-7 22-10 2-3 0-2-12 1l-20 3a889 889 0 0 0-13 1c0 3 8 7 14 7l9-2zm10-20c1-1 1-2-1-3-2-2-6-1-6 1 0 4 3 4 7 2zm-34-2c0-2-1-3-3-1l2 4 1-3zm-8-51 3-5c7-7 6-14 0-15-4-1-4-1-9 2l-10 5c-5 2-5 2-8 0-4-1-5-5-3-9 1-2 2-3 6-3l9-2c5-3 14-4 18-2 3 2 7 7 8 11 1 5-1 11-5 15s-9 5-9 3zm-48-51c-3-5-2-8 1-7 6 0 8 0 14-2 7-3 11-4 27-1 7 1 8 1 12-1l7-2c2 0 2 0 0 11-2 6-3 7-6 5s-6-2-12 0h-20l-12 1-9 1-2-5zm39-13c-4-3-15-3-22 0h-6c-1-1-1-2 2-4l3-3-2-1c-3-2-4-4-2-5h6c6 1 9 1 23-2 4 0 4 3 0 6l-3 1 2 2c6 4 6 5 6 6-1 2-4 2-7 0zm-51 146c2-1 2-1-2-1l-12-5-9-3-1 3c0 3 1 3 10 6h14zm8-9c5-2 10-5 10-7h-34c-6-2-5 1 3 5 7 3 13 4 21 2zm-26-19 1-5h-3c-3 1-4 4-2 5h4zm14-8h-3c-3 1-4 3-4 6l2-1 5-5zm10 6-1-2v2l1 1v-1zm11 0v-3c-3-2-7-1-5 2 1 2 2 2 5 1zm-12-3-2-2h-1l3 2zm170-57-14-67c0-1-5-2-6-1l1 14 4 21c2 10 13 39 15 39v-6zm8-9c3-4 3-5-1-19-8-37-7-36-10-37s-4 0-2 7l9 50c0 3 2 2 4-1zm10-17c3-6 3-9 0-22-2-8-3-12-5-13h-6c-1 1 7 39 8 39l3-4zm-40-17-6-27-4-1-1 3 5 24 7 8-1-7zm52-4 3-8-5-2c-6-1-7 0-5 8 2 10 2 10 7 2zm-69-15c-2-9-3-11-8-11-4 0-4 0-4 3s1 5 6 9c3 4 6 6 7 6l-1-7zm-19-10-2-2v2l2 1v-1zm215-73c8-4 13-14 11-23-2-10-8-15-17-14-8 1-10 7-1 7 4 0 5 0 7 3 4 3 4 7 3 11-3 7-8 11-13 10l-5-1c-5-1-11-8-14-15-4-8-8-26-10-40-3-19-7-32-16-48-4-8-5-9-12-13-11-6-26-8-39-5s-22 4-34 4c-11 0-12 0-17-2-15-8-22-24-16-36l5-7c4-3 11-5 15-5 3 1 8 6 10 10 1 3 0 10-3 13-2 3-3 5 0 5 2 1 6-1 8-5s2-6 2-11c-1-7-2-10-8-14-3-3-5-3-10-4-8 0-12 1-18 5l-5 3-5-23c-1-12-5-21-12-28-8-8-12-10-24-9-9 0-11 0-22 4l-15 4c-8 0-14-6-16-13 0-3 0-4 3-7 4-4 6-4 10 1 3 3 4 3 5 2 3-4-3-11-10-11-4 0-11 4-13 8-2 5-1 13 3 19 6 6 14 8 26 5 3 0 3 0 3 2l-1 3-1 10c1 11 3 15 11 19 5 3 6 3 12 3 7-1 9-2 12-9v-6c-1-1-2-1-5 4-4 4-5 4-9 4s-6 0-8-3c-5-4-5-6-5-13 0-5 1-7 3-10 4-6 10-9 18-9s11 1 16 7c9 9 13 22 17 58 2 19 5 26 13 34a66 66 0 0 0 50 9c3-1 3 1 0 9-5 15 1 30 15 37l17 6c14 4 19 7 24 13 6 6 7 9 5 12l-4 5c-2 3 0 5 4 5 5 0 8-3 9-8 1-10-8-21-23-29-4-2-7-5-7-6l2-3c3-1 7-9 7-13s-3-9-5-9l-1 3-1 6c-4 15-24 17-33 4-4-6-5-14-3-20 2-5 9-12 15-15 10-4 23-3 31 3 11 9 17 26 23 61 4 25 6 33 11 41 5 9 7 12 12 14 6 3 17 4 23 1zm-401-34c11-12 13-14 16-21l4-13c0-6-2-20-7-33-3-11-3-12-2-17 1-8 5-12 12-12 5 0 5-2 1-5s-4-3-9-2c-3 1-4 3-6 8-3 8-5 9-7 3-9-21-5-44 8-51 9-4 20 1 22 11 0 5 3 5 4 1a127 127 0 0 1 1-4c0-3-4-13-7-15-5-2-12-3-19 0l-7 2-1-9c0-14-5-21-12-19-7 1-8 4-2 5 4 2 8 8 8 13l-4 16c-4 14-5 26-3 35 1 6 2 10 13 34l6 16c0 3-1 3-5 0-3-3-12-3-16 0-4 2-6 9-4 12 1 1 2 1 5-3 3-3 4-4 8-4s9 3 13 8c3 5 3 14-1 22-3 6-12 17-22 26-6 5-6 6-5 7l3 2 15-13zm388-15 2-4c0-3-3-6-6-6-5 0-8 6-4 10 2 3 6 2 8 0zm14-46 26-22a7152 7152 0 0 1 23-20 630 630 0 0 0 27-25c3-2 3-4-1-8-5-4-7-9-7-17l-1-9c-4-6-2-14 4-18l3-6c0-4 4-10 9-13 3-1 6-3 6-5 1-3 6-8 12-12 7-4 13-5 34-4h18l5-5c4-3 6-6 6-7 0-3 1-3 4-3 2 0 3 0 3 4 0 6 2 5 19-3 24-12 45-23 45-25l-11-7a664 664 0 0 1-89-62 603 603 0 0 1-123 138 86 86 0 0 0-40 50c-3 13-3 33 0 46 3 8 8 18 13 25 4 6 9 11 11 11l4-3zm-6-12-1-3c0-2 0-2-4 0s-6 1-4-5c1-4 1-4-2-4-5 0-6-6-2-8 2-1 3-1 5 1l2 3 8-20 5-10c2 0 4 3 4 6s2 4 5 2h7v11l5 1c3 1 5 2 5 4l-8 4c-9 3-20 8-21 10l1 2 1 4c0 2-1 3-3 3l-3-1zm39-34c-2-3 0-6 3-7 3 0 4 1 4 5 0 2-1 3-3 3l-4-1zm-9-6v-6c2-4 2-4 0-4-5 2-8-5-4-7 3-1 5 0 6 3l1 2 11-23c4-11 6-12 9-6 2 4 2 4 7 2l6-2v10c-2 4-2 4 3 5 10 2 11 6 2 9a196 196 0 0 0-39 18l-2-1zm-16-28c0-3 0-3-4-2-3 0-4 0-5-2s0-4 11-28c8-17 9-19 13-13l2 5 6-2 6-2v10c-2 4-1 5 4 5l4 1c2 3 1 5-9 9l-24 12c-1 1-1 2 1 3 3 2 2 6-1 7-3 0-3 0-4-3zm-14-13v-5c1-3 5-3 6 0 3 4-3 8-6 5zm76-44c-2-3-1-5 3-6 4 0 7 4 3 7-2 3-4 2-6-1zm-8-5c-1-2-1-4 3-13l12-30c1-4 4-2 6 3s3 5 5 4h5c3 0 3 0 3 3-1 9-1 8 3 9 8 0 9 1 9 3s-2 3-7 5c-18 7-27 12-30 14-5 3-7 4-9 2zm-8-11c-1-5 5-8 7-4 2 3 0 5-3 6-2 0-3 0-4-2zm99-20c-1-2 0-4 5-14l10-24 5-11c2 0 5 5 5 9 0 3 2 3 6 2l6-2c3 1 3 2 2 10 0 3 0 3 4 4 6 1 9 3 7 5l-11 5-15 7c-24 11-22 11-24 9zm-5-10-1-4c0-2 1-2 3-2 3 0 4 0 4 2 0 1 0 3-2 4h-4zm-22-18-1-3c1-2 0-2-1-2-6 2-8 2-9 1l4-13 8-20 5-15c1 0 3 2 4 5l4 6 4-2c3-3 7-3 8 0l-1 7v5h3c6 0 11 2 11 4s-3 3-10 7l-24 11-2 1 2 2 3 3c0 5-4 7-8 3zm-17-14c-1-5 3-9 6-6 2 3 1 7-3 7l-3-1zM368 821l1-5c0-2-1-3-4-3l-4 1c-3 5 3 11 7 7zm18-45c3-2 4-3 3-5 0-3-4-5-6-5l-4 3c-2 3-2 3-1 5 2 3 5 4 8 2zm-88-21c3-3 1-8-4-8-2 0-4 2-4 5 0 5 4 7 8 3zm341-1c9-2 17-14 24-34 2-9 2-29-1-39-2-7-4-9-8-10l-21-2h-18l-7 3c-7 4-9 6-6 8l23 3c8 1 10 2 12 4l2 4c0 3-5 3-13 0-19-5-33-5-39 1-3 2-3 5 2 6l31 4c6 0 7 0 9 3l3 5c0 3-3 2-17-1-12-3-30-4-35-2-6 3-8 10-3 12l8 1 12 1 15 4c7 2 10 3 12 5 3 2 2 5-1 5l-25-6c-8-3-16-3-19 0l-3 4c0 2 4 9 7 12 6 5 18 10 24 11 9 1 27 0 32-2zm-506-83a604 604 0 0 1 135-146c7-9 14-20 18-31 3-9 3-10 3-24-1-16-4-28-10-39-4-8-14-20-17-20l-20 16a14604 14604 0 0 1-51 44l-13 13 3 3 7 6c2 4 3 5 3 15v16c0 4 0 5-4 10l-5 7c0 5-3 8-13 14l-4 4c0 3-2 6-4 8l-3 3c1 2 22-7 32-13l5-3c1 0 2 3 1 5l-15 39c-1 4-4 4-6-1l-1-6c-1-1-2-1-4 1-7 2-8 2-8-4 0-7-1-8-7-8-3 0-6-2-6-5l-4-1h-39l-3 3-6 5c-4 0-5 1-5 3 0 3-3 5-6 3v-4c0-3 0-3-2-3-3 0-11 4-25 11a1586 1586 0 0 1-22 12c-12 6-14 8-14 9l6 4a666 666 0 0 1 97 64l7-10zm-11-5-2-3-1-3-1-3-5 3c-5 2-5 2-7 1v-12c0-1-2-2-6-2-5-1-6-2-6-4s1-3 11-7a527 527 0 0 0 37-19c2 0 1 5-2 11-4 7-6 14-10 27-4 14-5 15-8 11zm21-31c-2-1-2-3-1-5 2-3 6-2 7 1 0 5-3 8-6 4zm-60-6a755 755 0 0 1-5-6h-5l-3 1-1-6c0-5 0-5-4-5l-5-2c-3-1-3-5 0-6a193 193 0 0 0 43-20c2 0 1 3-3 13-5 11-8 18-10 28-2 5-3 6-4 6l-3-3zm41-8c-2-2-1-6 1-7 4-3 7 1 5 6 0 2-4 3-6 1zm-20-18-2-2c0-2 3-5 4-5 2 0 4 2 4 5 0 4-4 5-6 2zm93-30c-3-4 1-10 5-7 2 1 2 4 0 6s-3 2-5 1zm-16-18c-4-4-1-8 3-6 3 0 4 5 2 7-2 1-3 1-5-1zm56-12-1-5-1-4-6 1c-7 0-6 1-6-7 0-3 0-3-6-4-5-1-6-2-6-3 0-3 0-3 11-7l17-9 8-4-3-2c-3-2-4-6-1-7 3-2 5 0 6 4v3l3-2 5-1c2 1 2 2-3 12l-7 17c-6 17-7 18-8 19l-2-1zm21-30c-2-2-1-7 1-7 5-2 8 1 6 6-2 2-5 3-7 1zm-44-3-1-4c-2-5-3-6-6-4l-5 1c-2 0-2-1-2-4 1-8 1-8-4-9-4-1-7-3-6-5l9-3 19-9c13-6 16-7 15-3-1 2 0 3 2 4 3 2 4 6 1 8h-4l-3-2-3 7a136 136 0 0 0-8 21c-2 2-3 4-4 2zm40-40-3-5c0-2-1-2-3-2h-5c-2 0-3 0-3-3 0-4 0-4-4-6-4-1-5-2-5-3a22706 22706 0 0 0 39-19v3l-10 27c-3 11-3 12-6 8zm-36-4c-2-3-1-5 2-6 2 0 4 2 4 5-1 2-4 3-6 1zm53-19c-3-3 0-8 4-7l3 3c1 4-4 7-7 4zm-16-16c-2-3-1-5 2-6 3 0 5 2 5 5-1 2-5 3-7 1zm268 220c3-1 8-6 7-7l-172-1H187l-3 3c-3 2-4 6-2 6a21912 21912 0 0 0 341-1zm54-59 3-5-190-1-154 1-7 8 173 1 171-1 4-3zm-49-18 5-7c2-5 2-5 1-11-3-11-11-16-26-16l-7-1 1-4c2-5 2-15-1-20-4-8-10-12-19-12-7 0-9 1-14 5-2 3-3 4-3 7 0 4 2 4 6-1 4-3 9-5 13-4l7 4c7 8 6 17 0 25-4 4-6 5-12 6-10 2-22-3-28-12-4-6-6-15-7-36 0-20-2-30-6-37-3-7-10-14-18-17-5-2-7-3-25-3h-20l3-6c2-5 2-6 2-15 0-10-1-15-8-22-6-6-12-8-24-12-13-3-20-7-25-14-4-5-4-9-1-14 3-4 1-7-3-7-5 0-7 2-8 7s1 10 4 15c5 8 11 12 23 17l6 3-5 7c-6 6-8 11-6 16 1 4 5 6 5 4l1-6c2-9 7-14 16-14 12 0 21 12 18 25-3 15-20 23-34 17-7-3-16-13-20-22-6-14-9-22-12-44-5-26-5-28-9-38-3-10-7-16-14-19-13-7-27-1-32 13-2 6-2 6 0 10 4 10 9 14 18 13 6-1 9-3 7-6-1-2-2-2-6-1-4 0-5 0-8-2-5-4-6-8-3-14 7-11 22-11 28 2 3 5 7 15 8 22a583 583 0 0 0 5 31c4 27 14 49 27 58 9 6 13 6 41 5l27-2c3 0 17 2 22 5 7 3 10 5 13 11 3 7 3 17 0 22-9 15-24 17-30 5-4-7-1-17 6-20l2-3-4-1c-5 1-7 3-11 8-2 3-2 4-2 9 0 13 9 22 23 22 6 0 11-2 16-7 4-5 6-5 6-1 1 36 9 51 32 56 5 1 9 1 28-4 19-6 31-1 31 11 0 5-5 11-10 11-3 0-3 0-7-5-2-3-5-2-5 2 0 3 3 6 6 7l7 1 9-2zm-375-10c4-2 6-3 6-5s-1-3-12-4c-10-1-18-4-20-6l-2-4c0-3 3-3 10 0l15 3c9 2 11 2 15 0 5-1 10-5 10-7 0-1-3-2-10-3a302 302 0 0 1-23-3c-4 1-6 0-8-4-3-6-3-6 18-2 17 3 30 2 32-2l1-5c0-4-2-5-9-5l-17-3-16-4-6-2c-1-1-1-1 1-3 3-3 6-2 17 1 19 6 30 5 30-3 0-5-6-10-20-17l-12-7-14 1c-25 0-30 4-38 26-4 12-6 25-4 37 1 12 4 19 7 22 3 2 3 2 23 2s21 0 26-3zm523-33c4-2 3-4-2-5-3 0-5 0-7-2-2-3-2-4-2-12s0-11 3-21c5-13 6-23 2-37l-9-28c-3-10-3-12 2-10s11 2 15-1c4-4 6-9 6-13-1-3-3-3-6 1-4 6-12 7-17 3-6-5-8-14-6-23 4-11 9-18 22-29l7-5-2-3-3-2-3 1c-7 5-17 15-22 22-10 18-11 28-3 51 3 11 4 21 2 25-3 4-7 7-12 7-3 0-4 0-4 2s5 6 8 6 9-3 11-6l3-3c4 0 7 27 3 36-2 6-9 15-14 16-6 1-12 0-16-5-2-2-1-9 1-14 2-4 2-5 1-6-4-4-11 11-10 20 1 5 6 10 12 12 4 1 12 1 16-1l4-1v8c0 5 0 7 2 11 3 6 12 9 18 6zm-206-39 1-4c0-4-2-6-6-6-5 0-8 4-5 9 1 2 8 3 10 1zm-92-22c6-3 4-12-3-12-4 0-7 6-5 11 2 2 5 3 8 1zm20-44c2-3 2-8 1-9-2-1-7 0-9 1-3 3 0 10 4 10l4-2zm-114-50c2-4-1-10-5-10-5 0-8 6-4 10 2 3 8 3 9 0zm272-109c8-2 15-5 22-12 6-7 14-20 18-31l6-16c4-11 7-23 9-34s3-51 1-51l-7 2c-7 2-21 3-26 1-6-3-5 2 4 9l6 6c0 2-4 1-11-4l-7-3 1 8 6 35c0 6-3 10-9 13-5 3-9 6-11 10-1 2-2 2-3 1v-5c2-4 2-4 0-3l-7 1-9 2c-7 3-17-1-20-6-3-8-1-16 5-21 7-4 9 0 4 5-4 4-5 6-3 10 2 5 5 5 14 1 10-5 13-6 16-3l3 4c0 3 1 3 7-2 3-2 6-5 6-7 1-2 1-7-3-27-5-25-5-26-4-38 1-14 4-21 10-27 9-9 22-13 34-9h6l1-4c-1-3-2-4-17-13a129 129 0 0 1-42-47l-3 4a86 86 0 0 1-62 46l-11 2-8 13a1594 1594 0 0 0-50 89c0 2 4 15 7 20 18 37 51 65 91 77 7 3 12 3 28 5l8-1zm-25-21c0-1 1-3 5-5s4-2-1-4c-5-1-7-4-5-5h6c7 2 17 1 24 0 8-2 8-2 8 0s-1 3-3 4l-3 1 3 2 4 4h-5c-8-1-17 0-24 2-8 3-8 3-9 1zm-16-15 1-6 2-6 1-4h16c7-2 11-2 14-1h7l10-2h8c2-1 3-1 4 6 2 5 2 7 1 8h-4c-3-2-8-1-16 2l-7 3-9-2c-10-2-14-2-20 1-5 2-7 3-8 1zm-12-85c-2-1-1-2 6-7 8-6 15-13 13-13l-9 1c-9 1-18 0-28-5-9-3-12-4-20-2-6 2-8 2-8-1-1-2 0-4 9-11 18-14 28-19 41-19 7 0 13 2 14 5 0 2-2 2-12 2-11 0-12 0-18 2-6 3-11 7-7 6a83 83 0 0 1 34-4l9-3c10-4 12-3 5 4l-3 5 3 6 3 4-3 7c-3 8-10 15-19 20-7 4-9 5-10 3zm9-27h-1c-3 1-6 0-9-3-3-4-5-3-3 0 1 2 6 5 9 5l4-2zm-18-1c0-3-1-4-5-4s-4 2 0 4h5zm30 0c2-2 1-4-1-4s-3 1-3 3 2 3 4 1zm-54-30v-4l22-10c9-3 10-3 22-3 11 0 12 0 18 3 7 3 15 10 15 13s-2 3-9 0l-14-4c-9 0-31 1-42 4-10 2-10 2-12 0zm4 159-2-2-1 2 2 1c2 0 2 0 1-1zm-10-3c0-3-3-8-6-10s-3-1-2 6c1 6 2 7 6 7 2 0 2-1 2-3zm-14-1-4-19c-1-4-7-11-8-11l-1 2c0 5 5 27 6 29 2 2 7 1 7-1zm-14-1a365 365 0 0 0-6-33l-7-23c-4-10-7-13-7-9l13 64 7 1zm-19-27-5-26c0-4-2-3-4 1l-2 4 3 19 5 22c0 2 6 5 7 4l-4-24zm-12 7-3-16-1-3-3 5c-3 5-4 8-1 18 1 6 2 7 5 8 6 3 6 2 3-12zm-14 5c0-4-1-5-2-3-3 2-3 5-1 6 3 1 4 0 3-3zm199-106-4-4c-1-3-3-4-3-2 0 3 5 7 8 7l-1-1zm11-6c0-2-1-1-3 3l-2 4 2-3 3-4zm-22 2c0-3-2-3-5-2s-3 1-2 2c1 2 5 3 6 2l1-2zm31-1v-2c-1-2-4-1-4 2-1 2 2 3 4 0zm-29-14c6-1 18-1 24 1 6 1 8 1 3-3-7-6-22-7-32-2-5 3-7 7-2 6l6-2zm32-10c0-2-1-3-3-5-5-2-18-2-24 1l-4 2h8l14 2 8 3 1-3z" transform="matrix(.159 0 0 .159 23 23)"/><path style="fill:#1156a1;fill-opacity:1" d="M139 1199v-44l-3-7-20-59a679 679 0 0 1-20-175 188 188 0 0 0-27-19l-1 8-2 15a2904 2904 0 0 0-13 109c-2 2 0 3 5 1 6-2 11-1 16 4 7 6 8 18 2 25-3 3-10 6-13 6l-4 1 5 13 6 14-4 10c-12 21-21 34-22 35-3 2-5-1-10-12a455 455 0 0 0-16-30c-1-2 1-6 7-16l8-14-5-2-7-2c-7-4-11-13-10-20 1-4 7-10 11-12s6-2 11-2l6 1v-3l-3-31-5-31a5857 5857 0 0 0-10-96c2-8 2-8-9-17l-11-9-1-109V623l4 3c1 2 6 4 9 6l53 33a2538 2538 0 0 0 19 14 563 563 0 0 1 43 31c2 0 5-4 11-12l10-15a525 525 0 0 1 34-45 1341 1341 0 0 1 74-79 106 106 0 0 0 49-63c2-6 2-10 2-25 0-22-1-29-9-46-6-12-13-20-37-43s-35-32-38-32-10 6-10 8 14 15 30 30c15 12 29 26 33 31a72 72 0 0 1 16 52c0 16 0 17-3 25-3 11-7 18-12 24-6 8-18 20-28 27a619 619 0 0 0-123 141 652 652 0 0 0-111-72l-9 3-7 3V522l1-99a1337 1337 0 0 0 62 30l16-9c1-1-1-4-4-7-5-7-8-12-10-20-1-6-2-7-6-11-6-5-7-5-19 0-7 3-10 3-10 1l2-9c2-3 3-9 3-11 1-4 1-5-2-7-6-6-6-19 0-26 4-5 3-8-2-23l-2-12c1-1 4 0 12 4l12 5 5-3c5-5 9-6 14-6s12 3 15 6l4 3c2 0 10-3 17-7 5-2 9-3 9 0l-3 7-5 11-2 6 5 5c8 9 9 19 4 27l-6 6c-4 2-4 4-1 15 2 7 2 9 1 10l-10-3c-4-1-9-3-10-2l-2 7c2 3 7 10 11 13 8 5 8 5 37-14a786 786 0 0 0 171-156c24-31 27-36 25-37-12-8-42-20-65-25-13-3-15-4-16-7-1-1 0-6 3-17a284 284 0 0 0 1-152l-4-14 5-1h5l2 10 3 12 5 37a438 438 0 0 1-9 121l10 3a258 258 0 0 1 27 7c4-3 2-17-2-22-5-6-5-7-4-10 1-2 1-2 10-1 9 0 10 0 14-2 9-5 13-11 13-20 0-8-2-12-6-12-4 1-4 1-2 9 0 5 0 8-4 12-6 7-15 8-21 1-4-4-4-5-4-10 0-6 2-11 7-13 4-2 3-4-2-4-11-2-17-13-11-23 3-4 7-6 14-6 4 0 5 0 9 5 5 6 7 6 6-1l2-8c4-6 7-8 13-8 5 0 6 0 9 3 4 4 6 7 6 12 0 6-5 12-12 14-4 1-5 2-4 7l4 2c8 0 17-7 20-16l2-7c0-4-3-12-7-16-5-5-5-6-2-10 1-2 2-2 7-2 10 1 15 0 21-6 5-5 6-7 7-11 1-7 1-8-1-13-2-4-2-4-5-4-2 0-2 1-2 7 0 8-2 14-8 17-5 3-9 3-14 0s-7-7-7-14c0-4 1-5 4-9 3-6 4-7 1-7l-5-4c-4-4-5-11-3-16l1-4h53l-1 2c-1 5-3 7-8 9-4 2-5 5-3 8 4 5 20-6 22-15 0-3 1-4 2-4 2 0 2 1 1 3-1 5-4 11-8 15-4 3-11 7-14 7-4 0-4 1-2 7 2 7 1 16-2 22-5 10-15 15-30 16-2 0-1 3 1 6 3 4 5 13 4 19-1 13-8 19-26 26l-1 2c5 12 2 24-7 32-6 6-10 7-18 7h-7l2 7c3 6 3 7 3 15v9l4 1c5 2 7 2 9 1a2486 2486 0 0 0 68-122l11-21 28-51a627 627 0 0 1 91 0l-3 7-2 5 6-6c3-5 5-7 7-7 3 0 3 2-2 9s-8 10-15 14c-5 3-9 9-7 10l8-4c9-5 17-15 21-23 3-4 4-6 6-6 4 0 4 1-1 10-4 7-12 16-19 21l-19 9c-1 0-4 3-4 5 0 3 16-4 26-10 8-6 16-16 23-29l4-6c5 0 0 12-9 25-7 9-9 11-19 17-7 4-16 7-28 11-4 1-4 3 1 3a75 75 0 0 0 62-50c3-8 6-8 9-1 5 15 15 28 29 41 11 10 24 16 25 13 1-2 0-4-4-5-17-9-35-28-41-45-4-8-4-9-1-9 2 0 3 2 5 7 7 16 25 35 36 39 8 4 8-2 0-7-11-7-25-22-29-32-2-6-2-7 0-7s3 1 5 5c5 11 17 25 25 29 7 3 7-4 0-8-8-5-18-17-20-23 0-3 0-3 2-3l7 7c4 7 12 14 14 14 3 0 2-4-1-7-4-3-10-11-10-13s4-1 7 3 5 4 5-1c0-3 0-3 2-3s3 1 3 15l1 36-1 22 4 11 8 25a593 593 0 0 1 31 205v9l15 11 16 11a4702 4702 0 0 1 16-134l-6 1c-7 2-13 1-18-5-7-7-7-15-2-22 4-6 8-9 16-8l6-1-7-14-7-14 4-8 8-14 13-22c3-2 5 1 21 29l6 14-9 16-9 14h6c5 0 6 0 10 2 8 4 11 13 9 22s-9 13-20 13h-6l1 13a20953 20953 0 0 1 13 106c2 16 3 40 2 45-1 3-1 3 19 18l4 2v208l-1 207-30-14-29-15-5 2c-7 3-16 8-17 10l5 6c5 6 8 12 12 21l5 9c3 4 4 4 8 4l12-4c9-4 10-4 7 5l-3 11-1 5 3 3c10 8 10 22 2 30l-5 4 2 5a305 305 0 0 0 8 25l-13-5-14-6-4 4c-4 6-14 9-21 6l-7-6c-5-5-7-5-20-1-7 3-9 4-10 3s-1-2 1-6l7-18-4-4c-11-8-10-24 0-32 5-3 5-5 1-17s-3-13 8-8c9 5 11 5 12 2 3-7-14-23-21-20a748 748 0 0 0-222 211 217 217 0 0 0 68 26c10 1 13 3 14 5l-3 13c-15 54-13 115 5 174 0 2 0 2-5 2h-6l-1-6c-11-49-11-55-11-90a242 242 0 0 1 9-82c1-3 1-4-1-5l-4-2-25-6c-5-2-6-2-6 5 0 6 1 9 6 15 3 4 4 8 1 10-2 1-3 2-5 1l-9-1c-6 0-15 4-19 9-3 5-4 14-3 19 2 9 7 7 6-2 0-4 0-6 2-9 5-7 12-8 20-4 5 2 7 6 7 12 0 5 0 7-3 10-3 4-3 4 1 6 9 5 12 15 6 23-3 6-13 8-19 3l-4-3c0-1-4-5-5-4l-1 4c1 4-1 9-5 12-4 4-12 5-17 2-4-1-8-7-8-12 0-7 7-15 13-15 3 0 6-3 6-4-1-2-8-3-12-1-8 2-15 13-15 22 0 6 4 14 7 16 5 3 6 6 2 10h-6c-8-2-17 1-23 7-4 4-5 8-5 14 0 5 2 12 4 12 3 0 4-2 4-8s0-7 2-10l7-5c3-2 5-2 8-1 6 2 10 6 11 11 1 6 0 11-6 16-5 4-5 5 0 7 7 3 11 14 8 21l-1 3h-54v-2c0-4 4-11 6-12l6-3c5 0 6-2 4-5-1-3-1-3-5-3-9 2-17 11-19 20 0 4-1 5-2 5-2 0-2 0-2-4 2-13 10-22 23-25 4-1 4-1 3-3l-1-11c0-6 0-8 2-12 4-11 11-15 24-16l9-1-3-4c-7-8-8-16-5-25 3-10 11-18 21-20 10-1 10-1 7-8-3-6-3-15 1-22 5-11 12-14 25-15l8-1-2-5c-4-4-5-10-5-17v-6l-13-4-6 7a20784 20784 0 0 1-106 188l-1 3-44 1c-39 0-43 0-42-2a177 177 0 0 1 10-19c0-4-11 7-15 14-3 6-4 7-6 7-4 0-3-1 2-11 4-9 9-14 18-18 7-4 10-6 10-8 0-4-16 4-24 12-5 5-12 17-12 21 0 2-2 4-5 4s-3-1 0-9c7-18 23-32 41-36 5-1 8-4 7-6-2-1-12 2-22 6-8 4-11 6-17 12-8 8-11 14-14 24-3 8-3 8-6 9-3 0-4-1-2-7 7-22 24-41 44-47l13-3c8-1 12-2 10-4h-16c-13 4-22 8-32 17-11 9-22 28-24 39 0 4-1 5-3 5l-2-1c-1-12-5-20-17-35a81 81 0 0 0-29-26c-7-3-9-3-9 0 0 2 1 3 7 6 13 6 28 22 35 35 3 7 7 18 6 20l-3 1-4-5c-4-15-14-29-26-38-10-7-14-9-15-7s0 3 8 9c10 7 18 16 24 27 5 10 5 14 1 14l-3-3c-6-14-12-23-20-29-5-4-9-6-10-4-1 1 0 2 2 4 11 9 14 13 18 20 5 10 5 12 1 12-2 0-3-1-4-3-2-11-16-25-18-19l5 6c4 5 9 13 9 15l-3 1c-2 0-3-1-5-4-1-4-4-6-5-6l-1 3c0 6-1 7-4 7h-3v-44zm260 26c4-5 2-10-3-12-6-2-12 1-12 7 0 7 9 10 15 5zm-190-9c6-11 20-26 30-31 13-7 28-11 40-11 6 0 6 0 11-9a525 525 0 0 1 23-42 5562 5562 0 0 1 25-43l2-5-3-8c-8-24-24-46-45-64-26-22-57-34-83-33-16 1-27 9-37 27-13 25-21 46-23 70-2 15-4 44-3 46s2 2 6-1c5-2 7-2 14-2h15c6 1 6 0 0-5-5-3-7-7-5-8 1-1 2 0 6 2l6 3c1-1-1-13-5-30-2-9-3-15-1-18l8-6 9-8c3-3 5-2 4 2-1 5-3 8-9 13-7 6-7 8-3 23 6 21 8 42 5 54-4 12-6 17-12 23-7 7-13 9-27 8h-11v4c0 3 0 3 9 7 6 2 16 9 22 14s11 12 19 24l9 12 4-8zm31-48c-9-1-15-4-22-9-4-4-6-9-4-10 1-1 3-1 6 1 10 4 15 5 28 5 10 0 15 0 24-2l16-5c4-1 6-1 6 2 0 5-12 11-29 15-11 3-16 4-25 3zm0-22c-7-3-9-4-12-3-3 0-3 0-3-2l3-6c3-4 4-7 1-8l-3-5c-1-3-1-4 1-5l2-5 4-7c5-5 21-15 23-15 3 2 2 3-9 11l-9 9c-1 2-1 2 1 2l12-2c8 0 9 0 21 4 13 4 17 5 25 3 3-1 4-1 6 1 4 2 3 3-13 17a56 56 0 0 1-36 15c-6 0-8 0-14-4zm22-3c8-2 19-7 22-10 2-3 0-2-12 1l-21 3a889 889 0 0 0-12 1c0 3 8 7 14 7l9-2zm10-20c1-1 1-2-1-3-2-2-6-1-6 1 0 4 3 4 7 2zm-34-2c0-2-1-3-3-1l2 4 1-3zm-8-51 3-5c7-7 6-14 0-15-4-1-4-1-9 2l-10 5c-5 2-5 2-8 0-4-1-5-5-3-9 1-2 2-3 6-3l9-2c5-3 14-4 18-2 3 2 7 7 8 11 1 5-1 11-5 15s-9 5-9 3zm-48-51c-3-5-2-8 1-7 6 0 8 0 14-2 7-3 11-4 26-1 8 1 9 1 13-1l7-2c2 0 2 0 0 11-2 6-3 7-6 5s-6-2-12 0h-20l-12 1-9 1-2-5zm38-13c-3-3-14-3-21 0h-6c-1-1-1-2 2-4l3-3-2-1c-3-2-4-4-2-5h6c6 1 9 1 23-2 4 0 4 3 0 6l-3 1 2 2c6 4 6 5 6 6-1 2-4 2-8 0zm-50 146c2-1 2-1-2-1l-12-5-9-3-1 3c0 3 1 3 10 6h14zm8-9c5-2 10-5 10-7h-34c-6-2-5 1 3 5 7 3 13 4 21 2zm272-11c4-5 2-11-4-13-4 0-7 1-9 5s-1 7 3 8c4 3 7 2 10 0zm-402-11c5-8 15-24 16-28 1-2 0-4-7-20l-10-18-3 2c-2 1-10 14-15 24a200 200 0 0 1-4 6l-2 5c0 3 18 35 20 35l5-6zm-12-17-5-12c0-4 12-21 14-21l6 9c7 11 7 13 0 24-8 12-8 12-15 0zm116 20 1-5h-3c-3 1-4 4-2 5h4zm14-8h-3c-3 1-4 3-4 5s0 2 2 0l5-5zm10 5-1-1v1l1 2v-2zm11 1v-3c-3-2-7-1-5 2 1 2 2 2 5 1zm-12-3-2-2h-1l3 2zm170-57-14-67c0-1-5-2-6-1l1 14 4 21c2 10 13 39 15 39v-6zm-279-5c6-2 9-6 9-12 0-5 0-6-4-9-3-4-4-4-9-4s-6 0-9 3-3 4-3 9c0 6 3 11 7 13h9zm-27-4c3-3 3-3 3-9-1-7-3-10-8-12-9-3-18 2-18 12 0 9 5 13 14 13 5 0 6 0 9-4zm314 0c3-4 3-5-1-19-8-37-7-36-10-37s-4 0-2 7l9 50c0 3 2 2 4-1zm10-17c3-6 3-9 0-22-2-8-3-12-5-13h-6c-1 1 7 39 8 39l3-4zm-312-31a4777 4777 0 0 1 14-124c2-11 0-19-5-24-8-9-23-9-30 0-6 6-6 8-2 45a6434 6434 0 0 0 16 124c1 4 2 6 3 5l4-26zm-8-19-3-16a1168 1168 0 0 0-7-62c-1-8-3-38-2-41 2-6 10-13 15-11 3 1 2 2-3 7-4 4-5 5-6 9-1 5 1 32 5 70 4 36 4 46 3 46l-2-2zm280 33-6-27-4-1-1 3 5 24 7 8-1-7zm52-4 3-8-5-2c-6-1-7 0-5 8 2 10 2 10 7 2zm-69-15c-2-9-3-11-8-11-4 0-4 0-4 3s1 5 6 9c3 4 6 6 7 6l-1-7zm84-9c2-5 2-5-9-8a451 451 0 0 0-154-21c-5 2-3 3 7 5l17 5c6 2 10 3 22 3 27 2 32 2 53 6a463 463 0 0 1 60 15l4-5zm-103-1-2-2v2l2 1v-1zm108-10c3-4 2-6-3-8s-5-3-2-10c1-4 3-5 10-2l5 1 2-2c4-5 3-6-12-11a485 485 0 0 0-230-18c-19 4-26 6-26 7l5 5c6 4 5 4 15 2h6l2 5c1 3 1 4-1 5-2 3-1 5 2 7 4 2 9 3 24 1a454 454 0 0 1 187 17c14 4 14 4 16 1zm-28-16c-7-2-8-3-6-9 2-7 2-7 11-5 9 3 10 4 7 10-2 6-3 7-12 4zm-28-7-5-1-4-1v-6c1-8 2-8 11-6 10 2 11 2 8 9-1 5-2 6-5 6l-4-1zm-160-5c-2-2-1-12 1-13h8l7-1 1 5c1 4 1 8-2 8-5 2-14 2-15 1zm127 0c-9-2-9-2-8-7 1-9 0-8 8-8l10 2c3 1 3 1 3 6-2 9-2 9-13 7zm-97-4-1-6c0-5 0-5 3-6h9l6-1v6l-1 7h-16zm61 0c-2 0-2-1-2-7 0-7 1-7 11-6h7v13l-7 1-9-1zm-32-1v-7l1-6h7c8 0 9 1 8 8l-1 5-7 1-8-1zm-50 23c6-3 6-4 2-4-5 0-10 1-10 3 0 1 2 3 4 3l4-2zm235-33c-1-6-1-7 1-9l4-4c3-1 3-4 1-7-3-3-8-3-12 0-4 5-4 17 2 24 4 5 4 4 4-4zm-28 4-8-9a733 733 0 0 0-43-38 2208 2208 0 0 0-53-49 1081 1081 0 0 0-12-10 840 840 0 0 1-51-46l-24-22a5412 5412 0 0 0-41 157c0 3-2 3 27-1 31-4 40-4 66-4a433 433 0 0 1 139 22zm-55-24-45-6-28-2a638 638 0 0 0-91 3 545 545 0 0 1 25-99c5-21 7-25 9-26l12 10a2643 2643 0 0 0 117 107l14 14c0 1-5 1-13-1zm-2-6-2-4a4853 4853 0 0 0-88-80 6121 6121 0 0 1-25-22l-12-10c-2 0-2 2-8 24l-12 45c-11 43-11 42-9 43h12a831 831 0 0 1 144 4zm-64-18h-52c-28 1-29 1-27-4a686 686 0 0 0 15-57 4949 4949 0 0 0 4-15l3-4a1392 1392 0 0 0 85 77c3 3 3 5 0 5l-28-2zm-49-11 9-7 23 9c8 3 11 4 16 4l6-1c0-1-45-19-48-19-2 0-15 12-20 17-1 2 0 3 3 3l11-6zm24 4c0-1-11-6-15-6-2 0-9 6-8 7 0 1 22 1 23-1zm-40-5 22-18 11 4 38 15c4 1 6 0 4-3-2-2-9-5-34-15l-22-8c-3 0-24 19-26 24-3 7-1 8 7 1zm8-22c5-5 9-8 11-8l17 7c17 6 22 8 22 6s-9-8-16-11a343 343 0 0 1-25-9c-3 0-19 13-19 16l-2 4c-1 4 4 2 12-5zm1-15c5-6 7-6 16-2 10 4 14 5 11 1-2-3-18-11-22-11-3 0-10 6-11 10-3 7 0 8 6 2zm1-15 3-1c3 0 4-3 1-5-3-3-6-2-8 2v4h4zm221 109c3-3 3-6 0-8-5-3-12 2-11 8 1 2 1 2 5 2l6-2zm-28-11c-1-9 0-9 4-16 2-1-1-6-3-8h-6c-6 3-7 10-5 20 2 5 7 13 9 13l1-9zm-276 5c1-2-1-8-4-10h-8c-2 3 0 6 5 9 6 2 6 2 7 1zm8-10c-1-7-5-15-8-17h-6c-5 3-4 8 2 10 2 0 4 1 4 3 5 10 8 12 8 4zm255-1-1-8c-2-11 1-20 8-22 6-2 8-7 4-11-3-4-5-4-10-3-3 1-4 2-7 6-3 5-4 8-4 18 0 8 1 12 5 18 2 3 5 4 5 2zm103-4c8-4 13-14 11-23-2-10-8-15-17-14-8 1-10 7-1 7 4 0 5 0 7 3 4 3 4 7 3 11-3 7-8 11-13 10l-5-1c-5-1-11-8-14-15-4-8-8-26-10-40-3-19-7-32-16-48-4-8-5-9-12-13-11-6-26-8-39-5s-22 4-34 4c-11 0-12 0-17-2-15-8-22-24-16-36l5-7c4-3 11-5 15-5 3 1 8 6 10 10 1 3 0 10-3 13-2 3-3 5 0 5 2 1 6-1 8-5s2-6 2-11c-1-7-2-10-8-14-3-3-5-3-10-4-8 0-12 1-18 5l-5 3-5-23c-1-12-5-21-12-28-8-8-12-10-24-9-9 0-11 0-22 4l-15 4c-8 0-14-6-16-13 0-3 0-4 3-7 4-4 6-4 10 1 3 3 4 3 5 2 3-4-3-11-10-11-4 0-11 4-13 8-2 5-1 13 3 19 6 6 14 8 26 5 3 0 3 0 3 2l-1 3-1 10c1 11 3 15 11 19 5 3 6 3 12 3 7-1 9-2 12-9v-6c-1-1-2-1-5 4-4 4-5 4-9 4s-6 0-8-3c-5-4-5-6-5-13 0-5 1-7 3-10 4-6 10-9 18-9s11 1 16 7c9 9 13 22 17 58 2 19 5 26 13 34a66 66 0 0 0 50 9c3-1 3 1 0 9-5 15 1 30 15 37l17 6c14 4 19 7 24 13 6 6 7 9 5 12l-4 5c-2 3 0 5 4 5 5 0 8-3 9-8 1-10-8-21-23-29-4-2-7-5-7-6l2-3c3-1 7-9 7-13s-3-9-5-9l-1 3-1 6c-4 15-24 17-33 4-4-6-5-14-3-20 2-5 9-12 15-15 10-4 23-3 31 3 11 9 17 26 23 61 4 25 6 33 11 41 5 9 7 12 12 14 6 3 17 4 23 1zm-353-5c0-9-6-27-12-30-6-4-12-2-12 4 0 3 3 6 8 7s8 6 12 21c1 6 3 5 4-2zm550-2c3-3 4-5 5-9 0-4 0-5-2-9-2-3-4-4-5-4-4 0-6 3-6 8 0 4-2 4-3-1 0-2-2-4-3-5l-2-2-4 3c-3 3-3 5-3 9 0 6 2 10 5 12 7 4 13 3 18-2zm-314 0-2-7c-3-8-3-12 1-15 4-4 4-6 0-9s-8-2-11 3 0 17 6 24l5 4h1zm-233-20c-1-8-4-17-7-19s-7 1-7 5c0 2 1 3 3 5 3 1 4 3 6 10l4 9c1 2 1-2 1-10zm-51-7c11-12 13-14 16-21l4-13c0-6-2-20-7-33-3-11-3-12-2-17 1-8 5-12 12-12 5 0 5-2 1-5s-4-3-9-2c-3 1-4 3-6 8-3 8-5 9-7 3-9-21-5-44 8-51 9-4 20 1 22 11 0 5 3 5 4 1a127 127 0 0 1 1-4c0-3-4-13-7-15-5-2-12-3-19 0l-7 2-1-9c0-14-5-21-12-19-7 1-8 4-2 5 4 2 8 8 8 13l-4 16c-4 14-5 26-3 35 1 6 2 10 13 34l6 16c0 3-1 3-5 0-3-3-12-3-16 0-4 2-6 9-4 12 1 1 2 1 5-3 3-3 4-4 8-4s9 3 13 8c3 5 3 14-1 22-3 6-12 17-22 26-6 5-6 6-5 7l3 2 15-13zm268 3c0-7 0-8 3-10 3-3 4-6 1-9-1-1-2-2-5-2-8 0-12 11-7 21 2 5 6 9 7 8l1-8zm173-1c3-2 4-4 4-5l-28-29c-16-14-30-29-33-32a90 90 0 0 1-11-87c7-16 18-28 38-42a574 574 0 0 0 124-143l8 5 34 26c22 17 64 43 68 43s14-6 14-8a849 849 0 0 1-126-88l-14 18a584 584 0 0 1-39 53 456 456 0 0 1-95 93 110 110 0 0 0-32 96c2 11 9 28 14 36l12 16c8 8 46 46 52 50 4 3 5 3 10-2zm127-1c3-2 5-3 5-5 0-3 0-3-5-6-6-2-7-4-2-4 3 0 7-3 7-5l-3-4c-2-2-3-2-8-2-10 0-15 5-15 13 0 6 2 11 7 13 5 3 9 2 14 0zm28-5c5-3 8-7 8-7 0-3-11-14-13-14s-17 12-17 13c0 3 11 15 13 15l9-7zm28 4c9-4 9-18 1-23-5-3-10-3-15 0-8 4-6 9 3 10 6 1 6 3 0 3-8 1-10 4-6 9 2 4 11 5 17 1zm-568-2c-1-4-6-20-8-22h-6c-2 2-1 6 2 8 2 1 5 5 7 10 3 7 6 9 5 4zm200 0-2-14c0-11 1-14 7-16 6-3 8-8 3-13-6-6-14-3-17 7-4 11-1 27 5 36 2 4 4 4 4 0zm-13-7-2-6-2-10c-1-5-1-6 2-9 4-6 3-11-4-11-6 0-8 3-7 12 0 9 2 15 7 21 3 3 6 4 6 3zm-184-5c0-20-11-36-21-31l-2 4c0 4 1 6 6 6 3 1 5 2 6 4 2 2 6 12 8 19 1 4 3 2 3-2zm329-1 2-4c0-3-3-6-6-6-5 0-8 6-4 10 2 3 6 2 8 0zm-325-12c2-2 1-6-2-15-2-7-3-9-5-10-7-3-10 4-3 8 2 2 3 3 6 10 2 9 3 10 4 7zm163-7c0-8 0-9 3-12 3-4 3-6 0-9s-7-3-10 0c-2 3-3 14-1 21 1 4 5 9 7 9l1-9zm360 6 2-6c0-5 1-5 3 0 3 7 6 7 10 1 5-11-6-22-18-19-4 1-8 6-10 12-1 5 5 14 10 14l3-2zm-372-21c1-14 1-16 7-18l6-4v-6c-4-7-13-6-18 1l-3 4-1-3-3-4c-9-2-13 7-9 21 2 6 7 13 9 13s2 0 1-2l-2-15c0-4 0-5 2-7l3-2-1 10 1 15c1 4 6 10 7 10l1-13zm-260 8c4-2 9-10 10-16 1-17-20-28-33-17-5 5-6 8-6 16 0 10 4 17 13 19 4 1 11 0 16-2zm-20-8c-4-4-4-5-4-9 0-6 2-10 6-13 3-3 8-4 12-2s2 5-3 5l-6 3c-4 5-4 9 1 14s5 6 1 6c-2 0-4-1-7-4zm133 9c0-5-3-20-5-22-1-3-2-4-5-4-5 0-7 2-5 6l3 4c3 1 5 3 7 8 2 8 3 9 4 9l1-1zm432-15 3-13c4-9 5-16 5-29 1-18-3-26-11-26-3 0-6 3-9 10-8 21-8 40 0 56 3 6 5 8 8 9s4 0 4-7zm-428-2c1-6 0-12-4-21-3-7-5-8-8-10-8-3-16 4-10 10l5 2 4 1c2 1 7 10 9 17l3 6 1-5zm513-1c4 0 5-1 6-2 0-3-7-15-13-20-4-4-7-6-21-11-13-6-25-15-30-23-3-6-5-7-9-7-9 0-10 4-5 15 6 12 12 16 42 28 10 4 17 9 19 15 4 7 3 6 11 5zm-182-3 26-22a7152 7152 0 0 1 23-20 630 630 0 0 0 27-25c3-2 3-4-1-8-5-4-7-9-7-17l-1-9c-4-6-2-14 4-18l3-6c0-4 4-10 9-13 3-1 6-3 6-5 1-3 6-8 12-12 7-4 13-5 34-4h18l5-5c4-3 6-6 6-7 0-3 1-3 4-3 2 0 3 0 3 4 0 6 2 5 19-3 24-12 45-23 45-25l-11-7a664 664 0 0 1-89-62 603 603 0 0 1-123 138 86 86 0 0 0-40 50c-3 13-3 33 0 46 3 8 8 18 13 25 4 6 9 11 11 11l4-3zm-6-12-1-3c0-2 0-2-4 0s-6 1-4-5c1-4 1-4-2-4-5 0-6-6-2-8 2-1 3-1 5 1l2 3 8-20 5-10c2 0 4 3 4 6s2 4 5 2h7v11l5 1c3 1 5 2 5 4l-8 4c-9 3-20 8-21 10l1 2 1 4c0 2-1 3-3 3l-3-1zm39-34c-2-3 0-6 3-7 3 0 4 1 4 5 0 2-1 3-3 3l-4-1zm-9-6v-6c2-4 2-4 0-4-5 2-8-5-4-7 3-1 5 0 6 3l1 2 11-23c4-11 6-12 9-6 2 4 2 4 7 2l6-2v10c-2 4-2 4 3 5 10 2 11 6 2 9a196 196 0 0 0-39 18l-2-1zm-16-28c0-3 0-3-4-2-3 0-4 0-5-2s0-4 11-28c8-17 9-19 13-13l2 5 6-2 6-2v10c-2 4-1 5 4 5l4 1c2 3 1 5-9 9l-24 12c-1 1-1 2 1 3 3 2 2 6-1 7-3 0-3 0-4-3zm-14-13v-5c1-3 5-3 6 0 3 4-3 8-6 5zm76-44c-2-3-1-5 3-6 4 0 7 4 3 7-2 3-4 2-6-1zm-8-5c-1-2-1-4 3-13l12-30c1-4 4-2 6 3s3 5 5 4h5c3 0 3 0 3 3-1 9-1 8 3 9 8 0 9 1 9 3s-2 3-7 5c-18 7-27 12-30 14-5 3-7 4-9 2zm-8-11c-1-5 5-8 7-4 2 3 0 5-3 6-2 0-3 0-4-2zm99-20c-1-2 0-4 5-14l10-24 5-11c2 0 5 5 5 9 0 3 2 3 6 2l6-2c3 1 3 2 2 10 0 3 0 3 4 4 6 1 9 3 7 5l-11 5-15 7c-24 11-22 11-24 9zm-5-10-1-4c0-2 1-2 3-2 3 0 4 0 4 2 0 1 0 3-2 4h-4zm-22-18-1-3c1-2 0-2-1-2-6 2-8 2-9 1l4-13 8-20 5-15c1 0 3 2 4 5l4 6 4-2c3-3 7-3 8 0l-1 7v5h3c6 0 11 2 11 4s-3 3-10 7l-24 11-2 1 2 2 3 3c0 5-4 7-8 3zm-17-14c-1-5 3-9 6-6 2 3 1 7-3 7l-3-1zM289 815c0-8 0-9 3-12s4-6 1-8c-3-3-7-3-10 0-2 1-3 3-3 8l1 10c1 4 5 10 7 10l1-8zm79 6 1-5c0-2-1-3-4-3l-4 1c-3 5 3 11 7 7zm-192-16c0-12-4-21-9-19-6 1-6 8-1 11 3 1 4 3 6 9a308 308 0 0 1 3 7l1-8zm101-2c-1-12 0-16 6-20 7-5 8-11 1-15-3-2-8-1-12 4l-4 4 1 13c0 11 0 13 2 17s4 6 5 6l1-9zm481-1a177 177 0 0 0-34-56l13-13 12-14c0-3-19-23-27-27-3-2-3-4 2-10 8-9 20-28 26-41 7-14 8-18 5-18-2 0-31 15-32 17l-1 6c-2 8-8 25-14 37l-5 11 3 4a400 400 0 0 0 17 23c0 2-9 11-16 16l-6 5 5 9c6 9 13 23 16 32l2 6 15 7 17 8 2-2zm-491-1-4-16 3-6c3-4 3-7 0-9-5-4-10-1-11 4-2 10 5 29 11 29l1-2zm-215-6c4-2 5-3 8-7 3-5 4-10 3-22l-2-29-7-75-8-4c-2 1-3 11-5 39a1594 1594 0 0 1-5 65c0 17 1 21 6 25 4 3 2 6-4 3l-5-5c-2-4-2-6-2-18l1-30a18786 18786 0 0 0 6-81 1903 1903 0 0 0-13 113c-2 9 0 16 3 22 3 4 6 5 12 6 5 1 8 0 12-2zm129-4 1-10c3 0 4-10 1-18-5-14-13-20-20-16-3 2-4 3-4 6 0 4 3 6 8 6h5c2 2 7 9 8 14 2 7 1 8-2 3s-8-7-12-3v5c0 1 2 3 4 3 3 1 5 4 7 12l3 5 1-7zm71-11c0-9 0-10 2-12 4-4 2-8-3-10-4 0-7 2-8 6-1 6 5 26 8 26l1-10zm420 6c0-8-5-16-14-19l-8-4c-1-2-3-3-5-3-5 0-13 2-14 4s3 8 7 12c9 7 26 14 31 14 2 0 3-1 3-4zm-431-7-2-8c-1-6-1-14 1-20l5-4c6-3 7-9 2-13-3-4-11-1-14 4-1 4-2 4-5 1s-8-2-11 2 0 18 6 25c2 2 5 3 5 2l-2-6v-13c3-5 4-3 4 6 1 9 4 19 8 23 1 2 3 3 3 1zm145-3c3-2 4-3 3-5 0-3-4-5-6-5l-4 3c-2 3-2 3-1 5 2 3 5 4 8 2zm316 0c0-3-6-15-11-22-5-8-9-13-11-12l-10 19 31 16 1-1zm-256-10c2-1 2-4 1-6l-16-1-16-1a645 645 0 0 1-49-45 2516 2516 0 0 1-61-55h-9c-2 2-2 2 9 12a606 606 0 0 0 50 46 3262 3262 0 0 1 44 39c12 12 11 11 26 12a2177 2177 0 0 1 21-1zm220-9c5-6 14-23 16-32 3-18 3-36-1-50-3-10-6-14-11-14-7 0-9 4-5 13 9 24 6 53-9 74-5 7-4 14 2 14 3 0 5-1 8-5zm-368-2c3-3 1-8-4-8-2 0-4 2-4 5 0 5 4 7 8 3zm341-1c9-2 17-14 24-34 2-9 2-29-1-39-2-7-4-9-8-10l-21-2h-18l-7 3c-7 4-9 6-6 8l23 3c8 1 10 2 12 4l2 4c0 3-5 3-13 0-19-5-33-5-39 1-3 2-3 5 2 6l31 4c6 0 7 0 9 3l3 5c0 3-3 2-17-1-12-3-30-4-35-2-6 3-8 10-3 12l8 1 12 1 15 4c7 2 10 3 12 5 3 2 2 5-1 5l-25-6c-8-3-16-3-19 0l-3 4c0 2 4 9 7 12 6 5 18 10 24 11 9 1 27 0 32-2zm-436-5c7-3 11-7 14-13 4-8 6-16 6-27 0-12-2-20-7-30-5-8-9-12-18-14-4-2-6-2-11-1-16 3-24 18-24 43 0 13 1 20 6 28 7 13 22 19 34 14zm-17-10c-6-3-8-5-10-10-6-12-7-31-2-43 4-7 5-9 10-11 6-3 10-3 15 1 10 8 13 17 13 36 0 10-1 12-3 17-5 11-16 15-24 10zm14-9c3-4 3-7-1-13-4-9-10-7-11 4 0 5 0 6 2 8 3 4 6 4 10 1zm-13-17c4-2 2-9-3-9-3 0-7 3-7 5s5 6 6 6l4-2zm20-4 2-4c0-3-1-4-6-4-4 0-5 0-6 2s-1 4 1 7c2 2 8 1 9-1zm-11-12c4-8 1-15-5-15-7 0-9 6-5 15 2 4 3 5 5 5s3-1 5-5zm255 46c1-6 1-6-13-6h-13l-4-3-22-20a11271 11271 0 0 0-40-37l-21-19h-7l-7 1 53 50c32 28 35 32 39 34l3 3h31l1-3zm4-14c2-5 0-6-14-6-13 0-12 1-26-12a2578 2578 0 0 0-62-54l-6 1a16375 16375 0 0 1 81 74l14 1h11l2-4zm240-3c7-5 8-6 6-10s-9-12-11-12l-2 6a134 134 0 0 1-3 19c0 2 3 1 10-3zm-230-18c2-2 2-4 2-5l-15-1-15-1-36-32c-10-10-12-11-16-12-7-1-7 1 0 8a431 431 0 0 0 40 38l10 9h28l2-4zm226-23a414 414 0 0 0 14-35c-1-1-22 9-24 12v3l6 18c1 5 2 5 4 2zm-558-14a604 604 0 0 1 135-146c7-9 14-20 18-31 3-9 3-10 3-24-1-16-4-28-10-39-4-8-14-20-17-20l-20 16a14604 14604 0 0 1-51 44l-13 13 3 3 7 6c2 4 3 5 3 15v16c0 4 0 5-4 10l-5 7c0 5-3 8-13 14l-4 4c0 3-2 6-4 8l-3 3c1 2 22-7 32-13l5-3c1 0 2 3 1 5l-15 39c-1 4-4 4-6-1l-1-6c-1-1-2-1-4 1-7 2-8 2-8-4 0-7-1-8-7-8-3 0-6-2-6-5l-4-1h-39l-3 3-6 5c-4 0-5 1-5 3 0 3-3 5-6 3v-4c0-3 0-3-2-3-3 0-11 4-25 11a1586 1586 0 0 1-22 12c-12 6-14 8-14 9l6 4a666 666 0 0 1 97 64l7-10zm-11-5-2-3-1-3-1-3-5 3c-5 2-5 2-7 1v-12c0-1-2-2-6-2-5-1-6-2-6-4s1-3 11-7a527 527 0 0 0 37-19c2 0 1 5-2 11-4 7-6 14-10 27-4 14-5 15-8 11zm21-31c-2-1-2-3-1-5 2-3 6-2 7 1 0 5-3 8-6 4zm-60-6a755 755 0 0 1-5-6h-5l-3 1-1-6c0-5 0-5-4-5l-5-2c-3-1-3-5 0-6a193 193 0 0 0 43-20c2 0 1 3-3 13-5 11-8 18-10 28-2 5-3 6-4 6l-3-3zm41-8c-2-2-1-6 1-7 4-3 7 1 5 6 0 2-4 3-6 1zm-20-18-2-2c0-2 3-5 4-5 2 0 4 2 4 5 0 4-4 5-6 2zm93-30c-3-4 1-10 5-7 2 1 2 4 0 6s-3 2-5 1zm-16-18c-4-4-1-8 3-6 3 0 4 5 2 7-2 1-3 1-5-1zm56-12-1-5-1-4-6 1c-7 0-6 1-6-7 0-3 0-3-6-4-5-1-6-2-6-3 0-3 0-3 11-7l17-9 8-4-3-2c-3-2-4-6-1-7 3-2 5 0 6 4v3l3-2 5-1c2 1 2 2-3 12l-7 17c-6 17-7 18-8 19l-2-1zm21-30c-2-2-1-7 1-7 5-2 8 1 6 6-2 2-5 3-7 1zm-44-3-1-4c-2-5-3-6-6-4l-5 1c-2 0-2-1-2-4 1-8 1-8-4-9-4-1-7-3-6-5l9-3 19-9c13-6 16-7 15-3-1 2 0 3 2 4 3 2 4 6 1 8h-4l-3-2-3 7a136 136 0 0 0-8 21c-2 2-3 4-4 2zm40-40-3-5c0-2-1-2-3-2h-5c-2 0-3 0-3-3 0-4 0-4-4-6-4-1-5-2-5-3a22706 22706 0 0 0 39-19v3l-10 27c-3 11-3 12-6 8zm-36-4c-2-3-1-5 2-6 2 0 4 2 4 5-1 2-4 3-6 1zm53-19c-3-3 0-8 4-7l3 3c1 4-4 7-7 4zm-16-16c-2-3-1-5 2-6 3 0 5 2 5 5-1 2-5 3-7 1zm268 220c3-1 8-6 7-7l-172-1H187l-3 3c-3 2-4 6-2 6a21912 21912 0 0 0 341-1zM23 605c11-6 15-8 16-10 8-22 14-35 20-46l3-5-5-6-8-10c-4-4-7-8-7-10 0-3 5-8 13-14l8-6-7-15-10-23-4-9-7-4-28-13c-3 3 15 37 26 50l5 6-7 7c-8 9-17 19-17 22 0 2 14 16 22 22 3 2 5 5 5 6l-5 8c-6 7-15 23-24 40-7 14-8 18-5 18l16-8zm554-13 3-5-190-1-154 1-7 8 173 1 171-1 4-3zM71 581l9-7-2-8-2-9c-1-5-4-3-8 4s-11 22-11 25c0 2 3 1 14-5zm654 1a1335 1335 0 0 0 8-131c-4-5-8-8-14-9l-10 1c-5 3-7 5-9 11-2 7-2 15 1 45a1544 1544 0 0 1 6 71c0 3 1 5 4 7s4 2 5 1 3-13 3-32a885 885 0 0 1 5-72c1-9-1-19-4-22-2-3-3-6 0-6 2 0 7 4 8 8 3 6 2 12-5 93a62918 62918 0 0 0-2 35c1 3 4 2 4 0zm-340-3-3-4-9-8a873 873 0 0 0-44-39c-5-1-23-2-28-1-3 0-4 1-6 4-3 4-1 5 13 5 15 0 14-1 30 15l32 28h15zm33-1c0-2-15-16-45-43a3489 3489 0 0 1-23-21l-10-9h-16l-15 1-2 2c-2 4-1 5 12 6h12l9 8 20 18c48 44 44 40 52 40 5 0 6 0 6-2zm20 0a766 766 0 0 0-80-73l-16-15h-30l-1 4v5l15 1h14l21 19a1517 1517 0 0 1 52 48l14 13h5l6-2zm28 1a2425 2425 0 0 1-50-49 4050 4050 0 0 1-66-60l-18-1c-17 0-19 1-18 5 1 2 4 3 19 3h12l28 26a12007 12007 0 0 0 79 71c7 6 11 8 14 5zm-369-4c2-2 1-8-2-17a99 99 0 0 1 10-74c5-8 3-11-4-11-4 0-8 4-14 16-7 14-10 25-10 44 0 14 2 27 6 37 3 6 9 8 14 5zm431-1 5-7c2-5 2-5 1-11-3-11-11-16-26-16l-7-1 1-4c2-5 2-15-1-20-4-8-10-12-19-12-7 0-9 1-14 5-2 3-3 4-3 7 0 4 2 4 6-1 4-3 9-5 13-4l7 4c7 8 6 17 0 25-4 4-6 5-12 6-10 2-22-3-28-12-4-6-6-15-7-36 0-20-2-30-6-37-3-7-10-14-18-17-5-2-7-3-25-3h-20l3-6c2-5 2-6 2-15 0-10-1-15-8-22-6-6-12-8-24-12-13-3-20-7-25-14-4-5-4-9-1-14 3-4 1-7-3-7-5 0-7 2-8 7s1 10 4 15c5 8 11 12 23 17l6 3-5 7c-6 6-8 11-6 16 1 4 5 6 5 4l1-6c2-9 7-14 16-14 12 0 21 12 18 25-3 15-20 23-34 17-7-3-16-13-20-22-6-14-9-22-12-44-5-26-5-28-9-38-3-10-7-16-14-19-13-7-27-1-32 13-2 6-2 6 0 10 4 10 9 14 18 13 6-1 9-3 7-6-1-2-2-2-6-1-4 0-5 0-8-2-5-4-6-8-3-14 7-11 22-11 28 2 3 5 7 15 8 22a583 583 0 0 0 5 31c4 27 14 49 27 58 9 6 13 6 41 5l27-2c3 0 17 2 22 5 7 3 10 5 13 11 3 7 3 17 0 22-9 15-24 17-30 5-4-7-1-17 6-20l2-3-4-1c-5 1-7 3-11 8-2 3-2 4-2 9 0 13 9 22 23 22 6 0 11-2 16-7 4-5 6-5 6-1 1 36 9 51 32 56 5 1 9 1 28-4 19-6 31-1 31 11 0 5-5 11-10 11-3 0-3 0-7-5-2-3-5-2-5 2 0 3 3 6 6 7l7 1 9-2zm55-4c18-8 24-35 14-58-7-17-17-25-31-24-8 1-13 4-18 11-7 10-10 21-8 34 2 19 12 34 25 38 5 1 13 1 18-1zm-18-8-12-14c-5-10-5-28-1-37 4-10 14-15 22-12 9 3 15 11 18 25 2 14 1 25-5 33-5 5-15 8-22 5zm14-8c2-4 1-11-3-17-2-3-3-3-6-3-2 1-3 0-3-2-1-5-9-6-12-1-2 4 4 9 8 7 3-2 3-1 2 4 0 7 1 12 5 13 4 2 7 1 9-1zm6-21 2-4c0-2-4-5-7-5s-5 2-5 6l1 4c2 2 6 1 9-1zm-13-7c1-2 3-12 2-14-1-6-8-9-11-5-3 3-3 7-1 12 3 7 7 10 10 7zm-419 38c4-2 6-3 6-5s-1-3-12-4c-10-1-18-4-20-6l-2-4c0-3 3-3 10 0l15 3c9 2 11 2 15 0 5-1 10-5 10-7 0-1-3-2-10-3a302 302 0 0 1-23-3c-4 1-6 0-8-4-3-6-3-6 17-2 18 3 31 2 33-2l1-5c0-4-2-5-9-5l-17-3-16-4-6-2c-1-1-1-1 1-3 3-3 6-2 17 1 19 6 30 5 30-3 0-5-6-10-20-17l-12-6h-14c-25 0-30 4-38 26-4 12-6 25-4 37 1 12 4 19 7 22 3 2 3 2 23 2s21 0 26-3zm-80-42 1-11c-2-1-13 7-13 10 0 1 6 10 8 11s3 0 4-10zm603 9c4-2 3-4-2-5-3 0-5 0-7-2-2-3-2-4-2-12s0-11 3-21c5-13 6-23 2-37l-9-28c-3-10-3-12 2-10s11 2 15-1c4-4 6-9 6-13-1-3-3-3-6 1-4 6-12 7-17 3-6-5-8-14-6-23 4-11 9-18 22-29l7-5-2-3-3-2-3 1c-7 5-17 15-22 22-10 18-11 28-3 51 3 11 4 21 2 25-3 4-7 7-12 7-3 0-4 0-4 2s5 6 8 6 9-3 11-6l3-3c4 0 7 27 3 36-2 6-9 15-14 16-6 1-12 0-16-5-2-2-1-9 1-14 2-4 2-5 1-6-4-4-11 11-10 20 1 5 6 10 12 12 4 1 12 1 16-1l4-1v8c0 5 0 7 2 11 3 6 12 9 18 6zm-148-29 4-7c1-5-1-20-3-26-2-5-6-11-8-10l1 8 1 14c0 7 0 7-4 10-4 4-5 6-4 10 0 2 4 5 7 5l6-4zm16-3c2-3 3-9 1-16-2-5-9-14-11-12v4l3 9c0 4 0 5-2 8-2 4-2 7 1 8 4 1 5 1 8-1zm-74-7 1-4c0-4-2-6-6-6-5 0-8 4-5 9 1 2 8 3 10 1zm131-1c5-5 1-13-7-13l-5-2c-2-2-6-14-5-15l1 2c1 3 6 6 9 6l4-2c3-3 0-8-4-9-4-2-5-3-7-9-2-7-4-6-3 3 0 6 0 6-1 5-3-2-4 0-4 8 0 16 7 28 16 28l6-2zm-519-1a318 318 0 0 1 8-15l-4-4a1814 1814 0 0 1-22-9c-2 1 2 10 10 22 4 8 6 9 8 6zm86-12c2-2 7-11 9-19 3-13 2-28-2-42l-7-11c-4-5-5-5-6-4l-2 5-3 17c-3 13-4 26-3 39 0 11 4 15 11 16l3-1zm349-1c2-2 2-11 1-17l-6-12c-2 0-2 1-2 9s0 11-4 17l2 3c2 2 6 2 9 0zm-393-2c4-1 5-2 5-3 0-3-7-12-11-15s-28-11-30-11c-5 2 6 19 14 21 4 1 8 3 12 7 3 4 3 3 10 1zm26-3c2-1 2-3-1-11-5-10-18-20-34-26l-12-4c-7-3-13-8-18-16l-3-5h-5l-6 2c-2 1 0 8 3 13 4 10 13 16 29 21 8 2 18 7 22 12l6 8c3 7 5 8 13 8l6-2zm228-2c6-3 4-12-3-12-4 0-7 6-5 11 2 2 5 3 8 1zm186-3a2773 2773 0 0 0 36-156l-13 1a475 475 0 0 1-225-17 1474 1474 0 0 1 102 92 627 627 0 0 1 35 29 2504 2504 0 0 1 63 55l2-4zm-23-30a3398 3398 0 0 0-21-18 1330 1330 0 0 1-55-48 1790 1790 0 0 1-38-34c-16-14-19-18-14-18l12 2a616 616 0 0 0 90 7 422 422 0 0 0 66-2 14549 14549 0 0 0-27 119c-1 2-3 1-13-8zm13-5 3-14 4-17a1826 1826 0 0 0 16-66c1-5 1-5-20-4-16 2-25 2-53 2-33-1-51-2-71-6-12-2-13-1-4 7l11 10a1661 1661 0 0 0 58 51c38 34 50 44 52 44s2-1 4-7zm-21-19a2653 2653 0 0 1-74-68l4-1a1140 1140 0 0 0 99-1c1 1-2 16-7 40a323416 323416 0 0 1-6 29l-4 11-12-10zm12-2 1-4c0-2-4-1-5 1l-3 1c-1 0-1 2 1 4 2 3 5 2 6-2zm-2-11c4-2 5-4 6-7 2-7 0-7-7-2l-7 6c0 1-4 1-9-1s-7-1-4 2 10 6 14 6l7-4zm0-14c7-5 9-7 10-10s1-5-1-5c-1 0-6 3-11 8l-12 7-12-5c-14-6-18-7-18-5 0 3 7 8 18 12l11 4 3 1c2 0 6-2 12-7zm0-14 13-11v-9l-19 14-10 7-16-6-39-15 5 6a207 207 0 0 0 52 23l14-9zm-8-10 10-8c3-2 2-4-1-4-4 0-11 4-14 8-3 3-5 3-16-2-8-4-11-4-18-5-8 0-9 0-8 1 1 2 35 16 38 16l9-6zm-7-8c2-2 1-3-3-3l-5 1c0 3 6 4 8 2zm-41 113c5-5 6-8 7-18l-1-15c-2-6-6-12-7-11v24c-1 3-5 7-7 7s-5 4-5 7c0 7 8 10 13 6zm17-2c3-3 3-3 3-9s-1-8-3-12l-6-9v11l-1 12c-3 3-2 7 0 8 3 3 4 2 7-1zm96-14c2-3 0-7-3-8-2-2-3-3-4-7-3-7-6-8-6-1 0 6 2 13 5 16s7 3 8 0zm-122-8c5-5 5-14 1-23l-5-7c-1 0-2 1-1 8 0 8 0 9-2 13-4 5-4 6 0 9 3 3 4 3 7 0zm133-1c3-2 2-7 0-9l-5-3c-4-2-8-7-10-13-2-5-3-6-4-3-2 5 2 22 7 27 3 3 10 4 12 1zm-159-11 4-4 2 2c3 3 6 3 9-1 5-5 2-20-5-27-3-2-3-2-4-1l1 6c2 5 2 15 0 16-2 2-2 1-3-7-1-9-4-20-7-23s-3-2-2 4 1 16-1 20l-5 5c-7 3-7 10-1 14 5 2 7 1 12-4zm275-2c6-3 8-9 8-17-1-7-3-11-8-15-5-3-13-4-18-2-4 2-10 8-11 13-2 9 1 19 7 22 6 4 15 3 22-1zm-16-2c-1-2-1-2 1-3 7-2 10-4 11-11 1-4-1-10-4-11l-2-3c0-2 4-1 8 2 2 2 6 9 6 12s-2 8-6 11c-4 4-12 5-14 3zm-313-1c2-3 3-8 1-9s-7 0-9 1c-3 3 0 10 5 10l3-2zm211-8 2-3-5-5c-2 0-8-7-8-9l-1-3h-2c-2 4 0 15 5 19 2 3 7 4 9 1zm-168-9c4-4 5-12 2-19l-4-8c-2-3-6-4-5-1l2 9c0 7 0 8-2 11-3 4-4 5-1 8 2 3 5 3 8 0zm171-2 2-2-3-3-7-11-3-6-1 7c0 8 4 16 9 17l3-2zm-534-1c7-3 11-12 9-19-2-4-4-6-7-6-4 0-7 2-7 7-1 4-3 3-4-2s-3-6-6-6c-7 2-8 15-3 21s12 7 18 5zm545-6c1-1 2-2 2-5 0-5-3-7-8-7-2 0-3-1-5-4l-5-9c-1-7-2-9-4-7s1 19 5 26c3 7 10 10 15 6zm-213-2c5-4 6-7 6-19 0-10-1-11-4-17l-5-8-1 13c0 13 0 14-2 16l-4 3c-1 0-5 5-5 7 0 4 4 8 9 8l6-3zm20-2c2-3 2-5 2-9-1-9-8-22-12-22-1 0-1 2 1 7 2 6 1 14-1 18-1 2-2 4-1 6 1 5 8 5 11 0zm293-9c6-1 10-6 12-12 1-5 0-23-2-43a2207 2207 0 0 1-8-63l-8-65c-2-1-3 2-4 12a3213 3213 0 0 1-9 82 1595 1595 0 0 0-7 57c-3 20 3 31 20 34l6-2zm-11-5c-2-1-1-3 4-5 8-3 10-9 9-22a2339 2339 0 0 0-8-96c2-1 3 2 4 12l6 54c5 36 5 47 0 53-5 4-11 6-15 4zm-655-3 2-4c0-2-4-5-7-7-4-1-4-3 0-4 10-2 7-12-4-12-6 0-10 2-13 7-4 6-2 16 4 20l9 2c5 0 7 0 9-2zm50 0c9-4 9-20 1-25-5-3-12-3-16 0-6 4-5 9 2 10 4 1 4 3-2 5-4 1-4 2-4 4s1 3 5 5c6 3 10 4 14 1zm513-2c0-2 0-3-3-5-3-3-6-6-7-12-1-3-3-2-3 1 0 5 4 16 6 18l4 2c2 0 3-1 3-4zm-541-3 7-7c0-2-9-14-11-14l-1-1c-2 0-15 12-15 15 0 2 6 10 10 12 2 2 3 1 10-5zm205 2c2-4-1-10-5-10-5 0-8 6-4 10 2 3 8 3 9 0zm114-3c4-2 5-7 5-13-1-6-8-21-10-21h-2l2 6c2 9 2 13-2 16-3 3-3 4-3 8s5 6 10 4zm224-8 2-4c0-2 0-3 5-3 6 1 8-1 8-6 0-3-4-7-8-7l-4-3c-2-3-7-15-7-18 0-2-2-4-3-3-1 2-2 10-1 16l5 12 3 8c-2 1-5-4-8-9-2-5-4-7-4-3-1 8 2 19 5 21 2 1 6 1 7-1zm-256-5c4-3 6-10 6-21 0-10-2-19-5-24-2-4-4-4-3 0l-1 23c-2 7-2 7-6 9-7 4-8 11-1 15 2 1 7 0 10-2zm22-6c1-5 1-9-2-17-2-5-4-9-6-9l-1 9-1 12c-3 5-2 9 1 11 4 2 8-1 9-6zm-318-6c2-5 3-5 5-1 1 2 2 2 5 2 2 1 3 0 5-4 2-5 2-10-1-15s-13-8-18-5c-10 5-12 16-4 24 2 3 6 2 8-2zm285-13c4-2 5-6 5-13 0-6 0-8-3-13-4-8-5-8-5 2 0 7 0 8-3 12l-4 5c0 2 2 6 4 7h6zm278-4c4-3 3-8-3-11-3-2-4-4-5-7-2-5-5-6-6-1s3 17 6 19h8zm-289-10 3-5c2-5-1-20-5-20l-1 5c0 3-2 9-5 11-4 4-4 5 0 9 2 2 5 2 8 0zm293-5c3-2 2-3-4-7-7-6-9-5-7 3 3 6 8 8 11 4zm-81-5c24-2 29-3 48-7 15-3 18-4 13-7-2-2-4-2-10-1h-9c-2-2-2-8 0-10 1-3 1-3-2-6-7-6-8-6-26-3a429 429 0 0 1-193-17c-9-3-10-2-11 3-1 2-1 2 3 4 6 2 6 3 4 7-2 7-3 7-8 6-6-3-8-2-10 1s-2 3-1 4a293 293 0 0 0 47 16 614 614 0 0 0 155 10zm-47-9c-2-2-3-8-1-10l9-1 7 1 1 4-1 6-7 2c-6 0-7 0-8-2zm-29 0c-3 0-4-1-2-8v-4h6l8 1c3 0 3 0 3 6l-1 6h-5l-9-1zm57-5 1-6c2-1 13-2 15-1 1 0 2 10 0 11l-9 1h-7v-5zm-84 3-6-1v-10c1-2 1-2 7-2 10 1 10 1 10 7 0 7-1 8-11 6zm116-2c-2-2-1-8 0-10l8-2c6 0 7 0 7 2v9l-8 2-7-1zm-148-3c-5-2-6-3-6-8 1-6 3-6 9-5 10 2 11 3 9 10-1 4-1 4-5 4l-7-1zm-30-8c-6-2-7-3-5-9l3-4 12 3c2 2 0 12-3 12l-7-2zm-58 20 2-4c0-2-1-3-5-3-5 0-8 1-8 4 0 5 7 7 11 3zm209-32c3-1 2-2-8-3-8-1-18-4-27-7l-13-2a509 509 0 0 1-116-21l-4 5c-3 6-3 6 11 10a338 338 0 0 0 96 19c11 1 59 1 61-1zm29-2c7-1 9-2 9-3l-2-3h-7c-9 4-12 5-18 5a479 479 0 0 0 18 1zm-15-6c8-2 15-5 22-12 6-7 14-20 18-31l6-16c4-11 7-23 9-34s3-51 1-51l-7 2c-7 2-21 3-26 1-6-3-5 2 4 9l6 6c0 2-4 1-11-4l-7-3 1 8 6 35c0 6-3 10-9 13-5 3-9 6-11 10-1 2-2 2-3 1v-5c2-4 2-4 0-3l-7 1-9 2c-7 3-17-1-20-6-3-8-1-16 5-21 7-4 9 0 4 5-4 4-5 6-3 10 2 5 5 5 14 1 10-5 13-6 16-3l3 4c0 3 1 3 7-2 3-2 6-5 6-7 1-2 1-7-3-26-5-26-5-27-4-39 1-14 4-21 10-27 9-9 22-13 34-9h6l1-4c-1-3-2-4-17-12a129 129 0 0 1-42-48l-3 4a86 86 0 0 1-62 46l-11 3-8 12a1594 1594 0 0 0-50 89l7 21c18 36 51 64 91 76 7 3 12 3 28 5l8-1zm-25-21c0-1 1-3 5-5s4-2-1-4c-5-1-7-4-5-5h6c7 2 17 1 24 0 8-2 8-2 8 0s-1 3-3 4l-3 1 3 2 4 4h-5c-8-1-17 0-24 2-8 3-8 3-9 1zm-16-15 1-6 2-6 1-4h16c7-2 11-2 14-1h7l10-2h8c2-1 3-1 4 6 2 5 2 7 1 8h-4c-3-2-8-1-16 2l-7 3-9-2c-10-2-14-2-20 1-5 2-7 3-8 1zm-12-85c-2-1-1-2 6-7 8-6 15-13 13-13l-9 1c-9 1-18 0-28-5-9-3-12-4-20-2-6 2-8 2-8-1-1-2 0-4 9-11 18-14 28-19 41-19 7 0 13 2 14 5 0 2-2 2-12 2-11 0-12 0-18 2-6 3-11 7-7 6a83 83 0 0 1 34-4l9-3c10-4 12-3 5 4l-3 5 3 6 3 4-3 7c-3 8-10 15-19 20-7 4-9 5-10 3zm9-27h-1c-3 1-6 0-9-3-3-4-5-3-3 0 1 2 6 5 9 5l4-2zm-18-1c0-3-1-4-5-4s-4 2 0 4h5zm30 0c2-2 1-4-1-4s-3 1-3 3 2 3 4 1zm-54-30v-4l22-10c9-3 10-3 22-3 11 0 12 0 18 3 7 3 15 10 15 13s-2 3-9 0l-14-4c-9 0-31 1-42 4-10 2-10 2-12 0zm4 159-2-2-1 2 2 1c2 0 2 0 1-1zm-10-3c0-3-3-8-6-10s-3-1-2 6c1 6 2 7 6 7 2 0 2-1 2-3zm-14-1-4-19c-1-4-7-11-8-11l-1 2c0 5 5 27 6 29 2 2 7 1 7-1zm-14-1a365 365 0 0 0-6-33l-7-23c-4-10-7-13-7-9l13 64 7 1zm-19-27-5-26c0-4-2-3-4 1l-2 4 3 19 5 22c0 2 6 5 7 4l-4-24zm-12 7-3-16-1-3-3 5c-3 5-4 8-1 18 1 6 2 7 5 8 6 3 6 2 3-12zm-14 5c0-4-1-5-2-3-3 2-3 5-1 6 3 1 4 0 3-3zm349-21 4-5c2-4 2-5 1-9-2-7-6-10-12-10-11 0-18 12-12 21 4 6 13 8 19 3zm-36 0c10-4 9-21-2-24-10-3-19 5-17 15 1 5 4 8 9 9 5 2 7 2 10 0zm14-27 20-31c0-3 0-3-11-22-5-9-9-14-10-14l-6 9a2438 2438 0 0 1-15 29l17 30c2 1 2 1 5-1zm-3-17c-3-3-9-14-9-16l4-8 5-8 2-3 3 3c3 3 9 13 9 16 0 4-3 9-7 13l-5 5-2-2zm-125-41-4-4c-1-3-3-4-3-2 0 3 5 7 8 7l-1-1zm11-6c0-2-1-1-3 3l-2 4 2-3 3-4zm-276 2c3-3 3-7-1-10-3-3-6-2-10 2-3 3-3 6 1 9 3 3 7 3 10-1zm254 0c0-3-2-3-5-2s-3 1-2 2c1 2 5 3 6 2l1-2zm31-1v-2c-1-2-4-1-4 2-1 2 2 3 4 0zm-29-14c6-1 18-1 24 1 6 1 8 1 3-3-7-6-22-7-32-2-5 3-7 7-2 6l6-2zm32-10c0-2-1-3-3-5-5-2-18-2-24 1l-4 2h8l14 2 8 3 1-3zM377 26c3-3 3-8 0-11-4-5-13-1-13 6 0 3 4 7 7 7l6-2z" transform="matrix(.159 0 0 .159 23 23)"/><path style="fill:#df0000;fill-opacity:1" d="m247 1242 1-1c2-1 12-21 12-23-1-1 0-3 2-4 4-3 7-9 7-11-1-1 1-3 3-5s3-4 3-7l2-4c3-2 5-4 5-7 0-1 1-4 3-5l5-7a1799 1799 0 0 1 51-92l2-5c2 0 4-3 4-6l2-4c2-2 8-12 8-15l2-4c3-1 8-9 8-13l3-5 5-8 4-6 1-5c0-4 0-4-3-6l-23-7a2337 2337 0 0 1-14-3c-22-5-43-8-65-8-12-1-13-1-23-5l-13-4c-25-6-43-5-54 5l-4 2-4-3-11-9-11-10-9-8-12-8-10-7-12-10a240 240 0 0 0-26-22l-2-2 15-14 17-21c4-8 6-16 5-20l-1-10-5-19c-3-9-3-11-3-16 1-9 6-14 13-13 3 1 4-2 1-6-2-2-3-2-7-2-5 1-8 4-10 10-3 7-4 6-7-1-6-18-4-35 6-44 4-4 4-4 10-4 5 0 6 0 9 3 3 2 4 4 5 7 1 5 2 6 4 4 5-4 1-18-6-21-4-3-14-3-19-1-5 3-6 3-6-5s-2-15-5-19c-3-3-10-3-13 0-2 1-2 2-1 3l4 2 4 3c4 5 4 11 0 26-4 12-4 15-4 25 0 13 0 13 11 39l8 20-5-1c-10-5-20 0-20 9 0 6 2 6 6 2 3-4 5-4 10-4 4 0 11 6 12 11l1 8c-2 9-6 16-20 30l-13 14c0 2-1 1-5-1-7-5-8-4-9 9a1001 1001 0 0 1-7 52 2752 2752 0 0 1-3 24 1186 1186 0 0 0-5 46c-2 7-1 8 7 6 4-2 6-2 9-1 7 2 12 9 11 17s-7 13-17 14l-6 1 6 14 7 15c0 3-16 30-24 41-1 2-1 2-3 0l-7-11a250 250 0 0 0-11-20l-4-8 2-4a353 353 0 0 1 15-27c0-2-1-2-6-2-6 0-9-1-14-7-4-5-4-13 0-18s9-7 15-7c10 2 10 2 9-4l-1-20a1128 1128 0 0 1-8-65 5934 5934 0 0 0-8-74l2-6-1-4-22-16-2-1V623l4 3c1 2 6 4 9 6l53 33a2538 2538 0 0 0 19 14 563 563 0 0 1 43 31c2 0 5-4 11-12l10-15a525 525 0 0 1 34-45 1341 1341 0 0 1 74-79 106 106 0 0 0 49-63c2-6 2-10 2-25 0-22-1-29-9-46-6-12-13-20-37-43s-35-32-38-32-10 6-10 8 14 15 30 30c15 12 29 26 33 31a72 72 0 0 1 16 52c0 16 0 17-3 25-3 11-7 18-12 24-6 8-18 20-28 27a619 619 0 0 0-123 141 652 652 0 0 0-111-72l-9 3-7 3v-98c0-93 0-98 2-97l41 19c15 8 26 12 29 12l7 3c6 3 9 4 9 2l-3-6c-3-5-3-7-3-11 1-4 1-4-4-9l-6-8-5-17c0-2-1-4-4-5l-5-5c-2-3-4-3-12-1-9 3-11 4-11 2l4-19-3-4c-4-4-6-10-6-14l2-6 4-6c4-5 4-2-5-31 0-3 1-2 12 2l11 5 5-3c4-4 8-6 14-6 5 0 9 2 12 6l4 3c0 1 6-1 11-4l12-4c2 0 1 2-2 9l-4 11-1 5 4 4c11 9 11 21 0 30-5 4-5 5-1 17l1 7-10-2c-9-4-10-4-13 1-1 2-1 3 1 8 3 5 8 11 12 13l11 4c14 3 32 13 35 19 3 3 4 3 4-1l4-22 3-17c1-7 1-9 3-11 3-2 6-2 9 1 3 2 10 13 11 16 3 11 5 18 5 25 1 7 1 9-2 20-7 22-11 26-20 22s-14-4-26-4c-15 1-24 3-27 8-9 12-16 38-15 54 1 10 5 22 8 26l2 4-2 5c-3 6-7 7-14 5-4-1-4-1-13 3a356 356 0 0 0-41 22c-16 8-17 9-7 14a598 598 0 0 1 83 55c10 9 13 11 15 11s3-2 18-23a265 265 0 0 1 23-32 1265 1265 0 0 0 32-36c17-19 34-36 49-47 12-9 23-19 29-27 5-7 12-21 13-28 2-8 2-27 1-37-4-21-16-39-29-47l-8-6a231 231 0 0 0-27-24l-10-9c-3-2-8-7-8-9l6-6a978 978 0 0 0 122-138c1-3 1-3-4-5l-7-4-8-3-8-3a241 241 0 0 0-48-14c-6-1-7-4-5-12a221 221 0 0 0 10-43l1-38-1-40a538 538 0 0 0-8-53c3 0 3 1 5 10l3 12 5 37a438 438 0 0 1-9 121l10 3a258 258 0 0 1 27 7c2-2 3-8 1-14-1-5-2-7-6-12-2-3-2-3-1-5 1-3 1-3 10-2 9 0 10 0 14-2 9-5 13-11 13-20 0-8-2-12-6-12-4 1-4 1-2 9 0 5 0 8-4 12-6 7-15 8-21 1-4-4-4-5-4-10 0-6 2-11 7-13 4-2 3-4-2-4-11-2-17-13-11-23 3-4 7-6 14-6 4 0 5 0 9 5 5 6 7 6 6-1l2-8c4-6 7-8 13-8 5 0 6 0 9 3 4 4 6 7 6 12 0 6-5 12-12 14-4 1-5 2-4 7l4 2c8 0 17-7 20-16l2-7c0-4-3-12-7-16-5-5-5-6-2-10 1-2 2-2 7-2 10 1 15 0 21-6 5-5 6-7 7-11 1-7 1-8-1-13-2-4-2-4-5-4-2 0-2 1-2 7 0 8-2 14-8 17-5 3-9 3-14 0s-7-7-7-14c0-4 1-5 4-9 3-6 4-7 1-7l-5-4c-4-4-5-11-3-16l1-4h53l-1 2c-1 5-3 7-8 9-4 2-5 5-3 8 4 5 20-6 22-15 0-3 1-4 2-4 2 0 2 1 1 3-1 5-4 11-8 15-4 3-11 7-14 7-4 0-4 1-2 7 2 7 1 16-2 22-5 10-15 15-30 16-2 0-1 3 1 6 3 4 5 13 4 19-1 13-8 19-26 26l-1 2c5 12 2 24-7 32-6 6-10 7-18 7h-7l2 7c3 6 3 7 3 15v9l4 1c5 2 7 2 9 1a2486 2486 0 0 0 68-122l11-21 28-51 45-1h45l-4 8c-3 5-5 9-4 10l-3 5c-4 4-7 9-7 12l-2 3c-3 2-5 6-5 9 0 1-1 4-3 5-3 2-3 4-3 6 1 2 0 3-2 4a671 671 0 0 1-29 47 8918 8918 0 0 1-17 31c-11 18-15 26-15 28l-3 5-3 6-2 4c-3 1-8 10-8 14 0 2-1 3-2 3-2 0-9 12-9 16 0 2-1 3-2 3-3 1-7 10-7 12v3c-3 3 0 4 30 12a395 395 0 0 0 74 11c5 0 11 1 26 6 25 9 46 9 60 0 4-3 7-3 9 0l2 2 9 6a732 732 0 0 0 40 30l14 12 9 7 3 2 12 10c10 8 12 10 8 10-2 0-11 7-18 15a57 57 0 0 0-16 43l3 14c4 13 5 22 4 26-1 5-5 8-11 9-4 0-5 1-5 3 0 3 2 6 6 6 6 1 8 0 12-4l5-4 2 9c4 15 1 29-8 38-5 5-14 5-19 1-3-2-3-4-3-8l2-7c1-3 1-7-1-8s-7 5-8 11c-3 9 0 17 7 21 4 2 5 2 11 2l10-1 3-1v8l1 11c4 6 13 8 19 5 5-2 5-4-1-5-3 0-6-1-7-3-2-2-2-3-2-12 0-8 0-11 3-19 7-18 5-31-6-64l-3-11h4c8 2 14 0 18-6 3-5 2-10-1-11l-2 1-3 4c-5 5-14 3-19-4-2-4-2-5-2-11 1-10 4-17 12-25l13-12 6-6 3-1c8 2 7 3 9-15l3-16v8a765 765 0 0 0-1 15l-3 20c-1 7 0 15 2 20 3 4 9 9 14 10 10 2 19-3 22-13 1-5 0-23-2-44a2207 2207 0 0 1-8-63l-8-64c-2-2-4 6-6 24l-1 8c-1 2-1-9 1-19 1-8 0-9-6-7-9 2-14 1-19-5-4-4-5-11-3-15 2-5 7-10 12-11h8c5 2 5 2 6 0l-7-14-7-14c-1-3 1-7 6-16a435 435 0 0 0 16-28c2-2 3 0 14 18l5 10c5 8 6 12 5 14a410 410 0 0 1-18 30c-1 2 0 2 9 0 16-2 24 22 9 31-3 2-5 2-9 2l-7-1c-3-2-4 2-3 8a628 628 0 0 1 7 54 3171 3171 0 0 1 9 71 147 147 0 0 1 0 37l23 18 2 1v206a10175 10175 0 0 1-2 205 671 671 0 0 0-83-38c-3-2-3-1-2 8l2 13c0 3 1 4 5 9 6 6 10 12 12 20 2 6 10 16 13 16l9-2c12-5 12-4 9 8-2 8-3 11-1 11s7 6 9 10c2 8 1 12-5 18l-4 6 4 12c4 15 4 16-10 9l-10-5-5 4c-5 8-15 11-23 5l-5-5c-1-2-2-3-5-3l-7 1c-9 3-10 3-11 1-1-1 0-4 2-10l2-9-4-4c-5-4-7-7-8-13 0-7 2-11 8-16 6-4 6-5 3-15-1-4-2-7-1-8 0-2 5-1 9 1 6 3 8 3 9 0 3-3 2-6-1-12-4-6-12-13-20-14-10-2-20-7-30-14-8-6-9-6-9 3l-2 9c-4 10-5 15-6 23 0 7-1 8-3 10-3 3-7 2-12-3-7-6-13-24-13-37 0-9 2-17 7-31 4-10 5-11 8-13 2-1 3-1 7 1l18 2c11 0 15 0 21-2 9-2 11-3 15-10 8-12 13-27 15-41 1-10-2-25-7-34-2-4-1-8 3-12 3-3 5-4 11-2 4 1 4 1 21-8a7752 7752 0 0 1 30-15l15-8c2-2 0-5-3-6l-5-3-9-6a664 664 0 0 1-86-60c-2 0-5 3-13 15a611 611 0 0 1-119 130 85 85 0 0 0-33 47c-3 10-3 30-1 41 4 15 17 37 25 42l12 10a5158 5158 0 0 0 43 43l-8 8c-39 36-85 87-110 122-9 14-10 17-5 18l6 3 7 3 6 3c5 3 39 14 53 16 7 1 7 0 2 25a484 484 0 0 0-8 73c1 24 1 29 5 46l1 12 1 4 1 5 3 12c4 11 4 13 0 13-3 0-4 0-5-6-11-49-11-55-11-90a242 242 0 0 1 9-82c1-3 1-4-1-5l-4-2-25-6c-5-2-6-2-6 5 0 6 1 9 6 15 3 4 4 8 1 10-2 1-3 2-5 1l-9-1c-6 0-15 4-19 9-3 5-4 14-3 19 2 9 7 7 6-2 0-4 0-6 2-9 5-7 12-8 20-4 5 2 7 6 7 12 0 5 0 7-2 10-4 4-4 4 0 6 9 5 12 15 7 23-4 6-14 8-20 3l-4-3c0-1-4-5-5-4l-1 4c1 4-1 9-5 12-4 4-12 5-17 2-4-1-8-7-8-12 0-7 7-15 13-15 3 0 6-3 6-4-1-2-8-3-12-1-8 2-15 13-15 22 0 6 4 14 7 16 5 3 6 6 2 10h-6c-8-2-17 1-23 7-4 4-5 8-5 14 0 5 2 12 4 12 3 0 4-2 4-8s0-7 2-10l7-5c3-2 5-2 8-1 6 2 10 6 11 11 1 6 0 11-6 16-5 4-5 5 0 7 7 3 11 14 8 21l-1 3h-54v-2c0-4 4-11 6-12l6-3c5 0 6-2 4-5-1-3-1-3-5-3-9 2-17 11-19 20 0 3-1 5-2 5-2 0-2-3-1-7 3-12 10-19 22-22 4-1 4-1 3-3l-1-11c0-6 0-8 2-12 4-11 11-15 24-16l9-1-3-4c-7-8-8-16-5-25 3-10 11-18 21-20 10-1 10-1 7-8-3-6-3-15 1-22 5-11 12-14 25-15l8-1-2-5c-4-4-5-10-5-17v-6l-13-4-6 7a20784 20784 0 0 1-106 188l-1 3-43 1-43-1zm152-17c4-5 2-10-3-12-6-2-12 1-12 7 0 7 9 10 15 5zm51-93c4-5 2-11-4-13-4 0-7 1-9 5s-1 7 3 8c4 3 7 2 10 0zm-402-11c5-8 15-24 16-28 1-2 0-4-7-20l-10-18-3 2c-2 1-10 14-15 24a200 200 0 0 1-4 6l-2 5c0 3 18 35 20 35l5-6zm-12-17-5-12c0-4 12-21 14-21l6 9c7 11 7 13 0 24-8 12-8 12-15 0zm30-47c6-2 9-6 9-12 0-5 0-6-4-9-3-4-4-4-9-4s-6 0-9 3-3 4-3 9c0 6 3 11 7 13h9zm-27-4c3-3 3-3 3-9-1-7-3-10-8-12-9-3-18 2-18 12 0 9 5 13 14 13 5 0 6 0 9-4zm12-48a4777 4777 0 0 1 14-124c2-11 0-19-5-24-8-9-23-9-30 0-6 6-6 8-2 45a6434 6434 0 0 0 16 124c1 4 2 6 3 5l4-26zm-8-19-3-16a1168 1168 0 0 0-7-62c-1-8-3-38-2-41 2-6 10-13 15-11 3 1 2 2-3 7-4 4-5 5-6 9-1 5 1 32 5 70 4 36 4 46 3 46l-2-2zm347 5c2-5 2-5-9-8a451 451 0 0 0-154-21c-5 2-3 3 7 5l17 5c6 2 10 3 22 3 27 2 32 2 53 6a463 463 0 0 1 60 15l4-5zm5-11c3-4 2-6-3-8s-5-3-2-10c1-4 3-5 10-2l5 1 2-2c4-5 3-6-12-11a485 485 0 0 0-230-18c-19 4-26 6-26 7l5 5c6 4 5 4 15 2h6l2 5c1 3 1 4-1 5-2 3-1 5 2 7 4 2 9 3 24 1a454 454 0 0 1 187 17c14 4 14 4 16 1zm-28-16c-7-2-8-3-6-9 2-7 2-7 11-5 9 3 10 4 7 10-2 6-3 7-12 4zm-28-7-5-1-4-1v-6c1-8 2-8 11-6 10 2 11 2 8 9-1 5-2 6-5 6l-4-1zm-160-5c-2-2-1-12 1-13h8l7-1 1 4c1 5 1 9-2 9-5 2-14 2-15 1zm127 0c-9-2-9-2-8-7 1-9 0-8 8-8l10 2c3 1 3 1 3 6-2 9-2 9-13 7zm-97-4-1-6c0-5 0-5 3-6h9l6-1v6l-1 7h-16zm61 0c-2 0-2-1-2-7 0-7 1-7 11-6h7v13l-7 1-9-1zm-32-1v-7l1-6h7c8 0 9 1 8 8l-1 5-7 1-8-1zm-50 23c6-3 6-4 2-4-5 0-10 1-10 3 0 1 2 3 4 3l4-2zm235-33c-1-6-1-7 1-9l4-4c3-1 3-4 1-7-3-3-8-3-12 0-4 5-4 17 2 24 4 5 4 4 4-4zm-28 4-8-9a733 733 0 0 0-43-38 2208 2208 0 0 0-53-49 1081 1081 0 0 0-12-10 840 840 0 0 1-51-46l-24-22a5412 5412 0 0 0-41 157c0 3-2 3 27-1 31-4 40-4 66-4a433 433 0 0 1 139 22zm-55-24-45-6-28-2a638 638 0 0 0-91 3 545 545 0 0 1 25-99c5-21 7-25 9-26l12 10a2643 2643 0 0 0 117 107l14 14c0 1-5 1-13-1zm-2-6-2-4a4853 4853 0 0 0-88-80 6121 6121 0 0 1-25-22l-12-10c-2 0-2 2-8 24l-12 45c-11 43-11 42-9 43h12a831 831 0 0 1 144 4zm-64-18h-52c-28 1-29 1-27-4a686 686 0 0 0 15-57 4949 4949 0 0 0 4-15l3-4a1392 1392 0 0 0 85 77c3 3 3 5 0 5l-28-2zm-49-11 9-7 23 9c8 3 11 4 16 4l6-1c0-1-45-19-48-19-2 0-15 12-20 17-1 2 0 3 3 3l11-6zm24 4c0-1-11-6-15-6-2 0-9 6-8 7 0 1 22 1 23-1zm-40-5 22-18 11 4 38 15c4 1 6 0 4-3-2-2-9-5-34-15l-22-8c-3 0-24 19-26 24-3 7-1 8 7 1zm8-22c5-5 9-8 11-8l17 7c17 6 22 8 22 6s-9-8-16-11a343 343 0 0 1-25-9c-3 0-19 13-19 16l-2 4c-1 4 4 2 12-5zm1-15c5-6 7-6 16-2 10 4 14 5 11 1-2-3-18-11-22-11-3 0-10 6-11 10-3 7 0 8 6 2zm1-15 3-1c3 0 4-3 1-5-3-3-6-2-8 2v4h4zm221 109c3-3 3-6 0-8-5-3-12 2-11 8 1 2 1 2 5 2l6-2zm-28-11c-1-9 0-9 4-16 2-1-1-6-3-8h-6c-6 3-7 10-5 20 2 5 7 13 9 13l1-9zm-276 5c1-2-1-8-4-10h-8c-2 3 0 6 5 9 6 2 6 2 7 1zm8-10c-1-7-5-15-8-17h-6c-5 3-4 8 2 10 2 0 4 1 4 3 5 10 8 12 8 4zm255-1-1-8c-2-11 1-20 8-22 6-2 8-7 4-11-3-4-5-4-10-3-3 1-4 2-7 6-3 5-4 8-4 18 0 8 1 12 5 18 2 3 5 4 5 2zm104-4c15-8 14-35-1-38-5 0-12 2-13 4-2 3 0 4 5 4 4 0 6 0 7 3 6 6 3 17-5 19s-17-3-22-13c-3-7-9-30-10-40-2-18-12-45-21-57-3-4-15-10-24-11-8-2-9-2-35 3-13 2-29 3-36 0-7-2-14-8-18-15-7-14 0-29 14-32 6 0 11 2 13 7 3 4 2 11-1 15-3 2-2 5 1 6l6-3c7-8 5-21-5-29-3-2-5-3-10-3-8-1-14 1-18 4l-4 3c-1 0-2-3-4-16l-4-17c-3-11-11-20-20-25-4-2-6-2-13-2-8 0-11 0-21 4-17 6-21 6-27 0-5-5-6-10-3-14s7-4 10 0 6 3 6-1c0-10-17-11-23-2-2 2-2 5-2 9 0 5 0 7 3 10 5 8 15 11 25 9 4-1 4-1 4 1-3 6-2 20 3 26 2 4 11 9 15 9 6 0 12-2 14-5 3-4 4-9 3-11-2-2-4-1-6 2-2 4-6 6-10 6l-8-4c-4-4-4-5-4-10 0-6 1-10 5-14 9-9 23-9 31 0 10 10 13 22 18 57 1 15 2 20 5 25 4 8 10 14 21 17 11 5 19 5 36 3 3-1 3 2 0 8-3 9-2 20 5 28 5 7 11 11 28 15 12 4 18 7 23 13 6 5 7 9 5 12-5 8-5 10 1 11 4 0 8-2 9-7 2-7-2-17-10-23l-17-11c-3-1-2-3 1-6 4-4 6-11 5-16-1-4-4-7-5-7l-2 6c-2 13-13 20-26 14-6-3-10-11-10-19 0-7 1-10 7-15 6-7 11-9 21-8 11 0 17 3 24 12 6 8 12 25 15 44l3 16c2 13 5 26 7 30 4 8 9 15 13 17 8 5 18 6 26 2zm-354-5c0-9-6-27-12-30-6-4-12-2-12 4 0 3 3 6 8 7s8 6 12 21c1 6 3 5 4-2zm550-2c3-3 4-5 5-9 0-4 0-5-2-9-2-3-4-4-5-4-4 0-6 3-6 8 0 4-2 4-3-1 0-2-2-4-3-5l-2-2-4 3c-3 3-3 5-3 9 0 6 2 10 5 12 7 4 13 3 18-2zm-314 0-2-7c-3-8-3-12 1-15 4-4 4-6 0-9s-8-2-11 3 0 17 6 24l5 4h1zm-233-20c-1-8-4-17-7-19s-7 1-7 5c0 2 1 3 3 5 3 1 4 3 6 10l4 9c1 2 1-2 1-10zm217-4c0-7 0-8 3-10 3-3 4-6 1-9-1-1-2-2-5-2-8 0-12 11-7 21 2 5 6 9 7 8l1-8zm173-1c3-2 4-4 4-5l-28-29c-16-14-30-29-33-32a90 90 0 0 1-11-87c7-16 18-28 38-42a574 574 0 0 0 124-143l8 5 34 26c22 17 64 43 68 43s14-6 14-8a849 849 0 0 1-126-88l-14 18a584 584 0 0 1-39 53 456 456 0 0 1-95 93 110 110 0 0 0-32 96c2 11 9 28 14 36l12 16c8 8 46 46 52 50 4 3 5 3 10-2zm127-1c3-2 5-3 5-5 0-3 0-3-5-6-6-2-7-4-2-4 3 0 7-3 7-5l-3-4c-2-2-3-2-8-2-10 0-15 5-15 13 0 6 2 11 7 13 5 3 9 2 14 0zm28-5c5-3 8-7 8-7 0-3-11-14-13-14s-17 12-17 13c0 3 11 15 13 15l9-7zm28 4c9-4 9-18 1-23-5-3-10-3-15 0-8 4-6 9 3 10 6 1 6 3 0 3-8 1-10 4-6 9 2 4 11 5 17 1zm-568-2c-1-4-6-20-8-22h-6c-2 2-1 6 2 8 2 1 5 5 7 10 3 7 6 9 5 4zm200 0-2-14c0-11 1-14 7-16 6-3 8-8 3-13-6-6-14-3-17 7-4 11-1 27 5 36 2 4 4 4 4 0zm-13-7-2-6-2-10c-1-5-1-6 2-9 4-6 3-11-4-11-6 0-8 3-7 12 0 9 2 15 7 21 3 3 6 4 6 3zm-184-5c0-20-11-36-21-31l-2 4c0 4 1 6 6 6 3 1 5 2 6 4 2 2 6 12 8 19 1 4 3 2 3-2zm328 1c1 0 2-1 2-3 2-4 1-8-3-9-5-2-11 3-8 9 1 2 5 4 7 3h2zm-324-14c2-2 1-6-2-15-2-7-3-9-5-10-7-3-10 4-3 8 2 2 3 3 6 10 2 9 3 10 4 7zm163-7c0-8 0-9 3-12 3-4 3-6 0-9s-7-3-10 0c-2 3-3 14-1 21 1 4 5 9 7 9l1-9zm360 6 2-6c0-5 1-5 3 0 3 7 6 7 10 1 5-11-6-22-18-19-4 1-8 6-10 12-1 5 5 14 10 14l3-2zm-372-21c1-14 1-16 7-18l6-4v-6c-4-7-13-6-18 1l-3 4-1-3-3-4c-9-2-13 7-9 21 2 6 7 13 9 13s2 0 1-2l-2-15c0-4 0-5 2-7l3-2-1 10 1 15c1 4 6 10 7 10l1-13zm-260 8c4-2 9-10 10-16 1-17-20-28-33-17-5 5-6 8-6 16 0 10 4 17 13 19 4 1 11 0 16-2zm-20-8c-4-4-4-5-4-9 0-6 2-10 6-13 3-3 8-4 12-2s2 5-3 5l-6 3c-4 5-4 9 1 14s5 6 1 6c-2 0-4-1-7-4zm133 9c0-5-3-20-5-22-1-3-2-4-5-4-5 0-7 2-5 6l3 4c3 1 5 3 7 8 2 8 3 9 4 9l1-1zm432-15 3-13c4-9 5-16 5-29 1-18-3-26-11-26-3 0-6 3-9 10-8 21-8 40 0 56 3 6 5 8 8 9s4 0 4-7zm-428-2c1-6 0-12-4-21-3-7-5-8-8-10-8-3-16 4-10 10l5 2 4 1c2 1 7 10 9 17l3 6 1-5zm513-1c4 0 5-1 6-2 0-3-7-15-13-20-4-4-7-6-21-11-13-6-25-15-30-23-3-6-5-7-9-7-9 0-10 4-5 15 6 12 12 16 42 28 10 4 17 9 19 15 4 7 3 6 11 5zm-396-10c0-8 0-9 3-12s4-6 1-8c-3-3-7-3-10 0-2 1-3 3-3 8l1 10c1 4 5 10 7 10l1-8zm79 6c4-4 2-9-3-9-4 0-5 1-5 5 0 6 4 8 8 4zm-192-16c0-12-4-21-9-19-6 1-6 8-1 11 3 1 4 3 6 9a308 308 0 0 1 3 7l1-8zm101-2c-1-12 0-16 6-20 7-5 8-11 1-15-3-2-8-1-12 4l-4 4 1 13c0 11 0 13 2 17s4 6 5 6l1-9zm481-1a177 177 0 0 0-34-56l13-13 12-14c0-3-19-23-27-27-3-2-3-4 2-10 8-9 20-28 26-41 7-14 8-18 5-18-2 0-31 15-32 17l-1 6c-2 8-8 25-14 37l-5 11 3 4a400 400 0 0 0 17 23c0 2-9 11-16 16l-6 5 5 9c6 9 13 23 16 32l2 6 15 7 17 8 2-2zm-491-1-4-16 3-6c3-4 3-7 0-9-5-4-10-1-11 4-2 10 5 29 11 29l1-2zm-215-6c4-2 5-3 8-7 3-5 4-10 3-22l-2-29-7-75-8-4c-2 1-3 11-5 39a1594 1594 0 0 1-5 65c0 17 1 21 6 25 4 3 2 6-4 3l-5-5c-2-4-2-6-2-18l1-30a18786 18786 0 0 0 6-81 1903 1903 0 0 0-13 113c-2 9 0 16 3 22 3 4 6 5 12 6 5 1 8 0 12-2zm129-4 1-10c3 0 4-10 1-18-5-14-13-20-20-16-3 2-4 3-4 6 0 4 3 6 8 6h5c2 2 7 9 8 14 2 7 1 8-2 3s-8-7-12-3v5c0 1 2 3 4 3 3 1 5 4 7 12l3 5 1-7zm71-11c0-9 0-10 2-12 4-4 2-8-3-10-4 0-7 2-8 6-1 6 5 26 8 26l1-10zm420 6c0-8-5-16-14-19l-8-4c-1-2-3-3-5-3-5 0-13 2-14 4s3 8 7 12c9 7 26 14 31 14 2 0 3-1 3-4zm-431-7-2-8c-1-6-1-14 1-20l5-4c6-3 7-9 2-13-3-4-11-1-14 4-1 4-2 4-5 1s-8-2-11 2 0 18 6 25c2 2 5 3 5 2l-2-6v-13c3-5 4-3 4 6 1 9 4 19 8 23 1 2 3 3 3 1zm146-3c3-3 4-5 1-8-3-4-11-2-11 4 0 2 3 6 6 6l4-2zm315 0c0-3-6-15-11-22-5-8-9-13-11-12l-10 19 31 16 1-1zm-256-10c2-1 2-4 1-6l-16-1-16-1a645 645 0 0 1-49-45 2516 2516 0 0 1-61-55h-9c-2 2-2 2 9 12a606 606 0 0 0 50 46 3262 3262 0 0 1 44 39c12 12 11 11 26 12a2177 2177 0 0 1 21-1zm220-9c5-6 14-23 16-32 3-18 3-36-1-50-3-10-6-14-11-14-7 0-9 4-5 13 9 24 6 53-9 74-5 7-4 14 2 14 3 0 5-1 8-5zm-368-2c2-1 2-5 1-7l-5-1c-4 0-6 3-4 8 0 3 6 3 8 0zm-95-6c7-3 11-7 14-13 4-8 6-16 6-27 0-12-2-20-7-30-5-8-9-12-18-14-4-2-6-2-11-1-16 3-24 18-24 43 0 13 1 20 6 28 7 13 22 19 34 14zm-17-10c-6-3-8-5-10-10-6-12-7-31-2-43 4-7 5-9 10-11 6-3 10-3 15 1 10 8 13 17 13 36 0 10-1 12-3 17-5 11-16 15-24 10zm14-9c3-4 3-7-1-13-4-9-10-7-11 4 0 5 0 6 2 8 3 4 6 4 10 1zm-13-17c4-2 2-9-3-9-3 0-7 3-7 5s5 6 6 6l4-2zm20-4 2-4c0-3-1-4-6-4-4 0-5 0-6 2s-1 4 1 7c2 2 8 1 9-1zm-11-12c4-8 1-15-5-15-7 0-9 6-5 15 2 4 3 5 5 5s3-1 5-5zm255 46c1-6 1-6-13-6h-13l-4-3-22-20a11271 11271 0 0 0-40-37l-21-19h-7l-7 1 53 50c32 28 35 32 39 34l3 3h31l1-3zm4-14c2-5 0-6-14-6-13 0-12 1-26-12a2578 2578 0 0 0-62-54l-6 1a16375 16375 0 0 1 81 74l14 1h11l2-4zm240-3c7-5 8-6 6-10s-9-12-11-12l-2 6a134 134 0 0 1-3 19c0 2 3 1 10-3zm-230-18c2-2 2-4 2-5l-15-1-15-1-36-32c-10-10-12-11-16-12-7-1-7 1 0 8a431 431 0 0 0 40 38l10 9h28l2-4zm8-13 2-2c0-1 7-8 11-10a179 179 0 0 0 20-15l24-19c8-7 22-6-170-7l-177 1c-3 3-6 9-5 10l105 1 108 1c2 0 6 3 15 12a178 178 0 0 0 20 18l7 6c6 5 6 6 13 6 12 1 24 0 27-2zm218-10a414 414 0 0 0 14-35c-1-1-22 9-24 12v3l6 18c1 5 2 5 4 2zM23 605c11-6 15-8 16-10 8-22 14-35 20-46l3-5-5-6-8-10c-4-4-7-8-7-10 0-3 5-8 13-14l8-6-7-15-10-23-4-9-7-4-28-13c-3 3 15 37 26 50l5 6-7 7c-8 9-17 19-17 22 0 2 14 16 22 22 3 2 5 5 5 6l-5 8c-6 7-15 23-24 40-7 14-8 18-5 18l16-8zm553-9 6-6c2-3 3-4 2-5l-108-1H369l-2-3-4-2-6-5-7-7c-2 0-4-2-4-3l-5-5-10-10c-4-3-8-7-10-7l-18-1h-15l-4 5-10 8-9 7-7 5c-3 1-6 5-12 11l-8 6c-5 3-12 11-12 13s347 1 350 0zM71 581l9-7-2-8-2-9c-1-5-4-3-8 4s-11 22-11 25c0 2 3 1 14-5zm654 1a1335 1335 0 0 0 8-131c-4-5-8-8-14-9l-10 1c-5 3-7 5-9 11-2 7-2 15 1 45a1544 1544 0 0 1 6 71c0 3 1 5 4 7s4 2 5 1 3-13 3-32a885 885 0 0 1 5-72c1-9-1-19-4-22-2-3-3-6 0-6 2 0 7 4 8 8 3 6 2 12-5 93a62918 62918 0 0 0-2 35c1 3 4 2 4 0zm-340-3-3-4-9-8a873 873 0 0 0-44-39c-5-1-23-2-28-1-3 0-4 1-6 4-3 4-1 5 13 5 15 0 14-1 30 15l32 28h15zm33-1c0-2-15-16-45-43a3489 3489 0 0 1-23-21l-10-9h-16l-15 1-2 2c-2 4-1 5 12 6h12l9 8 20 18c48 44 44 40 52 40 5 0 6 0 6-2zm20 0a766 766 0 0 0-80-73l-16-15h-30l-1 4v5l15 1h14l21 19a1517 1517 0 0 1 52 48l14 13h5l6-2zm28 1a2425 2425 0 0 1-50-49 4050 4050 0 0 1-66-60l-18-1c-17 0-19 1-18 5 1 2 4 3 19 3h12l28 26a12007 12007 0 0 0 79 71c7 6 11 8 14 5zm-369-4c2-2 1-8-2-17a99 99 0 0 1 10-74c5-8 3-11-4-11-4 0-8 4-14 16-7 14-10 25-10 44 0 14 2 27 6 37 3 6 9 8 14 5zm429 1c10-6 12-21 3-30-4-5-9-6-19-6l-8-1 1-4c2-6 1-15-2-21-4-9-13-13-24-12-8 2-16 12-11 16 1 1 2 1 5-3 7-6 14-7 19-1 4 4 5 7 5 12 0 11-8 18-20 18-8 1-16-3-22-10-5-6-7-13-8-38s-3-32-8-40c-5-7-10-11-18-14-5-2-7-2-24-2l-19-1 2-5c4-7 4-13 3-20-1-8-4-13-9-18-7-6-11-8-23-11-13-4-17-6-23-12-4-5-5-6-5-9l2-7c2-3 1-7-3-8-3-1-7 2-9 6v9c3 11 11 20 26 25l6 3-4 6-7 9c-1 5-1 5 1 9 1 2 2 3 4 3s3 0 3-5c1-10 6-14 15-14 13 0 22 14 17 28-3 5-10 12-15 13-11 3-20 0-29-9-10-11-16-26-21-59-6-37-11-50-22-55-10-6-22-4-29 4-4 5-6 13-6 17 1 5 6 12 10 14 9 4 21 0 17-6l-5-1c-7 1-13-3-13-9 0-3 3-8 6-11l8-2c13 0 19 11 24 44 5 31 7 42 14 55 8 16 17 24 30 26 6 2 9 2 35 0h34c13 4 20 11 22 22 2 7 0 12-5 18s-9 8-14 8c-6 0-12-5-13-12-1-4 2-11 7-14 3-2 4-3 2-5-3-2-11 2-15 7-3 4-3 5-3 10 0 7 2 11 7 16 4 5 12 7 19 7 7-1 8-2 14-7 2-3 4-4 4-3l2 12c2 20 5 28 14 36 5 5 7 6 13 8 9 3 15 2 28-2 10-3 23-4 28-1 8 4 10 12 5 18-3 2-4 3-7 3s-4 0-6-4-5-4-6 0c-3 8 11 14 20 10zm57-6c18-8 24-35 14-58-7-17-17-25-31-24-8 1-13 4-18 11-7 10-10 21-8 34 2 19 12 34 25 38 5 1 13 1 18-1zm-18-8-12-14c-5-10-5-28-1-37 4-10 14-15 22-12 9 3 15 11 18 25 2 14 1 25-5 33-5 5-15 8-22 5zm14-8c2-4 1-11-3-17-2-3-3-3-6-3-2 1-3 0-3-2-1-5-9-6-12-1-2 4 4 9 8 7 3-2 3-1 2 4 0 7 1 12 5 13 4 2 7 1 9-1zm6-21 2-4c0-2-4-5-7-5s-5 2-5 6l1 4c2 2 6 1 9-1zm-13-7c1-2 3-12 2-14-1-6-8-9-11-5-3 3-3 7-1 12 3 7 7 10 10 7zm-499-4 1-11c-2-1-13 7-13 10 0 1 6 10 8 11s3 0 4-10zm455-20 4-7c1-5-1-20-3-26-2-5-6-11-8-10l1 8 1 14c0 7 0 7-4 10-4 4-5 6-4 10 0 2 4 5 7 5l6-4zm16-3c2-3 3-9 1-16-2-5-9-14-11-12v4l3 9c0 4 0 5-2 8-2 4-2 7 1 8 4 1 5 1 8-1zm-73-7c2-2 1-7-1-9-3-2-6-3-9 0-3 2-3 8 0 10 2 1 7 1 10-1zm130-1c5-5 1-13-7-13l-5-2c-2-2-6-14-5-15l1 2c1 3 6 6 9 6l4-2c3-3 0-8-4-9-4-2-5-3-7-9-2-7-4-6-3 3 0 6 0 6-1 5-3-2-4 0-4 8 0 16 7 28 16 28l6-2zm-519-1a318 318 0 0 1 8-15l-4-4a1814 1814 0 0 1-22-9c-2 1 2 10 10 22 4 8 6 9 8 6zm86-12c2-2 7-11 9-19 3-13 2-28-2-42l-7-11c-4-5-5-5-6-4l-2 5-3 17c-3 13-4 26-3 39 0 11 4 15 11 16l3-1zm349-1c2-2 2-11 1-17l-6-12c-2 0-2 1-2 9s0 11-4 17l2 3c2 2 6 2 9 0zm-393-2c4-1 5-2 5-3 0-3-7-12-11-15s-28-11-30-11c-5 2 6 19 14 21 4 1 8 3 12 7 3 4 3 3 10 1zm26-3c2-1 2-3-1-11-5-10-18-20-34-26l-12-4c-7-3-13-8-18-16l-3-5h-5l-6 2c-2 1 0 8 3 13 4 10 13 16 29 21 8 2 18 7 22 12l6 8c3 7 5 8 13 8l6-2zm230-3c3-2 3-7-1-10l-3-2-4 2c-2 2-3 3-3 6 0 7 6 9 11 4zm184-2a2773 2773 0 0 0 36-156l-13 1a475 475 0 0 1-225-17 1474 1474 0 0 1 102 92 627 627 0 0 1 35 29 2504 2504 0 0 1 63 55l2-4zm-23-30a3398 3398 0 0 0-21-18 1330 1330 0 0 1-55-48 1790 1790 0 0 1-38-34c-16-14-19-18-14-18l12 2a616 616 0 0 0 90 7 422 422 0 0 0 66-2 14549 14549 0 0 0-27 119c-1 2-3 1-13-8zm13-5 3-14 4-17a1826 1826 0 0 0 16-66c1-5 1-5-20-4-16 2-25 2-53 2-33-1-51-2-71-6-12-2-13-1-4 7l11 10a1661 1661 0 0 0 58 51c38 34 50 44 52 44s2-1 4-7zm-21-19a2653 2653 0 0 1-74-68l4-1a1140 1140 0 0 0 99-1c1 1-2 16-7 40a323416 323416 0 0 1-6 29l-4 11-12-10zm12-2 1-4c0-2-4-1-5 1l-3 1c-1 0-1 2 1 4 2 3 5 2 6-2zm-2-11c4-2 5-4 6-7 2-7 0-7-7-2l-7 6c0 1-4 1-9-1s-7-1-4 2 10 6 14 6l7-4zm0-14c7-5 9-7 10-10s1-5-1-5c-1 0-6 3-11 8l-12 7-12-5c-14-6-18-7-18-5 0 3 7 8 18 12l11 4 3 1c2 0 6-2 12-7zm0-14 13-11v-9l-19 14-10 7-16-6-39-15 5 6a207 207 0 0 0 52 23l14-9zm-8-10 10-8c3-2 2-4-1-4-4 0-11 4-14 8-3 3-5 3-16-2-8-4-11-4-18-5-8 0-9 0-8 1 1 2 35 16 38 16l9-6zm-7-8c2-2 1-3-3-3l-5 1c0 3 6 4 8 2zm-41 113c5-5 6-8 7-18l-1-15c-2-6-6-12-7-11v24c-1 3-5 7-7 7s-5 4-5 7c0 7 8 10 13 6zm17-2c3-3 3-3 3-9s-1-8-3-12l-6-9v11l-1 12c-3 3-2 7 0 8 3 3 4 2 7-1zm96-14c2-3 0-7-3-8-2-2-3-3-4-7-3-7-6-8-6-1 0 6 2 13 5 16s7 3 8 0zm-122-8c5-5 5-14 1-23l-5-7c-1 0-2 1-1 8 0 8 0 9-2 13-4 5-4 6 0 9 3 3 4 3 7 0zm133-1c3-2 2-7 0-9l-5-3c-4-2-8-7-10-13-2-5-3-6-4-3-2 5 2 22 7 27 3 3 10 4 12 1zm-159-11 4-4 2 2c3 3 6 3 9-1 5-5 2-20-5-27-3-2-3-2-4-1l1 6c2 5 2 15 0 16-2 2-2 1-3-7-1-9-4-20-7-23s-3-2-2 4 1 16-1 20l-5 5c-7 3-7 10-1 14 5 2 7 1 12-4zm275-2c6-3 8-9 8-17-1-7-3-11-8-15-5-3-13-4-18-2-4 2-10 8-11 13-2 9 1 19 7 22 6 4 15 3 22-1zm-16-2c-1-2-1-2 1-3 7-2 10-4 11-11 1-4-1-10-4-11l-2-3c0-2 4-1 8 2 2 2 6 9 6 12s-2 8-6 11c-4 4-12 5-14 3zm-313 0 3-5c1-5-7-8-11-4-2 3-2 3-1 7 3 4 6 5 9 2zm211-9 2-3-5-5c-2 0-8-7-8-9l-1-3h-2c-2 4 0 15 5 19 2 3 7 4 9 1zm-168-9c4-4 5-12 2-19l-4-8c-2-3-6-4-5-1l2 9c0 7 0 8-2 11-3 4-4 5-1 8 2 3 5 3 8 0zm171-2 2-2-3-3-7-11-3-6-1 7c0 8 4 16 9 17l3-2zm-534-1c7-3 11-12 9-19-2-4-4-6-7-6-4 0-7 2-7 7-1 4-3 3-4-2s-3-6-6-6c-6 2-8 14-4 21 4 5 13 7 19 5zm545-6c1-1 2-2 2-5 0-5-3-7-8-7-2 0-3-1-5-4l-5-9c-1-7-2-9-4-7s1 19 5 26c3 7 10 10 15 6zm-213-2c5-4 6-7 6-19 0-10-1-11-4-17l-5-8-1 13c0 13 0 14-2 16l-4 3c-1 0-5 5-5 7 0 4 4 8 9 8l6-3zm20-2c2-3 2-5 2-9-1-9-8-22-12-22-1 0-1 2 1 7 2 6 1 14-1 18-1 2-2 4-1 6 1 5 8 5 11 0zM57 379l2-4c0-2-4-5-7-7-4-1-4-3 0-4s6-3 6-6c0-5-12-8-19-4-8 5-8 20 0 25l9 2c5 0 7 0 9-2zm50 0c9-4 9-20 1-25-5-3-12-3-16 0-6 4-5 9 2 10 4 1 4 3-2 5-4 1-4 2-4 4s1 3 5 5c6 3 10 4 14 1zm513-2c0-2 0-3-3-5-3-3-6-6-7-12-1-3-3-2-3 1 0 5 4 16 6 18l4 2c2 0 3-1 3-4zm-541-3 7-7c0-2-9-14-11-14l-1-1c-2 0-15 12-15 15 0 2 6 10 10 12 2 2 3 1 10-5zm204 3c2-2 2-7 1-9-2-3-7-3-9-1l-2 4c-2 6 6 10 10 6zm115-4c4-2 5-7 5-13-1-6-8-21-10-21h-2l2 6c2 9 2 13-2 16-3 3-3 4-3 8s5 6 10 4zm224-8 2-4c0-2 0-3 5-3 6 1 8-1 8-6 0-3-4-7-8-7l-4-3c-2-3-7-15-7-18 0-2-2-4-3-3-1 2-2 10-1 16l5 12 3 8c-2 1-5-4-8-9-2-5-4-7-4-3-1 8 2 19 5 21 2 1 6 1 7-1zm-256-5c4-3 6-10 6-21 0-10-2-19-5-24-2-4-4-4-3 0l-1 23c-2 7-2 7-6 9-7 4-8 11-1 15 2 1 7 0 10-2zm22-6c1-5 1-9-2-17-2-5-4-9-6-9l-1 9-1 12c-3 5-2 9 1 11 4 2 8-1 9-6zm-318-6c2-5 3-5 5-1 1 2 2 2 5 2 2 1 3 0 5-4 2-5 2-10-1-15s-13-8-18-5c-10 5-12 16-4 24 2 3 6 2 8-2zm285-13c4-2 5-6 5-13 0-6 0-8-3-13-4-8-5-8-5 2 0 7 0 8-3 12l-4 5c0 2 2 6 4 7h6zm278-4c4-3 3-8-3-11-3-2-4-4-5-7-2-5-5-6-6-1s3 17 6 19h8zm-289-10 3-5c2-5-1-20-5-20l-1 5c0 3-2 9-5 11-4 4-4 5 0 9 2 2 5 2 8 0zm293-5c3-2 2-3-4-7-7-6-9-5-7 3 3 6 8 8 11 4zm-81-5c24-2 29-3 48-7 15-3 18-4 13-7-2-2-4-2-10-1h-9c-2-2-2-8 0-10 1-3 1-3-2-6-7-6-8-6-26-3a429 429 0 0 1-193-17c-9-3-10-2-11 3-1 2-1 2 3 4 6 2 6 3 4 7-2 7-3 7-8 6-6-3-8-2-10 1s-2 3-1 4a293 293 0 0 0 47 16 614 614 0 0 0 155 10zm-47-9c-2-2-3-8-1-10l9-1 7 1 1 4-1 6-7 2c-6 0-7 0-8-2zm-29 0c-3 0-4-1-2-8v-4h6l8 1c3 0 3 0 3 6l-1 6h-5l-9-1zm57-5 1-6c2-1 13-2 15-1 1 0 2 10 0 11l-9 1h-7v-5zm-84 3-6-1v-10c1-2 1-2 7-2 10 1 10 1 10 7 0 7-1 8-11 6zm116-2c-2-2-1-8 0-10l8-2c6 0 7 0 7 2v9l-8 2-7-1zm-148-3c-5-2-6-3-6-8 1-6 3-6 9-5 10 2 11 3 9 10-1 4-1 4-5 4l-7-1zm-30-8c-6-2-7-3-5-9l3-4 12 3c2 2 0 12-3 12l-7-2zm-58 20 2-4c0-2-1-3-5-3-5 0-8 1-8 4 0 5 7 7 11 3zm209-32c3-1 2-2-8-3-8-1-18-4-27-7l-13-2a509 509 0 0 1-116-21l-4 5c-3 6-3 6 11 10a338 338 0 0 0 96 19c11 1 59 1 61-1zm29-2c7-1 9-2 9-3l-2-3h-7c-9 4-12 5-18 5a479 479 0 0 0 18 1zm169-67 4-5c2-4 2-5 1-9-2-7-6-10-12-10-11 0-18 12-12 21 4 6 13 8 19 3zm-36 0c10-4 9-21-2-24-10-3-19 5-17 15 1 5 4 8 9 9 5 2 7 2 10 0zm14-27 20-31c0-3 0-3-11-22l-10-14-6 10a1213 1213 0 0 1-15 28l17 30c2 1 2 1 5-1zm-3-17c-3-3-9-14-9-16l4-8 5-8 2-3 3 3c3 3 9 13 9 16 0 4-3 9-7 13l-5 5-2-2zm-390-45c3-3 3-7-1-10-3-3-6-2-10 2-3 3-3 6 1 9 3 3 7 3 10-1zm52-91c3-3 3-8 0-11-4-5-13-1-13 6 0 3 4 7 7 7l6-2zm122 782 1-1h1l-1 1h-1zm40-34 1-2v2h-1zm-15-17 1-1h1l-1 2-1-1zm-10-15v-1l2 1h-2zm46-74 1-2 1 1-1 2-1-1zm93-32 1-2v2h-1zm-38-31 1-2v2h-1zm97-223c-2-1-1-3 4-5 8-3 10-9 9-23a2339 2339 0 0 0-8-95c2-1 3 2 4 12l6 53c5 37 5 48 0 54-5 4-11 6-15 4zm-11-70v-6l1-12 3-19-2 27c-1 11-1 12-2 10zm4-44 1-6h1c1 1 0 11-1 11l-1-5zm2-10c-1-2 1-19 2-19l-1 19h-1zM506 124h2c1 1 0 1-1 1l-1-1zM523 1V0l1 1v1l-2-1zm21 0h2l-1 1-1-1zm36 0 1-1 1 1-1 1-1-1zm36 0h2l-1 1-1-1z" transform="matrix(.159 0 0 .159 23 23)"/><path style="fill:#000;fill-opacity:1" d="m247 1242 1-1c2-1 12-21 12-23-1-1 0-3 2-4 4-3 7-9 7-11-1-1 1-3 3-5s3-4 3-7l2-4c3-2 5-4 5-7 0-1 1-4 3-5l5-7a1799 1799 0 0 1 51-92l2-5c2 0 4-3 4-6l2-4c2-2 8-12 8-15l2-4c3-1 8-9 8-13l3-5 5-8 4-6 1-5c0-4 0-4-3-6l-23-7a2337 2337 0 0 1-14-3c-22-5-43-8-65-8-12-1-13-1-23-5l-13-4c-25-6-43-5-54 5l-4 2-4-3-11-9-11-10-9-8-12-8-10-7-13-10a255 255 0 0 0-26-23c-2-3 2-4 5-1l9 8c6 4 8 5 9 4l1-3 2-6 4-17 4-18 3-10 6-24 11-44a1164 1164 0 0 1 19-70l1-14c2-18 6-30 12-37 4-4 13-9 17-9v-1l-8-1h-6l-5 6a457 457 0 0 1-17 23 976 976 0 0 0-22 30l-14-10a550 550 0 0 0-55-38 3658 3658 0 0 1 6 99c1 8 0 17-3 21l-6 8-4 4 3 3c7 5 10 9 11 15 1 3 2 7 1 9-1 5-5 12-9 16l-3 3 5 5c6 7 7 11 7 23l1 9 6 6 4 5c0 2-1 1-5-1-7-5-8-4-9 9a1001 1001 0 0 1-7 52 2752 2752 0 0 1-3 24 1186 1186 0 0 0-5 46c-2 7-1 8 7 6 4-2 6-2 9-1 7 2 12 9 11 17s-7 13-17 14l-6 1 7 14 6 15c0 3-16 30-24 41-1 2-1 2-3 0l-7-12a250 250 0 0 0-11-19l-4-8 2-4a353 353 0 0 1 15-27c0-2-1-2-6-2-6 0-9-1-14-7-4-5-4-13 0-18s9-7 15-7c10 2 10 2 9-5l-1-19a1128 1128 0 0 1-8-66 5934 5934 0 0 0-8-73l2-6-1-4-22-16-2-4c0-3 1-3 6 1 6 6 19 15 20 15l4-2 2-2-3-3c-10-9-11-23-1-35l5-7-3-3-7-8c-2-4-2-5-2-18a466 466 0 0 1 6-56 3523 3523 0 0 1 6-66c-1-2-4-5-13-10a187 187 0 0 0-17-9c-2-2-3-3-3-6v-3l4 3c1 2 6 4 9 6l53 33a2538 2538 0 0 0 19 14 563 563 0 0 1 43 31c2 0 5-4 11-12l10-15a525 525 0 0 1 34-45 1341 1341 0 0 1 74-79 106 106 0 0 0 49-63c2-6 2-10 2-25 0-22-1-29-9-46-6-12-13-20-37-43s-35-32-38-32-10 6-10 8 14 15 30 30c15 12 29 26 33 31a72 72 0 0 1 16 52c0 16 0 17-3 25-3 11-7 18-12 24-6 8-18 20-28 27a619 619 0 0 0-123 141 652 652 0 0 0-111-72l-9 3-7 3v-6c0-6 0-8 9-23a1098 1098 0 0 1 25-46l-10-10-14-14c-3-4-3-4-2-7l12-14 11-12-5-8a314 314 0 0 1-25-44l-1-7c0-4 0-5 2-4l41 19c15 8 26 12 29 12l7 3c6 3 9 4 9 2l-3-6c-3-5-3-7-3-11 1-4 1-4-4-9l-6-8-5-17c0-2-1-4-4-5l-5-5c-2-3-4-3-12-1-9 3-11 4-11 2l4-19-3-4c-4-4-6-10-6-14l2-6 4-6c4-5 4-2-5-31 0-3 1-2 12 2l11 5 5-3c4-4 8-6 14-6 5 0 9 2 12 6l4 3c0 1 6-1 11-4l12-4c2 0 1 2-2 9l-4 11-1 5 4 4c11 9 11 21 0 30-5 4-5 5-1 17l1 7-10-2c-9-4-10-4-13 1-1 2-1 3 1 8 3 5 8 11 12 13l11 4c14 3 32 13 35 19 3 3 4 3 4-1l4-22 3-17c1-7 1-9 3-11 3-2 6-2 9 1 3 2 10 13 11 16 3 11 5 18 5 25 1 7 1 9-2 20-7 22-11 26-20 22s-14-4-26-4c-15 1-24 3-27 8-9 12-16 38-15 54 1 10 5 22 8 26l2 4-2 5c-3 6-7 7-14 5-4-1-4-1-13 3a356 356 0 0 0-41 22c-16 8-17 9-7 14a598 598 0 0 1 83 55c10 9 13 11 15 11s3-2 18-23a265 265 0 0 1 23-32 1265 1265 0 0 0 32-36c17-19 34-36 49-47 12-9 23-19 29-27 5-7 12-21 13-28 2-8 2-27 1-37-4-21-16-39-29-47l-8-6a231 231 0 0 0-27-24l-10-9c-3-2-8-7-8-9l6-6a978 978 0 0 0 122-138c1-3 1-3-4-5l-7-4-8-3-8-3a241 241 0 0 0-48-14c-6-1-7-4-5-12a221 221 0 0 0 10-43l1-38-1-40a538 538 0 0 0-8-53c3 0 3 1 5 10l3 12 5 37a438 438 0 0 1-9 121l10 3a258 258 0 0 1 27 7c2-2 3-8 1-14-1-5-2-7-6-12-2-3-2-3-1-5 1-3 1-3 10-2 9 0 10 0 14-2 9-5 13-11 13-20 0-8-2-12-6-12-4 1-4 1-2 9 0 5 0 8-4 12-6 7-15 8-21 1-4-4-4-5-4-10 0-6 2-11 7-13 4-2 3-4-2-4-11-2-17-13-11-23 3-4 7-6 14-6 4 0 5 0 9 5 5 6 7 6 6-1l2-8c4-6 7-8 13-8 5 0 6 0 9 3 4 4 6 7 6 12 0 6-5 12-12 14-4 1-5 2-4 7l4 2c8 0 17-7 20-16l2-7c0-4-3-12-7-16-5-5-5-6-2-10 1-2 2-2 7-2 10 1 15 0 21-6 5-5 6-7 7-11 1-7 1-8-1-13-2-4-2-4-5-4-2 0-2 1-2 7 0 8-2 14-8 17-5 3-9 3-14 0s-7-7-7-14c0-4 1-5 4-9 3-6 4-7 1-7l-5-4c-4-4-5-11-3-16l1-4h53l-1 2c-1 5-3 7-8 9-4 2-5 5-3 8 4 5 20-6 22-15 0-3 1-4 2-4 2 0 2 1 1 3-1 5-4 11-8 15-4 3-11 7-14 7-4 0-4 1-2 7 2 7 1 16-2 22-5 10-15 15-30 16-2 0-1 3 1 6 3 4 5 13 4 19-1 13-8 19-26 26l-1 2c5 12 2 24-7 32-6 6-10 7-18 7h-7l2 7c3 6 3 7 3 15v9l4 1c5 2 7 2 9 1a2486 2486 0 0 0 68-122l11-21a1190 1190 0 0 0 31-52l2 1-5 9-7 13a922 922 0 0 1-39 70 3509 3509 0 0 1-57 104c0 2 9 7 15 9 3 1 4 0 11-13a3923 3923 0 0 1 62-108 1720 1720 0 0 0 46-84l30-1h29l-4 8c-3 5-5 9-4 10l-3 5c-4 4-7 9-7 12l-2 3c-3 2-5 6-5 9 0 1-1 4-3 5-3 2-3 4-3 6 1 2 0 3-2 4a671 671 0 0 1-29 47 8918 8918 0 0 1-17 31c-11 18-15 26-15 28l-3 5-3 6-2 4c-3 1-8 10-8 14 0 2-1 3-2 3-2 0-9 12-9 16 0 2-1 3-2 3-3 1-7 10-7 12v3c-3 3 0 4 30 12a395 395 0 0 0 74 11c5 0 11 1 26 6 25 9 46 9 60 0 4-3 7-3 9 0l2 2 9 6a732 732 0 0 0 40 30l14 12 9 7 3 2 12 10 10 9c0 3-6 0-17-8-10-8-12-9-14-8a601 601 0 0 0-22 88 6068 6068 0 0 0-20 82c-4 19-4 20-4 33 0 12 0 16-3 25s-9 16-18 20c-6 3-7 3-13 3-8-1-13-3-19-9s-11-15-13-24c-2-5-3-7-12-15a348 348 0 0 1-20-18 1685 1685 0 0 1-55-50l-28-25a5229 5229 0 0 0-27-23l-21-20a4336 4336 0 0 0-19-17 3479 3479 0 0 1-19-18 8186 8186 0 0 0-64-57c-2 0-44 43-44 44l17 18 29 28a102 102 0 0 1 35 61l3 11c1 1 4 2 18 2l18 2a246 246 0 0 1 30 26 1772 1772 0 0 1 40 37 593 593 0 0 1 11 9l39 37 6 5h108c3-1 5-2 8-6a1104 1104 0 0 1 28-39l12-16c1-1 3 0 7 3l6 5a572 572 0 0 0 55 41c2 0 2-1 2-7a1716 1716 0 0 0-8-93c0-15 0-17 9-25l5-5-4-2-7-6c-3-4-6-12-6-17 0-6 5-15 10-18l4-4-4-4c-5-5-8-12-8-22 0-9-1-12-5-14-3-3-3-5 1-5 8 2 7 3 9-14l3-17v8a765 765 0 0 0-1 15l-3 20c-1 7 0 15 2 20 3 4 9 9 14 10 10 2 19-3 22-13 1-5 0-23-2-43a2207 2207 0 0 1-8-63l-8-65c-2-2-4 6-6 25l-1 7c-1 2-1-9 1-19 1-8 0-9-6-7-9 2-14 1-19-5-4-4-5-11-3-15 2-5 7-10 12-11h8c5 2 5 2 6 0l-7-14-7-14c-1-3 1-7 6-16a435 435 0 0 0 16-28c2-2 3 0 14 19l5 9c5 8 6 12 5 14a410 410 0 0 1-18 30c-1 2 0 2 9 0 16-2 24 22 9 31-3 2-5 2-9 2l-7-1c-3-2-4 2-3 8a628 628 0 0 1 7 54 3171 3171 0 0 1 9 71 147 147 0 0 1 0 37l23 18c2 1 3 6 1 6l-5-3c-8-7-21-15-22-15l-5 2-2 3 3 4c6 6 8 12 8 20-1 8-3 11-10 17l-5 4 2 2c16 12 16 13 12 57a2759 2759 0 0 0-7 92c1 2 25 16 29 18 3 1 3 1 3 10 0 7 0 9-3 15a261 261 0 0 1-32 54l-1 3 11 11 14 15c3 5 3 5 1 8l-12 13-10 11 6 10a127 127 0 0 1 11 16 256 256 0 0 1 14 25v15l-1-1a671 671 0 0 0-83-38c-3-2-3-1-2 8l2 13c0 3 1 4 5 9 6 6 10 12 12 20 2 6 10 16 13 16l9-2c12-5 12-4 9 8-2 8-3 11-1 11s7 6 9 10c2 8 1 12-5 18l-4 6 4 12c4 15 4 16-10 9l-10-5-5 4c-5 8-15 11-23 5l-5-5c-1-2-2-3-5-3l-7 1c-9 3-10 3-11 1-1-1 0-4 2-10l2-9-4-4c-5-4-7-7-8-13 0-7 2-11 8-16 6-4 6-5 3-15-1-4-2-7-1-8 0-2 5-1 9 1 6 3 8 3 9 0 3-3 2-6-1-12-4-6-12-13-20-14-10-2-20-7-30-14-8-6-9-6-9 3l-2 9c-4 10-5 15-6 23 0 7-1 8-3 10-3 3-7 2-12-3-7-6-13-24-13-37 0-9 2-17 7-31 4-10 5-11 8-13 2-1 3-1 7 1l18 2c11 0 15 0 21-2 9-2 11-3 15-10 8-12 13-27 15-41 1-10-2-25-7-34-2-4-1-8 3-12 3-3 5-4 11-2 4 1 4 1 21-8a7752 7752 0 0 1 30-15l15-8c2-2 0-5-3-6l-5-3-9-6a664 664 0 0 1-86-60c-2 0-5 3-13 15a611 611 0 0 1-119 130 85 85 0 0 0-33 47c-3 10-3 30-1 41 4 15 17 37 25 42l12 10a5158 5158 0 0 0 43 43l-8 8c-39 36-85 87-110 122-9 14-10 17-5 18l6 3 7 3 6 3c5 3 39 14 53 16 7 1 7 0 2 25a484 484 0 0 0-8 73c1 24 1 29 5 46l1 12 1 4 1 5 3 12c4 11 4 13 0 13-3 0-4 0-5-6-11-49-11-55-11-90a242 242 0 0 1 9-82c1-3 1-4-1-5l-4-2-25-6c-5-2-6-2-6 5 0 6 1 9 6 15 3 4 4 8 1 10-2 1-3 2-5 1l-9-1c-6 0-15 4-19 9-3 5-4 14-3 19 2 9 7 7 6-2 0-4 0-6 2-9 5-7 12-8 20-4 5 2 7 6 7 12 0 5 0 7-2 10-4 4-4 4 0 6 9 5 12 15 7 23-4 6-14 8-20 3l-4-3c0-1-4-5-5-4l-1 4c1 4-1 9-5 12-4 4-12 5-17 2-4-1-8-7-8-12 0-7 7-15 13-15 3 0 6-3 6-4-1-2-8-3-12-1-8 2-15 13-15 22 0 6 4 14 7 16 5 3 6 6 2 10h-6c-8-2-17 1-23 7-4 4-5 8-5 14 0 5 2 12 4 12 3 0 4-2 4-8s0-7 2-10l7-5c3-2 5-2 8-1 6 2 10 6 11 11 1 6 0 11-6 16-5 4-5 5 0 7 7 3 11 14 8 21l-1 3h-54v-2c0-4 4-11 6-12l6-3c5 0 6-2 4-5-1-3-1-3-5-3-9 2-17 11-19 20 0 3-1 5-2 5-2 0-2-3-1-7 3-12 10-19 22-22 4-1 4-1 3-3l-1-11c0-6 0-8 2-12 4-11 11-15 24-16l9-1-3-4c-7-8-8-16-5-25 3-10 11-18 21-20 10-1 10-1 7-8-3-6-3-15 1-22 5-11 12-14 25-15l8-1-2-5c-4-4-5-10-5-17v-6l-13-4-6 7a20784 20784 0 0 1-110 192h-3l4-8a175 175 0 0 1 12-21l12-22a27840 27840 0 0 0 35-62 7063 7063 0 0 1 49-89c-1-2-13-9-16-9l-8 11-5 9a2957 2957 0 0 0-74 130 1150 1150 0 0 1-31 55l-3 6h-28l-27-1zm152-17c4-5 2-10-3-12-6-2-12 1-12 7 0 7 9 10 15 5zm51-93c4-5 2-11-4-13-4 0-7 1-9 5s-1 7 3 8c4 3 7 2 10 0zm-402-11c5-8 15-24 16-28 1-2 0-4-7-20l-10-18-3 2c-2 1-10 14-15 24a200 200 0 0 1-4 6l-2 5c0 3 18 35 20 35l5-6zm-12-17-5-12c0-4 12-21 14-21l6 9c7 11 7 13 0 24-8 12-8 12-15 0zm12-5c2-2 3-6 3-7 0-4-5-12-7-12-2 1-8 10-8 13s5 11 7 11l5-5zm18-42c6-2 9-6 9-12 0-5 0-6-4-9-3-4-4-4-9-4s-6 0-9 3-3 4-3 9c0 6 3 11 7 13h9zm-27-4c3-3 3-3 3-9-1-7-3-10-8-12-9-3-18 2-18 12 0 9 5 13 14 13 5 0 6 0 9-4zm12-48a4777 4777 0 0 1 14-124c2-11 0-19-5-24-8-9-23-9-30 0-6 6-6 8-2 45a6434 6434 0 0 0 16 124c1 4 2 6 3 5l4-26zm-8-19-3-16a1168 1168 0 0 0-7-62c-1-8-3-38-2-41 2-6 10-13 15-11 3 1 2 2-3 7-4 4-5 5-6 9-1 5 1 32 5 70 4 36 4 46 3 46l-2-2zm347 5c2-5 2-5-9-8a451 451 0 0 0-154-21c-5 2-3 3 7 5l17 5c6 2 10 3 22 3 27 2 32 2 53 6a463 463 0 0 1 60 15l4-5zm5-11c3-4 2-6-3-8s-5-3-2-10c1-4 3-5 10-2l5 1 2-2c4-5 3-6-12-11a485 485 0 0 0-230-18c-19 4-26 6-26 7l5 5c6 4 5 4 15 2h6l2 5c1 3 1 4-1 5-2 3-1 5 2 7 4 2 9 3 24 1a454 454 0 0 1 187 17c14 4 14 4 16 1zm-28-16c-7-2-8-3-6-9 2-7 2-7 11-5 9 3 10 4 7 10-2 6-3 7-12 4zm-28-7-5-1-4-1v-6c1-8 2-8 11-6 10 2 11 2 8 9-1 5-2 6-5 6l-4-1zm-160-5c-2-2-1-12 1-13h8l7-1 1 4c1 5 1 9-2 9-5 2-14 2-15 1zm127 0c-9-2-9-2-8-7 1-9 0-8 8-8l10 2c3 1 3 1 3 6-2 9-2 9-13 7zm-97-4-1-6c0-5 0-5 3-6h9l6-1v6l-1 7h-16zm61 0c-2 0-2-1-2-7 0-7 1-7 11-6h7v13l-7 1-9-1zm-32-1v-7l1-6h7c8 0 9 1 8 8l-1 5-7 1-8-1zm-50 23c6-3 6-4 2-4-5 0-10 1-10 3 0 1 2 3 4 3l4-2zm235-33c-1-6-1-7 1-9l4-4c3-1 3-4 1-7-3-3-8-3-12 0-4 5-4 17 2 24 4 5 4 4 4-4zm-28 4-8-9a733 733 0 0 0-43-38 2208 2208 0 0 0-53-49 1081 1081 0 0 0-12-10 840 840 0 0 1-51-46l-24-22a5412 5412 0 0 0-41 157c0 3-2 3 27-1 31-4 40-4 66-4a433 433 0 0 1 139 22zm-55-24-45-6-28-2a638 638 0 0 0-91 3 545 545 0 0 1 25-99c5-21 7-25 9-26l12 10a2643 2643 0 0 0 117 107l14 14c0 1-5 1-13-1zm-2-6-2-4a4853 4853 0 0 0-88-80 6121 6121 0 0 1-25-22l-12-10c-2 0-2 2-8 24l-12 45c-11 43-11 42-9 43h12a831 831 0 0 1 144 4zm-64-18h-52c-28 1-29 1-27-4a686 686 0 0 0 15-57 4949 4949 0 0 0 4-15l3-4a1392 1392 0 0 0 85 77c3 3 3 5 0 5l-28-2zm-49-11 9-7 23 9c8 3 11 4 16 4l6-1c0-1-45-19-48-19-2 0-15 12-20 17-1 2 0 3 3 3l11-6zm24 4c0-1-11-6-15-6-2 0-9 6-8 7 0 1 22 1 23-1zm-40-5 22-18 11 4 38 15c4 1 6 0 4-3-2-2-9-5-34-15l-22-8c-3 0-24 19-26 24-3 7-1 8 7 1zm8-22c5-5 9-8 11-8l17 7c17 6 22 8 22 6s-9-8-16-11a343 343 0 0 1-25-9c-3 0-19 13-19 16l-2 4c-1 4 4 2 12-5zm1-15c5-6 7-6 16-2 10 4 14 5 11 1-2-3-18-11-22-11-3 0-10 6-11 10-3 7 0 8 6 2zm1-15 3-1c3 0 4-3 1-5-3-3-6-2-8 2v4h4zm221 109c3-3 3-6 0-8-5-3-12 2-11 8 1 2 1 2 5 2l6-2zm71-22 21-22a706 706 0 0 1-61-62c-4-5-6-7-11-17-3-5-9-24-10-32l-3-9-18-2c-18 0-20-1-25-5a234 234 0 0 0-25-23 2714 2714 0 0 0-88-81l-6-5h-44a418 418 0 0 0-45 2c3 0 11 4 15 8 6 5 13 18 13 23 0 7 4 11 38 41a1117 1117 0 0 1 59 54 1583 1583 0 0 1 56 51 5168 5168 0 0 0 112 100l22-21zm-99 11c-1-9 0-9 4-16 2-1-1-6-3-8h-6c-6 3-7 10-5 20 2 5 7 13 9 13l1-9zm-276 5c1-2-1-8-4-10h-8c-2 3 0 6 5 9 6 2 6 2 7 1zm8-10c-1-7-5-15-8-17h-6c-5 3-4 8 2 10 2 0 4 1 4 3 5 10 8 12 8 4zm255-1-1-8c-2-11 1-20 8-22 6-2 8-7 4-11-3-4-5-4-10-3-3 1-4 2-7 6-3 5-4 8-4 18 0 8 1 12 5 18 2 3 5 4 5 2zm-250-9c0-9-6-27-12-30-6-4-12-2-12 4 0 3 3 6 8 7s8 6 12 21c1 6 3 5 4-2zm550-2c3-3 4-5 5-9 0-4 0-5-2-9-2-3-4-4-5-4-4 0-6 3-6 8 0 4-2 4-3-1 0-2-2-4-3-5l-2-2-4 3c-3 3-3 5-3 9 0 6 2 10 5 12 7 4 13 3 18-2zm-314 0-2-7c-3-8-3-12 1-15 4-4 4-6 0-9s-8-2-11 3 0 17 6 24l5 4h1zm341-6-5-11-7-3-7-2c-3-1-2 0 0 7 2 6 3 6 10 10l8 2 1-3zm-60-1 5-3 2-6c2-6 1-7-5-5l-6 3c-2 1-5 9-5 12 0 1 4 1 9-1zm-514-13c-1-8-4-17-7-19s-7 1-7 5c0 2 1 3 3 5 3 1 4 3 6 10l4 9c1 2 1-2 1-10zm217-4c0-7 0-8 3-10 3-3 4-6 1-9-1-1-2-2-5-2-8 0-12 11-7 21 2 5 6 9 7 8l1-8zm173-1c3-2 4-4 4-5l-28-29c-16-14-30-29-33-32a90 90 0 0 1-11-87c7-16 18-28 38-42a574 574 0 0 0 124-143l8 5 34 26c22 17 64 43 68 43s14-6 14-8a920 920 0 0 1-109-76c-15-14-17-14-21-8l-14 19a7374 7374 0 0 0-15 22c-3 4-7 10-10 12l-10 14a456 456 0 0 1-95 93 110 110 0 0 0-32 96c2 11 9 28 14 36l12 16c8 8 46 46 52 50 4 3 5 3 10-2zm127-1c3-2 5-3 5-5 0-3 0-3-5-6-6-2-7-4-2-4 3 0 7-3 7-5l-3-4c-2-2-3-2-8-2-10 0-15 5-15 13 0 6 2 11 7 13 5 3 9 2 14 0zm28-5c5-3 8-7 8-7 0-3-11-14-13-14s-17 12-17 13c0 3 11 15 13 15l9-7zm28 4c9-4 9-18 1-23-5-3-10-3-15 0-8 4-6 9 3 10 6 1 6 3 0 3-8 1-10 4-6 9 2 4 11 5 17 1zm-568-2c-1-4-6-20-8-22h-6c-2 2-1 6 2 8 2 1 5 5 7 10 3 7 6 9 5 4zm200 0-2-14c0-11 1-14 7-16 6-3 8-8 3-13-6-6-14-3-17 7-4 11-1 27 5 36 2 4 4 4 4 0zm-13-7-2-6-2-10c-1-5-1-6 2-9 4-6 3-11-4-11-6 0-8 3-7 12 0 9 2 15 7 21 3 3 6 4 6 3zm-184-5c0-20-11-36-21-31l-2 4c0 4 1 6 6 6 3 1 5 2 6 4 2 2 6 12 8 19 1 4 3 2 3-2zm4-13c2-2 1-6-2-15-2-7-3-9-5-10-7-3-10 4-3 8 2 2 3 3 6 10 2 9 3 10 4 7zm163-7c0-8 0-9 3-12 3-4 3-6 0-9s-7-3-10 0c-2 3-3 14-1 21 1 4 5 9 7 9l1-9zm360 6 2-6c0-5 1-5 3 0 3 7 6 7 10 1 5-11-6-22-18-19-4 1-8 6-10 12-1 5 5 14 10 14l3-2zm26-1c6-2 7-3 8-7 2-8 1-9-8-5-5 1-5 1-7 7v8l7-3zm-43-5c0-5-2-8-6-10-5-2-6-1-5 5 1 5 2 7 7 9 4 1 5 1 4-4zm-355-15c1-14 1-16 7-18l6-4v-6c-4-7-13-6-18 1l-3 4-1-3-3-4c-9-2-13 7-9 21 2 6 7 13 9 13s2 0 1-2l-2-15c0-4 0-5 2-7l3-2-1 10 1 15c1 4 6 10 7 10l1-13zm-260 8c4-2 9-10 10-16 1-11-8-20-18-21-8 0-12 1-16 6-9 9-7 25 2 31 7 3 15 4 22 0zm-20-8c-4-4-4-5-4-9 0-6 2-10 6-13 3-3 8-4 12-2s2 5-3 5l-6 3c-4 5-4 9 1 14s5 6 1 6c-2 0-4-1-7-4zm133 9c0-5-3-20-5-22-1-3-2-4-5-4-5 0-7 2-5 6l3 4c3 1 5 3 7 8 2 8 3 9 4 9l1-1zm432-15 3-13c4-9 5-16 5-29 1-18-3-26-11-26-3 0-6 3-9 10-8 21-8 40 0 56 3 6 5 8 8 9s4 0 4-7zm-428-2c1-6 0-12-4-21-3-7-5-8-8-10-8-3-16 4-10 10l5 2 4 1c2 1 7 10 9 17l3 6 1-5zm513-1c4 0 5-1 6-2 0-3-7-15-13-20-4-4-7-6-21-11-13-6-25-15-30-23-3-6-5-7-9-7-9 0-10 4-5 15 6 12 12 16 42 28 10 4 17 9 19 15 4 7 3 6 11 5zm-396-10c0-8 0-9 3-12s4-6 1-8c-3-3-7-3-10 0-2 1-3 3-3 8l1 10c1 4 5 10 7 10l1-8zm-113-10c0-12-4-21-9-19-6 1-6 8-1 11 3 1 4 3 6 9a308 308 0 0 1 3 7l1-8zm101-2c-1-12 0-16 6-20 7-5 8-11 1-15-3-2-8-1-12 4l-4 4 1 13c0 11 0 13 2 17s4 6 5 6l1-9zm481-1a177 177 0 0 0-34-56l13-13 12-14c0-3-19-23-27-27-3-2-3-4 2-10 8-9 20-28 26-41 7-14 8-18 5-18-2 0-31 15-32 17l-1 6c-2 8-8 25-14 37l-5 11 3 4a400 400 0 0 0 17 23c0 2-9 11-16 16l-6 5 5 9c6 9 13 23 16 32l2 6 15 7 17 8 2-2zm-491-1-4-16 3-6c3-4 3-7 0-9-5-4-10-1-11 4-2 10 5 29 11 29l1-2zm-215-6c4-2 5-3 8-7 3-5 4-10 3-22l-2-29-7-75-8-4c-2 1-3 11-5 39a1594 1594 0 0 1-5 65c0 17 1 21 6 25 4 3 2 6-4 3l-5-5c-2-4-2-6-2-18l1-30a18786 18786 0 0 0 6-81l-6 40-3 37c-5 45-5 45-4 51 2 6 7 12 10 12 7 2 13 2 17-1zm129-4 1-10c3 0 4-10 1-18-5-14-13-20-20-16-3 2-4 3-4 6 0 4 3 6 8 6h5c2 2 7 9 8 14 2 7 1 8-2 3s-8-7-12-3v5c0 1 2 3 4 3 3 1 5 4 7 12l3 5 1-7zm71-11c0-9 0-10 2-12 4-4 2-8-3-10-4 0-7 2-8 6-1 6 5 26 8 26l1-10zm420 6c0-8-5-16-14-19l-8-4c-1-2-3-3-5-3-5 0-13 2-14 4s3 8 7 12c9 7 26 14 31 14 2 0 3-1 3-4zm-431-7-2-8c-1-6-1-14 1-20l5-4c6-3 7-9 2-13-3-4-11-1-14 4-1 4-2 4-5 1s-8-2-11 2 0 18 6 25c2 2 5 3 5 2l-2-6v-13c3-5 4-3 4 6 1 9 4 19 8 23 1 2 3 3 3 1zm461-3c0-3-6-15-11-22-5-8-9-13-11-12l-10 19 31 16 1-1zm-256-10c2-1 2-4 1-6l-16-1-16-1a645 645 0 0 1-49-45 2516 2516 0 0 1-61-55h-9c-2 2-2 2 9 12a606 606 0 0 0 50 46 3262 3262 0 0 1 44 39c12 12 11 11 26 12a2177 2177 0 0 1 21-1zm220-9c5-6 14-23 16-32 3-18 3-36-1-50-3-10-6-14-11-14-7 0-9 4-5 13 9 24 6 53-9 74-5 7-4 14 2 14 3 0 5-1 8-5zm-463-8c7-3 11-7 14-13 4-8 6-16 6-27 0-12-2-20-7-30-5-8-9-12-18-14-7-2-14-1-20 3s-9 8-12 15c-6 18-5 40 3 53s22 18 34 13zm-17-10c-6-3-8-5-10-10-6-12-7-31-2-43 4-7 5-9 10-11 6-3 10-3 15 1 10 8 13 17 13 36 0 10-1 12-3 17-5 11-16 15-24 10zm14-9c3-4 3-7-1-13-4-9-10-7-11 4 0 5 0 6 2 8 3 4 6 4 10 1zm-13-17c4-2 2-9-3-9-3 0-7 3-7 5s5 6 6 6l4-2zm20-4 2-4c0-3-1-4-6-4-4 0-5 0-6 2s-1 4 1 7c2 2 8 1 9-1zm-11-12c4-8 1-15-5-15-7 0-9 6-5 15 2 4 3 5 5 5s3-1 5-5zm255 46c1-6 1-6-13-6h-13l-4-3-22-20a11271 11271 0 0 0-40-37l-21-19h-7l-7 1 53 50c32 28 35 32 39 34l3 3h31l1-3zm4-14c2-5 0-6-14-6-13 0-12 1-26-12a2578 2578 0 0 0-62-54l-6 1a16375 16375 0 0 1 81 74l14 1h11l2-4zm240-3c7-5 8-6 6-10s-9-12-11-12l-2 6a134 134 0 0 1-3 19c0 2 3 1 10-3zm-230-18c2-2 2-4 2-5l-15-1-15-1-36-32c-10-10-12-11-16-12-7-1-7 1 0 8a431 431 0 0 0 40 38l10 9h28l2-4zm8-13 2-2c0-1 7-8 11-10a179 179 0 0 0 20-15l24-19c8-7 22-6-170-7l-177 1c-3 3-6 9-5 10l105 1 108 1c2 0 6 3 15 12a178 178 0 0 0 20 18l7 6c6 5 6 6 13 6 12 1 24 0 27-2zm218-10a414 414 0 0 0 14-35c-1-1-22 9-24 12v3l6 18c1 5 2 5 4 2zM23 605c11-6 15-8 16-10 8-22 14-35 20-46l3-5-5-6-8-10c-4-4-7-8-7-10 0-3 5-8 13-14l8-6-7-15-10-23-4-9-7-4-28-13c-3 3 15 37 26 50l5 6-7 7c-8 9-17 19-17 22 0 2 14 16 22 22 3 2 5 5 5 6l-5 8c-6 7-15 23-24 40-7 14-8 18-5 18l16-8zm553-9 6-6c2-3 3-4 2-5l-108-1H369l-2-3-4-2-6-5-7-7c-2 0-4-2-4-3l-5-5-10-10c-4-3-8-7-10-7l-18-1h-15l-4 5-10 8-9 7-7 5c-3 1-6 5-12 11l-8 6c-5 3-12 11-12 13s347 1 350 0zM71 581l9-7-2-8-2-9c-1-5-4-3-8 4s-11 22-11 25c0 2 3 1 14-5zm654 1a1335 1335 0 0 0 8-131c-4-5-8-8-14-9-9-1-18 4-20 12-1 3 0 21 2 45a1315 1315 0 0 1 6 71c0 3 1 5 4 7s4 2 5 1 3-13 3-32a885 885 0 0 1 5-72c1-9-1-19-4-22-2-3-3-6 0-6 2 0 7 4 8 8 3 6 2 12-5 93a62918 62918 0 0 0-2 35c1 3 4 2 4 0zm-340-3-3-4-9-8a873 873 0 0 0-44-39c-5-1-23-2-28-1-3 0-4 1-6 4-3 4-1 5 13 5 15 0 14-1 30 15l32 28h15zm33-1c0-2-15-16-45-43a3489 3489 0 0 1-23-21l-10-9h-16l-15 1-2 2c-2 4-1 5 12 6h12l9 8 20 18c48 44 44 40 52 40 5 0 6 0 6-2zm20 0a766 766 0 0 0-80-73l-16-15h-30l-1 4v5l15 1h14l21 19a1517 1517 0 0 1 52 48l14 13h5l6-2zm28 1a2425 2425 0 0 1-50-49 4050 4050 0 0 1-66-60l-18-1c-17 0-19 1-18 5 1 2 4 3 19 3h12l28 26a12007 12007 0 0 0 79 71c7 6 11 8 14 5zm-369-4c2-2 1-8-2-17a99 99 0 0 1 10-74c5-8 3-11-4-11-4 0-8 4-14 16-7 14-10 25-10 44 0 14 2 27 6 37 3 6 9 8 14 5zm486-5c18-8 24-35 14-58-7-17-17-25-31-24-8 1-13 4-18 11-5 6-6 11-8 20-2 11 2 29 8 40 3 5 5 6 12 10s16 4 23 1zm-18-8-12-14c-5-10-5-28-1-37 4-10 14-15 22-12 9 3 15 11 18 25 2 14 1 25-5 33-5 5-15 8-22 5zm14-8c2-4 1-11-3-17-2-3-3-3-6-3-2 1-3 0-3-2-1-5-9-6-12-1-2 4 4 9 8 7 3-2 3-1 2 4 0 7 1 12 5 13 4 2 7 1 9-1zm6-21 2-4c0-2-4-5-7-5s-5 2-5 6l1 4c2 2 6 1 9-1zm-13-7c1-2 3-12 2-14-1-6-8-9-11-5-3 3-3 7-1 12 3 7 7 10 10 7zm-499-4 1-11c-2-1-13 7-13 10 0 1 6 10 8 11s3 0 4-10zm455-20 4-7c1-5-1-20-3-26-2-5-6-11-8-10l1 8 1 14c0 7 0 7-4 10-4 4-5 6-4 10 0 2 4 5 7 5l6-4zm16-3c2-3 3-9 1-16-2-5-9-14-11-12v4l3 9c0 4 0 5-2 8-2 4-2 7 1 8 4 1 5 1 8-1zm57-8c5-5 1-13-7-13-4 0-6-3-8-8a2778 2778 0 0 0 1-5c5 5 9 5 11 2 3-3 0-8-4-9-4-2-5-3-7-9-2-7-3-6-3 2 0 4-1 5-2 5-2 0-3 2-3 9 0 16 7 28 16 28l6-2zm-519-1a318 318 0 0 1 8-15l-4-4a1814 1814 0 0 1-22-9c-2 1 2 10 10 22 4 8 6 9 8 6zm86-12c2-2 7-11 9-19 3-13 2-28-2-42l-7-11c-4-5-5-5-6-4l-2 5-3 17c-3 13-4 26-3 39 0 11 4 15 11 16l3-1zm349-1c2-2 2-11 1-17l-6-12c-2 0-2 1-2 9s0 11-4 17l2 3c2 2 6 2 9 0zm-393-2c4-1 5-2 5-3 0-3-7-12-11-15s-28-11-30-11c-5 2 6 19 14 21 4 1 8 3 12 7 3 4 3 3 10 1zm26-3c2-1 2-3-1-11-5-10-18-20-34-26l-11-4c-8-3-14-8-19-16l-3-5h-5l-6 2c-2 1 0 8 3 13 4 10 13 16 30 21 7 2 17 7 21 12l6 8c3 7 5 8 13 8l6-2zm414-5a2773 2773 0 0 0 36-156l-13 1a475 475 0 0 1-225-17 1474 1474 0 0 1 102 92 627 627 0 0 1 35 29 2504 2504 0 0 1 63 55l2-4zm-23-30a3398 3398 0 0 0-21-18 1330 1330 0 0 1-55-48 1790 1790 0 0 1-38-34c-16-14-19-18-14-18l12 2a616 616 0 0 0 90 7 422 422 0 0 0 66-2 14549 14549 0 0 0-27 119c-1 2-3 1-13-8zm13-5 3-14 4-17a1826 1826 0 0 0 16-66c1-5 1-5-20-4-16 2-25 2-53 2-33-1-51-2-71-6-12-2-13-1-4 7l11 10a1661 1661 0 0 0 58 51c38 34 50 44 52 44s2-1 4-7zm-21-19a2653 2653 0 0 1-74-68l4-1a1140 1140 0 0 0 99-1c1 1-2 16-7 40a323416 323416 0 0 1-6 29l-4 11-12-10zm12-2 1-4c0-2-4-1-5 1l-3 1c-1 0-1 2 1 4 2 3 5 2 6-2zm-2-11c4-2 5-4 6-7 2-7 0-7-7-2l-7 6c0 1-4 1-9-1s-7-1-4 2 10 6 14 6l7-4zm0-14c7-5 9-7 10-10s1-5-1-5c-1 0-6 3-11 8l-12 7-12-5c-14-6-18-7-18-5 0 3 7 8 18 12l11 4 3 1c2 0 6-2 12-7zm0-14 13-11v-9l-19 14-10 7-16-6-39-15 5 6a207 207 0 0 0 52 23l14-9zm-8-10 10-8c3-2 2-4-1-4-4 0-11 4-14 8-3 3-5 3-16-2-8-4-11-4-18-5-8 0-9 0-8 1 1 2 35 16 38 16l9-6zm-7-8c2-2 1-3-3-3l-5 1c0 3 6 4 8 2zm-41 113c5-5 6-8 7-18l-1-15c-2-6-6-12-7-11v24c-1 3-5 7-7 7s-5 4-5 7c0 7 8 10 13 6zm17-2c3-3 3-3 3-9s-1-8-3-12l-6-9v11l-1 12c-3 3-2 7 0 8 3 3 4 2 7-1zm96-14c2-3 0-7-3-8-2-2-3-3-4-7-3-7-6-8-6-1 0 6 2 13 5 16s7 3 8 0zm-122-8c5-5 5-14 1-23l-5-7c-1 0-2 1-1 8 0 8 0 9-2 13-4 5-4 6 0 9 3 3 4 3 7 0zm133-1c3-2 2-7 0-9l-5-3c-4-2-8-7-10-13-2-5-3-6-4-3-2 5 2 22 7 27 3 3 10 4 12 1zm-159-11 4-4 2 2c3 3 6 3 9-1 5-5 2-20-5-27-3-2-3-2-4-1l1 6c2 5 2 15 0 16-2 2-2 1-3-7-1-9-4-20-7-23s-3-2-2 4 1 16-1 20l-5 5c-7 3-7 10-1 14 5 2 7 1 12-4zm275-2c6-3 8-9 8-17-1-7-3-11-8-15-6-4-14-4-20-1-9 6-13 15-10 24 2 5 8 11 11 11l4 1c4 1 10 0 15-3zm-16-2c-1-2-1-2 1-3 7-2 10-4 11-11 1-4-1-10-4-11l-2-3c0-2 4-1 8 2 2 2 6 9 6 12s-2 8-6 11c-4 4-12 5-14 3zm-102-9 2-3-5-5c-2 0-8-7-8-9l-1-3h-2c-2 4 0 15 5 19 2 3 7 4 9 1zm-168-9c4-4 5-12 2-19l-4-8c-2-3-6-4-5-1l2 9c0 7 0 8-2 11-3 4-4 5-1 8 2 3 5 3 8 0zm171-2 2-2-3-3-7-11-3-6-1 7c0 8 4 16 9 17l3-2zm-534-1c7-3 11-12 9-19-2-4-4-6-7-6-4 0-7 2-7 7-1 4-3 3-4-2s-3-6-6-6c-6 2-8 14-4 21 4 5 13 7 19 5zm545-6c1-1 2-2 2-5 0-5-3-7-8-7-2 0-3-1-5-4l-5-9c-1-7-2-9-4-7s1 19 5 26c3 7 10 10 15 6zm-213-2c5-4 6-7 6-19 0-10-1-11-4-17l-5-8-1 13c0 13 0 14-2 16l-4 3c-1 0-5 5-5 7 0 4 4 8 9 8l6-3zm-366 0 4-1c3 0 5-3 4-7 0-3-2-4-6-4-3 0-4 0-5 2l-2 11c1 1 3 1 5-1zm60 1c0-3-2-12-4-13l-5-2c-4 0-4 0-4 3 0 6 1 9 5 11s7 2 8 1zm326-3c2-3 2-5 2-9-1-9-8-22-12-22-1 0-1 2 1 7 2 6 1 14-1 18-1 2-2 4-1 6 1 5 8 5 11 0zM57 379l2-4c0-2-4-5-7-7-4-1-4-3 0-4s6-3 6-6c0-5-12-8-19-4-8 5-8 20 0 25l9 2c5 0 7 0 9-2zm50 0c9-4 9-20 1-25-5-3-12-3-16 0-6 4-5 9 2 10 4 1 4 3-2 5-5 2-6 4-3 8 4 4 13 5 18 2zm513-2c0-2 0-3-3-5-3-3-6-6-7-12-1-3-3-2-3 1 0 5 4 16 6 18l4 2c2 0 3-1 3-4zm-541-3 7-7c0-2-9-14-11-14l-1-1c-2 0-15 12-15 15 0 2 6 10 10 12 2 2 3 1 10-5zm319-1c4-2 5-7 5-13-1-6-8-21-10-21h-2l2 6c2 9 2 13-2 16-3 3-3 4-3 8s5 6 10 4zm224-8 2-4c0-2 0-2 5-2 6 0 8-2 8-7 0-3-4-7-8-7l-4-3c-2-3-7-15-7-18 0-2-2-4-3-3-1 2-2 10-1 16l5 12 3 8c-2 1-5-4-8-9-2-5-4-7-4-3-1 8 2 19 5 21 2 1 6 1 7-1zm-256-5c4-3 6-10 6-21 0-10-2-19-5-24-2-4-4-4-3 0l-1 23c-2 7-2 7-6 9-7 4-8 11-1 15 2 1 7 0 10-2zm22-6c1-5 1-9-2-17-2-5-4-9-6-9l-1 9-1 12c-3 5-2 9 1 11 4 2 8-1 9-6zm-318-6c2-5 3-5 5-1 1 2 2 2 5 2 2 1 3 0 5-4 7-16-13-29-25-16-5 6-4 14 1 20 3 3 7 2 9-2zm25 0 5-2c2-1 6-15 5-16l-7 2c-6 3-7 4-8 13-1 4-1 5 5 3zm-41-6-2-8-7-3c-8-3-9-2-7 6 4 9 5 10 14 11 2 0 2-1 2-6zm301-7c4-2 5-6 5-13 0-6 0-8-3-13-4-8-5-8-5 2 0 7 0 8-3 12l-4 5c0 2 2 6 4 7h6zm278-4c4-3 3-8-3-11-3-2-4-4-5-7-2-5-5-6-6-1s3 17 6 19h8zm-289-10 3-5c2-5-1-20-5-20l-1 5c0 3-2 9-5 11-4 4-4 5 0 9 2 2 5 2 8 0zm293-5c3-2 2-3-4-7-7-6-9-5-7 3 3 6 8 8 11 4zm-81-5c24-2 29-3 48-7 15-3 18-4 13-7-2-2-4-2-10-1h-9c-2-2-2-8 0-10 1-3 1-3-2-6-7-6-8-6-26-3a429 429 0 0 1-193-17c-9-3-10-2-11 3-1 2-1 2 3 4 6 2 6 3 4 7-2 7-3 7-8 6-6-3-8-2-10 1s-2 3-1 4a293 293 0 0 0 47 16 614 614 0 0 0 155 10zm-47-9c-2-2-3-8-1-10l9-1 7 1 1 4-1 6-7 2c-6 0-7 0-8-2zm-29 0c-3 0-4-1-2-8v-4h6l8 1c3 0 3 0 3 6l-1 6h-5l-9-1zm57-5 1-6c2-1 13-2 15-1 1 0 2 10 0 11l-9 1h-7v-5zm-84 3-6-1v-10c1-2 1-2 7-2 10 1 10 1 10 7 0 7-1 8-11 6zm116-2c-2-2-1-8 0-10l8-2c6 0 7 0 7 2v9l-8 2-7-1zm-148-3c-5-2-6-3-6-8 1-6 3-6 9-5 10 2 11 3 9 10-1 4-1 4-5 4l-7-1zm-30-8c-6-2-7-3-5-9l3-4 12 3c2 2 0 12-3 12l-7-2zm-58 20 2-4c0-2-1-3-5-3-5 0-8 1-8 4 0 5 7 7 11 3zm209-32c3-1 2-2-8-3-8-1-18-4-27-7l-13-2a509 509 0 0 1-116-21l-4 5c-3 6-3 6 11 10a338 338 0 0 0 96 19c11 1 59 1 61-1zm29-2c7-1 9-2 9-3l-2-3h-7c-9 4-12 5-18 5a479 479 0 0 0 18 1zm169-67 4-5c2-4 2-5 1-9-2-7-6-10-12-10-11 0-18 12-12 21 4 6 13 8 19 3zm-36 0c10-4 9-21-2-24-10-3-19 5-17 15 1 5 4 8 9 9 5 2 7 2 10 0zm14-27 20-31c0-3 0-3-11-22l-10-14-6 10a1213 1213 0 0 1-15 28l17 30c2 1 2 1 5-1zm-3-17c-3-3-9-14-9-16l4-8 5-8 2-3 3 3c3 3 9 14 9 16 0 4-10 18-12 18l-2-2zm6-10c4-4 4-7 1-12s-4-6-7-2c-4 5-5 8-3 11 1 4 4 7 5 7l4-4zm-396-35c3-3 3-7-1-10-3-3-6-2-10 2-3 3-3 6 1 9 3 3 7 3 10-1zm52-91c3-3 3-8 0-11-4-5-13-1-13 6 0 3 4 7 7 7l6-2zm122 782 1-1h1l-1 1h-1zm40-34 1-2v2h-1zm-15-17 1-1h1l-1 2-1-1zm-10-15v-1l2 1h-2zm46-74 1-2 1 1-1 2-1-1zm93-32 1-2v2h-1zm-38-31 1-2v2h-1zm97-223c-2-1-1-3 4-5 8-3 10-9 9-23a2339 2339 0 0 0-8-95c2-1 3 2 4 12l6 53c5 37 5 48 0 54-5 4-11 6-15 4zm-11-70v-6l1-12 3-19-2 27c-1 11-1 12-2 10zm4-44 1-6h1c1 1 0 11-1 11l-1-5zm2-10c-1-2 1-19 2-19l-1 19h-1zM506 124h2c1 1 0 1-1 1l-1-1zM523 1V0l1 1v1l-2-1zm21 0h2l-1 1-1-1zm36 0 1-1 1 1-1 1-1-1zm36 0h2l-1 1-1-1z" transform="matrix(.159 0 0 .159 23 23)"/><g style="fill:none;stroke:#000;stroke-width:1.82777798;stroke-miterlimit:4;stroke-dasharray:none"><path style="fill:none;stroke-width:1.82777798;stroke-miterlimit:4;stroke-dasharray:none" d="M167 236c0 3-3 6-7 6H7c-4 0-7-3-7-6V7c0-4 3-7 7-7h153c4 0 7 3 7 7v229z" transform="matrix(.73316 0 0 .81584 22 22)"/></g><text xml:space="preserve" style="font-size:28.75612259px;font-style:normal;font-weight:400;line-height:125%;letter-spacing:0;word-spacing:0;fill:#000;fill-opacity:1;stroke:none;font-family:Bitstream Vera Sans" x="-166.9" y="-218.1" transform="scale(-1)"><tspan x="-166.9" y="-218.1" style="font-style:normal;font-variant:normal;font-weight:400;font-stretch:normal;font-family:Arial;-inkscape-font-specification:Arial">Q</tspan></text><path d="M8 3C8-1 0-9 0-10 0-9-8-1-8 3c0 3 2 4 3 4 2 0 4-3 4-3 1 1-1 7-2 7h6c-1 0-3-6-2-7 0 0 2 3 4 3 1 0 3-1 3-4z" style="fill:#000" transform="matrix(-2.2448 0 0 -2.05244 124 196)"/><path d="M8 3C8-1 0-9 0-10 0-9-8-1-8 3c0 3 2 4 3 4 2 0 4-3 4-3 1 1-1 7-2 7h6c-1 0-3-6-2-7 0 0 2 3 4 3 1 0 3-1 3-4z" style="fill:#000" transform="matrix(-1.13877 0 0 -1.0412 156 204)"/></svg>