<svg viewBox="0 0 467 680" xmlns="http://www.w3.org/2000/svg" xml:space="preserve" style="fill-rule:evenodd;clip-rule:evenodd"><path style="fill:none" d="M0 0h467v679H0z"/><clipPath id="a"><path d="M0 0h467v679H0z"/></clipPath><g clip-path="url(#a)"><path d="M467 660c0 11-9 19-20 19H20c-11 0-20-8-20-19V20C0 9 9 1 20 1h427c11 0 20 8 20 19v640Z" style="fill:#00b3ea;fill-rule:nonzero;stroke:#000;stroke-width:1.4px"/><path d="M21 5C12 5 4 12 4 20v639c0 9 8 16 17 16h425c9 0 17-7 17-16V20c0-8-8-15-17-15H21Z" style="fill:#00b3ea"/><path d="M21 5C12 5 4 12 4 20v639c0 9 8 16 17 16h425c9 0 17-7 17-16V20c0-8-8-15-17-15H21Z" style="fill:none;fill-rule:nonzero;stroke:#00507e;stroke-width:7.99px;stroke-miterlimit:10"/><path d="M25 20c-2 0-4 2-4 4v632c0 2 2 3 4 3h416c2 0 4-1 4-3V24c0-2-2-4-4-4H25Z" style="fill:#00b3ea"/><path d="M25 20c-2 0-4 2-4 4v632c0 2 2 3 4 3h416c2 0 4-1 4-3V24c0-2-2-4-4-4H25Z" style="fill:none;fill-rule:nonzero;stroke:#00507e;stroke-width:7.5px;stroke-miterlimit:10"/><path d="M108 103c-2 0-2 1-2 2v471c0 1 0 2 2 2h246c2 0 2-1 2-2V105c0-1 0-2-2-2H108Z" style="fill:#00527d"/><path d="M108 103c-2 0-2 1-2 2v471c0 1 0 2 2 2h246c2 0 2-1 2-2V105c0-1 0-2-2-2H108Z" style="fill:none;fill-rule:nonzero;stroke:#00507e;stroke-width:4.6px;stroke-miterlimit:10"/><path d="M147 120c-13 0-24 10-24 23v394c0 12 11 23 24 23h167c13 0 24-11 24-23V143c0-13-11-23-24-23H147Z" style="fill:#00b3ea"/><path d="M147 120c-13 0-24 10-24 23v394c0 12 11 23 24 23h167c13 0 24-11 24-23V143c0-13-11-23-24-23H147Z" style="fill:none;fill-rule:nonzero;stroke:#00507e;stroke-width:5.79px;stroke-linejoin:round;stroke-miterlimit:10"/><path d="M149 138c-4 0-8 4-8 8v388c0 4 4 7 8 7h162c4 0 8-3 8-7V146c0-4-4-8-8-8H149Z" style="fill:#00527d"/><path d="M149 138c-4 0-8 4-8 8v388c0 4 4 7 8 7h162c4 0 8-3 8-7V146c0-4-4-8-8-8H149Z" style="fill:none;fill-rule:nonzero;stroke:#00507e;stroke-width:5.04px;stroke-linejoin:round;stroke-miterlimit:10"/><path d="M33 365v18l63-33v-17l-63 32Z" style="fill:#00527d"/><path d="M33 365v18l63-33v-17l-63 32Z" style="fill:none;fill-rule:nonzero;stroke:#00507e;stroke-width:3.69px;stroke-linecap:round;stroke-linejoin:round;stroke-miterlimit:10"/><path d="M33 398v17l63-32v-18l-63 33Z" style="fill:#00527d"/><path d="M33 398v17l63-32v-18l-63 33Z" style="fill:none;fill-rule:nonzero;stroke:#00507e;stroke-width:3.69px;stroke-linecap:round;stroke-linejoin:round;stroke-miterlimit:10"/><path d="M32 383v-17l63 32v17l-63-32Z" style="fill:#00b3ea"/><path d="M32 383v-17l63 32v17l-63-32Z" style="fill:none;fill-rule:nonzero;stroke:#00507e;stroke-width:3.69px;stroke-linecap:round;stroke-linejoin:round;stroke-miterlimit:10"/><path d="M33 332v18l63-32v-18l-63 32Z" style="fill:#00527d"/><path d="M33 332v18l63-32v-18l-63 32Z" style="fill:none;fill-rule:nonzero;stroke:#00507e;stroke-width:3.69px;stroke-linecap:round;stroke-linejoin:round;stroke-miterlimit:10"/><path d="M33 350v-17l63 32v18l-63-33Z" style="fill:#00b3ea"/><path d="M33 350v-17l63 32v18l-63-33Z" style="fill:none;fill-rule:nonzero;stroke:#00507e;stroke-width:3.69px;stroke-linecap:round;stroke-linejoin:round;stroke-miterlimit:10"/><path d="M33 300v17l63-32v-18l-63 33Z" style="fill:#00527d"/><path d="M33 300v17l63-32v-18l-63 33Z" style="fill:none;fill-rule:nonzero;stroke:#00507e;stroke-width:3.69px;stroke-linecap:round;stroke-linejoin:round;stroke-miterlimit:10"/><path d="M33 317v-17l62 32v18l-62-33Z" style="fill:#00b3ea"/><path d="M33 317v-17l62 32v18l-62-33Z" style="fill:none;fill-rule:nonzero;stroke:#00507e;stroke-width:3.69px;stroke-linecap:round;stroke-linejoin:round;stroke-miterlimit:10"/><path d="M33 285v-17l63 32v17l-63-32Z" style="fill:#00b3ea"/><path d="M33 285v-17l63 32v17l-63-32Z" style="fill:none;fill-rule:nonzero;stroke:#00507e;stroke-width:3.69px;stroke-linecap:round;stroke-linejoin:round;stroke-miterlimit:10"/><path d="M33 431v17l63-32v-18l-63 33Z" style="fill:#00527d"/><path d="M33 431v17l63-32v-18l-63 33Z" style="fill:none;fill-rule:nonzero;stroke:#00507e;stroke-width:3.69px;stroke-linecap:round;stroke-linejoin:round;stroke-miterlimit:10"/><path d="M33 416v-18l62 32v18l-62-32Z" style="fill:#00b3ea"/><path d="M33 416v-18l62 32v18l-62-32Z" style="fill:none;fill-rule:nonzero;stroke:#00507e;stroke-width:3.69px;stroke-linecap:round;stroke-linejoin:round;stroke-miterlimit:10"/><path d="M33 202v17l62-32v-18l-62 33Z" style="fill:#00527d"/><path d="M33 202v17l62-32v-18l-62 33Z" style="fill:none;fill-rule:nonzero;stroke:#00507e;stroke-width:3.69px;stroke-linecap:round;stroke-linejoin:round;stroke-miterlimit:10"/><path d="M33 234v17l63-32v-17l-63 32Z" style="fill:#00527d"/><path d="M33 234v17l63-32v-17l-63 32Z" style="fill:none;fill-rule:nonzero;stroke:#00507e;stroke-width:3.69px;stroke-linecap:round;stroke-linejoin:round;stroke-miterlimit:10"/><path d="M32 219v-17l63 32v17l-63-32Z" style="fill:#00b3ea"/><path d="M32 219v-17l63 32v17l-63-32Z" style="fill:none;fill-rule:nonzero;stroke:#00507e;stroke-width:3.69px;stroke-linecap:round;stroke-linejoin:round;stroke-miterlimit:10"/><path d="M33 169v17l63-32v-18l-63 33Z" style="fill:#00527d"/><path d="M33 169v17l63-32v-18l-63 33Z" style="fill:none;fill-rule:nonzero;stroke:#00507e;stroke-width:3.69px;stroke-linecap:round;stroke-linejoin:round;stroke-miterlimit:10"/><path d="M33 187v-18l63 33v17l-63-32Z" style="fill:#00b3ea"/><path d="M33 187v-18l63 33v17l-63-32Z" style="fill:none;fill-rule:nonzero;stroke:#00507e;stroke-width:3.69px;stroke-linecap:round;stroke-linejoin:round;stroke-miterlimit:10"/><path d="M33 136v17l62-32v-17l-62 32Z" style="fill:#00527d"/><path d="M33 136v17l62-32v-17l-62 32Z" style="fill:none;fill-rule:nonzero;stroke:#00507e;stroke-width:3.69px;stroke-linecap:round;stroke-linejoin:round;stroke-miterlimit:10"/><path d="M32 153v-17l63 32v18l-63-33Z" style="fill:#00b3ea"/><path d="M32 153v-17l63 32v18l-63-33Z" style="fill:none;fill-rule:nonzero;stroke:#00507e;stroke-width:3.69px;stroke-linecap:round;stroke-linejoin:round;stroke-miterlimit:10"/><path d="M33 121v-17l63 32v18l-63-33Z" style="fill:#00b3ea"/><path d="M33 121v-17l63 32v18l-63-33Z" style="fill:none;fill-rule:nonzero;stroke:#00507e;stroke-width:3.69px;stroke-linecap:round;stroke-linejoin:round;stroke-miterlimit:10"/><path d="M33 267v17l63-32v-18l-63 33Z" style="fill:#00527d"/><path d="M33 267v17l63-32v-18l-63 33Z" style="fill:none;fill-rule:nonzero;stroke:#00507e;stroke-width:3.69px;stroke-linecap:round;stroke-linejoin:round;stroke-miterlimit:10"/><path d="M32 252v-17l63 32v17l-63-32Z" style="fill:#00b3ea"/><path d="M32 252v-17l63 32v17l-63-32Z" style="fill:none;fill-rule:nonzero;stroke:#00507e;stroke-width:3.69px;stroke-linecap:round;stroke-linejoin:round;stroke-miterlimit:10"/><path d="M33 529v17l63-32v-18l-63 33Z" style="fill:#00527d"/><path d="M33 529v17l63-32v-18l-63 33Z" style="fill:none;fill-rule:nonzero;stroke:#00507e;stroke-width:3.69px;stroke-linecap:round;stroke-linejoin:round;stroke-miterlimit:10"/><path d="M33 561v18l63-33v-17l-63 32Z" style="fill:#00527d"/><path d="M33 561v18l63-33v-17l-63 32Z" style="fill:none;fill-rule:nonzero;stroke:#00507e;stroke-width:3.69px;stroke-linecap:round;stroke-linejoin:round;stroke-miterlimit:10"/><path d="M32 546v-17l63 32v18l-63-33Z" style="fill:#00b3ea"/><path d="M32 546v-17l63 32v18l-63-33Z" style="fill:none;fill-rule:nonzero;stroke:#00507e;stroke-width:3.69px;stroke-linecap:round;stroke-linejoin:round;stroke-miterlimit:10"/><path d="M33 496v17l63-32v-18l-63 33Z" style="fill:#00527d"/><path d="M33 496v17l63-32v-18l-63 33Z" style="fill:none;fill-rule:nonzero;stroke:#00507e;stroke-width:3.69px;stroke-linecap:round;stroke-linejoin:round;stroke-miterlimit:10"/><path d="M33 514v-17l63 32v17l-63-32Z" style="fill:#00b3ea"/><path d="M33 514v-17l63 32v17l-63-32Z" style="fill:none;fill-rule:nonzero;stroke:#00507e;stroke-width:3.69px;stroke-linecap:round;stroke-linejoin:round;stroke-miterlimit:10"/><path d="M33 463v18l63-33v-17l-63 32Z" style="fill:#00527d"/><path d="M33 463v18l63-33v-17l-63 32Z" style="fill:none;fill-rule:nonzero;stroke:#00507e;stroke-width:3.69px;stroke-linecap:round;stroke-linejoin:round;stroke-miterlimit:10"/><path d="M33 481v-18l62 33v17l-62-32Z" style="fill:#00b3ea"/><path d="M33 481v-18l62 33v17l-62-32Z" style="fill:none;fill-rule:nonzero;stroke:#00507e;stroke-width:3.69px;stroke-linecap:round;stroke-linejoin:round;stroke-miterlimit:10"/><path d="M33 448v-17l63 32v18l-63-33Z" style="fill:#00b3ea"/><path d="M33 448v-17l63 32v18l-63-33Z" style="fill:none;fill-rule:nonzero;stroke:#00507e;stroke-width:3.69px;stroke-linecap:round;stroke-linejoin:round;stroke-miterlimit:10"/><path d="M369 317v-17l62 32v18l-62-33Z" style="fill:#00527d"/><path d="M369 317v-17l62 32v18l-62-33Z" style="fill:none;fill-rule:nonzero;stroke:#00507e;stroke-width:3.69px;stroke-linecap:round;stroke-linejoin:round;stroke-miterlimit:10"/><path d="M369 284v-17l63 32v18l-63-33Z" style="fill:#00527d"/><path d="M369 284v-17l63 32v18l-63-33Z" style="fill:none;fill-rule:nonzero;stroke:#00507e;stroke-width:3.69px;stroke-linecap:round;stroke-linejoin:round;stroke-miterlimit:10"/><path d="M368 300v17l63-32v-18l-63 33Z" style="fill:#00b3ea"/><path d="M368 300v17l63-32v-18l-63 33Z" style="fill:none;fill-rule:nonzero;stroke:#00507e;stroke-width:3.69px;stroke-linecap:round;stroke-linejoin:round;stroke-miterlimit:10"/><path d="M369 350v-17l63 32v18l-63-33Z" style="fill:#00527d"/><path d="M369 350v-17l63 32v18l-63-33Z" style="fill:none;fill-rule:nonzero;stroke:#00507e;stroke-width:3.69px;stroke-linecap:round;stroke-linejoin:round;stroke-miterlimit:10"/><path d="M369 332v17l63-32v-18l-63 33Z" style="fill:#00b3ea"/><path d="M369 332v17l63-32v-18l-63 33Z" style="fill:none;fill-rule:nonzero;stroke:#00507e;stroke-width:3.69px;stroke-linecap:round;stroke-linejoin:round;stroke-miterlimit:10"/><path d="M369 382v-17l63 32v18l-63-33Z" style="fill:#00527d"/><path d="M369 382v-17l63 32v18l-63-33Z" style="fill:none;fill-rule:nonzero;stroke:#00507e;stroke-width:3.69px;stroke-linecap:round;stroke-linejoin:round;stroke-miterlimit:10"/><path d="M368 365v17l63-32v-17l-63 32Z" style="fill:#00b3ea"/><path d="M368 365v17l63-32v-17l-63 32Z" style="fill:none;fill-rule:nonzero;stroke:#00507e;stroke-width:3.69px;stroke-linecap:round;stroke-linejoin:round;stroke-miterlimit:10"/><path d="M369 398v17l63-32v-18l-63 33Z" style="fill:#00b3ea"/><path d="M369 398v17l63-32v-18l-63 33Z" style="fill:none;fill-rule:nonzero;stroke:#00507e;stroke-width:3.69px;stroke-linecap:round;stroke-linejoin:round;stroke-miterlimit:10"/><path d="M369 252v-18l63 33v17l-63-32Z" style="fill:#00527d"/><path d="M369 252v-18l63 33v17l-63-32Z" style="fill:none;fill-rule:nonzero;stroke:#00507e;stroke-width:3.69px;stroke-linecap:round;stroke-linejoin:round;stroke-miterlimit:10"/><path d="M368 267v17l63-32v-18l-63 33Z" style="fill:#00b3ea"/><path d="M368 267v17l63-32v-18l-63 33Z" style="fill:none;fill-rule:nonzero;stroke:#00507e;stroke-width:3.69px;stroke-linecap:round;stroke-linejoin:round;stroke-miterlimit:10"/><path d="M368 481v-17l63 32v17l-63-32Z" style="fill:#00527d"/><path d="M368 481v-17l63 32v17l-63-32Z" style="fill:none;fill-rule:nonzero;stroke:#00507e;stroke-width:3.69px;stroke-linecap:round;stroke-linejoin:round;stroke-miterlimit:10"/><path d="M369 448v-17l63 32v18l-63-33Z" style="fill:#00527d"/><path d="M369 448v-17l63 32v18l-63-33Z" style="fill:none;fill-rule:nonzero;stroke:#00507e;stroke-width:3.69px;stroke-linecap:round;stroke-linejoin:round;stroke-miterlimit:10"/><path d="M368 464v17l63-32v-18l-63 33Z" style="fill:#00b3ea"/><path d="M368 464v17l63-32v-18l-63 33Z" style="fill:none;fill-rule:nonzero;stroke:#00507e;stroke-width:3.69px;stroke-linecap:round;stroke-linejoin:round;stroke-miterlimit:10"/><path d="M369 514v-17l63 32v17l-63-32Z" style="fill:#00527d"/><path d="M369 514v-17l63 32v17l-63-32Z" style="fill:none;fill-rule:nonzero;stroke:#00507e;stroke-width:3.69px;stroke-linecap:round;stroke-linejoin:round;stroke-miterlimit:10"/><path d="M369 496v17l62-32v-18l-62 33Z" style="fill:#00b3ea"/><path d="M369 496v17l62-32v-18l-62 33Z" style="fill:none;fill-rule:nonzero;stroke:#00507e;stroke-width:3.69px;stroke-linecap:round;stroke-linejoin:round;stroke-miterlimit:10"/><path d="M369 546v-17l62 32v18l-62-33Z" style="fill:#00527d"/><path d="M369 546v-17l62 32v18l-62-33Z" style="fill:none;fill-rule:nonzero;stroke:#00507e;stroke-width:3.69px;stroke-linecap:round;stroke-linejoin:round;stroke-miterlimit:10"/><path d="M368 529v17l63-32v-18l-63 33Z" style="fill:#00b3ea"/><path d="M368 529v17l63-32v-18l-63 33Z" style="fill:none;fill-rule:nonzero;stroke:#00507e;stroke-width:3.69px;stroke-linecap:round;stroke-linejoin:round;stroke-miterlimit:10"/><path d="M369 561v18l63-33v-17l-63 32Z" style="fill:#00b3ea"/><path d="M369 561v18l63-33v-17l-63 32Z" style="fill:none;fill-rule:nonzero;stroke:#00507e;stroke-width:3.69px;stroke-linecap:round;stroke-linejoin:round;stroke-miterlimit:10"/><path d="M369 415v-17l63 32v18l-63-33Z" style="fill:#00527d"/><path d="M369 415v-17l63 32v18l-63-33Z" style="fill:none;fill-rule:nonzero;stroke:#00507e;stroke-width:3.69px;stroke-linecap:round;stroke-linejoin:round;stroke-miterlimit:10"/><path d="M368 431v17l63-32v-18l-63 33Z" style="fill:#00b3ea"/><path d="M368 431v17l63-32v-18l-63 33Z" style="fill:none;fill-rule:nonzero;stroke:#00507e;stroke-width:3.69px;stroke-linecap:round;stroke-linejoin:round;stroke-miterlimit:10"/><path d="M369 153v-17l62 32v18l-62-33Z" style="fill:#00527d"/><path d="M369 153v-17l62 32v18l-62-33Z" style="fill:none;fill-rule:nonzero;stroke:#00507e;stroke-width:3.69px;stroke-linecap:round;stroke-linejoin:round;stroke-miterlimit:10"/><path d="M369 121v-17l63 32v18l-63-33Z" style="fill:#00527d"/><path d="M369 121v-17l63 32v18l-63-33Z" style="fill:none;fill-rule:nonzero;stroke:#00507e;stroke-width:3.69px;stroke-linecap:round;stroke-linejoin:round;stroke-miterlimit:10"/><path d="M368 136v17l63-32v-17l-63 32Z" style="fill:#00b3ea"/><path d="M368 136v17l63-32v-17l-63 32Z" style="fill:none;fill-rule:nonzero;stroke:#00507e;stroke-width:3.69px;stroke-linecap:round;stroke-linejoin:round;stroke-miterlimit:10"/><path d="M369 186v-17l63 32v18l-63-33Z" style="fill:#00527d"/><path d="M369 186v-17l63 32v18l-63-33Z" style="fill:none;fill-rule:nonzero;stroke:#00507e;stroke-width:3.69px;stroke-linecap:round;stroke-linejoin:round;stroke-miterlimit:10"/><path d="M369 169v17l63-32v-18l-63 33Z" style="fill:#00b3ea"/><path d="M369 169v17l63-32v-18l-63 33Z" style="fill:none;fill-rule:nonzero;stroke:#00507e;stroke-width:3.69px;stroke-linecap:round;stroke-linejoin:round;stroke-miterlimit:10"/><path d="M369 219v-17l63 32v18l-63-33Z" style="fill:#00527d"/><path d="M369 219v-17l63 32v18l-63-33Z" style="fill:none;fill-rule:nonzero;stroke:#00507e;stroke-width:3.69px;stroke-linecap:round;stroke-linejoin:round;stroke-miterlimit:10"/><path d="M368 202v17l63-32v-18l-63 33Z" style="fill:#00b3ea"/><path d="M368 202v17l63-32v-18l-63 33Z" style="fill:none;fill-rule:nonzero;stroke:#00507e;stroke-width:3.69px;stroke-linecap:round;stroke-linejoin:round;stroke-miterlimit:10"/><path d="M369 234v17l63-32v-18l-63 33Z" style="fill:#00b3ea"/><path d="M369 234v17l63-32v-18l-63 33Z" style="fill:none;fill-rule:nonzero;stroke:#00507e;stroke-width:3.69px;stroke-linecap:round;stroke-linejoin:round;stroke-miterlimit:10"/><path d="M191 32h-17l33 61h18l-34-61Z" style="fill:#00527d"/><path d="M191 32h-17l33 61h18l-34-61Z" style="fill:none;fill-rule:nonzero;stroke:#00507e;stroke-width:3.69px;stroke-linecap:round;stroke-linejoin:round;stroke-miterlimit:10"/><path d="M158 32h-18l33 61h18l-33-61Z" style="fill:#00527d"/><path d="M158 32h-18l33 61h18l-33-61Z" style="fill:none;fill-rule:nonzero;stroke:#00507e;stroke-width:3.69px;stroke-linecap:round;stroke-linejoin:round;stroke-miterlimit:10"/><path d="M174 31h17l-33 61h-18l34-61Z" style="fill:#00b3ea"/><path d="M174 31h17l-33 61h-18l34-61Z" style="fill:none;fill-rule:nonzero;stroke:#00507e;stroke-width:3.69px;stroke-linecap:round;stroke-linejoin:round;stroke-miterlimit:10"/><path d="M225 32h-18l33 61h18l-33-61Z" style="fill:#00527d"/><path d="M225 32h-18l33 61h18l-33-61Z" style="fill:none;fill-rule:nonzero;stroke:#00507e;stroke-width:3.69px;stroke-linecap:round;stroke-linejoin:round;stroke-miterlimit:10"/><path d="M207 32h17l-33 61h-18l34-61Z" style="fill:#00b3ea"/><path d="M207 32h17l-33 61h-18l34-61Z" style="fill:none;fill-rule:nonzero;stroke:#00507e;stroke-width:3.69px;stroke-linecap:round;stroke-linejoin:round;stroke-miterlimit:10"/><path d="M325 32h-17l33 61h18l-34-61Z" style="fill:#00527d"/><path d="M325 32h-17l33 61h18l-34-61Z" style="fill:none;fill-rule:nonzero;stroke:#00507e;stroke-width:3.69px;stroke-linecap:round;stroke-linejoin:round;stroke-miterlimit:10"/><path d="M258 32h-17l33 61h18l-34-61Z" style="fill:#00527d"/><path d="M258 32h-17l33 61h18l-34-61Z" style="fill:none;fill-rule:nonzero;stroke:#00507e;stroke-width:3.69px;stroke-linecap:round;stroke-linejoin:round;stroke-miterlimit:10"/><path d="M241 31h17l-33 62h-18l34-62Z" style="fill:#00b3ea"/><path d="M241 31h17l-33 62h-18l34-62Z" style="fill:none;fill-rule:nonzero;stroke:#00507e;stroke-width:3.69px;stroke-linecap:round;stroke-linejoin:round;stroke-miterlimit:10"/><path d="M292 32h-18l33 61h18l-33-61Z" style="fill:#00527d"/><path d="M292 32h-18l33 61h18l-33-61Z" style="fill:none;fill-rule:nonzero;stroke:#00507e;stroke-width:3.69px;stroke-linecap:round;stroke-linejoin:round;stroke-miterlimit:10"/><path d="M274 32h17l-33 61h-18l34-61Z" style="fill:#00b3ea"/><path d="M274 32h17l-33 61h-18l34-61Z" style="fill:none;fill-rule:nonzero;stroke:#00507e;stroke-width:3.69px;stroke-linecap:round;stroke-linejoin:round;stroke-miterlimit:10"/><path d="M308 32h17l-33 61h-18l34-61Z" style="fill:#00b3ea"/><path d="M308 32h17l-33 61h-18l34-61Z" style="fill:none;fill-rule:nonzero;stroke:#00507e;stroke-width:3.69px;stroke-linecap:round;stroke-linejoin:round;stroke-miterlimit:10"/><path d="M359 32h-18l33 61h18l-33-61Z" style="fill:#00527d"/><path d="M359 32h-18l33 61h18l-33-61Z" style="fill:none;fill-rule:nonzero;stroke:#00507e;stroke-width:3.69px;stroke-linecap:round;stroke-linejoin:round;stroke-miterlimit:10"/><path d="M341 32h17l-33 61h-18l34-61Z" style="fill:#00b3ea"/><path d="M341 32h17l-33 61h-18l34-61Z" style="fill:none;fill-rule:nonzero;stroke:#00507e;stroke-width:3.69px;stroke-linecap:round;stroke-linejoin:round;stroke-miterlimit:10"/><path d="M124 32h-17l33 61h18l-34-61Z" style="fill:#00527d"/><path d="M124 32h-17l33 61h18l-34-61Z" style="fill:none;fill-rule:nonzero;stroke:#00507e;stroke-width:3.69px;stroke-linecap:round;stroke-linejoin:round;stroke-miterlimit:10"/><path d="M91 31H74l33 61h18L91 31Z" style="fill:#00527d"/><path d="M91 31H74l33 61h18L91 31Z" style="fill:none;fill-rule:nonzero;stroke:#00507e;stroke-width:3.69px;stroke-linecap:round;stroke-linejoin:round;stroke-miterlimit:10"/><path d="M140 31h18l-33 61h-18l33-61Z" style="fill:#00b3ea"/><path d="M140 31h18l-33 61h-18l33-61h0Z" style="fill:none;fill-rule:nonzero;stroke:#00507e;stroke-width:3.69px;stroke-linecap:round;stroke-linejoin:round;stroke-miterlimit:10"/><path d="M58 31H40l33 61h18L58 31Z" style="fill:#00527d"/><path d="M58 31H40l33 61h18L58 31Z" style="fill:none;fill-rule:nonzero;stroke:#00507e;stroke-width:3.69px;stroke-linecap:round;stroke-linejoin:round;stroke-miterlimit:10"/><path d="M107 31h17L91 92H73l34-61Z" style="fill:#00b3ea"/><path d="M107 31h17L91 92H73l34-61Z" style="fill:none;fill-rule:nonzero;stroke:#00507e;stroke-width:3.69px;stroke-linecap:round;stroke-linejoin:round;stroke-miterlimit:10"/><path d="M74 31h17L58 92H40l34-61Z" style="fill:#00b3ea"/><path d="M74 31h17L58 92H40l34-61Z" style="fill:none;fill-rule:nonzero;stroke:#00507e;stroke-width:3.69px;stroke-linecap:round;stroke-linejoin:round;stroke-miterlimit:10"/><path d="M392 32h-17l33 61h18l-34-61Z" style="fill:#00527d"/><path d="M392 32h-17l33 61h18l-34-61Z" style="fill:none;fill-rule:nonzero;stroke:#00507e;stroke-width:3.69px;stroke-linecap:round;stroke-linejoin:round;stroke-miterlimit:10"/><path d="M375 32h17l-33 61h-18l34-61Z" style="fill:#00b3ea"/><path d="M375 32h17l-33 61h-18l34-61Z" style="fill:none;fill-rule:nonzero;stroke:#00507e;stroke-width:3.69px;stroke-linecap:round;stroke-linejoin:round;stroke-miterlimit:10"/><path d="M408 32h17l-33 61h-18l34-61Z" style="fill:#00b3ea"/><path d="M408 32h17l-33 61h-18l34-61Z" style="fill:none;fill-rule:nonzero;stroke:#00507e;stroke-width:3.69px;stroke-linecap:round;stroke-linejoin:round;stroke-miterlimit:10"/><path d="M192 588h-17l32 61h19l-34-61Z" style="fill:#00527d"/><path d="M192 588h-17l32 61h19l-34-61Z" style="fill:none;fill-rule:nonzero;stroke:#00507e;stroke-width:3.69px;stroke-linecap:round;stroke-linejoin:round;stroke-miterlimit:10"/><path d="M159 588h-18l33 61h18l-33-61Z" style="fill:#00527d"/><path d="M159 588h-18l33 61h18l-33-61Z" style="fill:none;fill-rule:nonzero;stroke:#00507e;stroke-width:3.69px;stroke-linecap:round;stroke-linejoin:round;stroke-miterlimit:10"/><path d="M174 587h18l-33 62h-18l33-62Z" style="fill:#00b3ea"/><path d="M174 587h18l-33 62h-18l33-62Z" style="fill:none;fill-rule:nonzero;stroke:#00507e;stroke-width:3.69px;stroke-linecap:round;stroke-linejoin:round;stroke-miterlimit:10"/><path d="M226 588h-18l33 61h18l-33-61Z" style="fill:#00527d"/><path d="M226 588h-18l33 61h18l-33-61Z" style="fill:none;fill-rule:nonzero;stroke:#00507e;stroke-width:3.69px;stroke-linecap:round;stroke-linejoin:round;stroke-miterlimit:10"/><path d="M208 588h17l-33 61h-18l34-61Z" style="fill:#00b3ea"/><path d="M208 588h17l-33 61h-18l34-61Z" style="fill:none;fill-rule:nonzero;stroke:#00507e;stroke-width:3.69px;stroke-linecap:round;stroke-linejoin:round;stroke-miterlimit:10"/><path d="M326 588h-17l33 61h18l-34-61Z" style="fill:#00527d"/><path d="M326 588h-17l33 61h18l-34-61Z" style="fill:none;fill-rule:nonzero;stroke:#00507e;stroke-width:3.69px;stroke-linecap:round;stroke-linejoin:round;stroke-miterlimit:10"/><path d="M259 588h-17l33 61h18l-34-61Z" style="fill:#00527d"/><path d="M259 588h-17l33 61h18l-34-61Z" style="fill:none;fill-rule:nonzero;stroke:#00507e;stroke-width:3.69px;stroke-linecap:round;stroke-linejoin:round;stroke-miterlimit:10"/><path d="M242 588h17l-33 61h-18l34-61Z" style="fill:#00b3ea"/><path d="M242 588h17l-33 61h-18l34-61Z" style="fill:none;fill-rule:nonzero;stroke:#00507e;stroke-width:3.69px;stroke-linecap:round;stroke-linejoin:round;stroke-miterlimit:10"/><path d="M293 588h-18l33 62h18l-33-62Z" style="fill:#00527d"/><path d="M293 588h-18l33 62h18l-33-62Z" style="fill:none;fill-rule:nonzero;stroke:#00507e;stroke-width:3.69px;stroke-linecap:round;stroke-linejoin:round;stroke-miterlimit:10"/><path d="M275 588h17l-33 61h-18l34-61Z" style="fill:#00b3ea"/><path d="M275 588h17l-33 61h-18l34-61Z" style="fill:none;fill-rule:nonzero;stroke:#00507e;stroke-width:3.69px;stroke-linecap:round;stroke-linejoin:round;stroke-miterlimit:10"/><path d="M309 588h17l-33 61h-18l34-61Z" style="fill:#00b3ea"/><path d="M309 588h17l-33 61h-18l34-61Z" style="fill:none;fill-rule:nonzero;stroke:#00507e;stroke-width:3.69px;stroke-linecap:round;stroke-linejoin:round;stroke-miterlimit:10"/><path d="M359 588h-17l33 62h18l-34-62Z" style="fill:#00527d"/><path d="M359 588h-17l33 62h18l-34-62Z" style="fill:none;fill-rule:nonzero;stroke:#00507e;stroke-width:3.69px;stroke-linecap:round;stroke-linejoin:round;stroke-miterlimit:10"/><path d="M342 588h17l-33 61h-18l34-61Z" style="fill:#00b3ea"/><path d="M342 588h17l-33 61h-18l34-61Z" style="fill:none;fill-rule:nonzero;stroke:#00507e;stroke-width:3.69px;stroke-linecap:round;stroke-linejoin:round;stroke-miterlimit:10"/><path d="M125 588h-17l33 61h18l-34-61Z" style="fill:#00527d"/><path d="M125 588h-17l33 61h18l-34-61Z" style="fill:none;fill-rule:nonzero;stroke:#00507e;stroke-width:3.69px;stroke-linecap:round;stroke-linejoin:round;stroke-miterlimit:10"/><path d="M92 588H74l33 61h18l-33-61Z" style="fill:#00527d"/><path d="M92 588H74l33 61h18l-33-61Z" style="fill:none;fill-rule:nonzero;stroke:#00507e;stroke-width:3.69px;stroke-linecap:round;stroke-linejoin:round;stroke-miterlimit:10"/><path d="M141 587h17l-32 62h-19l34-62Z" style="fill:#00b3ea"/><path d="M141 587h17l-32 62h-19l34-62Z" style="fill:none;fill-rule:nonzero;stroke:#00507e;stroke-width:3.69px;stroke-linecap:round;stroke-linejoin:round;stroke-miterlimit:10"/><path d="M393 588h-18l33 61h18l-33-61Z" style="fill:#00527d"/><path d="M393 588h-18l33 61h18l-33-61Z" style="fill:none;fill-rule:nonzero;stroke:#00507e;stroke-width:3.69px;stroke-linecap:round;stroke-linejoin:round;stroke-miterlimit:10"/><path d="M375 588h18l-33 61h-18l33-61Z" style="fill:#00b3ea"/><path d="M375 588h18l-33 61h-18l33-61Z" style="fill:none;fill-rule:nonzero;stroke:#00507e;stroke-width:3.69px;stroke-linecap:round;stroke-linejoin:round;stroke-miterlimit:10"/><path d="M408 588h18l-33 61h-18l33-61Z" style="fill:#00b3ea"/><path d="M408 588h18l-33 61h-18l33-61Z" style="fill:none;fill-rule:nonzero;stroke:#00507e;stroke-width:3.69px;stroke-linecap:round;stroke-linejoin:round;stroke-miterlimit:10"/><path d="M107 588h18l-33 61H74l33-61Z" style="fill:#00b3ea"/><path d="M107 588h18l-33 61H74l33-61Z" style="fill:none;fill-rule:nonzero;stroke:#00507e;stroke-width:3.69px;stroke-linecap:round;stroke-linejoin:round;stroke-miterlimit:10"/><path d="M58 588H40l33 61h18l-33-61Z" style="fill:#00527d"/><path d="M58 588H40l33 61h18l-33-61Z" style="fill:none;fill-rule:nonzero;stroke:#00507e;stroke-width:3.69px;stroke-linecap:round;stroke-linejoin:round;stroke-miterlimit:10"/><path d="M74 588h17l-33 61H40l34-61Z" style="fill:#00b3ea"/><path d="M74 588h17l-33 61H40l34-61Z" style="fill:none;fill-rule:nonzero;stroke:#00507e;stroke-width:3.69px;stroke-linecap:round;stroke-linejoin:round;stroke-miterlimit:10"/><path d="M466 660c0 10-8 19-19 19H19c-10 0-19-9-19-19V19C0 9 9 0 19 0h428c11 0 19 9 19 19v641Z" style="fill:none;fill-rule:nonzero;stroke:#000;stroke-width:1.4px"/></g></svg>