<svg viewBox="0 0 3842 5609" xmlns="http://www.w3.org/2000/svg" xml:space="preserve" style="fill-rule:evenodd;clip-rule:evenodd;stroke-miterlimit:10"><path style="fill:none" d="M0 0h3839v5606H0z"/><clipPath id="a"><path d="M0 0h3839v5606H0z"/></clipPath><g clip-path="url(#a)"><path d="M144 9C69 9 9 67 9 140v5316c0 73 60 132 135 132h3542c75 0 135-59 135-132V140c0-73-60-131-135-131H144Z" style="fill:#f3e4d5"/><path d="M144 9C69 9 9 67 9 140v5316c0 73 60 132 135 132h3542c75 0 135-59 135-132V140c0-73-60-131-135-131H144Z" style="fill:none;fill-rule:nonzero;stroke:#7c7467;stroke-width:34.67px"/><path d="M182 138c-19 0-34 15-34 33v5255c0 18 15 33 34 33h3457c19 0 34-15 34-33V171c0-18-15-33-34-33H182Z" style="fill:#f3e4d5"/><path d="M182 138c-19 0-34 15-34 33v5255c0 18 15 33 34 33h3457c19 0 34-15 34-33V171c0-18-15-33-34-33H182Z" style="fill:none;fill-rule:nonzero;stroke:#7c7467;stroke-width:62.42px"/><path d="M866 831c-9 0-16 7-16 16v3920c0 9 7 16 16 16h2054c10 0 17-7 17-16V847c0-9-7-16-17-16H866Z" style="fill:#c8beb9"/><path d="M866 831c-9 0-16 7-16 16v3920c0 9 7 16 16 16h2054c10 0 17-7 17-16V847c0-9-7-16-17-16H866Z" style="fill:none;fill-rule:nonzero;stroke:#7c7467;stroke-width:38.29px"/><path d="M1191 970c-107 0-194 84-194 189v3279c0 105 87 189 194 189h1396c107 0 194-84 194-189V1159c0-105-87-189-194-189H1191Z" style="fill:#f3e4d5"/><path d="M1191 970c-107 0-194 84-194 189v3279c0 105 87 189 194 189h1396c107 0 194-84 194-189V1159c0-105-87-189-194-189H1191Z" style="fill:none;fill-rule:nonzero;stroke:#7c7467;stroke-width:48.13px;stroke-linejoin:round"/><path d="M1213 1121c-36 0-65 28-65 63v3229c0 35 29 63 65 63h1343c37 0 66-28 66-63V1184c0-35-29-63-66-63H1213Z" style="fill:#c8beb9"/><path d="M1213 1121c-36 0-65 28-65 63v3229c0 35 29 63 65 63h1343c37 0 66-28 66-63V1184c0-35-29-63-66-63H1213Z" style="fill:none;fill-rule:nonzero;stroke:#7c7467;stroke-width:41.92px;stroke-linejoin:round"/><path d="M244 3012v143l523-267v-147l-523 271Z" style="fill:#c8beb9"/><path d="M244 3012v143l523-267v-147l-523 271Z" style="fill:none;fill-rule:nonzero;stroke:#7c7467;stroke-width:30.71px;stroke-linecap:round;stroke-linejoin:round"/><path d="M247 3283v143l522-268v-147l-522 272Z" style="fill:#c8beb9"/><path d="M247 3283v143l522-268v-147l-522 272Z" style="fill:none;fill-rule:nonzero;stroke:#7c7467;stroke-width:30.71px;stroke-linecap:round;stroke-linejoin:round"/><path d="M242 3156v-143l522 267v147l-522-271Z" style="fill:#f3e4d5"/><path d="M242 3156v-143l522 267v147l-522-271Z" style="fill:none;fill-rule:nonzero;stroke:#7c7467;stroke-width:30.71px;stroke-linecap:round;stroke-linejoin:round"/><path d="M248 2738v143l523-268v-146l-523 271Z" style="fill:#c8beb9"/><path d="M248 2738v143l523-268v-146l-523 271Z" style="fill:none;fill-rule:nonzero;stroke:#7c7467;stroke-width:30.71px;stroke-linecap:round;stroke-linejoin:round"/><path d="M246 2887v-143l522 267v147l-522-271Z" style="fill:#f3e4d5"/><path d="M246 2887v-143l522 267v147l-522-271Z" style="fill:none;fill-rule:nonzero;stroke:#7c7467;stroke-width:30.71px;stroke-linecap:round;stroke-linejoin:round"/><path d="M246 2467v143l522-267v-147l-522 271Z" style="fill:#c8beb9"/><path d="M246 2467v143l522-267v-147l-522 271Z" style="fill:none;fill-rule:nonzero;stroke:#7c7467;stroke-width:30.71px;stroke-linecap:round;stroke-linejoin:round"/><path d="M243 2611v-143l522 267v147l-522-271Z" style="fill:#f3e4d5"/><path d="M243 2611v-143l522 267v147l-522-271Z" style="fill:none;fill-rule:nonzero;stroke:#7c7467;stroke-width:30.71px;stroke-linecap:round;stroke-linejoin:round"/><path d="M247 2342v-143l522 267v147l-522-271Z" style="fill:#f3e4d5"/><path d="M247 2342v-143l522 267v147l-522-271Z" style="fill:none;fill-rule:nonzero;stroke:#7c7467;stroke-width:30.71px;stroke-linecap:round;stroke-linejoin:round"/><path d="M248 3556v143l522-268v-147l-522 272Z" style="fill:#c8beb9"/><path d="M248 3556v143l522-268v-147l-522 272Z" style="fill:none;fill-rule:nonzero;stroke:#7c7467;stroke-width:30.71px;stroke-linecap:round;stroke-linejoin:round"/><path d="M242 3429v-143l523 267v147l-523-271Z" style="fill:#f3e4d5"/><path d="M242 3429v-143l523 267v147l-523-271Z" style="fill:none;fill-rule:nonzero;stroke:#7c7467;stroke-width:30.71px;stroke-linecap:round;stroke-linejoin:round"/><path d="M242 1649v143l523-268v-146l-523 271Z" style="fill:#c8beb9"/><path d="M242 1649v143l523-268v-146l-523 271Z" style="fill:none;fill-rule:nonzero;stroke:#7c7467;stroke-width:30.71px;stroke-linecap:round;stroke-linejoin:round"/><path d="M245 1919v143l522-267v-147l-522 271Z" style="fill:#c8beb9"/><path d="M245 1919v143l522-267v-147l-522 271Z" style="fill:none;fill-rule:nonzero;stroke:#7c7467;stroke-width:30.71px;stroke-linecap:round;stroke-linejoin:round"/><path d="M240 1793v-144l522 268v147l-522-271Z" style="fill:#f3e4d5"/><path d="M240 1793v-144l522 268v147l-522-271Z" style="fill:none;fill-rule:nonzero;stroke:#7c7467;stroke-width:30.71px;stroke-linecap:round;stroke-linejoin:round"/><path d="M246 1374v144l523-268v-147l-523 271Z" style="fill:#c8beb9"/><path d="M246 1374v144l523-268v-147l-523 271Z" style="fill:none;fill-rule:nonzero;stroke:#7c7467;stroke-width:30.71px;stroke-linecap:round;stroke-linejoin:round"/><path d="M244 1523v-143l522 268v146l-522-271Z" style="fill:#f3e4d5"/><path d="M244 1523v-143l522 268v146l-522-271Z" style="fill:none;fill-rule:nonzero;stroke:#7c7467;stroke-width:30.71px;stroke-linecap:round;stroke-linejoin:round"/><path d="M244 1104v143l522-268V833l-522 271Z" style="fill:#c8beb9"/><path d="M244 1104v143l522-268V833l-522 271Z" style="fill:none;fill-rule:nonzero;stroke:#7c7467;stroke-width:30.71px;stroke-linecap:round;stroke-linejoin:round"/><path d="M241 1248v-143l522 267v147l-522-271Z" style="fill:#f3e4d5"/><path d="M241 1248v-143l522 267v147l-522-271Z" style="fill:none;fill-rule:nonzero;stroke:#7c7467;stroke-width:30.71px;stroke-linecap:round;stroke-linejoin:round"/><path d="M245 979V836l522 267v147L245 979Z" style="fill:#f3e4d5"/><path d="M245 979V836l522 267v147L245 979Z" style="fill:none;fill-rule:nonzero;stroke:#7c7467;stroke-width:30.71px;stroke-linecap:round;stroke-linejoin:round"/><path d="M246 2192v143l522-267v-147l-522 271Z" style="fill:#c8beb9"/><path d="M246 2192v143l522-267v-147l-522 271Z" style="fill:none;fill-rule:nonzero;stroke:#7c7467;stroke-width:30.71px;stroke-linecap:round;stroke-linejoin:round"/><path d="M241 2066v-144l522 268v147l-522-271Z" style="fill:#f3e4d5"/><path d="M241 2066v-144l522 268v147l-522-271Z" style="fill:none;fill-rule:nonzero;stroke:#7c7467;stroke-width:30.71px;stroke-linecap:round;stroke-linejoin:round"/><path d="M244 4371v144l523-268v-147l-523 271Z" style="fill:#c8beb9"/><path d="M244 4371v144l523-268v-147l-523 271Z" style="fill:none;fill-rule:nonzero;stroke:#7c7467;stroke-width:30.71px;stroke-linecap:round;stroke-linejoin:round"/><path d="M247 4642v143l522-268v-146l-522 271Z" style="fill:#c8beb9"/><path d="M247 4642v143l522-268v-146l-522 271Z" style="fill:none;fill-rule:nonzero;stroke:#7c7467;stroke-width:30.71px;stroke-linecap:round;stroke-linejoin:round"/><path d="M242 4515v-143l522 268v146l-522-271Z" style="fill:#f3e4d5"/><path d="M242 4515v-143l522 268v146l-522-271Z" style="fill:none;fill-rule:nonzero;stroke:#7c7467;stroke-width:30.71px;stroke-linecap:round;stroke-linejoin:round"/><path d="M248 4097v143l523-267v-147l-523 271Z" style="fill:#c8beb9"/><path d="M248 4097v143l523-267v-147l-523 271Z" style="fill:none;fill-rule:nonzero;stroke:#7c7467;stroke-width:30.71px;stroke-linecap:round;stroke-linejoin:round"/><path d="M246 4246v-143l522 268v146l-522-271Z" style="fill:#f3e4d5"/><path d="M246 4246v-143l522 268v146l-522-271Z" style="fill:none;fill-rule:nonzero;stroke:#7c7467;stroke-width:30.71px;stroke-linecap:round;stroke-linejoin:round"/><path d="M246 3827v143l522-268v-146l-522 271Z" style="fill:#c8beb9"/><path d="M246 3827v143l522-268v-146l-522 271Z" style="fill:none;fill-rule:nonzero;stroke:#7c7467;stroke-width:30.71px;stroke-linecap:round;stroke-linejoin:round"/><path d="M243 3970v-143l522 268v146l-522-271Z" style="fill:#f3e4d5"/><path d="M243 3970v-143l522 268v146l-522-271Z" style="fill:none;fill-rule:nonzero;stroke:#7c7467;stroke-width:30.71px;stroke-linecap:round;stroke-linejoin:round"/><path d="M247 3701v-143l522 268v146l-522-271Z" style="fill:#f3e4d5"/><path d="M247 3701v-143l522 268v146l-522-271Z" style="fill:none;fill-rule:nonzero;stroke:#7c7467;stroke-width:30.71px;stroke-linecap:round;stroke-linejoin:round"/><path d="M3039 2608v-143l522 268v146l-522-271Z" style="fill:#c8beb9"/><path d="M3039 2608v-143l522 268v146l-522-271Z" style="fill:none;fill-rule:nonzero;stroke:#7c7467;stroke-width:30.71px;stroke-linecap:round;stroke-linejoin:round"/><path d="M3041 2338v-144l523 268v147l-523-271Z" style="fill:#c8beb9"/><path d="M3041 2338v-144l523 268v147l-523-271Z" style="fill:none;fill-rule:nonzero;stroke:#7c7467;stroke-width:30.71px;stroke-linecap:round;stroke-linejoin:round"/><path d="M3036 2464v144l523-268v-147l-523 271Z" style="fill:#f3e4d5"/><path d="M3036 2464v144l523-268v-147l-523 271Z" style="fill:none;fill-rule:nonzero;stroke:#7c7467;stroke-width:30.71px;stroke-linecap:round;stroke-linejoin:round"/><path d="M3043 2883v-143l522 267v147l-522-271Z" style="fill:#c8beb9"/><path d="M3043 2883v-143l522 267v147l-522-271Z" style="fill:none;fill-rule:nonzero;stroke:#7c7467;stroke-width:30.71px;stroke-linecap:round;stroke-linejoin:round"/><path d="M3040 2734v143l522-268v-147l-522 272Z" style="fill:#f3e4d5"/><path d="M3040 2734v143l522-268v-147l-522 272Z" style="fill:none;fill-rule:nonzero;stroke:#7c7467;stroke-width:30.71px;stroke-linecap:round;stroke-linejoin:round"/><path d="M3040 3153v-143l522 268v147l-522-272Z" style="fill:#c8beb9"/><path d="M3040 3153v-143l522 268v147l-522-272Z" style="fill:none;fill-rule:nonzero;stroke:#7c7467;stroke-width:30.71px;stroke-linecap:round;stroke-linejoin:round"/><path d="M3037 3010v143l523-268v-147l-523 272Z" style="fill:#f3e4d5"/><path d="M3037 3010v143l523-268v-147l-523 272Z" style="fill:none;fill-rule:nonzero;stroke:#7c7467;stroke-width:30.71px;stroke-linecap:round;stroke-linejoin:round"/><path d="M3041 3279v143l523-268v-146l-523 271Z" style="fill:#f3e4d5"/><path d="M3041 3279v143l523-268v-146l-523 271Z" style="fill:none;fill-rule:nonzero;stroke:#7c7467;stroke-width:30.71px;stroke-linecap:round;stroke-linejoin:round"/><path d="M3042 2064v-143l523 268v147l-523-272Z" style="fill:#c8beb9"/><path d="M3042 2064v-143l523 268v147l-523-272Z" style="fill:none;fill-rule:nonzero;stroke:#7c7467;stroke-width:30.71px;stroke-linecap:round;stroke-linejoin:round"/><path d="M3037 2191v143l522-267v-147l-522 271Z" style="fill:#f3e4d5"/><path d="M3037 2191v143l522-267v-147l-522 271Z" style="fill:none;fill-rule:nonzero;stroke:#7c7467;stroke-width:30.71px;stroke-linecap:round;stroke-linejoin:round"/><path d="M3037 3972v-143l522 268v146l-522-271Z" style="fill:#c8beb9"/><path d="M3037 3972v-143l522 268v146l-522-271Z" style="fill:none;fill-rule:nonzero;stroke:#7c7467;stroke-width:30.71px;stroke-linecap:round;stroke-linejoin:round"/><path d="M3039 3702v-144l523 268v147l-523-271Z" style="fill:#c8beb9"/><path d="M3039 3702v-144l523 268v147l-523-271Z" style="fill:none;fill-rule:nonzero;stroke:#7c7467;stroke-width:30.71px;stroke-linecap:round;stroke-linejoin:round"/><path d="M3034 3828v144l523-268v-147l-523 271Z" style="fill:#f3e4d5"/><path d="M3034 3828v144l523-268v-147l-523 271Z" style="fill:none;fill-rule:nonzero;stroke:#7c7467;stroke-width:30.71px;stroke-linecap:round;stroke-linejoin:round"/><path d="M3041 4247v-143l522 267v147l-522-271Z" style="fill:#c8beb9"/><path d="M3041 4247v-143l522 267v147l-522-271Z" style="fill:none;fill-rule:nonzero;stroke:#7c7467;stroke-width:30.71px;stroke-linecap:round;stroke-linejoin:round"/><path d="M3038 4098v143l523-268v-147l-523 272Z" style="fill:#f3e4d5"/><path d="M3038 4098v143l523-268v-147l-523 272Z" style="fill:none;fill-rule:nonzero;stroke:#7c7467;stroke-width:30.71px;stroke-linecap:round;stroke-linejoin:round"/><path d="M3038 4517v-143l522 268v147l-522-272Z" style="fill:#c8beb9"/><path d="M3038 4517v-143l522 268v147l-522-272Z" style="fill:none;fill-rule:nonzero;stroke:#7c7467;stroke-width:30.71px;stroke-linecap:round;stroke-linejoin:round"/><path d="M3035 4374v143l523-268v-147l-523 272Z" style="fill:#f3e4d5"/><path d="M3035 4374v143l523-268v-147l-523 272Z" style="fill:none;fill-rule:nonzero;stroke:#7c7467;stroke-width:30.71px;stroke-linecap:round;stroke-linejoin:round"/><path d="M3039 4643v143l523-268v-146l-523 271Z" style="fill:#f3e4d5"/><path d="M3039 4643v143l523-268v-146l-523 271Z" style="fill:none;fill-rule:nonzero;stroke:#7c7467;stroke-width:30.71px;stroke-linecap:round;stroke-linejoin:round"/><path d="M3040 3428v-143l523 268v147l-523-272Z" style="fill:#c8beb9"/><path d="M3040 3428v-143l523 268v147l-523-272Z" style="fill:none;fill-rule:nonzero;stroke:#7c7467;stroke-width:30.71px;stroke-linecap:round;stroke-linejoin:round"/><path d="M3035 3555v143l522-267v-147l-522 271Z" style="fill:#f3e4d5"/><path d="M3035 3555v143l522-267v-147l-522 271Z" style="fill:none;fill-rule:nonzero;stroke:#7c7467;stroke-width:30.71px;stroke-linecap:round;stroke-linejoin:round"/><path d="M3039 1248v-143l522 268v146l-522-271Z" style="fill:#c8beb9"/><path d="M3039 1248v-143l522 268v146l-522-271Z" style="fill:none;fill-rule:nonzero;stroke:#7c7467;stroke-width:30.71px;stroke-linecap:round;stroke-linejoin:round"/><path d="M3041 977V834l523 268v146l-523-271Z" style="fill:#c8beb9"/><path d="M3041 977V834l523 268v146l-523-271Z" style="fill:none;fill-rule:nonzero;stroke:#7c7467;stroke-width:30.71px;stroke-linecap:round;stroke-linejoin:round"/><path d="M3036 1104v143l523-267V833l-523 271Z" style="fill:#f3e4d5"/><path d="M3036 1104v143l523-267V833l-523 271Z" style="fill:none;fill-rule:nonzero;stroke:#7c7467;stroke-width:30.71px;stroke-linecap:round;stroke-linejoin:round"/><path d="M3043 1522v-143l522 268v147l-522-272Z" style="fill:#c8beb9"/><path d="M3043 1522v-143l522 268v147l-522-272Z" style="fill:none;fill-rule:nonzero;stroke:#7c7467;stroke-width:30.71px;stroke-linecap:round;stroke-linejoin:round"/><path d="M3040 1373v144l522-268v-147l-522 271Z" style="fill:#f3e4d5"/><path d="M3040 1373v144l522-268v-147l-522 271Z" style="fill:none;fill-rule:nonzero;stroke:#7c7467;stroke-width:30.71px;stroke-linecap:round;stroke-linejoin:round"/><path d="M3040 1793v-143l522 268v146l-522-271Z" style="fill:#c8beb9"/><path d="M3040 1793v-143l522 268v146l-522-271Z" style="fill:none;fill-rule:nonzero;stroke:#7c7467;stroke-width:30.71px;stroke-linecap:round;stroke-linejoin:round"/><path d="M3037 1649v143l523-267v-147l-523 271Z" style="fill:#f3e4d5"/><path d="M3037 1649v143l523-267v-147l-523 271Z" style="fill:none;fill-rule:nonzero;stroke:#7c7467;stroke-width:30.71px;stroke-linecap:round;stroke-linejoin:round"/><path d="M3041 1919v143l523-268v-147l-523 272Z" style="fill:#f3e4d5"/><path d="M3041 1919v143l523-268v-147l-523 272Z" style="fill:none;fill-rule:nonzero;stroke:#7c7467;stroke-width:30.71px;stroke-linecap:round;stroke-linejoin:round"/><path d="M1562 234h-146l274 508h150l-278-508Z" style="fill:#c8beb9"/><path d="M1562 234h-146l274 508h150l-278-508Z" style="fill:none;fill-rule:nonzero;stroke:#7c7467;stroke-width:30.71px;stroke-linecap:round;stroke-linejoin:round"/><path d="M1285 236h-146l274 509h150l-278-509Z" style="fill:#c8beb9"/><path d="M1285 236h-146l274 509h150l-278-509Z" style="fill:none;fill-rule:nonzero;stroke:#7c7467;stroke-width:30.71px;stroke-linecap:round;stroke-linejoin:round"/><path d="M1415 231h147l-274 509h-151l278-509Z" style="fill:#f3e4d5"/><path d="M1415 231h147l-274 509h-151l278-509Z" style="fill:none;fill-rule:nonzero;stroke:#7c7467;stroke-width:30.71px;stroke-linecap:round;stroke-linejoin:round"/><path d="M1843 237h-146l274 509h150l-278-509Z" style="fill:#c8beb9"/><path d="M1843 237h-146l274 509h150l-278-509Z" style="fill:none;fill-rule:nonzero;stroke:#7c7467;stroke-width:30.71px;stroke-linecap:round;stroke-linejoin:round"/><path d="M1691 235h146l-274 509h-150l278-509Z" style="fill:#f3e4d5"/><path d="M1691 235h146l-274 509h-150l278-509Z" style="fill:none;fill-rule:nonzero;stroke:#7c7467;stroke-width:30.71px;stroke-linecap:round;stroke-linejoin:round"/><path d="M2678 237h-146l274 509h150l-278-509Z" style="fill:#c8beb9"/><path d="M2678 237h-146l274 509h150l-278-509Z" style="fill:none;fill-rule:nonzero;stroke:#7c7467;stroke-width:30.71px;stroke-linecap:round;stroke-linejoin:round"/><path d="M2120 235h-146l274 509h150l-278-509Z" style="fill:#c8beb9"/><path d="M2120 235h-146l274 509h150l-278-509Z" style="fill:none;fill-rule:nonzero;stroke:#7c7467;stroke-width:30.71px;stroke-linecap:round;stroke-linejoin:round"/><path d="M1973 232h147l-274 509h-151l278-509Z" style="fill:#f3e4d5"/><path d="M1973 232h147l-274 509h-151l278-509Z" style="fill:none;fill-rule:nonzero;stroke:#7c7467;stroke-width:30.71px;stroke-linecap:round;stroke-linejoin:round"/><path d="M2401 240h-146l274 509h150l-278-509Z" style="fill:#c8beb9"/><path d="M2401 240h-146l274 509h150l-278-509Z" style="fill:none;fill-rule:nonzero;stroke:#7c7467;stroke-width:30.71px;stroke-linecap:round;stroke-linejoin:round"/><path d="M2249 236h146l-274 509h-150l278-509Z" style="fill:#f3e4d5"/><path d="M2249 236h146l-274 509h-150l278-509Z" style="fill:none;fill-rule:nonzero;stroke:#7c7467;stroke-width:30.71px;stroke-linecap:round;stroke-linejoin:round"/><path d="M2531 235h147l-274 508h-151l278-508Z" style="fill:#f3e4d5"/><path d="M2531 235h147l-274 508h-151l278-508Z" style="fill:none;fill-rule:nonzero;stroke:#7c7467;stroke-width:30.71px;stroke-linecap:round;stroke-linejoin:round"/><path d="M2958 238h-146l274 509h150l-278-509Z" style="fill:#c8beb9"/><path d="M2958 238h-146l274 509h150l-278-509Z" style="fill:none;fill-rule:nonzero;stroke:#7c7467;stroke-width:30.71px;stroke-linecap:round;stroke-linejoin:round"/><path d="M2807 238h146l-274 509h-150l278-509Z" style="fill:#f3e4d5"/><path d="M2807 238h146l-274 509h-150l278-509Z" style="fill:none;fill-rule:nonzero;stroke:#7c7467;stroke-width:30.71px;stroke-linecap:round;stroke-linejoin:round"/><path d="M1006 237H859l274 509h150l-277-509Z" style="fill:#c8beb9"/><path d="M1006 237H859l274 509h150l-277-509Z" style="fill:none;fill-rule:nonzero;stroke:#7c7467;stroke-width:30.71px;stroke-linecap:round;stroke-linejoin:round"/><path d="M731 232H585l274 509h150L731 232Z" style="fill:#c8beb9"/><path d="M731 232H585l274 509h150L731 232Z" style="fill:none;fill-rule:nonzero;stroke:#7c7467;stroke-width:30.71px;stroke-linecap:round;stroke-linejoin:round"/><path d="M1135 232h147l-274 509H858l277-509Z" style="fill:#f3e4d5"/><path d="M1135 232h147l-274 509H858l277-509Z" style="fill:none;fill-rule:nonzero;stroke:#7c7467;stroke-width:30.71px;stroke-linecap:round;stroke-linejoin:round"/><path d="M454 232H307l274 509h150L454 232Z" style="fill:#c8beb9"/><path d="M454 232H307l274 509h150L454 232Z" style="fill:none;fill-rule:nonzero;stroke:#7c7467;stroke-width:30.71px;stroke-linecap:round;stroke-linejoin:round"/><path d="M859 232h146L731 741H581l278-509Z" style="fill:#f3e4d5"/><path d="M859 232h146L731 741H581l278-509Z" style="fill:none;fill-rule:nonzero;stroke:#7c7467;stroke-width:30.71px;stroke-linecap:round;stroke-linejoin:round"/><path d="M585 232h146L457 741H307l278-509Z" style="fill:#f3e4d5"/><path d="M585 232h146L457 741H307l278-509Z" style="fill:none;fill-rule:nonzero;stroke:#7c7467;stroke-width:30.71px;stroke-linecap:round;stroke-linejoin:round"/><path d="M3235 236h-146l274 509h150l-278-509Z" style="fill:#c8beb9"/><path d="M3235 236h-146l274 509h150l-278-509Z" style="fill:none;fill-rule:nonzero;stroke:#7c7467;stroke-width:30.71px;stroke-linecap:round;stroke-linejoin:round"/><path d="M3088 233h147l-274 509h-150l277-509Z" style="fill:#f3e4d5"/><path d="M3088 233h147l-274 509h-150l277-509Z" style="fill:none;fill-rule:nonzero;stroke:#7c7467;stroke-width:30.71px;stroke-linecap:round;stroke-linejoin:round"/><path d="M3364 237h146l-274 509h-150l278-509Z" style="fill:#f3e4d5"/><path d="M3364 237h146l-274 509h-150l278-509Z" style="fill:none;fill-rule:nonzero;stroke:#7c7467;stroke-width:30.71px;stroke-linecap:round;stroke-linejoin:round"/><path d="M1570 4862h-146l274 508h150l-278-508Z" style="fill:#c8beb9"/><path d="M1570 4862h-146l274 508h150l-278-508Z" style="fill:none;fill-rule:nonzero;stroke:#7c7467;stroke-width:30.71px;stroke-linecap:round;stroke-linejoin:round"/><path d="M1293 4864h-146l274 509h150l-278-509Z" style="fill:#c8beb9"/><path d="M1293 4864h-146l274 509h150l-278-509Z" style="fill:none;fill-rule:nonzero;stroke:#7c7467;stroke-width:30.71px;stroke-linecap:round;stroke-linejoin:round"/><path d="M1423 4859h147l-275 509h-150l278-509Z" style="fill:#f3e4d5"/><path d="M1423 4859h147l-275 509h-150l278-509Z" style="fill:none;fill-rule:nonzero;stroke:#7c7467;stroke-width:30.71px;stroke-linecap:round;stroke-linejoin:round"/><path d="M1851 4865h-146l274 509h150l-278-509Z" style="fill:#c8beb9"/><path d="M1851 4865h-146l274 509h150l-278-509Z" style="fill:none;fill-rule:nonzero;stroke:#7c7467;stroke-width:30.71px;stroke-linecap:round;stroke-linejoin:round"/><path d="M1699 4863h146l-274 509h-150l278-509Z" style="fill:#f3e4d5"/><path d="M1699 4863h146l-274 509h-150l278-509Z" style="fill:none;fill-rule:nonzero;stroke:#7c7467;stroke-width:30.71px;stroke-linecap:round;stroke-linejoin:round"/><path d="M2686 4865h-146l274 509h150l-278-509Z" style="fill:#c8beb9"/><path d="M2686 4865h-146l274 509h150l-278-509Z" style="fill:none;fill-rule:nonzero;stroke:#7c7467;stroke-width:30.71px;stroke-linecap:round;stroke-linejoin:round"/><path d="M2128 4863h-146l274 509h150l-278-509Z" style="fill:#c8beb9"/><path d="M2128 4863h-146l274 509h150l-278-509Z" style="fill:none;fill-rule:nonzero;stroke:#7c7467;stroke-width:30.71px;stroke-linecap:round;stroke-linejoin:round"/><path d="M1981 4860h147l-275 509h-150l278-509Z" style="fill:#f3e4d5"/><path d="M1981 4860h147l-275 509h-150l278-509Z" style="fill:none;fill-rule:nonzero;stroke:#7c7467;stroke-width:30.71px;stroke-linecap:round;stroke-linejoin:round"/><path d="M2409 4868h-146l274 508h150l-278-508Z" style="fill:#c8beb9"/><path d="M2409 4868h-146l274 508h150l-278-508Z" style="fill:none;fill-rule:nonzero;stroke:#7c7467;stroke-width:30.71px;stroke-linecap:round;stroke-linejoin:round"/><path d="M2257 4864h146l-274 509h-150l278-509Z" style="fill:#f3e4d5"/><path d="M2257 4864h146l-274 509h-150l278-509Z" style="fill:none;fill-rule:nonzero;stroke:#7c7467;stroke-width:30.71px;stroke-linecap:round;stroke-linejoin:round"/><path d="M2539 4862h146l-274 509h-150l278-509Z" style="fill:#f3e4d5"/><path d="M2539 4862h146l-274 509h-150l278-509Z" style="fill:none;fill-rule:nonzero;stroke:#7c7467;stroke-width:30.71px;stroke-linecap:round;stroke-linejoin:round"/><path d="M2962 4868h-146l274 509h150l-278-509Z" style="fill:#c8beb9"/><path d="M2962 4868h-146l274 509h150l-278-509Z" style="fill:none;fill-rule:nonzero;stroke:#7c7467;stroke-width:30.71px;stroke-linecap:round;stroke-linejoin:round"/><path d="M2815 4866h146l-274 509h-150l278-509Z" style="fill:#f3e4d5"/><path d="M2815 4866h146l-274 509h-150l278-509Z" style="fill:none;fill-rule:nonzero;stroke:#7c7467;stroke-width:30.71px;stroke-linecap:round;stroke-linejoin:round"/><path d="M1014 4865H867l274 509h150l-278-509Z" style="fill:#c8beb9"/><path d="M1014 4865H867l274 509h150l-278-509Z" style="fill:none;fill-rule:nonzero;stroke:#7c7467;stroke-width:30.71px;stroke-linecap:round;stroke-linejoin:round"/><path d="M734 4866H588l274 509h150l-278-509Z" style="fill:#c8beb9"/><path d="M734 4866H588l274 509h150l-278-509Z" style="fill:none;fill-rule:nonzero;stroke:#7c7467;stroke-width:30.71px;stroke-linecap:round;stroke-linejoin:round"/><path d="M1143 4860h147l-274 509H866l277-509Z" style="fill:#f3e4d5"/><path d="M1143 4860h147l-274 509H866l277-509Z" style="fill:none;fill-rule:nonzero;stroke:#7c7467;stroke-width:30.71px;stroke-linecap:round;stroke-linejoin:round"/><path d="M3239 4865h-146l274 509h150l-278-509Z" style="fill:#c8beb9"/><path d="M3239 4865h-146l274 509h150l-278-509Z" style="fill:none;fill-rule:nonzero;stroke:#7c7467;stroke-width:30.71px;stroke-linecap:round;stroke-linejoin:round"/><path d="M3092 4863h147l-274 509h-151l278-509Z" style="fill:#f3e4d5"/><path d="M3092 4863h147l-274 509h-151l278-509Z" style="fill:none;fill-rule:nonzero;stroke:#7c7467;stroke-width:30.71px;stroke-linecap:round;stroke-linejoin:round"/><path d="M3368 4867h146l-274 509h-150l278-509Z" style="fill:#f3e4d5"/><path d="M3368 4867h146l-274 509h-150l278-509Z" style="fill:none;fill-rule:nonzero;stroke:#7c7467;stroke-width:30.71px;stroke-linecap:round;stroke-linejoin:round"/><path d="M864 4861h147l-274 509H586l278-509Z" style="fill:#f3e4d5"/><path d="M864 4861h147l-274 509H586l278-509Z" style="fill:none;fill-rule:nonzero;stroke:#7c7467;stroke-width:30.71px;stroke-linecap:round;stroke-linejoin:round"/><path d="M455 4867H308l274 508h150l-277-508Z" style="fill:#c8beb9"/><path d="M455 4867H308l274 508h150l-277-508Z" style="fill:none;fill-rule:nonzero;stroke:#7c7467;stroke-width:30.71px;stroke-linecap:round;stroke-linejoin:round"/><path d="M584 4861h147l-274 509H307l277-509Z" style="fill:#f3e4d5"/><path d="M584 4861h147l-274 509H307l277-509Z" style="fill:none;fill-rule:nonzero;stroke:#7c7467;stroke-width:30.71px;stroke-linecap:round;stroke-linejoin:round"/></g></svg>