<?xml version="1.0" encoding="UTF-8" standalone="no"?><!DOCTYPE svg PUBLIC "-//W3C//DTD SVG 1.1//EN" "http://www.w3.org/Graphics/SVG/1.1/DTD/svg11.dtd"><svg width="100%" height="100%" viewBox="0 0 267 267" version="1.1" xmlns="http://www.w3.org/2000/svg" xmlns:xlink="http://www.w3.org/1999/xlink" xml:space="preserve" xmlns:serif="http://www.serif.com/" style="fill-rule:evenodd;clip-rule:evenodd;stroke-linejoin:round;stroke-miterlimit:2;"><g transform="matrix(5.55556,0,0,5.55556,-1697.24,-312.379)"><g id="hearts" transform="matrix(1,0,0,1,240.057,57.411)"><rect x="65.446" y="-1.183" width="47.972" height="48.014" style="fill:none;"/><g transform="matrix(3.14618,0,0,2.46706,-1061.26,-346.228)"><path d="M365.743,144.78c1.473,-3.125 4.418,-3.125 5.891,-1.562c1.472,1.562 1.472,4.688 -0,7.813c-1.031,2.344 -3.682,4.688 -5.891,6.251c-2.209,-1.563 -4.86,-3.907 -5.891,-6.251c-1.473,-3.125 -1.473,-6.251 0,-7.813c1.473,-1.563 4.418,-1.563 5.891,1.562Z" style="fill:#fff;"/></g></g></g></svg>