<svg viewBox="0 0 1564 1837" xmlns="http://www.w3.org/2000/svg" xml:space="preserve" style="fill-rule:evenodd;clip-rule:evenodd;stroke-linejoin:round;stroke-miterlimit:2"><path style="fill:none" d="M0 0h1563v1837H0z"/><path d="M1546 833c-14 558-356 774-778 767-423-8-794-340-751-794C59 357 368 20 791 28c422 7 767 351 755 805Z" style="fill:#fff;fill-rule:nonzero"/><path d="M1207 819c-23 138-60 229-145 210-79-18-150-134-128-272 23-137 81-234 170-213 78 19 125 138 103 275Z" style="fill:#f9f9f9;fill-rule:nonzero"/><path d="M1019 616c41 2 70 69 65 148-4 80-40 143-80 140-41-2-70-68-65-148 4-79 40-142 80-140Z" style="fill:#666;fill-rule:nonzero"/><path d="m1005 630 5 2 5 4 4 6 3 7a65 65 0 0 1 4 19 99 99 0 0 1-5 42 86 86 0 0 1-9 17l-5 6-5 4-6 3h-5l-5-2c-2 0-4-2-5-3l-4-6-4-7a62 62 0 0 1-4-19 98 98 0 0 1 3-32 98 98 0 0 1 11-27l5-6 6-5 5-2 6-1ZM639 777c18 138-23 249-103 258-80 8-157-101-175-239s10-248 102-253c80-4 159 96 176 234Z" style="fill:#f9f9f9;fill-rule:nonzero"/><path d="M950 916c4 1 6-2 4-10-3-10-1-11 7-2 45 40 97-8 112-39 15-30 22-54 26-98 4-55-2-160-70-166-13-1-31 3-41 8-13 7-11 4 19-32 50-56 99-40 135 4 15 22 27 39 37 67 42 132 27 248-54 368 4 3 13 3 19-1 63-64 80-167 79-245-1-79-23-158-67-209-40-44-91-60-142-21-87 58-112 270-64 376Zm123-238c21 75-3 196-65 215-48 13-66-66-63-124 4-52 5-61 10-80 4-15 8-24 15-33 40-56 85-33 103 22Zm-710-72c-6 19-13 70-14 103 0 78 13 164 62 222 7 8 13 11 15 7 1-1-1-4-4-7l-10-15-4-10 5 2c23 6 53 3 67-14 24-29 29-91 18-148-13-76-54-145-112-122l-8 4 2-8c11-33 34-52 60-60 71-20 122 45 145 97 59 110 43 286-2 341-11 11-14 17-11 21l8 2c87-90 78-261 29-374-30-56-63-95-107-108-47-11-91-1-121 35-7 9-14 20-18 32Zm42 32c94 4 105 297 16 250-65-34-67-250-16-250Zm599-284c-4-9-4-10-1-21 4-17 6-19 9-11l5 14c1 4 2 12 1 17-1 8-2 9-6 10-3 0-5-2-8-9Zm39 9c-5-7-7-16-6-36 0-17 1-20 7-29l10-16 5-5-2 29 1 37c3 19 3 19-1 22-5 4-10 3-14-2Zm-778 97c34-71 98-112 162-134 29-10 43-13 70-16 14-2 16-2 18 2 4 6 3 9-1 14-3 3-11 5-29 8a281 281 0 0 0-215 164c-23 79-13-18-5-38Zm1072 130c-25-56-45-112-87-162a267 267 0 0 0-150-88c-13 0-19-12-9-18 7-4 19-3 41 4 39 13 71 31 108 62 54 44 85 110 106 175 4 13 4 36 1 36-2 0-6-4-10-9Z" style="fill:#666;fill-rule:nonzero"/><path d="M114 1252C-21 1118-7 767 40 591a769 769 0 0 1 279-413 738 738 0 0 1 775-96c108 58 216 147 302 255a785 785 0 0 1 161 440c9 176-26 385-114 507-11 11-21 7-16-7l18-33 15-29c44-107 74-242 76-341 15-202-57-390-172-533a882 882 0 0 0-337-257 707 707 0 0 0-637 75A770 770 0 0 0 33 793a773 773 0 0 0 95 462c-2 4-9 3-14-3Z" style="fill:#666;fill-rule:nonzero"/><path d="M407 624c38-6 79 51 90 127 12 75-10 142-48 147-38 6-79-50-90-126-12-76 10-142 48-148Z" style="fill:#666;fill-rule:nonzero"/><path d="m403 647 5 1 5 3 5 5 4 7a63 63 0 0 1 6 17 93 93 0 0 1 2 31 97 97 0 0 1-5 20 60 60 0 0 1-7 14l-5 5c-1 2-3 3-5 3a14 14 0 0 1-10 0c-2 0-4-1-5-3l-5-5-4-6a63 63 0 0 1-6-18 91 91 0 0 1-1-31 98 98 0 0 1 4-19 60 60 0 0 1 7-15l5-5 5-3 5-1Z" style="fill:#f9f9f9;fill-rule:nonzero"/><path d="M761 911c-29 1-54 22-64 49-15 38-14 82 0 121 14 32 37 60 61 86-97 6-195 1-293 12-46 5-93 13-138 28-27 12-52 35-54 66-2 19 5 38 17 53-30 6-62 14-81 39-25 26-23 68-4 96 19 29 53 43 86 51l33 6c-13 14-27 30-26 51 0 30 18 59 42 76 25 15 51 29 80 32 4 2 14 0 15 4-10 23-6 52 12 70 27 28 66 38 102 45 38 6 77 5 115 8 81 6 163 7 243-7 83-10 169-27 240-73 57-36 99-93 121-156 18-49 27-101 30-152-1-81-30-160-80-223-34-44-81-77-133-98-50-21-104-33-154-54-29-13-60-28-79-55-16-22-28-47-48-65-12-10-28-10-43-10Z" style="fill:#666;fill-rule:nonzero"/><path d="M774 936c15 1 20 9 46 46l25 37c27 30 75 44 124 59l100 34c126 48 187 145 205 304-1 31-3 44-8 67-41 196-157 264-364 289-87 9-194 14-295 4-36-1-99-3-141-46-12-17-11-29 4-43 11-11 17-12 62-10 39 1 83-6 127-8 14 1 19-1 22-11 3-11 1-16-8-18-7-1-12-1-38 4-49 9-93 16-145 12-76-5-84-6-113-19-40-18-92-69-16-103 86-26 165-5 269-17 26 2 29 2 34-1s6-5 6-11-1-8-7-12c-9-6-18-7-38-2l-38 4c-61 2-237 22-324-23-46-25-69-78-9-110 24-11 39-12 87-10a2297 2297 0 0 0 281-3c14 1 15 1 21-6 9-8 9-15 2-22-5-5-6-5-18-5-7 0-23 3-34 7-53 14-118 10-178 13-12-1-29-3-50-8-23-5-63-12-62-53 3-51 79-56 119-65 87-10 211-12 326-17 47-4 76-4 115-1 31 2 39 2 42 0 6-5 1-9-14-14-10-2-24-4-51-6-36-2-38-3-46-7l-7-6 42 2c24 1 48 2 54 1l12-1-10-1c-5-1-31-4-58-5l-49-3-6-6c-4-3-6-6-5-7h30l34-2c7-2-35-6-55-5-15 1-15 1-20-4l-6-7c0-1 9-2 19-1h18l-9-3-21-3c-14-1-17-3-28-24-12-22-16-37-16-71-1-29 8-79 48-83h13Z" style="fill:#fff;fill-rule:nonzero"/></svg>