<?xml version="1.0" encoding="UTF-8" standalone="no"?><!DOCTYPE svg PUBLIC "-//W3C//DTD SVG 1.1//EN" "http://www.w3.org/Graphics/SVG/1.1/DTD/svg11.dtd"><svg width="100%" height="100%" viewBox="0 0 267 267" version="1.1" xmlns="http://www.w3.org/2000/svg" xmlns:xlink="http://www.w3.org/1999/xlink" xml:space="preserve" xmlns:serif="http://www.serif.com/" style="fill-rule:evenodd;clip-rule:evenodd;stroke-linecap:round;stroke-linejoin:round;stroke-miterlimit:1.5;"><g transform="matrix(5.55556,0,0,5.55556,-1380.47,-463.778)"><g id="solitaire" transform="matrix(1,0,0,1,183.04,84.6627)"><rect x="65.446" y="-1.183" width="47.972" height="48.014" style="fill:none;"/><g transform="matrix(0.843411,0.494396,-0.505707,0.862706,16.9812,-136.079)"><path d="M156.481,82.984c1.695,0 3.069,1.344 3.069,3c-0,5.629 -0,17.711 -0,23.339c-0,1.657 -1.374,3 -3.069,3c-4.395,0 -12.434,0 -16.829,0c-1.695,0 -3.069,-1.343 -3.069,-3c0,-5.628 0,-17.71 0,-23.339c0,-1.656 1.374,-3 3.069,-3c4.395,0 12.434,0 16.829,0Z" style="fill:#fff;stroke:#000;stroke-width:1.01px;"/></g><g transform="matrix(0.943287,0.256864,-0.26274,0.964867,-25.7202,-109.432)"><path d="M156.481,82.984c1.695,0 3.069,1.344 3.069,3c-0,5.629 -0,17.711 -0,23.339c-0,1.657 -1.374,3 -3.069,3c-4.395,0 -12.434,0 -16.829,0c-1.695,0 -3.069,-1.343 -3.069,-3c0,-5.628 0,-17.71 0,-23.339c0,-1.656 1.374,-3 3.069,-3c4.395,0 12.434,0 16.829,0Z" style="fill:#fff;stroke:#000;stroke-width:1.01px;"/></g><g transform="matrix(0.977635,0,0,1,-60.4712,-72.6627)"><path d="M156.481,82.984c1.695,0 3.069,1.344 3.069,3c-0,5.629 -0,17.711 -0,23.339c-0,1.657 -1.374,3 -3.069,3c-4.395,0 -12.434,0 -16.829,0c-1.695,0 -3.069,-1.343 -3.069,-3c0,-5.628 0,-17.71 0,-23.339c0,-1.656 1.374,-3 3.069,-3c4.395,0 12.434,0 16.829,0Z" style="fill:#fff;stroke:#000;stroke-width:1.01px;"/></g><g transform="matrix(1,0,0,1,-63.6113,-73.681)"><path d="M147.895,96.246c0.724,-1.53 2.171,-1.53 2.895,-0.765c0.723,0.765 0.723,2.295 -0,3.825c-0.507,1.147 -1.809,2.294 -2.895,3.059c-1.085,-0.765 -2.388,-1.912 -2.895,-3.059c-0.723,-1.53 -0.723,-3.06 0,-3.825c0.724,-0.765 2.171,-0.765 2.895,0.765Z" style="fill:none;stroke:#000;stroke-width:1px;"/></g><g><g transform="matrix(1,0,0,1,-52.6013,-54.3167)"><path d="M140.532,90.87l1.963,-4.817l1.963,4.817" style="fill:none;stroke:#000;stroke-width:1px;"/></g><g transform="matrix(1,0,0,1,-64.0395,-72.3312)"><path d="M152.683,107.466l2.515,0" style="fill:none;stroke:#000;stroke-width:1px;"/></g></g><g transform="matrix(1,0,0,1,-11.4431,-18.3231)"><g transform="matrix(1,0,0,1,-52.6013,-54.3167)"><path d="M140.532,90.87l1.963,-4.817l1.963,4.817" style="fill:none;stroke:#000;stroke-width:1px;"/></g><g transform="matrix(1,0,0,1,-64.0395,-72.3312)"><path d="M152.683,107.466l2.515,0" style="fill:none;stroke:#000;stroke-width:1px;"/></g></g></g></g></svg>