<?xml version="1.0" encoding="UTF-8" standalone="no"?><!DOCTYPE svg PUBLIC "-//W3C//DTD SVG 1.1//EN" "http://www.w3.org/Graphics/SVG/1.1/DTD/svg11.dtd"><svg width="100%" height="100%" viewBox="0 0 267 267" version="1.1" xmlns="http://www.w3.org/2000/svg" xmlns:xlink="http://www.w3.org/1999/xlink" xml:space="preserve" xmlns:serif="http://www.serif.com/" style="fill-rule:evenodd;clip-rule:evenodd;stroke-linejoin:round;stroke-miterlimit:2;"><g transform="matrix(5.55556,0,0,5.55556,-1999.49,-312.379)"><g id="spades" transform="matrix(1,0,0,1,294.463,57.411)"><rect x="65.446" y="-1.183" width="47.972" height="48.014" style="fill:none;"/><g transform="matrix(2.32289,0,0,2.53045,-796.945,-351.055)"><path d="M380.917,151.968c-2.103,2.108 -5.472,1.973 -7.247,0.655c-1.979,-1.468 -1.979,-4.404 -0,-7.34c1.385,-2.202 4.946,-4.404 7.914,-5.873c2.968,1.469 6.529,3.671 7.914,5.873c1.978,2.936 1.978,5.872 -0,7.34c-1.736,1.288 -4.994,1.446 -7.103,-0.516c-0.056,1.472 0.394,2.801 1.344,3.987l-4.311,-0c1.108,-1.127 1.619,-2.496 1.489,-4.126Z" style="fill:#fff;"/></g></g></g></svg>