<?xml version="1.0" encoding="UTF-8" standalone="no"?><!DOCTYPE svg PUBLIC "-//W3C//DTD SVG 1.1//EN" "http://www.w3.org/Graphics/SVG/1.1/DTD/svg11.dtd"><svg width="100%" height="100%" viewBox="0 0 267 267" version="1.1" xmlns="http://www.w3.org/2000/svg" xmlns:xlink="http://www.w3.org/1999/xlink" xml:space="preserve" xmlns:serif="http://www.serif.com/" style="fill-rule:evenodd;clip-rule:evenodd;stroke-linecap:round;stroke-linejoin:round;stroke-miterlimit:1.5;"><g transform="matrix(5.55556,0,0,5.55556,-1022.22,-66.6667)"><g id="terminal" transform="matrix(1,0,0,1,118.554,13.1827)"><rect x="65.446" y="-1.183" width="47.972" height="48.014" style="fill:none;"/><g><g transform="matrix(0.992009,0,0,1.00731,0.882146,-1.73449)"><path d="M104.403,10.543c1.671,0 3.025,1.334 3.025,2.978c-0,5.302 -0,16.318 -0,21.62c-0,1.644 -1.354,2.978 -3.025,2.978c-6.639,-0 -22.429,-0 -29.069,-0c-1.67,-0 -3.024,-1.334 -3.024,-2.978c0,-5.302 0,-16.318 0,-21.62c0,-1.644 1.354,-2.978 3.024,-2.978c6.64,0 22.43,0 29.069,0Z" style="fill:#fff;stroke:#000;stroke-width:1px;"/></g><g transform="matrix(0.953681,0,0,1,4.90371,-1.18268)"><path d="M96.35,19.698l5.534,5.469l-5.639,5.436" style="fill:#fff;stroke:#000;stroke-width:1.02px;"/></g><g transform="matrix(-0.953681,0,0,1,175.299,-1.18268)"><path d="M96.35,19.698l5.534,5.469l-5.639,5.436" style="fill:#fff;stroke:#000;stroke-width:1.02px;"/></g><g transform="matrix(0.994563,0.0152111,0.0152111,0.957442,0.417792,-1.10459)"><path d="M92.578,17.6l-5.49,15.362" style="fill:none;stroke:#000;stroke-width:1.01px;"/></g><g transform="matrix(1,0,0,1,0.445703,-1.33643)"><circle cx="76.693" cy="14.773" r="0.996"/></g><g transform="matrix(1,0,0,1,4.60791,-1.33643)"><circle cx="76.693" cy="14.773" r="0.996"/></g></g></g></g></svg>