<?xml version="1.0" encoding="UTF-8" standalone="no"?><!DOCTYPE svg PUBLIC "-//W3C//DTD SVG 1.1//EN" "http://www.w3.org/Graphics/SVG/1.1/DTD/svg11.dtd"><svg width="100%" height="100%" viewBox="0 0 267 267" version="1.1" xmlns="http://www.w3.org/2000/svg" xmlns:xlink="http://www.w3.org/1999/xlink" xml:space="preserve" xmlns:serif="http://www.serif.com/" style="fill-rule:evenodd;clip-rule:evenodd;stroke-linecap:round;stroke-linejoin:round;stroke-miterlimit:1.5;"><g transform="matrix(5.55556,0,0,5.55556,-897.139,-493.369)"><g id="excalidraw" transform="matrix(1,0,0,1,96.0394,89.9892)"><rect x="65.446" y="-1.183" width="47.972" height="48.014" style="fill:none;"/><g transform="matrix(0.921768,0,0,0.921768,73.5414,5.19114)"><path d="M35.632,9.265c-0.026,0.708 -0.329,1.378 -0.845,1.865c-4.025,3.815 -22.023,20.873 -27.073,25.659c-0.347,0.329 -0.813,0.504 -1.291,0.485c-0.478,-0.02 -0.928,-0.233 -1.246,-0.589c-1.139,-1.271 -2.822,-3.152 -3.907,-4.364c-0.603,-0.675 -0.606,-1.695 -0.006,-2.372c4.345,-4.906 20.825,-23.517 24.561,-27.736c0.483,-0.546 1.166,-0.873 1.894,-0.907c2.498,-0.118 8.232,-0.386 8.232,-0.386c-0,-0 -0.223,5.851 -0.319,8.345Zm-6.641,-3.757c-1.291,0 -2.338,1.047 -2.337,2.337c-0.001,1.29 1.046,2.337 2.336,2.337c1.29,-0 2.337,-1.047 2.337,-2.337c0,-1.289 -1.047,-2.337 -2.336,-2.337Z" style="fill:#fff;stroke:#000;stroke-width:1px;"/></g><g transform="matrix(0.886309,0,0,0.886309,71.5238,5.82114)"><path d="M11.513,18.262c-0.211,0.23 -0.507,0.363 -0.819,0.367c-0.312,0.004 -0.612,-0.122 -0.828,-0.347c-1.801,-1.876 -6.019,-6.27 -7.618,-7.936c-0.408,-0.425 -0.666,-0.972 -0.735,-1.557c-0.266,-2.24 -0.932,-7.869 -0.932,-7.869c-0,-0 5.528,0.703 7.772,0.988c0.603,0.077 1.163,0.352 1.593,0.782c1.62,1.62 5.774,5.773 7.493,7.492c0.427,0.427 0.442,1.114 0.035,1.56c-1.407,1.538 -4.49,4.911 -5.961,6.52Z" style="fill:#fff;stroke:#000;stroke-width:1px;"/></g><g transform="matrix(0.895061,0,0,0.895061,89.5189,24.6505)"><path d="M1.934,9.325c-0.221,-0.217 -0.342,-0.515 -0.335,-0.824c0.008,-0.31 0.143,-0.602 0.374,-0.808c1.612,-1.438 4.989,-4.45 6.522,-5.817c0.442,-0.394 1.115,-0.375 1.533,0.044c1.931,1.93 6.939,6.939 6.939,6.939c0.695,0.694 0.695,1.82 -0.001,2.516c-1.418,1.418 -3.712,3.712 -5.136,5.136c-0.703,0.703 -1.841,0.709 -2.55,0.013c-1.967,-1.927 -5.676,-5.562 -7.346,-7.199Z" style="fill:#fff;stroke:#000;stroke-width:1px;"/></g></g></g></svg>