<?xml version="1.0" encoding="UTF-8" standalone="no"?><!DOCTYPE svg PUBLIC "-//W3C//DTD SVG 1.1//EN" "http://www.w3.org/Graphics/SVG/1.1/DTD/svg11.dtd"><svg width="100%" height="100%" viewBox="0 0 267 267" version="1.1" xmlns="http://www.w3.org/2000/svg" xmlns:xlink="http://www.w3.org/1999/xlink" xml:space="preserve" xmlns:serif="http://www.serif.com/" style="fill-rule:evenodd;clip-rule:evenodd;stroke-linecap:round;stroke-linejoin:round;stroke-miterlimit:1.5;"><g transform="matrix(5.55556,0,0,5.55556,-661.111,-77.7778)"><g id="file" transform="matrix(1,0,0,1,36.466,14)"><rect x="82.534" y="0" width="47.983" height="48" style="fill:none;"/><g transform="matrix(1,0,0,1,0.468428,-0.183747)"><g transform="matrix(0.956133,0,0,0.975681,83.554,0.224027)"><path d="M27.436,8.715l8.018,7.857l-0,20.776c-0,0.809 -0.328,1.585 -0.912,2.157c-0.584,0.572 -1.376,0.894 -2.201,0.894c-4.553,-0 -12.982,-0 -17.562,-0c-1.747,-0 -3.162,-1.387 -3.162,-3.099c-0,-6.062 -0,-19.425 -0,-25.486c-0,-1.712 1.415,-3.099 3.162,-3.099l12.657,-0Z" style="fill:#fff;stroke:#000;stroke-width:1.04px;"/></g><g transform="matrix(0.959907,0,0,1,83.934,0)"><path d="M26.605,8.727l0,5.705c0,1.082 0.915,1.96 2.043,1.96c2.461,-0 6.27,-0 6.27,-0" style="fill:none;stroke:#000;stroke-width:1.02px;"/></g><g transform="matrix(1,0,0,1,82.534,0)"><path d="M16.306,21.531l13.808,0" style="fill:none;stroke:#000;stroke-width:1px;"/></g><g transform="matrix(1,0,0,1,82.534,5.23781)"><path d="M16.306,21.531l13.808,0" style="fill:none;stroke:#000;stroke-width:1px;"/></g><g transform="matrix(0.343344,0,0,1,93.2413,10.159)"><path d="M16.306,21.531l13.808,0" style="fill:none;stroke:#000;stroke-width:1.34px;"/></g></g></g></g></svg>