<?xml version="1.0" encoding="UTF-8" standalone="no"?>
<!DOCTYPE svg PUBLIC "-//W3C//DTD SVG 1.1//EN" "http://www.w3.org/Graphics/SVG/1.1/DTD/svg11.dtd">
<svg width="100%" height="100%" viewBox="0 0 48 48" version="1.1" xmlns="http://www.w3.org/2000/svg" xmlns:xlink="http://www.w3.org/1999/xlink" xml:space="preserve" xmlns:serif="http://www.serif.com/" style="fill-rule:evenodd;clip-rule:evenodd;stroke-linecap:round;stroke-linejoin:round;stroke-miterlimit:1.5;">
    <g id="folder">
        <g transform="matrix(1.26649,0,0,1,-12.1584,1.24183)">
            <path d="M42.627,9C43.261,9 43.868,9.319 44.316,9.886C44.764,10.453 45.016,11.223 45.016,12.025C45.016,13.918 45.016,16 45.016,16L24,16L24,9L42.627,9Z" style="fill:rgb(255,227,232);stroke:black;stroke-width:0.88px;"/>
        </g>
        <g transform="matrix(1.26649,0,0,1,-12.1584,1.24183)">
            <path d="M42.627,9C43.261,9 43.868,9.319 44.316,9.886C44.764,10.453 45.016,11.223 45.016,12.025C45.016,13.918 45.016,16 45.016,16L24,16L24,9L42.627,9Z" style="fill-opacity:0.2;"/>
        </g>
        <g transform="matrix(1.08721,0,0,0.888581,-2.53662,1.51583)">
            <path d="M40.838,13.774C42.349,13.769 43.579,15.258 43.59,17.106C43.627,23.013 43.701,35.233 43.738,41.172C43.743,42.068 43.456,42.93 42.94,43.566C42.424,44.202 41.722,44.56 40.989,44.56C33.849,44.56 14.875,44.56 7.783,44.56C7.06,44.56 6.367,44.209 5.856,43.583C5.345,42.958 5.058,42.11 5.058,41.226C5.058,33.954 5.058,16.739 5.058,9.426C5.058,7.56 6.294,6.047 7.82,6.047C10.691,6.047 15.052,6.047 17.136,6.047C17.896,6.047 18.623,6.427 19.148,7.1C20.809,9.227 24.408,13.837 24.408,13.837C24.408,13.837 35.545,13.795 40.838,13.774Z" style="fill:rgb(255,227,232);stroke:black;stroke-width:1.01px;"/>
        </g>
        <g transform="matrix(1,0,0,1,0,1.63088)">
            <path d="M6,36L42,36" style="fill:none;stroke:black;stroke-width:1px;"/>
        </g>
        <path d="M42.034,10.242C42.825,10.242 43.583,10.556 44.142,11.115C44.701,11.674 45.016,12.433 45.016,13.223C45.016,19.122 45.016,32.221 45.016,38.124C45.016,39.774 43.678,41.111 42.028,41.111L42,41.111L42,10.242L42.034,10.242Z" style="fill-opacity:0.15;"/>
        <path d="M45.016,37.631L45.016,38.132C45.016,38.922 44.702,39.68 44.143,40.239C43.584,40.797 42.827,41.111 42.036,41.111C34.316,41.111 13.725,41.111 5.971,41.111C4.309,41.111 2.962,39.764 2.962,38.102C2.962,37.816 2.962,37.631 2.962,37.631L45.016,37.631Z" style="fill-opacity:0.15;"/>
    </g>
</svg>
